<svg width="148" height="150" viewBox="0 0 148 150" fill="none" xmlns="http://www.w3.org/2000/svg">
<path d="M0.648438 76.6464C0.648438 36.1823 33.4122 3.37065 73.8583 3.2931C114.173 3.21586 147.186 36.018 147.354 76.3323C147.467 103.26 133.069 126.835 111.531 139.685C110.833 140.101 109.962 140.112 109.271 139.684C98.0664 132.747 84.855 128.742 70.7083 128.742C58.5951 128.742 47.1679 131.678 37.099 136.878C35.3365 137.788 33.2131 137.655 31.5951 136.507C12.8685 123.216 0.648438 101.358 0.648438 76.6464Z" fill="#2F035F"/>
<path d="M103.288 136.356C93.4723 131.483 82.4104 128.742 70.7083 128.742C65.5786 128.742 60.5723 129.269 55.7397 130.271C33.4924 118.684 18.3008 95.4135 18.3008 68.5946C18.3008 39.6916 35.9451 14.9099 61.0502 4.43293C65.2089 3.69191 69.4888 3.30149 73.8586 3.2931C114.174 3.21586 147.186 36.018 147.355 76.3323C147.43 94.2269 141.097 110.64 130.519 123.41C122.629 129.568 113.376 134.06 103.288 136.356Z" fill="#1E003E"/>
<path d="M126.097 112.346C126.097 117.131 124.055 121.616 120.348 124.973C119.775 125.492 119.056 125.748 118.339 125.748C117.522 125.748 116.71 125.416 116.119 124.763C115.009 123.537 115.103 121.644 116.328 120.534C118.767 118.327 120.109 115.419 120.109 112.346C120.109 109.273 118.767 106.366 116.328 104.158L115.508 103.415C111.8 100.058 109.758 95.5737 109.758 90.7878C109.758 86.0024 111.8 81.518 115.508 78.1611C116.734 77.0518 118.627 77.1452 119.737 78.371C120.846 79.597 120.752 81.4901 119.527 82.6C117.089 84.8072 115.746 87.715 115.746 90.7878C115.746 93.8608 117.088 96.7686 119.527 98.9761L120.347 99.7192C124.055 103.076 126.097 107.561 126.097 112.346Z" fill="#015AAD"/>
<path d="M147.056 43.5634C147.056 61.0083 132.915 77.8448 115.47 77.8448C98.0247 77.8448 83.8828 61.0083 83.8828 43.5634C83.8828 26.1185 98.0247 11.9766 115.47 11.9766C132.915 11.9766 147.056 26.1185 147.056 43.5634Z" fill="#FCB30B"/>
<path d="M122.891 76.8122C123.876 77.5328 124.452 78.4041 124.452 79.3427C124.452 81.823 120.43 83.8337 115.47 83.8337C110.509 83.8337 106.488 81.823 106.488 79.3427C106.488 78.4041 107.064 77.5328 108.048 76.8122C94.184 72.8987 83.8828 58.4532 83.8828 43.5643C83.8828 31.7658 90.3517 21.478 99.9361 16.0547C97.3403 20.6415 95.8589 25.9418 95.8589 31.5882C95.8589 49.0331 110.001 65.8697 127.446 65.8697C132.612 65.8697 137.489 64.3927 141.794 61.8607C137.452 69.0011 130.743 74.5957 122.891 76.8122Z" fill="#FC9302"/>
<path d="M133.185 24.6889C137.277 28.7811 139.173 33.5203 137.419 35.2742C135.665 37.0281 130.926 35.1323 126.833 31.0401C122.741 26.9478 120.845 22.2086 122.599 20.4547C124.353 18.7008 129.092 20.5963 133.185 24.6889Z" fill="#FDED32"/>
<path d="M111.428 44.912V62.8761C111.428 64.5296 110.088 65.8701 108.434 65.8701H34.4393C32.7857 65.8701 31.4453 64.5296 31.4453 62.8761V44.912C31.4453 43.2584 32.7857 41.918 34.4393 41.918H108.434C110.088 41.918 111.428 43.2584 111.428 44.912Z" fill="#1E003E"/>
<path d="M77.9784 50.6407C77.9784 52.1467 76.7578 53.3674 75.2518 53.3674H67.617C66.111 53.3674 64.8904 52.1467 64.8904 50.6407C64.8904 49.1347 66.111 47.9141 67.617 47.9141H75.2518C76.7575 47.9141 77.9784 49.1347 77.9784 50.6407ZM85.0676 47.9141C83.5616 47.9141 82.341 49.1347 82.341 50.6407C82.341 52.1467 83.5616 53.3674 85.0676 53.3674C86.5736 53.3674 87.7943 52.1467 87.7943 50.6407C87.7943 49.1347 86.5736 47.9141 85.0676 47.9141ZM57.8009 47.9141C56.2949 47.9141 55.0742 49.1347 55.0742 50.6407C55.0742 52.1467 56.2949 53.3674 57.8009 53.3674C59.3069 53.3674 60.5275 52.1467 60.5275 50.6407C60.5275 49.1347 59.3069 47.9141 57.8009 47.9141Z" fill="#FF576B"/>
<path d="M31.4453 57.9141H111.428V139.749C100.472 146.261 87.6741 150.001 74.0031 150.001C58.1366 150.001 43.4465 144.963 31.4453 136.401V57.9141Z" fill="#BBE0FB"/>
<path d="M44.168 57.9141H111.426V133.014C103.708 135.773 95.3925 137.277 86.7258 137.277C72.0365 137.277 58.356 132.959 46.8835 125.523C45.1856 124.423 44.168 122.529 44.168 120.506V57.9141Z" fill="#FFF5F5"/>
<path d="M85.0455 99.6195C85.0455 102.626 82.6084 105.063 79.6018 105.063C76.5952 105.063 74.1581 102.626 74.1581 99.6195C74.1581 96.6132 76.5952 94.1758 79.6018 94.1758C82.6084 94.1758 85.0455 96.6132 85.0455 99.6195ZM95.9329 94.1758C92.9263 94.1758 90.4892 96.6129 90.4892 99.6195C90.4892 102.626 92.9263 105.063 95.9329 105.063C98.9395 105.063 101.377 102.626 101.377 99.6195C101.377 96.6132 98.9392 94.1758 95.9329 94.1758ZM46.9398 126.838C43.9332 126.838 41.4961 129.275 41.4961 132.281C41.4961 135.288 43.9332 137.725 46.9398 137.725C49.9464 137.725 52.3835 135.288 52.3835 132.281C52.3835 129.275 49.9464 126.838 46.9398 126.838Z" fill="#FF576B"/>
<path d="M82.9635 71.3205H59.9096C58.6694 71.3205 57.6641 70.3151 57.6641 69.075V68.1127C57.6641 66.8726 58.6694 65.8672 59.9096 65.8672H82.9635C84.2036 65.8672 85.209 66.8726 85.209 68.1127V69.075C85.209 70.3151 84.2036 71.3205 82.9635 71.3205ZM46.9398 77.8432C43.9332 77.8432 41.4961 80.2804 41.4961 83.2869C41.4961 86.2935 43.9332 88.7307 46.9398 88.7307C49.9464 88.7307 52.3835 86.2932 52.3835 83.2869C52.3835 80.2807 49.9464 77.8432 46.9398 77.8432ZM68.7147 83.2869C68.7147 86.2935 66.2775 88.7307 63.2709 88.7307C60.2644 88.7307 57.8272 86.2932 57.8272 83.2869C57.8272 80.2807 60.2644 77.8432 63.2709 77.8432C66.2772 77.8432 68.7147 80.2804 68.7147 83.2869ZM85.0455 83.2869C85.0455 86.2935 82.6084 88.7307 79.6018 88.7307C76.5952 88.7307 74.1581 86.2932 74.1581 83.2869C74.1581 80.2807 76.5955 77.8432 79.6018 77.8432C82.6081 77.8432 85.0455 80.2804 85.0455 83.2869ZM90.4892 83.2869C90.4892 80.2804 92.9263 77.8432 95.9329 77.8432C98.9395 77.8432 101.377 80.2804 101.377 83.2869C101.377 86.2935 98.9395 88.7307 95.9329 88.7307C92.9263 88.7307 90.4892 86.2932 90.4892 83.2869ZM52.3835 99.6178C52.3835 102.624 49.9464 105.061 46.9398 105.061C43.9332 105.061 41.4961 102.624 41.4961 99.6178C41.4961 96.6115 43.9332 94.1741 46.9398 94.1741C49.9464 94.1741 52.3835 96.6115 52.3835 99.6178ZM68.7147 99.6178C68.7147 102.624 66.2775 105.061 63.2709 105.061C60.2644 105.061 57.8272 102.624 57.8272 99.6178C57.8272 96.6115 60.2644 94.1741 63.2709 94.1741C66.2772 94.1741 68.7147 96.6115 68.7147 99.6178ZM52.3835 115.949C52.3835 118.955 49.9464 121.392 46.9398 121.392C43.9332 121.392 41.4961 118.955 41.4961 115.949C41.4961 112.942 43.9332 110.505 46.9398 110.505C49.9464 110.505 52.3835 112.942 52.3835 115.949ZM68.7147 115.949C68.7147 118.955 66.2775 121.392 63.2709 121.392C60.2644 121.392 57.8272 118.955 57.8272 115.949C57.8272 112.942 60.2644 110.505 63.2709 110.505C66.2772 110.505 68.7147 112.942 68.7147 115.949ZM85.0455 115.949C85.0455 118.955 82.6084 121.392 79.6018 121.392C76.5952 121.392 74.1581 118.955 74.1581 115.949C74.1581 112.942 76.5952 110.505 79.6018 110.505C82.6084 110.505 85.0455 112.942 85.0455 115.949ZM101.377 115.949C101.377 118.955 98.9395 121.392 95.9329 121.392C92.9263 121.392 90.4892 118.955 90.4892 115.949C90.4892 112.942 92.9263 110.505 95.9329 110.505C98.9392 110.505 101.377 112.942 101.377 115.949ZM68.7147 132.28C68.7147 135.286 66.2775 137.723 63.2709 137.723C60.2644 137.723 57.8272 135.286 57.8272 132.28C57.8272 129.273 60.2644 126.836 63.2709 126.836C66.2772 126.836 68.7147 129.273 68.7147 132.28Z" fill="#B1C9EB"/>
<path d="M42.863 100.37C42.863 105.155 40.821 109.639 37.1133 112.997C36.5402 113.515 35.8213 113.771 35.1046 113.771C34.2881 113.771 33.4752 113.439 32.8842 112.787C31.7743 111.561 31.8683 109.667 33.0941 108.558C35.5324 106.35 36.8749 103.442 36.8749 100.37C36.8749 97.2968 35.5324 94.389 33.0941 92.1815L32.2734 91.4384C28.5654 88.0812 26.5234 83.5971 26.5234 78.8112C26.5237 74.0259 28.5654 69.5414 32.2731 66.1845C33.4992 65.0753 35.3926 65.1687 36.5022 66.3944C37.6121 67.6205 37.518 69.5136 36.2923 70.6235C33.8543 72.8306 32.5118 75.7384 32.5115 78.8112C32.5115 81.8842 33.854 84.792 36.2923 86.9995L37.113 87.7426C40.821 91.0998 42.863 95.5842 42.863 100.37Z" fill="#968DCA"/>
<path d="M63.8221 31.5868C63.8221 49.0317 49.6802 65.8683 32.2353 65.8683C14.7904 65.8683 0.648438 49.0317 0.648438 31.5868C0.648438 14.1419 14.7904 0 32.2353 0C49.6802 0 63.8221 14.1419 63.8221 31.5868Z" fill="#FF576B"/>
<path d="M39.6565 64.8356C40.6413 65.5563 41.2173 66.4275 41.2173 67.3661C41.2173 69.8464 37.196 71.8572 32.2353 71.8572C27.2745 71.8572 23.2532 69.8464 23.2532 67.3661C23.2532 66.4275 23.8293 65.5563 24.814 64.8356C10.9496 60.9221 0.648438 46.4766 0.648438 31.5877C0.648438 19.7892 7.1173 9.50148 16.7017 4.07812C14.1059 8.66495 12.6245 13.9653 12.6245 19.6117C12.6245 37.0566 26.7664 53.8931 44.2113 53.8931C49.3778 53.8931 54.2544 52.4161 58.5601 49.8841C54.2179 57.0245 47.5086 62.6191 39.6565 64.8356Z" fill="#F7495E"/>
<path d="M49.9502 12.7123C54.0424 16.8045 55.9382 21.5437 54.1843 23.2976C52.4304 25.0515 47.6912 23.1557 43.599 19.0635C39.5068 14.9713 37.6109 10.2321 39.3648 8.47816C41.1187 6.72427 45.8579 8.61978 49.9502 12.7123Z" fill="#FD92D2"/>
</svg>
