<svg width="" height="" viewBox="0 0 150 150" fill="none" xmlns="http://www.w3.org/2000/svg">
<g clip-path="url(#clip0_8041_20471)">
<path d="M75.0078 -0.0078125C116.429 -0.0078125 150.008 33.5712 150.008 74.9922C150.008 116.415 116.429 149.992 75.0078 149.992C33.5868 149.992 0.0078125 116.415 0.0078125 74.9922C0.0078125 33.5697 33.5868 -0.0078125 75.0078 -0.0078125Z" fill="#1E003E"/>
<path d="M33.6093 30.1307L59.6898 37.1012C62.0913 37.7432 63.5163 40.2047 62.8713 42.5987L34.9188 146.676C34.2753 149.07 31.8093 150.494 29.4078 149.852L3.32883 142.88C0.927335 142.238 -0.497665 139.778 0.147335 137.381L28.0998 33.3062C28.7418 30.9107 31.2108 29.4887 33.6093 30.1307Z" fill="#FF576B"/>
<path d="M24.4475 117.238C28.448 118.31 30.8225 122.423 29.75 126.422C28.6775 130.424 24.566 132.8 20.5655 131.728C16.5635 130.655 14.189 126.542 15.2615 122.54C16.334 118.541 20.4455 116.165 24.4475 117.238Z" fill="#390473"/>
<path d="M25.6129 112.935C19.2109 111.224 12.6319 115.016 10.9159 121.404C9.19993 127.793 13.0009 134.36 19.4014 136.073C25.8034 137.784 32.3824 133.992 34.0984 127.604C35.8144 121.215 32.0164 114.65 25.6129 112.935ZM29.7529 126.441C28.6804 130.434 24.5674 132.804 20.5669 131.735C16.5664 130.665 14.1919 126.561 15.2644 122.568C16.3369 118.575 20.4484 116.205 24.4489 117.275C28.4509 118.344 30.8254 122.448 29.7529 126.441ZM54.4084 45.9286L34.4224 40.5316C33.6349 40.3186 32.8249 40.7911 32.6119 41.5846L18.0784 96.2356C17.8669 97.0291 18.3364 97.8466 19.1239 98.0611L39.1084 103.455C39.8959 103.67 40.7059 103.197 40.9174 102.404L55.4509 47.7511C55.6639 46.9561 55.1959 46.1386 54.4084 45.9286Z" fill="white"/>
<path d="M30.1995 65.9883L29.4075 68.7978L44.205 72.5643L44.997 69.7533L30.1995 65.9883ZM27.543 75.7293L42.3405 79.4928L43.1325 76.6833L28.335 72.9183L27.543 75.7293Z" fill="#B2B2B2"/>
<path d="M35.283 49.4883L49.491 53.1963L47.2065 61.5003L33 57.7908L35.283 49.4883Z" fill="#26A6D1"/>
<path d="M103.508 32.9922H130.508C132.993 32.9922 135.008 35.0082 135.008 37.4922V145.492C135.008 147.979 132.993 149.992 130.508 149.992H103.508C101.022 149.992 99.0078 147.979 99.0078 145.492V37.4922C99.0078 35.0067 101.022 32.9922 103.508 32.9922Z" fill="#FF576B"/>
<path d="M116.258 121.492C120.813 121.492 124.508 124.849 124.508 128.992C124.508 133.135 120.813 136.492 116.258 136.492C111.702 136.492 108.008 133.135 108.008 128.992C108.008 124.849 111.702 121.492 116.258 121.492Z" fill="#390473"/>
<path d="M67.5078 32.9961H94.5078C96.9933 32.9961 99.0078 35.0121 99.0078 37.4961V145.496C99.0078 147.983 96.9933 149.996 94.5078 149.996H67.5078C65.0223 149.996 63.0078 147.983 63.0078 145.496V37.4961C63.0078 35.0106 65.0223 32.9961 67.5078 32.9961Z" fill="#FF576B"/>
<path d="M81.0078 121.492C85.1508 121.492 88.5078 124.849 88.5078 128.992C88.5078 133.135 85.1508 136.492 81.0078 136.492C76.8648 136.492 73.5078 133.135 73.5078 128.992C73.5078 124.849 76.8648 121.492 81.0078 121.492Z" fill="#390473"/>
<path d="M81.0078 116.991C74.3808 116.991 69.0078 122.364 69.0078 128.991C69.0078 135.618 74.3808 140.991 81.0078 140.991C87.6348 140.991 93.0078 135.618 93.0078 128.991C93.0078 122.364 87.6348 116.991 81.0078 116.991ZM81.0078 136.491C76.8648 136.491 73.5078 133.134 73.5078 128.991C73.5078 124.848 76.8648 121.491 81.0078 121.491C85.1508 121.491 88.5078 124.848 88.5078 128.991C88.5078 133.134 85.1508 136.491 81.0078 136.491ZM91.5078 44.9922H70.5078C69.6783 44.9922 69.0078 45.6627 69.0078 46.4922V103.492C69.0078 104.322 69.6783 104.992 70.5078 104.992H91.5078C92.3373 104.992 93.0078 104.322 93.0078 103.492V46.4922C93.0078 45.6627 92.3373 44.9922 91.5078 44.9922Z" fill="white"/>
<path d="M73.5078 68.9922V71.9922H88.5078V68.9922H73.5078ZM73.5078 79.4907H88.5078V76.4907H73.5078V79.4907Z" fill="#B2B2B2"/>
<path d="M73.5078 53.9922H88.5078V62.9922H73.5078V53.9922Z" fill="#4BBFAA"/>
<path d="M66.0078 145.492V37.4922C66.0078 35.0082 68.0223 32.9922 70.5078 32.9922H67.5078C65.0223 32.9922 63.0078 35.0082 63.0078 37.4922V145.492C63.0078 147.979 65.0223 149.992 67.5078 149.992H70.5078C68.0223 149.992 66.0078 147.979 66.0078 145.492ZM102.008 145.492V37.4922C102.008 35.0082 104.022 32.9922 106.508 32.9922H103.508C101.022 32.9922 99.0078 35.0082 99.0078 37.4922V145.492C99.0078 147.979 101.022 149.992 103.508 149.992H106.508C104.022 149.992 102.008 147.979 102.008 145.492Z" fill="#344B57"/>
<path d="M116.257 121.492C113.436 121.492 110.947 122.781 109.461 124.747C110.893 123.654 112.741 122.992 114.757 122.992C119.313 122.992 123.007 126.349 123.007 130.492C123.007 132.072 122.47 133.53 121.554 134.74C123.358 133.363 124.507 131.301 124.507 128.992C124.507 124.849 120.813 121.492 116.257 121.492Z" fill="#1E003E"/>
<path d="M117.008 116.991C110.381 116.991 105.008 122.364 105.008 128.991C105.008 135.618 110.381 140.991 117.008 140.991C123.635 140.991 129.008 135.618 129.008 128.991C129.008 122.364 123.635 116.991 117.008 116.991ZM117.008 136.491C112.865 136.491 109.508 133.134 109.508 128.991C109.508 124.848 112.865 121.491 117.008 121.491C121.151 121.491 124.508 124.848 124.508 128.991C124.508 133.134 121.151 136.491 117.008 136.491ZM127.508 44.9922H106.508C105.678 44.9922 105.008 45.6627 105.008 46.4922V103.492C105.008 104.322 105.678 104.992 106.508 104.992H127.508C128.337 104.992 129.008 104.322 129.008 103.492V46.4922C129.008 45.6627 128.337 44.9922 127.508 44.9922Z" fill="white"/>
<path d="M109.508 68.9922V71.9922H124.508V68.9922H109.508ZM109.508 79.4907H124.508V76.4907H109.508V79.4907Z" fill="#B2B2B2"/>
<path d="M109.508 53.9922H124.508V62.9922H109.508V53.9922Z" fill="#F4B459"/>
<path d="M81.0078 121.492C78.5523 121.492 76.3953 122.688 75.0273 124.513C76.2798 123.57 77.8203 122.992 79.5078 122.992C83.6508 122.992 87.0078 126.349 87.0078 130.492C87.0078 132.18 86.4303 133.72 85.4883 134.974C87.3123 133.606 88.5078 131.446 88.5078 128.992C88.5078 124.849 85.1508 121.492 81.0078 121.492Z" fill="#1E003E"/>
<path d="M24.4494 117.236C21.3819 116.416 18.2634 117.629 16.4844 120.037C18.2664 118.684 20.6184 118.112 22.9494 118.736C26.9499 119.809 29.3244 123.922 28.2519 127.921C28.0014 128.855 27.5724 129.694 27.0309 130.426C28.3104 129.457 29.3049 128.093 29.7519 126.421C30.8244 122.422 28.4499 118.309 24.4494 117.236Z" fill="#1E003E"/>
<path d="M33.6092 30.1312C31.2092 29.4877 28.7417 30.9112 28.0982 33.3052L0.147235 137.381C-0.497765 139.778 0.928735 142.238 3.32873 142.88L5.69123 143.513C3.30773 142.856 1.89623 140.369 2.53673 137.984L30.4892 33.9082C31.1012 31.6312 33.3632 30.2557 35.6462 30.6757L33.6092 30.1312Z" fill="#344B57"/>
</g>
<defs>
<clipPath id="clip0_8041_20471">
<rect width="150" height="150" fill="white"/>
</clipPath>
</defs>
</svg>
