<svg width="37" height="32" viewBox="0 0 37 32" fill="none" xmlns="http://www.w3.org/2000/svg">
<path d="M21.75 2.2211C21.75 0.58104 19.7895 -0.267471 18.5925 0.853883L11.187 7.79488C10.7004 8.25061 10.0584 8.50414 9.3915 8.50397H4.875C3.58207 8.50397 2.34209 9.01729 1.42785 9.93101C0.513614 10.8447 0 12.084 0 13.3762V18.6112C0 19.9033 0.513614 21.1426 1.42785 22.0563C2.34209 22.97 3.58207 23.4833 4.875 23.4833H9.393C10.059 23.4833 10.701 23.7382 11.187 24.1924L18.5925 31.1274C19.791 32.2488 21.75 31.4003 21.75 29.7602V2.2211ZM12.726 9.43494L19.5 3.0846V28.8937L12.726 22.5494C11.8225 21.7036 10.6309 21.233 9.393 21.2331H4.875C4.17881 21.2331 3.51113 20.9567 3.01884 20.4647C2.52656 19.9727 2.25 19.3054 2.25 18.6097V13.3747C2.25 11.9265 3.426 10.7512 4.875 10.7512H9.3915C10.6303 10.7508 11.8226 10.2792 12.726 9.43194V9.43494Z" fill="#9A9AA9"/>
<path d="M31.0543 2.87648C30.8546 2.66281 30.5795 2.53527 30.2874 2.52089C29.9952 2.50652 29.7089 2.60645 29.4892 2.79949C29.2695 2.99253 29.1337 3.2635 29.1106 3.55493C29.0874 3.84637 29.1788 4.13536 29.3653 4.36061C32.1984 7.57246 33.7584 11.709 33.7512 15.9907C33.7512 20.4476 32.0967 24.5162 29.3653 27.6194C29.2625 27.7294 29.1829 27.8589 29.1311 28.0002C29.0793 28.1415 29.0565 28.2917 29.0639 28.442C29.0713 28.5924 29.1088 28.7396 29.1742 28.8752C29.2396 29.0107 29.3316 29.1318 29.4447 29.2312C29.5577 29.3305 29.6896 29.4062 29.8325 29.4537C29.9754 29.5012 30.1264 29.5195 30.2765 29.5076C30.4266 29.4957 30.5728 29.4538 30.7064 29.3844C30.84 29.315 30.9583 29.2195 31.0543 29.1035C34.2483 25.4819 36.0076 20.8184 36.0012 15.9907C36.0012 10.9657 34.1337 6.37392 31.0543 2.87648Z" fill="#9A9AA9"/>
<path d="M27.525 7.4517C27.4363 7.33357 27.3253 7.23406 27.1982 7.15883C27.071 7.0836 26.9303 7.03413 26.7841 7.01325C26.6378 6.99237 26.4889 7.00049 26.3458 7.03713C26.2027 7.07377 26.0682 7.13823 25.95 7.22682C25.8318 7.31542 25.7322 7.42641 25.657 7.55346C25.5817 7.68051 25.5322 7.82113 25.5113 7.9673C25.4904 8.11347 25.4985 8.26232 25.5352 8.40535C25.5719 8.54839 25.6364 8.6828 25.725 8.80092C27.2841 10.8742 28.125 13.3987 28.1205 15.9923C28.1205 18.6908 27.2295 21.1793 25.725 23.1837C25.6364 23.3018 25.5719 23.4362 25.5352 23.5793C25.4985 23.7223 25.4904 23.8711 25.5113 24.0173C25.5322 24.1635 25.5817 24.3041 25.657 24.4312C25.7322 24.5582 25.8318 24.6692 25.95 24.7578C26.0682 24.8464 26.2027 24.9108 26.3458 24.9475C26.4889 24.9841 26.6378 24.9922 26.7841 24.9714C26.9303 24.9505 27.071 24.901 27.1982 24.8258C27.3253 24.7506 27.4363 24.651 27.525 24.5329C29.3762 22.0704 30.375 19.0725 30.3705 15.9923C30.3751 12.9121 29.3763 9.9142 27.525 7.4517Z" fill="#9A9AA9"/>
</svg>
