<svg width="647" height="365" viewBox="0 0 647 365" fill="none" xmlns="http://www.w3.org/2000/svg">
<g opacity="0.6">
<path d="M-4.98375 364.349C-4.98375 364.349 -85.8354 277.54 -18.6692 183.566C40.9297 100.192 110.431 105.881 161.416 139.719C183.125 154.129 245.729 141.49 299.022 56.6402C371.689 -59.0692 623.583 11.1024 577.669 189.121C555.45 275.259 645.318 278.399 599.512 364.51L-4.98375 364.349Z" fill="#EBF3FA"/>
<path d="M377.163 271.743L383.362 272.763C383.845 272.843 384.301 273.058 384.65 273.353C384.999 273.648 385.267 274.051 385.374 274.48C385.401 274.614 385.428 274.748 385.428 274.883C385.428 275.017 385.428 275.124 385.401 275.258L371.125 361.745C370.938 362.872 369.784 363.623 368.523 363.462C368.469 363.462 368.442 363.462 368.388 363.436L362.19 362.416C362.136 362.416 362.109 362.389 362.055 362.389C360.794 362.121 359.936 361.047 360.123 359.92L374.399 273.433C374.426 273.299 374.453 273.192 374.507 273.058C374.56 272.924 374.614 272.816 374.694 272.682C374.936 272.306 375.312 272.011 375.741 271.85C376.17 271.716 376.653 271.662 377.163 271.743Z" fill="#FFB93E"/>
<path d="M378.747 315.617L371.1 361.933C370.939 362.926 369.785 363.57 368.523 363.436C368.47 363.436 368.443 363.436 368.389 363.409L362.191 362.389C362.137 362.389 362.11 362.363 362.056 362.363C360.795 362.094 359.937 361.128 360.098 360.135L366.806 319.508C370.16 319.401 374.883 318.623 378.747 315.617Z" fill="#FFA412"/>
<path d="M373.037 281.897L372.875 282.877L383.862 284.693L384.024 283.714L373.037 281.897Z" fill="#FFA412"/>
<path d="M372.482 285.198L372.32 286.178L383.308 287.988L383.47 287.009L372.482 285.198Z" fill="#FFA412"/>
<path d="M371.826 289.229L371.664 290.209L382.651 292.023L382.813 291.044L371.826 289.229Z" fill="#FFA412"/>
<path d="M370.83 295.309L370.668 296.289L381.656 298.102L381.818 297.122L370.83 295.309Z" fill="#FFA412"/>
<path d="M369.755 301.745L369.594 302.725L380.582 304.538L380.744 303.558L369.755 301.745Z" fill="#FFA412"/>
<path d="M368.107 311.681L367.945 312.66L378.933 314.471L379.095 313.491L368.107 311.681Z" fill="#FFA412"/>
<path d="M366.588 320.981L366.426 321.961L377.413 323.777L377.575 322.798L366.588 320.981Z" fill="#FFA412"/>
<path d="M365.228 329.239L365.066 330.219L376.055 332.032L376.216 331.052L365.228 329.239Z" fill="#FFA412"/>
<path d="M373.544 278.723L373.383 279.703L384.371 281.514L384.532 280.534L373.544 278.723Z" fill="#FFA412"/>
<path d="M373.888 276.604L373.727 277.584L384.715 279.397L384.876 278.417L373.888 276.604Z" fill="#FFA412"/>
<path d="M374.232 274.593L374.07 275.572L385.058 277.383L385.22 276.403L374.232 274.593Z" fill="#FFA412"/>
<path d="M374.32 274.079L385.296 275.877L385.403 275.26C385.43 275.125 385.43 275.018 385.43 274.884L374.535 273.086C374.481 273.193 374.454 273.327 374.428 273.462L374.32 274.079Z" fill="#FFA412"/>
<path d="M374.695 272.736L385.349 274.48C385.241 274.051 384.973 273.649 384.624 273.353L375.742 271.904C375.313 272.065 374.937 272.36 374.695 272.736Z" fill="#FFA412"/>
<path d="M388.407 271.743L394.606 272.763C395.089 272.843 395.545 273.058 395.894 273.353C396.243 273.648 396.511 274.051 396.619 274.48C396.645 274.614 396.672 274.748 396.672 274.883C396.672 275.017 396.672 275.124 396.645 275.258L382.37 361.745C382.182 362.872 381.028 363.623 379.767 363.462C379.713 363.462 379.686 363.462 379.632 363.436L373.434 362.416C373.38 362.416 373.353 362.389 373.3 362.389C372.038 362.121 371.207 361.047 371.368 359.92L385.643 273.433C385.67 273.299 385.697 273.192 385.751 273.058C385.804 272.924 385.858 272.816 385.939 272.682C386.18 272.306 386.556 272.011 386.985 271.85C387.441 271.716 387.924 271.662 388.407 271.743Z" fill="#FFB93E"/>
<path d="M389.99 315.617L382.342 361.933C382.181 362.926 381.027 363.57 379.766 363.436C379.712 363.436 379.685 363.436 379.631 363.409L373.433 362.389C373.379 362.389 373.352 362.363 373.299 362.363C372.037 362.094 371.179 361.128 371.34 360.135L378.048 319.508C381.403 319.401 386.125 318.623 389.99 315.617Z" fill="#FFA412"/>
<path d="M384.283 281.905L384.121 282.885L395.108 284.701L395.27 283.722L384.283 281.905Z" fill="#FFA412"/>
<path d="M383.74 285.214L383.578 286.193L394.566 288.004L394.728 287.024L383.74 285.214Z" fill="#FFA412"/>
<path d="M383.072 289.235L382.91 290.215L393.897 292.029L394.059 291.049L383.072 289.235Z" fill="#FFA412"/>
<path d="M382.072 295.278L381.91 296.258L392.898 298.071L393.06 297.091L382.072 295.278Z" fill="#FFA412"/>
<path d="M381.005 301.753L380.844 302.732L391.832 304.545L391.994 303.566L381.005 301.753Z" fill="#FFA412"/>
<path d="M379.353 311.722L379.191 312.701L390.178 314.515L390.34 313.536L379.353 311.722Z" fill="#FFA412"/>
<path d="M377.83 320.942L377.668 321.922L388.656 323.735L388.818 322.755L377.83 320.942Z" fill="#FFA412"/>
<path d="M376.466 329.235L376.305 330.215L387.293 332.028L387.454 331.048L376.466 329.235Z" fill="#FFA412"/>
<path d="M384.798 278.737L384.637 279.717L395.624 281.531L395.785 280.551L384.798 278.737Z" fill="#FFA412"/>
<path d="M385.158 276.622L384.996 277.602L395.984 279.412L396.146 278.433L385.158 276.622Z" fill="#FFA412"/>
<path d="M385.478 274.598L385.316 275.578L396.305 277.389L396.466 276.409L385.478 274.598Z" fill="#FFA412"/>
<path d="M385.562 274.079L396.538 275.877L396.645 275.26C396.672 275.125 396.672 275.018 396.672 274.884L385.777 273.086C385.724 273.193 385.697 273.327 385.67 273.462L385.562 274.079Z" fill="#FFA412"/>
<path d="M385.965 272.736L396.618 274.48C396.511 274.051 396.242 273.649 395.894 273.353L387.011 271.904C386.582 272.065 386.206 272.36 385.965 272.736Z" fill="#FFA412"/>
<path d="M347.271 354.768V361.048C347.271 361.558 347.137 362.014 346.896 362.389C346.654 362.792 346.305 363.114 345.903 363.302C345.769 363.355 345.661 363.409 345.527 363.436C345.393 363.463 345.285 363.463 345.151 363.463L257.511 363.248C256.384 363.248 255.444 362.228 255.391 360.94C255.391 360.887 255.391 360.86 255.391 360.806V354.527C255.391 354.473 255.391 354.446 255.391 354.393C255.444 353.132 256.384 352.085 257.511 352.112L345.151 352.327C345.285 352.327 345.393 352.353 345.527 352.353C345.661 352.38 345.795 352.434 345.903 352.488C346.305 352.675 346.654 352.997 346.896 353.4C347.137 353.802 347.271 354.259 347.271 354.768Z" fill="#FFB93E"/>
<path d="M304.202 363.383L257.242 363.275C256.222 363.275 255.417 362.256 255.363 360.968C255.363 360.914 255.363 360.887 255.363 360.833V354.554C255.363 354.501 255.363 354.474 255.363 354.42C255.417 353.159 256.249 352.112 257.269 352.139L298.459 352.246C299.103 355.52 300.633 360.055 304.202 363.383Z" fill="#FFA412"/>
<path d="M335.624 352.317L335.598 363.453L336.591 363.455L336.617 352.319L335.624 352.317Z" fill="#FFA412"/>
<path d="M332.233 352.292L332.207 363.428L333.2 363.43L333.226 352.294L332.233 352.292Z" fill="#FFA412"/>
<path d="M328.201 352.29L328.172 363.426L329.165 363.428L329.194 352.292L328.201 352.29Z" fill="#FFA412"/>
<path d="M321.991 352.276L321.965 363.412L322.958 363.414L322.984 352.278L321.991 352.276Z" fill="#FFA412"/>
<path d="M315.452 352.254L315.426 363.391L316.419 363.393L316.445 352.257L315.452 352.254Z" fill="#FFA412"/>
<path d="M305.401 352.247L305.375 363.383L306.368 363.385L306.394 352.249L305.401 352.247Z" fill="#FFA412"/>
<path d="M295.991 352.209L295.965 363.346L296.958 363.348L296.984 352.212L295.991 352.209Z" fill="#FFA412"/>
<path d="M287.584 352.188L287.555 363.324L288.548 363.327L288.577 352.191L287.584 352.188Z" fill="#FFA412"/>
<path d="M338.827 352.315L338.801 363.451L339.794 363.454L339.82 352.317L338.827 352.315Z" fill="#FFA412"/>
<path d="M340.941 352.321L340.918 363.457L341.911 363.459L341.934 352.323L340.941 352.321Z" fill="#FFA412"/>
<path d="M342.983 352.333L342.957 363.469L343.95 363.471L343.976 352.335L342.983 352.333Z" fill="#FFA412"/>
<path d="M344.535 352.354L344.508 363.49H345.125C345.259 363.49 345.367 363.49 345.501 363.463L345.528 352.407C345.393 352.38 345.286 352.38 345.152 352.38L344.535 352.354Z" fill="#FFA412"/>
<path d="M345.906 352.516L345.879 363.33C346.281 363.142 346.63 362.82 346.872 362.417L346.899 353.428C346.657 352.999 346.308 352.677 345.906 352.516Z" fill="#FFA412"/>
<path d="M337.904 343.606V349.886C337.904 350.395 337.77 350.852 337.528 351.227C337.287 351.63 336.938 351.952 336.535 352.14C336.401 352.193 336.294 352.247 336.16 352.274C336.026 352.301 335.918 352.301 335.784 352.301L248.143 352.086C247.016 352.086 246.077 351.066 246.023 349.778C246.023 349.725 246.023 349.698 246.023 349.644V343.365C246.023 343.311 246.023 343.284 246.023 343.231C246.077 341.943 247.016 340.923 248.143 340.95L335.784 341.164C335.838 341.164 335.891 341.164 335.945 341.164C335.972 341.164 335.999 341.164 336.026 341.164C336.052 341.164 336.079 341.164 336.106 341.164C336.133 341.164 336.133 341.164 336.16 341.164C336.294 341.191 336.428 341.245 336.535 341.299C336.562 341.299 336.562 341.325 336.589 341.325C336.616 341.325 336.616 341.352 336.643 341.352C336.67 341.379 336.723 341.379 336.75 341.406C336.777 341.406 336.804 341.433 336.804 341.433C336.831 341.433 336.831 341.46 336.857 341.46C336.884 341.486 336.911 341.513 336.965 341.54C336.992 341.567 337.045 341.594 337.072 341.621C337.099 341.647 337.126 341.674 337.153 341.701C337.18 341.728 337.18 341.728 337.206 341.755C337.26 341.808 337.314 341.862 337.367 341.943C337.394 341.969 337.394 341.969 337.421 341.996C337.448 342.023 337.448 342.023 337.475 342.05C337.502 342.077 337.528 342.13 337.555 342.184C337.77 342.64 337.904 343.123 337.904 343.606Z" fill="#FFB93E"/>
<path d="M294.862 352.221L247.902 352.113C246.882 352.113 246.077 351.094 246.023 349.806C246.023 349.752 246.023 349.725 246.023 349.671V343.392C246.023 343.338 246.023 343.312 246.023 343.258C246.077 341.97 246.909 340.95 247.929 340.977L289.119 341.084C289.146 341.165 289.146 341.272 289.173 341.353C289.844 344.6 291.4 348.974 294.862 352.221Z" fill="#FFA412"/>
<path d="M326.26 341.153L326.234 352.289L327.227 352.291L327.253 341.155L326.26 341.153Z" fill="#FFA412"/>
<path d="M322.893 341.155L322.867 352.291L323.86 352.293L323.886 341.157L322.893 341.155Z" fill="#FFA412"/>
<path d="M318.835 341.153L318.809 352.289L319.801 352.291L319.828 341.155L318.835 341.153Z" fill="#FFA412"/>
<path d="M312.651 341.139L312.625 352.275L313.618 352.278L313.644 341.142L312.651 341.139Z" fill="#FFA412"/>
<path d="M306.086 341.118L306.062 352.254L307.055 352.256L307.079 341.12L306.086 341.118Z" fill="#FFA412"/>
<path d="M296.037 341.083L296.008 352.219L297.001 352.221L297.03 341.085L296.037 341.083Z" fill="#FFA412"/>
<path d="M286.651 341.071L286.625 352.207L287.618 352.209L287.644 341.073L286.651 341.071Z" fill="#FFA412"/>
<path d="M278.242 341.051L278.219 352.188L279.212 352.19L279.235 341.053L278.242 341.051Z" fill="#FFA412"/>
<path d="M329.46 341.176L329.434 352.312L330.426 352.315L330.453 341.179L329.46 341.176Z" fill="#FFA412"/>
<path d="M331.577 341.182L331.551 352.318L332.544 352.321L332.57 341.184L331.577 341.182Z" fill="#FFA412"/>
<path d="M333.647 341.168L333.621 352.305L334.614 352.307L334.64 341.171L333.647 341.168Z" fill="#FFA412"/>
<path d="M335.167 341.191L335.141 352.328H335.758C335.892 352.328 335.999 352.328 336.133 352.301L336.16 341.245C336.026 341.218 335.919 341.218 335.785 341.218L335.167 341.191Z" fill="#FFA412"/>
<path d="M336.562 341.352L336.535 352.166C336.938 351.978 337.287 351.656 337.528 351.253L337.555 342.264C337.313 341.861 336.964 341.539 336.562 341.352Z" fill="#FFA412"/>
<path d="M342.467 332.765V339.044C342.467 339.554 342.333 340.01 342.091 340.386C341.85 340.788 341.501 341.11 341.098 341.298C340.964 341.352 340.857 341.406 340.723 341.432C340.589 341.459 340.481 341.459 340.347 341.459L252.706 341.245C252.357 341.245 252.009 341.137 251.74 340.976C251.123 340.601 250.667 339.903 250.613 339.071C250.613 339.044 250.613 338.991 250.613 338.964C250.613 338.91 250.613 338.883 250.613 338.83V332.55C250.613 332.497 250.613 332.47 250.613 332.416C250.667 331.155 251.606 330.108 252.733 330.135L340.374 330.35C340.508 330.35 340.615 330.377 340.75 330.377C340.884 330.404 341.018 330.457 341.125 330.511C341.528 330.699 341.877 331.021 342.118 331.423C342.333 331.799 342.467 332.282 342.467 332.765Z" fill="#FFB93E"/>
<path d="M299.397 341.379L252.437 341.272C252.115 341.272 251.82 341.165 251.578 341.004C251.015 340.628 250.639 339.93 250.559 339.098C250.559 339.072 250.559 339.018 250.559 338.991C250.559 338.937 250.559 338.911 250.559 338.857V332.578C250.559 332.524 250.559 332.497 250.559 332.444C250.612 331.182 251.444 330.136 252.464 330.163L293.654 330.27C294.298 333.463 295.748 337.837 299.102 341.138C299.209 341.192 299.316 341.299 299.397 341.379Z" fill="#FFA412"/>
<path d="M344.588 321.656V327.935C344.588 328.445 344.453 328.901 344.212 329.277C343.97 329.68 343.622 330.002 343.219 330.189C343.085 330.243 342.978 330.297 342.843 330.324C342.709 330.35 342.602 330.35 342.468 330.35L254.827 330.136C253.7 330.136 252.761 329.116 252.707 327.828C252.707 327.774 252.707 327.747 252.707 327.694V321.415C252.707 321.361 252.707 321.334 252.707 321.28C252.761 320.1 253.566 319.134 254.585 319C254.666 319 254.746 318.973 254.827 318.973L342.468 319.187C342.602 319.187 342.709 319.214 342.843 319.214C342.978 319.241 343.112 319.295 343.219 319.348C343.622 319.536 343.97 319.858 344.212 320.261C344.453 320.69 344.588 321.146 344.588 321.656Z" fill="#FFB93E"/>
<path d="M301.518 330.243L254.558 330.136C253.538 330.136 252.733 329.116 252.68 327.828C252.68 327.774 252.68 327.747 252.68 327.694V321.415C252.68 321.361 252.68 321.334 252.68 321.28C252.733 320.1 253.458 319.134 254.343 319C254.424 319 254.478 318.973 254.558 318.973L295.749 319.08C295.749 319.08 295.749 319.08 295.749 319.107C296.446 322.407 297.976 326.942 301.518 330.243Z" fill="#FFA412"/>
<path d="M338.146 310.519V316.799C338.146 317.308 338.012 317.765 337.77 318.14C337.529 318.543 337.18 318.865 336.777 319.053C336.643 319.106 336.536 319.16 336.401 319.187C336.348 319.187 336.321 319.214 336.267 319.214C336.24 319.214 336.214 319.214 336.187 319.214C336.16 319.214 336.133 319.214 336.106 319.214C336.079 319.214 336.026 319.214 335.999 319.214L248.358 318.999C247.231 318.999 246.292 317.979 246.238 316.691C246.238 316.638 246.238 316.611 246.238 316.557V310.278C246.238 310.224 246.238 310.197 246.238 310.144C246.238 310.117 246.238 310.063 246.238 310.036C246.319 309.017 246.99 308.158 247.822 307.916C247.848 307.916 247.875 307.916 247.875 307.89C248.036 307.863 248.17 307.836 248.331 307.836L335.972 308.051C336.026 308.051 336.106 308.051 336.16 308.051C336.187 308.051 336.214 308.051 336.24 308.051C336.267 308.051 336.294 308.051 336.348 308.077C336.482 308.104 336.616 308.158 336.723 308.212C337.126 308.399 337.475 308.721 337.716 309.124C338.012 309.553 338.146 310.01 338.146 310.519Z" fill="#FFB93E"/>
<path d="M295.104 319.132L248.144 319.025C247.124 319.025 246.319 318.005 246.266 316.717C246.266 316.663 246.266 316.637 246.266 316.583V310.304C246.266 310.25 246.266 310.223 246.266 310.17C246.266 310.143 246.266 310.089 246.266 310.062C246.346 309.016 246.963 308.157 247.742 307.942C247.768 307.942 247.795 307.915 247.822 307.915C247.929 307.889 248.037 307.889 248.144 307.889L289.335 307.996C289.335 308.023 289.335 308.05 289.361 308.076C290.032 311.323 291.562 315.805 295.104 319.132C295.104 319.105 295.104 319.132 295.104 319.132Z" fill="#FFA412"/>
<path d="M337.986 299.464V305.743C337.986 306.253 337.852 306.709 337.61 307.085C337.369 307.487 337.02 307.809 336.618 307.997C336.51 308.051 336.43 308.078 336.322 308.104C336.295 308.104 336.269 308.131 336.242 308.131C336.108 308.158 336 308.158 335.866 308.158L248.225 307.943C248.145 307.943 248.038 307.943 247.957 307.917C247.93 307.917 247.877 307.917 247.85 307.89C246.884 307.702 246.159 306.763 246.105 305.636C246.105 305.582 246.105 305.555 246.105 305.501V299.222C246.105 299.169 246.105 299.142 246.105 299.088C246.159 297.8 247.098 296.78 248.225 296.807L335.866 297.022C335.92 297.022 335.973 297.022 336.027 297.022C336.054 297.022 336.081 297.022 336.108 297.022C336.134 297.022 336.161 297.022 336.188 297.022C336.215 297.022 336.215 297.022 336.242 297.022C336.376 297.049 336.51 297.102 336.618 297.156C336.644 297.156 336.644 297.183 336.671 297.183C336.698 297.183 336.698 297.21 336.725 297.21C336.752 297.237 336.805 297.237 336.832 297.263C336.859 297.29 336.913 297.317 336.94 297.344C336.966 297.371 336.993 297.398 337.047 297.424C337.074 297.451 337.127 297.478 337.154 297.505C337.181 297.532 337.208 297.559 337.235 297.585C337.262 297.612 337.262 297.612 337.288 297.639C337.342 297.693 337.396 297.746 337.449 297.827C337.476 297.854 337.476 297.854 337.503 297.881C337.53 297.907 337.53 297.907 337.557 297.934C337.584 297.961 337.61 298.015 337.637 298.068C337.852 298.498 337.986 298.981 337.986 299.464Z" fill="#FFB93E"/>
<path d="M294.943 308.078L247.983 307.971C247.957 307.971 247.903 307.971 247.876 307.971C247.822 307.971 247.796 307.971 247.742 307.944C246.829 307.81 246.132 306.844 246.078 305.663C246.078 305.609 246.078 305.582 246.078 305.529V299.25C246.078 299.196 246.078 299.169 246.078 299.115C246.132 297.827 246.964 296.808 247.983 296.835L289.174 296.942C289.201 297.022 289.201 297.13 289.228 297.21C289.898 300.43 291.428 304.777 294.836 307.998C294.89 308.024 294.917 308.051 294.943 308.078Z" fill="#FFA412"/>
<path d="M342.545 288.622V294.902C342.545 295.412 342.411 295.868 342.169 296.243C341.928 296.646 341.579 296.968 341.177 297.156C341.042 297.209 340.935 297.263 340.801 297.29C340.667 297.317 340.559 297.317 340.425 297.317L252.784 297.102C252.436 297.102 252.087 296.995 251.818 296.834C251.201 296.458 250.745 295.76 250.691 294.929C250.691 294.902 250.691 294.848 250.691 294.821C250.691 294.767 250.691 294.741 250.691 294.687V288.408C250.691 288.354 250.691 288.327 250.691 288.274C250.745 286.986 251.684 285.966 252.811 285.993L340.452 286.207C340.586 286.207 340.694 286.234 340.828 286.234C340.962 286.261 341.096 286.315 341.203 286.368C341.606 286.556 341.955 286.878 342.196 287.281C342.411 287.656 342.545 288.139 342.545 288.622Z" fill="#FFB93E"/>
<path d="M299.479 297.237L252.519 297.129C252.197 297.129 251.902 297.022 251.66 296.861C251.097 296.485 250.721 295.788 250.641 294.956C250.641 294.929 250.641 294.875 250.641 294.849C250.641 294.795 250.641 294.768 250.641 294.714V288.435C250.641 288.381 250.641 288.355 250.641 288.301C250.694 287.013 251.526 285.993 252.546 286.02L293.736 286.127C294.38 289.321 295.83 293.695 299.184 296.995C299.291 297.049 299.399 297.129 299.479 297.237Z" fill="#FFA412"/>
<path d="M349.713 277.514V283.793C349.713 284.303 349.578 284.759 349.337 285.134C349.095 285.537 348.747 285.859 348.344 286.047C348.21 286.1 348.103 286.154 347.968 286.181C347.834 286.208 347.727 286.208 347.593 286.208L259.952 285.993C258.825 285.993 257.886 284.973 257.832 283.685C257.832 283.632 257.832 283.605 257.832 283.551V277.272C257.832 277.218 257.832 277.192 257.832 277.138C257.886 275.957 258.691 274.991 259.71 274.857C259.791 274.857 259.871 274.83 259.952 274.83L347.593 275.045C347.727 275.045 347.834 275.072 347.968 275.072C348.103 275.098 348.237 275.152 348.344 275.206C348.747 275.394 349.095 275.716 349.337 276.118C349.605 276.547 349.713 277.004 349.713 277.514Z" fill="#FFB93E"/>
<path d="M306.67 286.126L259.71 286.019C258.691 286.019 257.886 284.999 257.832 283.711C257.832 283.657 257.832 283.63 257.832 283.577V277.297C257.832 277.244 257.832 277.217 257.832 277.163C257.886 275.983 258.61 275.016 259.496 274.882C259.576 274.882 259.657 274.855 259.71 274.855L300.901 274.963C300.901 274.963 300.901 274.963 300.901 274.99C301.572 278.263 303.101 282.798 306.67 286.126Z" fill="#FFA412"/>
<path d="M338.228 266.376V272.655C338.228 273.165 338.094 273.621 337.852 273.997C337.611 274.399 337.262 274.721 336.859 274.909C336.725 274.963 336.618 275.016 336.483 275.043C336.43 275.043 336.403 275.07 336.349 275.07C336.322 275.07 336.296 275.07 336.242 275.07C336.215 275.07 336.215 275.07 336.188 275.07C336.161 275.07 336.108 275.07 336.081 275.07L248.44 274.855C247.313 274.855 246.374 273.836 246.32 272.548C246.32 272.494 246.32 272.467 246.32 272.414V266.134C246.32 266.081 246.32 266.054 246.32 266C246.374 264.739 247.313 263.692 248.44 263.719L336.081 263.934C336.108 263.934 336.161 263.934 336.188 263.934C336.269 263.934 336.376 263.961 336.457 263.961C336.591 263.988 336.725 264.041 336.832 264.095C336.886 264.122 336.967 264.149 337.02 264.202C337.047 264.229 337.101 264.256 337.127 264.283C337.154 264.31 337.208 264.336 337.235 264.363C337.235 264.363 337.235 264.363 337.262 264.363C337.289 264.39 337.315 264.417 337.369 264.444C337.45 264.497 337.503 264.578 337.584 264.658C337.611 264.685 337.637 264.712 337.637 264.739C337.637 264.766 337.664 264.766 337.664 264.793C337.691 264.819 337.718 264.846 337.718 264.873C337.745 264.927 337.772 264.954 337.798 265.007C338.094 265.41 338.228 265.866 338.228 266.376Z" fill="#FFB93E"/>
<path d="M295.182 274.99L248.222 274.883C247.202 274.883 246.397 273.863 246.344 272.575C246.344 272.521 246.344 272.495 246.344 272.441V266.162C246.344 266.108 246.344 266.081 246.344 266.028C246.397 264.766 247.229 263.72 248.249 263.747L289.44 263.854C289.466 263.934 289.466 264.015 289.493 264.122C290.164 267.342 291.694 271.716 295.182 274.99C295.155 274.963 295.182 274.963 295.182 274.99Z" fill="#FFA412"/>
<path d="M344.694 255.51V261.789C344.694 262.299 344.559 262.755 344.318 263.131C344.076 263.533 343.728 263.855 343.325 264.043C343.191 264.097 343.084 264.15 342.949 264.177C342.815 264.204 342.708 264.204 342.574 264.204L254.933 263.989C254.584 263.989 254.262 263.882 253.994 263.721C253.35 263.345 252.894 262.621 252.84 261.789C252.84 261.762 252.84 261.735 252.84 261.681C252.84 261.628 252.84 261.601 252.84 261.547V255.268C252.84 255.214 252.84 255.188 252.84 255.134C252.894 253.953 253.699 252.987 254.718 252.853C254.799 252.853 254.879 252.826 254.96 252.826L342.601 253.041C342.735 253.041 342.842 253.068 342.976 253.068C343.11 253.095 343.245 253.148 343.352 253.202C343.754 253.39 344.103 253.712 344.345 254.114C344.559 254.544 344.694 255.027 344.694 255.51Z" fill="#FFB93E"/>
<path d="M301.651 264.122L254.691 264.015C254.396 264.015 254.101 263.934 253.859 263.746C253.296 263.371 252.893 262.646 252.812 261.814C252.812 261.787 252.812 261.761 252.812 261.707C252.812 261.653 252.812 261.626 252.812 261.573V255.293C252.812 255.24 252.812 255.213 252.812 255.159C252.866 253.979 253.591 253.013 254.476 252.878C254.557 252.878 254.61 252.852 254.691 252.852L295.882 252.959C295.882 252.959 295.882 252.959 295.882 252.986C296.526 256.179 297.975 260.553 301.356 263.854C301.463 263.961 301.544 264.041 301.651 264.122Z" fill="#FFA412"/>
<path d="M338.279 244.399V250.679C338.279 251.188 338.144 251.645 337.903 252.02C337.661 252.423 337.312 252.745 336.91 252.933C336.776 252.986 336.668 253.04 336.534 253.067C336.481 253.067 336.454 253.094 336.4 253.094C336.373 253.094 336.346 253.094 336.32 253.094C336.293 253.094 336.266 253.094 336.239 253.094C336.212 253.094 336.159 253.094 336.132 253.094L248.491 252.879C247.364 252.879 246.425 251.859 246.371 250.571C246.371 250.517 246.371 250.491 246.371 250.437V244.158C246.371 244.104 246.371 244.077 246.371 244.024C246.425 242.762 247.364 241.716 248.491 241.743L336.132 241.957C336.266 241.957 336.373 241.984 336.507 241.984C336.642 242.011 336.776 242.065 336.883 242.118C337.286 242.306 337.634 242.628 337.876 243.031C338.144 243.433 338.279 243.889 338.279 244.399Z" fill="#FFB93E"/>
<path d="M295.209 252.986L248.249 252.879C247.23 252.879 246.425 251.859 246.371 250.571C246.371 250.517 246.371 250.491 246.371 250.437V244.158C246.371 244.104 246.371 244.077 246.371 244.024C246.425 242.762 247.257 241.716 248.276 241.743L289.467 241.85C290.138 245.124 291.641 249.659 295.209 252.986Z" fill="#FFA412"/>
<path d="M330.812 330.323L330.785 341.459L331.778 341.461L331.804 330.325L330.812 330.323Z" fill="#FFA412"/>
<path d="M327.445 330.297L327.422 341.434L328.415 341.436L328.438 330.299L327.445 330.297Z" fill="#FFA412"/>
<path d="M323.383 330.297L323.359 341.434L324.352 341.436L324.376 330.299L323.383 330.297Z" fill="#FFA412"/>
<path d="M317.202 330.282L317.176 341.418L318.169 341.42L318.195 330.284L317.202 330.282Z" fill="#FFA412"/>
<path d="M310.636 330.26L310.609 341.396L311.602 341.399L311.629 330.263L310.636 330.26Z" fill="#FFA412"/>
<path d="M300.585 330.252L300.559 341.389L301.551 341.391L301.578 330.255L300.585 330.252Z" fill="#FFA412"/>
<path d="M291.172 330.215L291.148 341.352L292.141 341.354L292.165 330.217L291.172 330.215Z" fill="#FFA412"/>
<path d="M282.796 330.194L282.77 341.33L283.762 341.332L283.789 330.196L282.796 330.194Z" fill="#FFA412"/>
<path d="M334.011 330.319L333.984 341.455L334.977 341.457L335.004 330.321L334.011 330.319Z" fill="#FFA412"/>
<path d="M336.125 330.327L336.102 341.463L337.094 341.465L337.118 330.329L336.125 330.327Z" fill="#FFA412"/>
<path d="M338.194 330.338L338.168 341.475L339.161 341.477L339.187 330.341L338.194 330.338Z" fill="#FFA412"/>
<path d="M339.73 330.35L339.703 341.486H340.32C340.454 341.486 340.562 341.486 340.696 341.459L340.723 330.403C340.589 330.376 340.481 330.376 340.347 330.376L339.73 330.35Z" fill="#FFA412"/>
<path d="M341.097 330.512L341.07 341.326C341.473 341.138 341.822 340.816 342.063 340.414L342.09 331.424C341.848 331.022 341.5 330.7 341.097 330.512Z" fill="#FFA412"/>
<path d="M302.722 319.127L302.695 330.264L303.688 330.266L303.715 319.13L302.722 319.127Z" fill="#FFA412"/>
<path d="M293.307 319.09L293.281 330.227L294.274 330.229L294.3 319.093L293.307 319.09Z" fill="#FFA412"/>
<path d="M284.901 319.069L284.875 330.205L285.868 330.207L285.894 319.071L284.901 319.069Z" fill="#FFA412"/>
<path d="M337.097 330.35L337.124 319.214H336.238C336.292 319.214 336.319 319.214 336.373 319.187L336.399 308.132C336.346 308.132 336.265 308.105 336.212 308.105L336.238 297.317H336.614L336.587 307.997C336.99 307.81 337.339 307.488 337.58 307.085L337.607 298.096C337.419 297.747 337.124 297.478 336.829 297.291H337.178L337.204 286.154H336.212L336.185 297.049C336.077 297.022 335.97 297.022 335.863 297.022H335.246L335.219 308.158H335.407L335.38 319.214H335.997C336.024 319.214 336.077 319.214 336.104 319.214L336.077 330.324L337.097 330.35Z" fill="#FFA412"/>
<path d="M338.261 319.2L338.234 330.336L339.227 330.338L339.254 319.202L338.261 319.2Z" fill="#FFA412"/>
<path d="M340.306 319.213L340.277 330.35L341.27 330.352L341.299 319.216L340.306 319.213Z" fill="#FFA412"/>
<path d="M341.847 319.215L341.82 330.351H342.438C342.572 330.351 342.679 330.351 342.813 330.324L342.84 319.269C342.706 319.242 342.599 319.242 342.464 319.242L341.847 319.215Z" fill="#FFA412"/>
<path d="M343.218 319.375L343.191 330.189C343.594 330.001 343.943 329.679 344.184 329.277L344.211 320.287C343.97 319.885 343.621 319.563 343.218 319.375Z" fill="#FFA412"/>
<path d="M327.466 319.215L327.493 308.079H327.305L327.332 297.023H326.339L326.312 308.16H326.5L326.473 319.189H325.507L325.48 330.325H326.473L326.5 319.215H327.466Z" fill="#FFA412"/>
<path d="M320.087 308.052H319.899L319.926 296.996H318.933L318.906 308.132H319.094L319.067 319.188H319.309L319.282 330.297H320.275L320.302 319.161H320.06L320.087 308.052Z" fill="#FFA412"/>
<path d="M336.804 308.266L336.777 319.08C337.18 318.892 337.529 318.57 337.77 318.167L337.797 309.178C337.556 308.775 337.207 308.453 336.804 308.266Z" fill="#FFA412"/>
<path d="M313.727 296.996H312.734L312.707 308.132H312.895L312.868 319.161H312.761L312.734 330.271L313.727 330.297L313.754 319.161H313.861L313.888 308.052H313.7L313.727 296.996Z" fill="#FFA412"/>
<path d="M307.153 296.969H306.16V308.105H306.321V319.161H307.314L307.341 308.024H307.153V296.969Z" fill="#FFA412"/>
<path d="M297.113 296.941H296.121L296.094 308.078H296.282L296.255 319.133H297.248L297.274 307.997H297.087L297.113 296.941Z" fill="#FFA412"/>
<path d="M287.696 296.941H286.703V308.051H286.864V319.107H287.857L287.884 307.97H287.696V296.941Z" fill="#FFA412"/>
<path d="M279.298 296.916H278.305V308.052H278.466V319.081H279.459L279.485 307.972H279.298V296.916Z" fill="#FFA412"/>
<path d="M330.551 297.023H329.558L329.531 308.16H329.719L329.692 319.189H329.558L329.531 330.325H330.524L330.551 319.215H330.685L330.712 308.079H330.524L330.551 297.023Z" fill="#FFA412"/>
<path d="M332.673 297.05H331.868L331.895 286.182H330.875V297.318H331.68L331.653 308.159H331.841L331.814 319.215H332.807L332.834 308.078H332.646L332.673 297.05Z" fill="#FFA412"/>
<path d="M327.53 286.151L327.504 297.287L328.497 297.289L328.523 286.153L327.53 286.151Z" fill="#FFA412"/>
<path d="M323.44 297.022H322.957L322.93 308.132L323.118 308.158V319.187H324.11V308.078H323.949V297.291H324.432L324.459 286.154H323.466L323.44 297.022Z" fill="#FFA412"/>
<path d="M317.287 286.137L317.258 297.273L318.251 297.276L318.28 286.14L317.287 286.137Z" fill="#FFA412"/>
<path d="M310.722 286.116L310.695 297.252L311.688 297.254L311.715 286.118L310.722 286.116Z" fill="#FFA412"/>
<path d="M300.671 286.106L300.645 297.242L301.637 297.245L301.664 286.108L300.671 286.106Z" fill="#FFA412"/>
<path d="M291.258 286.069L291.234 297.205L292.227 297.207L292.251 286.071L291.258 286.069Z" fill="#FFA412"/>
<path d="M282.878 286.049L282.852 297.186L283.844 297.188L283.871 286.052L282.878 286.049Z" fill="#FFA412"/>
<path d="M334.068 297.05H333.719L333.692 308.159H333.88L333.853 319.215H332.914V330.324H333.907L333.934 319.215H334.846L334.873 308.105H334.685L334.712 297.318H335.061L335.088 286.182H334.095L334.068 297.05Z" fill="#FFA412"/>
<path d="M338.253 286.194L338.227 297.33L339.219 297.332L339.246 286.196L338.253 286.194Z" fill="#FFA412"/>
<path d="M340.774 297.292L340.801 286.236C340.667 286.209 340.559 286.209 340.425 286.209H339.808L339.781 297.345H340.398C340.533 297.345 340.667 297.318 340.774 297.292Z" fill="#FFA412"/>
<path d="M342.169 296.271L342.195 287.282C341.954 286.879 341.605 286.557 341.203 286.369L341.176 297.183C341.578 296.996 341.927 296.674 342.169 296.271Z" fill="#FFA412"/>
<path d="M338.077 275.055L338.051 286.191L339.044 286.194L339.07 275.058L338.077 275.055Z" fill="#FFA412"/>
<path d="M324.444 275.016L324.418 286.152L325.411 286.155L325.437 275.018L324.444 275.016Z" fill="#FFA412"/>
<path d="M317.905 275.02L317.879 286.156L318.872 286.159L318.898 275.022L317.905 275.02Z" fill="#FFA412"/>
<path d="M307.855 274.985L307.828 286.121L308.821 286.123L308.847 274.987L307.855 274.985Z" fill="#FFA412"/>
<path d="M298.444 274.975L298.418 286.111L299.411 286.114L299.437 274.977L298.444 274.975Z" fill="#FFA412"/>
<path d="M290.035 274.954L290.012 286.09L291.005 286.092L291.028 274.956L290.035 274.954Z" fill="#FFA412"/>
<path d="M341.28 275.081L341.254 286.217L342.247 286.219L342.273 275.083L341.28 275.081Z" fill="#FFA412"/>
<path d="M343.394 275.086L343.367 286.223L344.36 286.225L344.386 275.089L343.394 275.086Z" fill="#FFA412"/>
<path d="M345.436 275.073L345.41 286.209L346.403 286.211L346.429 275.075L345.436 275.073Z" fill="#FFA412"/>
<path d="M346.972 275.1L346.945 286.236H347.562C347.697 286.236 347.804 286.236 347.938 286.209L347.965 275.153C347.831 275.126 347.723 275.126 347.589 275.126L346.972 275.1Z" fill="#FFA412"/>
<path d="M348.371 275.26L348.344 286.074C348.746 285.886 349.095 285.564 349.337 285.162L349.363 276.172C349.122 275.77 348.773 275.448 348.371 275.26Z" fill="#FFA412"/>
<path d="M326.552 275.045L327.545 275.072L327.572 263.936H326.606L326.633 253.068H327.599L327.626 241.958L326.606 241.932V253.068L325.64 253.041L325.613 264.177H326.579L326.552 275.045Z" fill="#FFA412"/>
<path d="M323.205 263.917L323.176 275.053L324.169 275.055L324.198 263.919L323.205 263.917Z" fill="#FFA412"/>
<path d="M306.421 263.881L306.395 275.018L307.387 275.02L307.414 263.884L306.421 263.881Z" fill="#FFA412"/>
<path d="M296.37 263.846L296.344 274.982L297.337 274.985L297.363 263.849L296.37 263.846Z" fill="#FFA412"/>
<path d="M286.96 263.834L286.934 274.971L287.926 274.973L287.953 263.837L286.96 263.834Z" fill="#FFA412"/>
<path d="M278.553 263.813L278.527 274.949L279.52 274.952L279.546 263.815L278.553 263.813Z" fill="#FFA412"/>
<path d="M329.775 275.072H330.66L330.633 286.182H331.626L331.653 275.046H330.768L330.794 263.936H330.66V253.095H330.794L330.821 241.959H329.828L329.802 253.068H329.667L329.641 264.205H329.802L329.775 275.072Z" fill="#FFA412"/>
<path d="M331.907 263.946L331.887 275.082L332.88 275.084L332.9 263.948L331.907 263.946Z" fill="#FFA412"/>
<path d="M337.045 264.205H337.233L337.259 253.068H336.374C336.427 253.068 336.454 253.068 336.508 253.042L336.535 241.986C336.401 241.959 336.293 241.959 336.159 241.959H335.542L335.515 253.095H336.132C336.159 253.095 336.213 253.095 336.24 253.095L336.213 263.963C336.186 263.963 336.132 263.963 336.105 263.963H335.488L335.461 275.072H334.925L334.952 263.963H334.012L334.039 253.095H334.978L335.005 241.959H334.012L333.986 253.068H333.046L333.02 264.205H333.959L333.932 275.072H334.683L334.656 286.182H335.649L335.676 275.072H336.079C336.213 275.072 336.32 275.072 336.454 275.046L336.481 264.205H336.857L336.83 274.911C337.233 274.724 337.581 274.402 337.823 273.999L337.85 265.01C337.662 264.688 337.394 264.392 337.045 264.205Z" fill="#FFA412"/>
<path d="M302.824 252.985L302.801 264.121L303.794 264.123L303.817 252.987L302.824 252.985Z" fill="#FFA412"/>
<path d="M293.413 252.973L293.387 264.109L294.38 264.112L294.406 252.976L293.413 252.973Z" fill="#FFA412"/>
<path d="M285.03 252.954L285.004 264.09L285.997 264.092L286.023 252.956L285.03 252.954Z" fill="#FFA412"/>
<path d="M338.366 253.084L338.34 264.221L339.333 264.223L339.359 253.087L338.366 253.084Z" fill="#FFA412"/>
<path d="M340.433 253.071L340.406 264.207L341.399 264.209L341.426 253.073L340.433 253.071Z" fill="#FFA412"/>
<path d="M341.957 253.094L341.93 264.23H342.547C342.681 264.23 342.788 264.23 342.923 264.203L342.949 253.147C342.815 253.121 342.708 253.121 342.574 253.121L341.957 253.094Z" fill="#FFA412"/>
<path d="M344.317 263.158L344.344 254.168C344.102 253.766 343.754 253.444 343.351 253.256L343.324 264.07C343.727 263.882 344.076 263.56 344.317 263.158Z" fill="#FFA412"/>
<path d="M323.249 241.918L323.223 253.055L324.216 253.057L324.242 241.921L323.249 241.918Z" fill="#FFA412"/>
<path d="M320.191 241.932H319.198L319.171 253.068H319.44L319.413 263.909H319.171L319.145 275.045H320.137L320.164 264.177H320.406L320.433 253.041H320.191V241.932Z" fill="#FFA412"/>
<path d="M312.974 253.014H312.867V264.15H312.974L312.948 275.018H313.941L313.967 263.908H313.86V253.041H313.994V241.904H313.001L312.974 253.014Z" fill="#FFA412"/>
<path d="M306.468 241.883L306.441 253.02L307.434 253.022L307.461 241.886L306.468 241.883Z" fill="#FFA412"/>
<path d="M296.417 241.875L296.391 253.012L297.383 253.014L297.41 241.878L296.417 241.875Z" fill="#FFA412"/>
<path d="M287.01 241.836L286.98 252.973L287.973 252.975L288.002 241.839L287.01 241.836Z" fill="#FFA412"/>
<path d="M278.598 241.817L278.574 252.953L279.567 252.955L279.59 241.819L278.598 241.817Z" fill="#FFA412"/>
<path d="M331.959 241.948L331.93 253.084L332.923 253.087L332.952 241.95L331.959 241.948Z" fill="#FFA412"/>
<path d="M336.91 242.119L336.883 252.933C337.285 252.746 337.634 252.424 337.876 252.021L337.902 243.032C337.661 242.629 337.339 242.307 336.91 242.119Z" fill="#FFA412"/>
<path d="M366.134 271.797L372.333 272.897C372.816 272.977 373.272 273.192 373.594 273.487C373.943 273.809 374.211 274.185 374.318 274.614C374.345 274.748 374.372 274.883 374.372 275.017C374.372 275.151 374.372 275.258 374.345 275.392L358.969 361.665C358.781 362.765 357.601 363.516 356.339 363.355C356.286 363.355 356.259 363.355 356.205 363.328L350.006 362.228C349.953 362.228 349.926 362.201 349.872 362.201C348.638 361.933 347.779 360.833 347.994 359.706L363.37 273.433C363.37 273.38 363.397 273.326 363.397 273.272C363.397 273.246 363.397 273.219 363.424 273.192C363.424 273.165 363.45 273.138 363.45 273.111C363.45 273.085 363.45 273.085 363.477 273.058C363.531 272.924 363.585 272.816 363.665 272.709C363.665 272.682 363.692 272.682 363.692 272.655C363.692 272.628 363.719 272.628 363.719 272.602C363.746 272.575 363.772 272.548 363.799 272.494C363.826 272.467 363.826 272.467 363.853 272.441C363.88 272.414 363.88 272.414 363.907 272.387C363.933 272.36 363.96 272.333 363.987 272.306C364.014 272.28 364.068 272.253 364.094 272.226C364.121 272.199 364.148 272.172 364.175 272.145C364.202 272.119 364.229 272.119 364.229 272.092C364.282 272.038 364.363 272.011 364.443 271.984C364.47 271.984 364.497 271.958 364.497 271.958C364.524 271.958 364.551 271.931 364.551 271.931C364.604 271.904 364.631 271.904 364.685 271.877C365.141 271.77 365.624 271.716 366.134 271.797Z" fill="#FFB93E"/>
<path d="M367.152 315.697L358.914 361.933C358.726 362.926 357.572 363.57 356.311 363.382C356.257 363.382 356.23 363.382 356.177 363.355L349.978 362.255C349.924 362.255 349.898 362.228 349.844 362.228C348.61 361.96 347.724 360.967 347.912 359.974L355.13 319.427C355.211 319.427 355.318 319.427 355.399 319.427C358.78 319.32 363.368 318.542 367.152 315.697Z" fill="#FFA412"/>
<path d="M361.846 281.898L361.672 282.875L372.634 284.832L372.809 283.854L361.846 281.898Z" fill="#FFA412"/>
<path d="M361.264 285.214L361.09 286.191L372.053 288.142L372.227 287.165L361.264 285.214Z" fill="#FFA412"/>
<path d="M360.553 289.159L360.379 290.137L371.343 292.09L371.517 291.113L360.553 289.159Z" fill="#FFA412"/>
<path d="M359.451 295.273L359.277 296.25L370.241 298.203L370.415 297.226L359.451 295.273Z" fill="#FFA412"/>
<path d="M358.318 301.726L358.145 302.703L369.108 304.654L369.282 303.677L358.318 301.726Z" fill="#FFA412"/>
<path d="M356.577 311.624L356.402 312.602L367.366 314.556L367.54 313.579L356.577 311.624Z" fill="#FFA412"/>
<path d="M354.881 320.898L354.707 321.875L365.671 323.826L365.845 322.849L354.881 320.898Z" fill="#FFA412"/>
<path d="M353.44 329.193L353.266 330.17L364.228 332.127L364.403 331.149L353.44 329.193Z" fill="#FFA412"/>
<path d="M362.409 278.712L362.234 279.689L373.198 281.643L373.372 280.665L362.409 278.712Z" fill="#FFA412"/>
<path d="M362.811 276.64L362.637 277.617L373.6 279.572L373.775 278.594L362.811 276.64Z" fill="#FFA412"/>
<path d="M363.139 274.589L362.965 275.566L373.928 277.52L374.103 276.542L363.139 274.589Z" fill="#FFA412"/>
<path d="M363.258 274.077L374.206 276.036L374.314 275.419C374.34 275.285 374.34 275.178 374.34 275.043L363.472 273.111C363.419 273.219 363.392 273.353 363.365 273.46L363.258 274.077Z" fill="#FFA412"/>
<path d="M363.66 272.736L374.287 274.615C374.179 274.185 373.938 273.783 373.562 273.488L364.707 271.904C364.277 272.092 363.902 272.387 363.66 272.736Z" fill="#FFA412"/>
<path d="M575.013 363.356H537.338C535.325 361.639 538.733 357.748 542.302 357.506C543.859 357.399 545.818 357.721 548.045 358.177C548.555 351.281 551.533 320.341 562.669 321.602C575.201 322.997 562.67 335.234 559.127 342.479C556.498 347.846 553.734 355.547 552.472 359.17C553.492 359.385 554.539 359.599 555.612 359.814C557.276 354.715 563.448 337.541 571.337 338.534C580.568 339.715 576.865 346.585 570.317 350.663C565.514 353.669 559.61 357.936 556.82 360.002C559.181 360.377 561.677 360.646 564.172 360.592C570.639 360.458 573.779 362.336 575.013 363.356Z" fill="#82B378"/>
<path d="M83.9161 362.122C82.4134 359.761 77.9052 353.669 71.9212 354.474C65.4004 355.36 79.1396 359.653 83.3526 362.122C82.4134 362.122 81.6083 362.068 81.018 361.854C78.2004 360.861 73.397 362.766 71.8407 363.437H98.6213C98.4334 362.793 97.9504 361.746 96.716 360.995C96.2867 360.727 95.4011 360.7 94.2473 360.78C95.8305 358.902 96.9575 352.891 92.503 354.447C89.2561 355.574 89.2829 359.251 89.5781 361.397C88.8804 361.505 88.1827 361.612 87.5119 361.719C86.1702 354.93 81.4742 334.993 71.8943 334.483C62.2071 333.946 80.1056 355.145 86.0897 361.934C85.3383 362.015 84.6138 362.095 83.9161 362.122Z" fill="#82B378"/>
<path d="M349.567 192.922C364.636 177.853 364.636 153.421 349.567 138.351C334.498 123.282 310.066 123.282 294.996 138.351C279.927 153.421 279.927 177.853 294.996 192.922C310.066 207.991 334.498 207.991 349.567 192.922Z" fill="#E2810E"/>
<path d="M356.66 177.062C362.073 156.449 349.752 135.352 329.139 129.938C308.527 124.525 287.429 136.847 282.016 157.459C276.603 178.072 288.924 199.169 309.537 204.583C330.149 209.996 351.247 197.674 356.66 177.062Z" fill="#FFB93E"/>
<path d="M319.605 202.807C307.208 202.807 295.159 196.232 288.773 184.64C284.238 176.429 283.191 166.929 285.794 157.913C288.397 148.897 294.381 141.437 302.593 136.902C310.804 132.367 320.303 131.32 329.319 133.923C338.336 136.526 345.796 142.51 350.331 150.721C359.696 167.708 353.497 189.121 336.511 198.46C331.171 201.411 325.348 202.807 319.605 202.807ZM319.498 134.594C313.997 134.594 308.55 135.989 303.585 138.727C295.857 142.993 290.249 149.997 287.78 158.477C285.338 166.956 286.331 175.892 290.598 183.62C296.609 194.542 307.933 200.714 319.605 200.714C324.999 200.714 330.447 199.399 335.518 196.608C351.485 187.806 357.308 167.681 348.506 151.714C344.239 143.986 337.236 138.378 328.756 135.909C325.697 135.023 322.584 134.594 319.498 134.594Z" fill="#FFA412"/>
<path d="M328.727 174.254C328.432 173.556 328.083 172.966 327.68 172.51C327.251 172.054 326.741 171.705 326.097 171.436C325.453 171.195 324.729 171.007 323.843 170.927C322.984 170.846 321.965 170.846 320.784 170.9C318.745 171.007 316.866 171.007 315.149 170.9C313.431 170.819 311.848 170.524 310.453 170.041C309.057 169.558 307.823 168.86 306.776 167.894C305.73 166.928 304.844 165.613 304.174 163.977C303.583 162.554 303.315 161.132 303.342 159.764C303.369 158.368 303.69 157.053 304.254 155.792C304.844 154.531 305.676 153.377 306.776 152.277C307.877 151.203 309.192 150.237 310.775 149.432L308.574 144.039L312.921 142.268L315.149 147.742C316.786 147.312 318.369 147.151 319.898 147.259C321.428 147.366 322.823 147.742 324.111 148.359C325.399 149.003 326.553 149.889 327.6 151.042C328.62 152.196 329.478 153.618 330.176 155.309L322.313 158.502C321.482 156.49 320.435 155.148 319.12 154.504C317.805 153.86 316.41 153.86 314.907 154.477C314.102 154.799 313.431 155.202 312.948 155.685C312.438 156.141 312.09 156.651 311.875 157.214C311.66 157.778 311.553 158.341 311.607 158.959C311.633 159.576 311.794 160.193 312.036 160.81C312.277 161.427 312.599 161.964 313.002 162.393C313.378 162.823 313.888 163.171 314.505 163.413C315.122 163.654 315.873 163.816 316.759 163.896C317.644 163.977 318.718 164.003 319.979 163.95C321.991 163.896 323.87 163.923 325.587 164.03C327.305 164.138 328.861 164.433 330.256 164.916C331.652 165.399 332.886 166.123 333.933 167.089C334.979 168.055 335.838 169.343 336.509 170.98C337.099 172.456 337.394 173.905 337.368 175.274C337.341 176.669 337.019 177.984 336.428 179.218C335.838 180.453 334.979 181.607 333.852 182.68C332.725 183.753 331.383 184.693 329.827 185.498L331.866 190.516L327.546 192.26L325.507 187.269C323.95 187.725 322.34 187.993 320.73 188.047C319.12 188.101 317.591 187.886 316.115 187.376C314.639 186.866 313.297 186.007 312.036 184.827C310.802 183.646 309.755 182.036 308.95 180.023L316.812 176.83C317.295 178.038 317.859 178.95 318.53 179.621C319.201 180.292 319.898 180.748 320.65 180.989C321.401 181.231 322.179 181.311 322.984 181.231C323.789 181.124 324.541 180.936 325.292 180.641C326.151 180.292 326.848 179.889 327.412 179.406C327.976 178.923 328.378 178.413 328.673 177.85C328.942 177.286 329.103 176.696 329.103 176.079C329.103 175.515 328.968 174.898 328.727 174.254Z" fill="#FFA412"/>
<path d="M357.706 144.872C356.096 143.745 352.42 141.223 352.232 141.786C352.098 142.189 352.285 142.859 352.742 143.584C350.514 142.752 348.287 142.215 342.974 143.235C341.901 143.45 340.935 144.04 340.371 144.953C339.834 145.784 339.62 146.858 340.988 147.69C343.699 149.38 342.92 148.36 346.677 150.829C350.434 153.298 355.049 153.915 357.813 152.198L361.516 151.581L361.973 145.489C361.973 145.489 359.853 145.248 357.706 144.872Z" fill="#FFB27D"/>
<path d="M454.686 93.8325C454.686 93.8325 445.965 104.19 434.856 99.8433C434.856 99.8433 432.468 94.074 432.441 89.8073C432.441 89.2706 432.441 88.7876 432.414 88.3046C432.36 83.5013 432.199 80.8178 432.199 80.8178C432.709 80.6032 449.185 73.8409 449.158 74.4044C448.89 87.3654 454.686 93.8325 454.686 93.8325Z" fill="#FFB27D"/>
<path d="M447.522 77.4644C445.938 80.4162 440.491 86.1855 432.414 88.2786C432.36 83.4753 432.199 80.7918 432.199 80.7918C432.655 80.6845 448.005 76.6057 447.522 77.4644Z" fill="#ED975D"/>
<path d="M428.736 80.3088C428.736 80.3088 447.278 84.6559 449.8 73.0903C452.323 61.4979 456.429 54.2795 444.702 51.0057C432.975 47.7319 429.702 51.6497 427.904 55.2992C426.159 58.9487 423.986 78.8597 428.736 80.3088Z" fill="#FFB27D"/>
<path d="M449.185 76.2298C449.427 76.3908 453.425 77.6252 460.965 62.5712C462.146 60.2098 462.951 55.1112 460.187 50.5763C457.423 46.0681 447.629 42.526 439.498 40.9696C431.367 39.4132 429.408 44.0019 427.476 48.6173C425.464 53.4475 419.641 57.419 419.641 57.419C426.671 61.3368 435.124 55.7284 438.049 56.6408C440.974 57.5532 442.02 62.1687 442.235 63.6714C442.45 65.1473 442.799 66.3816 446.475 65.0668C450.151 63.7519 448.139 70.2994 447.548 71.5338C447.575 71.5338 447.065 74.8881 449.185 76.2298Z" fill="#A9453D"/>
<path d="M496.924 365.073H508.141C510.502 365.073 513.105 362.712 513.749 358.418C514.393 354.098 519.25 351.764 520.297 348.221C521.343 344.679 515.977 339.715 515.977 339.715L515.091 338.561L514.152 337.354L505.27 339.447C505.27 339.447 505.055 341.567 504.921 344.25C504.814 346.209 504.787 348.436 504.894 350.422C505.162 355.118 503.579 360.189 499.393 361.102C495.18 362.041 496.924 365.073 496.924 365.073Z" fill="#2C3A64"/>
<path d="M418.809 365.074H448.541C448.836 365.021 449.051 364.967 449.185 364.887C451.171 363.894 450.554 356.3 450.312 353.938C450.258 353.509 450.232 353.24 450.232 353.24C450.232 353.24 439.766 344.868 438.344 351.282C438.29 351.469 438.237 351.684 438.183 351.872C436.358 357.856 428.254 360.593 423.558 361.344C419.962 361.935 419.05 364.028 418.809 365.074Z" fill="#2C3A64"/>
<path d="M424.793 193.55C424.793 193.55 426.376 213.38 428.255 237.182C430.804 269.544 433.836 309.286 434.158 316.826C434.668 329.895 436.761 350.825 436.761 350.825C436.761 350.825 441.725 355.79 451.654 353.697C451.654 353.697 460.509 323.83 463.032 292.246C463.059 291.736 463.112 291.2 463.139 290.69C465.501 258.542 469.15 190.812 469.15 190.812L424.793 193.55Z" fill="#2B478B"/>
<path d="M424.793 193.55C424.793 193.55 426.376 213.38 428.255 237.182L463.059 292.246C463.085 291.736 463.139 291.2 463.166 290.69C465.527 258.542 469.177 190.812 469.177 190.812L424.793 193.55Z" fill="#233862"/>
<path d="M432.039 195.884C432.039 195.884 460.671 267.666 479.482 301.396C498.32 335.127 504.196 344.546 504.196 344.546C504.196 344.546 514.984 340.225 515.95 337.301C515.95 337.301 508.758 272.174 496.146 256.315C489.035 247.352 480.663 220.437 480.26 211.018C479.858 201.6 477.711 182.977 477.711 182.977L432.039 195.884Z" fill="#2B478B"/>
<path d="M497.351 182.843L497.646 187.458C497.646 187.458 494.614 195.67 503.121 199.856C503.121 199.856 506.77 201.332 506.931 198.487C507.092 195.643 506.609 196.716 506.904 192.718C507.199 188.72 505.616 184.936 502.986 183.648L500.813 181.152L497.351 182.843Z" fill="#FFB27D"/>
<path d="M500.678 186.224C497.511 187.244 497.001 187.003 497.001 187.003C497.001 187.003 481.572 158.934 480.015 156.358C478.459 153.782 447.277 124.854 447.277 124.854L455.301 94.9609C455.301 94.9609 490.776 140.901 494.613 147.476C500.946 158.37 504.649 183.675 504.649 183.675C504.649 183.675 503.146 185.419 500.678 186.224Z" fill="#1E3D70"/>
<path d="M418.753 136.58C418.86 142.726 419.209 149.622 419.692 156.626C419.719 157.028 419.746 157.458 419.773 157.86C420.068 162.207 420.417 166.554 420.792 170.794C420.953 172.485 421.114 174.175 421.275 175.839L421.302 176.054C421.302 176.671 421.383 177.342 421.463 177.959C423.02 193.845 424.657 206.403 424.979 206.591C425.354 206.833 425.757 206.967 426.186 206.913C430.345 206.376 442.797 207.342 452.967 205.115C461.554 203.291 468.96 199.856 476.796 195.24C477.842 194.623 480.204 192.986 480.016 191.779C479.828 190.437 479.479 188.505 479.023 186.09C477.466 177.637 474.81 163.093 473.897 146.08C473.71 142.913 473.468 139.774 473.119 136.688C472.234 128.664 470.838 121.043 468.96 114.281C465.472 101.723 460.346 92.0893 453.906 88.3325C453.074 87.8494 448.539 90.7475 444.38 93.4041C440.542 95.8729 436.49 96.5437 432.573 96.1949L429.111 100.032C424.925 104.889 420.47 111.383 419.236 120.587C419.156 121.258 419.075 121.983 418.995 122.761C418.726 126.518 418.646 131.267 418.753 136.58Z" fill="#2A4E96"/>
<path d="M418.755 136.58C418.863 142.725 419.211 149.622 419.694 156.625C419.721 157.028 419.748 157.457 419.775 157.86C443.577 142.967 447.253 115.703 447.253 115.703C435.553 116.213 426.242 118.896 419.077 122.761C418.728 126.517 418.648 131.267 418.755 136.58Z" fill="#1E3D70"/>
<path d="M358.592 148.334C358.351 144.792 360.176 144.228 360.176 144.228C360.176 144.228 396.08 137.734 399.112 136.768C402.171 135.802 428.254 108.673 428.254 108.673C428.254 108.673 438.263 97.4023 446.448 99.8978C453.559 102.071 456.35 107.626 457.289 112.912C458.416 119.219 455.518 125.551 450.044 128.906C437.807 136.419 413.281 151.232 407.484 152.922C394.631 156.679 360.095 153.218 360.095 153.218C360.095 153.218 358.78 151.098 358.592 148.334Z" fill="#2A4E96"/>
<path opacity="0.2" d="M400.83 217.27V350.69C400.83 358.472 394.47 364.832 386.688 364.832H249.538C248.357 364.832 247.176 364.698 246.076 364.403C243.688 363.812 241.541 362.632 239.797 361.022C238.536 359.868 237.489 358.526 236.711 356.996C236.657 356.916 236.631 356.835 236.577 356.755C235.745 355.118 235.235 353.266 235.101 351.361C235.074 351.039 235.074 350.69 235.074 350.368V218.129C235.074 210.642 238.938 203.719 245.244 199.694C245.244 199.694 245.244 199.694 245.271 199.694C250.531 196.34 254.019 190.436 254.019 183.727C254.019 181.742 253.724 179.836 253.134 178.012H382.77C382.207 179.81 381.885 181.715 381.885 183.727C381.885 190.141 385.078 195.83 389.989 199.264C390.311 199.479 390.659 199.721 390.981 199.908C397.073 203.612 400.83 210.159 400.83 217.27Z" fill="#ED9F4A"/>
<path opacity="0.2" d="M400.83 217.27V350.69C400.83 358.15 395.007 364.295 387.681 364.805C387.359 364.832 387.01 364.832 386.688 364.832H326.311C318.368 364.832 311.848 358.311 311.848 350.368V218.129C311.848 210.642 315.712 203.719 322.018 199.694C327.277 196.34 330.766 190.436 330.766 183.727C330.766 181.742 330.471 179.836 329.88 178.012H382.771C382.207 179.81 381.885 181.715 381.885 183.727C381.885 188.987 384.032 193.763 387.494 197.198C388.54 198.245 389.721 199.157 390.982 199.908C397.073 203.612 400.83 210.159 400.83 217.27Z" fill="#ED9F4A"/>
<path opacity="0.6" d="M389.99 199.264C385.75 196.742 367.423 187.753 320.758 188.128C267.331 188.558 245.917 199.372 245.246 199.694C250.506 196.34 253.994 190.436 253.994 183.727C253.994 181.742 253.699 179.836 253.109 178.012H382.745C382.181 179.81 381.859 181.715 381.859 183.727C381.913 190.168 385.106 195.83 389.99 199.264Z" fill="#ED9F4A"/>
<path d="M385.724 177.1V183.164C385.724 183.755 385.241 184.238 384.651 184.238H251.284C250.694 184.238 250.211 183.755 250.211 183.164V177.1C250.211 176.509 250.694 176.026 251.284 176.026H384.651C385.241 176 385.724 176.509 385.724 177.1Z" fill="#2B478B"/>
<path d="M385.724 177.1V183.164C385.724 183.755 385.241 184.238 384.65 184.238H334.175C333.585 184.238 333.102 183.755 333.102 183.164V177.1C333.102 176.509 333.585 176.026 334.175 176.026H384.65C385.241 176 385.724 176.509 385.724 177.1Z" fill="#233862"/>
<path d="M296.737 207.046C296.737 207.046 293.303 211.876 290.136 211.957C286.996 212.037 282.193 209.703 282.193 209.703C282.193 209.703 279.295 203.263 281.254 200.74C281.254 200.74 283.213 199.882 285.279 201.411C285.628 201.679 286.004 202.001 286.352 202.431C286.862 203.021 287.399 203.37 288.016 203.558C290.27 204.229 292.927 202.645 293.92 204.175C294.51 205.087 295.127 205.758 295.664 206.241C296.281 206.778 296.737 207.046 296.737 207.046Z" fill="#F9DDBF"/>
<path d="M251.926 241.958C251.926 241.958 264.082 212.521 285.952 211.957C285.952 211.957 306.131 214.211 307.258 241.958H251.926Z" fill="#F9DDBF"/>
<path d="M279.967 212.87C279.967 212.87 288.742 214.828 291.426 213.675C291.426 213.675 291.828 209.998 288.152 210.535C285.629 210.884 283.992 209.676 283 209.193C281.631 208.469 279.592 211.34 279.967 212.87Z" fill="#F1A34F"/>
<path d="M287.59 207.341C287.026 207.77 285.309 201.41 285.309 201.41C285.657 201.678 286.033 202.001 286.382 202.43C286.892 203.02 287.429 203.369 288.046 203.557C288.019 203.745 288.126 206.938 287.59 207.341Z" fill="#E5C1A1"/>
<path d="M295.666 206.242C295.532 206.323 291.48 208.738 290.944 208.738C290.38 208.738 293.922 204.176 293.922 204.176C294.513 205.088 295.157 205.759 295.666 206.242Z" fill="#E5C1A1"/>
<path d="M263.812 233.747C263.598 233.559 272.399 220.759 274.841 220.652C277.283 220.572 282.731 223.443 286.675 223.818C290.62 224.194 294.457 223.067 295.209 225.402C295.96 227.736 297.999 236.028 296.738 237.343C295.477 238.685 268.643 237.88 263.812 233.747Z" fill="#E5C1A1"/>
<path opacity="0.5" d="M253.966 354.769C253.268 355.144 252.543 355.493 251.846 355.815C251.175 356.218 250.477 356.593 249.779 356.969C246.532 358.66 243.205 360.028 239.797 361.048C238.536 359.894 237.489 358.552 236.711 357.023C236.174 357.318 235.638 357.586 235.074 357.855V257.199C237.57 257.521 240.039 258.031 242.48 258.675C256.085 262.351 268.188 270.992 275.567 283.738C290.165 309.016 280.531 340.815 253.966 354.769Z" fill="#E2810E"/>
<path d="M263.174 279.767C248.549 253.228 215.167 243.567 188.628 258.192C162.089 272.817 152.429 306.199 167.053 332.738C181.678 359.277 215.06 368.937 241.599 354.312C268.165 339.688 277.798 306.306 263.174 279.767Z" fill="#E2810E"/>
<path d="M239.478 355.439C238.807 355.841 238.109 356.244 237.412 356.646C237.17 356.781 236.929 356.915 236.714 357.022C236.177 357.317 235.641 357.586 235.077 357.854C208.941 370.681 177.061 360.833 162.866 335.072C149.315 310.491 156.587 280.034 178.832 264.041C180.604 262.753 182.482 261.573 184.441 260.499C185.139 260.123 185.863 259.748 186.561 259.399C187.258 259.05 187.956 258.728 188.654 258.406C190.801 257.44 192.974 256.635 195.201 255.991C198.475 254.998 201.803 254.327 205.13 253.978C215.461 252.878 225.873 254.783 235.104 259.292C244.898 264.068 253.351 271.823 259.013 282.074C273.235 307.942 264.461 340.251 239.478 355.439Z" fill="#FFB93E"/>
<path d="M211.301 359.17C206.632 359.17 201.936 358.499 197.348 357.184C184.521 353.481 173.894 344.974 167.454 333.302C161.014 321.602 159.511 308.104 163.214 295.277C166.918 282.451 175.424 271.824 187.097 265.384C198.797 258.944 212.294 257.441 225.121 261.144C237.948 264.847 248.574 273.354 255.015 285.027C261.455 296.726 262.957 310.224 259.254 323.051C255.551 335.878 247.045 346.504 235.372 352.944C227.885 357.077 219.647 359.17 211.301 359.17ZM170.057 331.852C176.122 342.855 186.104 350.824 198.18 354.313C210.255 357.801 222.948 356.379 233.95 350.314C244.952 344.25 252.921 334.268 256.41 322.192C259.898 310.117 258.476 297.424 252.412 286.422C246.347 275.42 236.365 267.45 224.289 263.962C212.214 260.473 199.521 261.895 188.519 267.96C177.517 274.025 169.547 284.007 166.059 296.082C162.57 308.158 163.993 320.85 170.057 331.852Z" fill="#FFA412"/>
<path d="M235.424 313.928C235.317 313.659 235.21 313.391 235.076 313.15C234.19 311.191 233.063 309.607 231.748 308.4C230.245 307.031 228.501 306.012 226.515 305.314C224.53 304.616 222.303 304.214 219.861 304.053C217.419 303.892 214.735 303.865 211.864 303.945C210.093 303.999 208.563 303.972 207.302 303.865C206.041 303.758 204.968 303.516 204.082 303.167C203.197 302.818 202.499 302.335 201.935 301.718C201.399 301.101 200.942 300.35 200.567 299.464C200.218 298.579 200.003 297.693 199.95 296.834C199.896 295.976 200.03 295.144 200.352 294.366C200.674 293.587 201.184 292.863 201.882 292.192C202.579 291.521 203.519 290.958 204.672 290.501C206.819 289.643 208.805 289.643 210.656 290.555C212.508 291.467 214.011 293.346 215.191 296.217L226.381 291.682C225.415 289.294 224.181 287.254 222.732 285.618C221.256 283.981 219.619 282.693 217.768 281.78C215.943 280.868 213.93 280.358 211.757 280.197C209.583 280.036 207.329 280.278 205.021 280.895L201.855 273.086L195.656 275.582L198.769 283.283C196.542 284.437 194.636 285.779 193.08 287.335C191.524 288.865 190.343 290.528 189.511 292.326C188.679 294.124 188.25 296.002 188.196 297.961C188.142 299.92 188.545 301.933 189.377 303.972C190.343 306.334 191.55 308.185 193.053 309.554C194.556 310.922 196.3 311.942 198.286 312.613C200.272 313.284 202.499 313.686 204.941 313.82C207.409 313.955 210.066 313.955 212.964 313.82C214.628 313.713 216.104 313.74 217.338 313.847C218.573 313.955 219.646 314.196 220.531 314.545C221.417 314.921 222.168 315.404 222.759 316.074C223.349 316.718 223.859 317.55 224.261 318.57C224.61 319.456 224.798 320.341 224.798 321.227C224.798 322.112 224.61 322.944 224.208 323.749C223.805 324.554 223.215 325.305 222.437 325.976C221.658 326.647 220.639 327.238 219.431 327.747C218.385 328.177 217.285 328.472 216.157 328.606C215.03 328.74 213.93 328.633 212.857 328.284C211.783 327.935 210.764 327.264 209.825 326.325C208.885 325.386 208.08 324.071 207.383 322.354L196.193 326.835C197.347 329.706 198.823 331.987 200.594 333.678C202.365 335.368 204.297 336.576 206.39 337.3C208.483 338.025 210.683 338.347 212.964 338.24C215.245 338.159 217.526 337.783 219.753 337.113L222.651 344.224L228.796 341.728L225.898 334.59C228.126 333.436 230.058 332.095 231.641 330.592C233.117 329.196 234.271 327.694 235.102 326.057C235.183 325.923 235.237 325.788 235.29 325.654C236.122 323.883 236.578 322.032 236.632 320.046C236.686 318.087 236.283 316.021 235.424 313.928Z" fill="#FFA412"/>
<path d="M170.138 115.379C170.299 114.708 155.513 122.061 154.762 122.893C147.839 130.594 149.797 140.63 153.769 140.711C156.318 140.765 155.808 145.004 155.808 145.004L184.145 133.009C184.199 133.009 180.764 113.098 170.138 115.379Z" fill="#2C3A64"/>
<path d="M173.624 116.937C173.624 116.937 174.644 105.881 162.3 105.881C162.3 105.881 166.03 106.901 167.962 108.913C167.962 108.913 160.1 104.298 151.54 111.382C142.98 118.493 148.293 136.284 145.69 139.665C143.087 143.046 132.944 143.717 134.178 154.666C135.412 165.587 166.379 179.299 164.366 188.343C164.366 188.343 176.496 170.525 167.828 162.367C167.828 162.367 172.068 166.338 172.497 171.088C172.497 171.088 173.651 161.857 167.774 158.905C162.569 156.302 158.302 146.723 158.758 145.005C159.214 143.288 173.624 116.937 173.624 116.937Z" fill="#2C3A64"/>
<path d="M162.435 168.888C160.53 159.738 148.642 156.893 143.034 164.38C142.014 165.722 141.316 167.305 141.075 169.183C139.787 179.595 156.424 221.94 158.812 225.777C163.16 232.754 188.679 256.69 188.679 256.69L193.375 253.846C193.375 253.846 175.262 223.201 172.471 220.329C169.224 217.002 166.031 186.277 162.435 168.888Z" fill="#ED985F"/>
<path d="M186.883 253.846C186.883 253.846 193.752 249.338 196.355 249.633C198.958 249.928 206.472 252.102 206.579 253.202C206.66 254.302 198.207 255 197.617 255.59C197.053 256.207 191.284 260.045 189.217 258.837C187.097 257.63 186.883 253.846 186.883 253.846Z" fill="#ED985F"/>
<path d="M138.984 355.707L132.839 354.795C132.839 354.795 112.203 338.399 109.144 307.808C108.822 304.695 108.768 301.529 109.01 298.363C109.037 297.987 108.983 297.638 108.795 297.316C108.124 296.296 106.487 293.774 104.26 290.151C102.06 286.609 98.3029 279.874 94.1973 272.333C86.7642 258.755 78.0967 242.52 75.1181 237.368C65.6456 220.919 70.2074 209.836 70.2074 209.836C70.2074 209.836 96.6124 207.233 103.831 200.9L106.434 204.926C106.434 204.926 112.149 230.257 111.881 230.364C112.149 231.223 112.445 232.109 112.74 232.994C117.248 246.921 122.454 264.337 125.271 278.532C126.855 286.502 127.713 293.479 127.257 298.202C127.096 299.838 127.284 302.334 127.713 305.42C130.289 323.56 138.984 355.707 138.984 355.707Z" fill="#2B478B"/>
<path d="M151.835 363.464H126.235C126.235 363.464 125.618 359.573 126.96 356.594C128.248 353.75 130.073 353.669 127.201 349.215C128.838 350.879 134.044 351.576 137.747 351.093C138.204 351.818 140.672 356.755 142.175 357.855C143.866 359.063 151.326 358.634 151.835 363.464Z" fill="#233862"/>
<path d="M112.767 232.967C110.539 245.284 105.253 265.813 94.1973 272.36C86.7642 258.782 78.0967 242.547 75.1181 237.395C65.6456 220.919 70.2074 209.836 70.2074 209.836C70.2074 209.836 96.6124 207.233 103.831 200.9L106.434 204.926C106.434 204.926 112.149 230.257 111.881 230.364C112.176 231.223 112.471 232.082 112.767 232.967Z" fill="#233862"/>
<path d="M159.699 163.199C159.699 163.199 163.322 166.956 164.958 171.464C164.958 171.464 159.189 188.048 145.691 190.114C145.691 190.114 156.371 163.199 159.699 163.199Z" fill="#ED7D2B"/>
<path d="M94.8114 211.742L94.8919 206.965C85.3657 208.173 62.0199 195.561 62.0199 195.561C62.0199 195.561 52.0376 202.189 50.669 221.16C49.9982 230.418 45.7852 269.543 45.329 281.216C45.168 285.455 45.1143 288.461 45.0875 289.668C45.0875 290.044 44.8996 290.366 44.685 290.661C42.6992 293.157 41.0087 295.813 39.506 298.577C24.9618 325.653 32.5559 362.443 32.5559 362.443L35.937 361.584C35.937 361.584 48.2539 323.453 56.2774 306.95C57.6459 304.159 58.8803 301.985 59.9268 300.724C62.9591 297.048 66.1524 290.822 69.292 283.309C75.2224 269.113 80.9918 250.383 85.1242 235.892C85.3926 235.919 94.8114 211.742 94.8114 211.742Z" fill="#2B478B"/>
<path d="M150.602 179.783C135.011 176.214 144.967 154.29 145.879 154.693C148.026 154.264 152.775 150.453 157.015 143.047L157.579 143.557L167.159 151.956C167.159 151.956 164.958 155.23 163.08 158.423C161.631 160.919 160.396 163.387 160.584 164.246C161.389 164.836 154.761 180.749 150.602 179.783Z" fill="#FFB27D"/>
<path d="M167.186 151.928C167.186 151.928 164.959 155.202 163.107 158.395C157.15 154.719 157.15 147.367 157.606 143.529L167.186 151.928Z" fill="#ED985F"/>
<path d="M167.452 156.141C167.452 156.141 152.989 148.091 158.141 139.182C163.293 130.246 164.903 123.215 174.349 127.965C183.794 132.715 183.606 137.142 182.614 140.55C181.621 143.932 171.343 158.02 167.452 156.141Z" fill="#FFB27D"/>
<path d="M185.056 135.345C184.385 131.374 182.373 130.998 180.977 131.266C175.637 122.438 166.916 125.873 166.916 125.873C162.247 131.722 155.512 132.715 155.512 132.715C155.512 132.715 157.202 135.828 164.099 137.76C166.219 138.351 168.607 138.002 170.915 137.224C166.111 139.907 161.093 140.927 161.093 140.927C170.19 141.759 178.858 133.44 179.77 132.554C180.199 133.842 180.924 136.553 180.494 138.512C179.904 141.195 177.516 146.052 178.965 146.696C178.965 146.696 186.049 141.275 185.056 135.345Z" fill="#2C3A64"/>
<path d="M52.8979 363.464H27.298C27.298 363.464 26.6808 359.573 28.0225 356.595C29.3105 353.75 31.3231 352.462 30.8401 349.027C32.477 350.691 35.1067 352.569 38.8099 352.086C39.266 352.811 41.7348 356.756 43.2375 357.856C44.9281 359.063 52.388 358.634 52.8979 363.464Z" fill="#233862"/>
<path d="M152.455 197.143C149.154 198.297 144.539 198.915 139.816 199.424C133.081 200.149 126.131 200.659 122.508 202.108C121.193 202.644 120.281 203.289 120.012 204.12C118.429 208.87 111.479 216.196 111.479 216.196C66.9073 214.156 62.0234 195.533 62.0234 195.533C91.9973 160.676 142.768 150.586 142.768 150.586C142.768 150.586 146.39 149.056 155.514 156.302C161.605 161.159 160.8 163.01 160.8 163.01C160.8 163.01 162.142 193.789 152.455 197.143Z" fill="#F99746"/>
<path d="M139.814 199.452C133.079 200.177 126.129 200.687 122.506 202.136C121.03 179.917 131.495 163.199 131.495 163.199C131.495 163.199 138.338 191.026 139.814 199.452Z" fill="#ED7D2B"/>
<path d="M146.739 158.906C146.739 158.906 129.86 160.57 128.518 171.545C127.177 182.494 144.7 227.146 147.195 231.198C151.757 238.55 178.672 263.775 178.672 263.775L183.636 260.769C183.636 260.769 164.557 228.461 161.605 225.455C156.936 220.652 152.455 162.69 146.739 158.906Z" fill="#FFB27D"/>
<path d="M129.001 178.119C129.055 178.36 144.565 183.19 154.547 178.119C154.547 178.119 156.694 155.068 144.753 156.329C132.838 157.59 125.754 161.347 125.459 167.036C125.191 172.752 129.001 178.119 129.001 178.119Z" fill="#F99746"/>
<path d="M177.141 260.526C177.141 260.526 183.178 254.971 185.808 254.837C188.411 254.703 196.193 255.642 196.461 256.715C196.73 257.789 188.465 259.828 188.009 260.526C187.552 261.224 182.481 265.946 180.227 265.088C177.972 264.229 177.141 260.526 177.141 260.526Z" fill="#FFB27D"/>
<path d="M646.015 365.208H-47.2218C-47.6512 365.208 -48 364.859 -48 364.429V364.161C-48 363.732 -47.6512 363.383 -47.2218 363.383H646.015C646.444 363.383 646.793 363.732 646.793 364.161V364.429C646.82 364.859 646.471 365.208 646.015 365.208Z" fill="#2E3552"/>
</g>
</svg>
