<svg width="507" height="402" viewBox="0 0 507 402" fill="none" xmlns="http://www.w3.org/2000/svg">
<g opacity="0.6">
<path d="M543 78.3755V338.682C543 380.416 510.934 408.582 472.219 414.257C427.007 420.885 380.456 418.126 285.29 411.187C231.856 407.292 124.421 413.741 70.807 414.257C31.7046 414.643 0 380.441 0 338.708V78.3755C0 36.6418 31.7562 0.350599 70.7813 2.80097C107.022 5.07078 160.328 14.0985 215.901 8.57868C244.744 5.71562 284.904 3.03311 326.377 1.45971C379.94 -0.577962 435.72 -0.784309 472.193 2.80097C494.206 4.96761 513.976 15.5171 526.993 31.8185C536.968 44.3283 543 60.2428 543 78.3755Z" fill="#DAEBE8"/>
<path d="M270.753 376.006C392.013 376.006 490.314 364.781 490.314 350.934C490.314 337.088 392.013 325.863 270.753 325.863C149.492 325.863 51.1914 337.088 51.1914 350.934C51.1914 364.781 149.492 376.006 270.753 376.006Z" fill="#CCD39C"/>
<path d="M400.898 194.703C394.918 193.259 389.016 188.848 383.499 182.839C379.35 178.299 376.849 174.017 376.746 173.837L381.669 170.845L385.046 167.414C387.185 171.077 396.207 180.517 404.095 182.761C410.049 184.463 418.297 182.658 421.081 182.142L429.046 191.376C422.834 196.561 408.631 196.586 400.898 194.703Z" fill="#FFB27D"/>
<path d="M380.251 176.03C380.251 176.03 369.528 175.927 366.924 173.45C364.321 170.974 363.032 165.609 364.811 167.028C366.538 168.421 367.749 170.794 367.749 170.794C367.749 170.794 365.146 165.429 366.203 165.016C367.724 164.423 370.198 169.246 370.198 169.246C370.198 169.246 366.873 162.591 368.497 162.617C370.121 162.643 372.621 167.595 372.621 167.595C372.621 167.595 369.554 161.457 371.461 161.534C373.369 161.611 374.709 166.512 376.281 166.022C377.854 165.532 383.009 165.609 384.401 167.26L380.251 176.03Z" fill="#FFB27D"/>
<path d="M385.482 168.085C384.554 166.253 379.322 161.533 377.775 161.533C376.229 161.533 381.436 171.206 381.436 171.206L385.482 168.085Z" fill="#FFB27D"/>
<path d="M379.168 168.318L378.91 168.241C379.348 167.003 378.549 165.765 378.523 165.739L378.755 165.584C378.781 165.661 379.658 166.977 379.168 168.318Z" fill="#E9845C"/>
<path d="M369.632 171.594C368.111 171.594 367.647 170.923 367.621 170.872L367.853 170.717L367.75 170.794L367.853 170.717C367.853 170.717 368.446 171.568 370.56 171.233L370.611 171.491C370.224 171.568 369.915 171.594 369.632 171.594Z" fill="#E9845C"/>
<path d="M372.079 169.582C369.862 169.582 369.27 167.957 369.27 167.931L369.527 167.854C369.553 167.931 370.275 169.891 373.291 169.195L373.342 169.453C372.878 169.53 372.466 169.582 372.079 169.582Z" fill="#E9845C"/>
<path d="M374.039 167.878C373.42 167.878 372.93 167.749 372.569 167.491C372.054 167.13 371.977 166.614 371.977 166.588L372.234 166.562C372.234 166.588 372.286 166.975 372.724 167.285C373.214 167.646 374.013 167.723 375.044 167.517L375.095 167.775C374.735 167.852 374.374 167.878 374.039 167.878Z" fill="#E9845C"/>
<path d="M412.446 191.04L412.137 190.912C413.348 188.074 416.596 184.747 416.622 184.695L416.854 184.927C416.854 184.953 413.658 188.255 412.446 191.04Z" fill="#331832"/>
<path d="M420.772 339.121C420.772 339.121 420.591 342.81 418.065 343.79C415.539 344.77 408.296 345.518 410.925 347.942C412.446 349.335 419.767 348.665 421.829 348.716C423.891 348.768 425.798 349.722 427.371 348.381C429.098 346.911 427.603 339.302 427.603 339.302C427.603 339.302 425.798 340.179 424.2 340.101C421.88 339.998 420.772 339.121 420.772 339.121Z" fill="#331832"/>
<path d="M402.572 244.845C403.036 252.661 403.938 263.055 405.742 275.9C408.964 299.063 412.856 322.432 414.79 333.652C415.486 337.65 418.759 340.668 422.703 340.926L424.842 341.08C429.121 341.364 432.704 337.779 432.524 333.368L429.173 257.819L428.889 247.141C428.863 247.141 401.876 233.135 402.572 244.845Z" fill="#68A1BF"/>
<path d="M444.409 339.766C444.409 339.766 444.228 343.454 441.702 344.434C439.176 345.414 431.933 346.162 434.562 348.587C436.083 349.98 443.403 349.309 445.465 349.361C447.528 349.412 449.435 350.367 451.007 349.025C452.734 347.555 451.239 339.946 451.239 339.946C451.239 339.946 449.435 340.823 447.837 340.746C445.543 340.617 444.409 339.766 444.409 339.766Z" fill="#331832"/>
<path d="M425.875 227.797C425.875 227.797 424.921 244.434 429.38 276.546C432.602 299.709 436.494 323.077 438.428 334.298C439.124 338.296 442.397 341.313 446.341 341.571L448.48 341.726C452.759 342.01 456.342 338.425 456.162 334.014L452.811 258.465L452.141 233.6L425.875 227.797Z" fill="#68A1BF"/>
<path d="M454.306 248.172C453.997 250.158 441.83 249.307 427.009 246.805C412.188 244.303 400.563 240.64 400.898 238.654C401.207 236.668 413.348 237.132 428.195 239.634C442.99 242.136 454.615 246.186 454.306 248.172Z" fill="#331832"/>
<path d="M458.328 191.298C458.328 191.298 457.116 180.49 437.707 177.756C409.714 173.784 408.812 199.887 400.898 238.68C400.898 238.68 429.02 238.525 454.384 247.708C454.384 247.708 462.246 208.063 458.328 191.298Z" fill="#EF8062"/>
<path d="M466.628 195.478L452.065 196.045C452.065 196.045 422.216 199.373 414.999 197.155C407.781 194.936 407.91 182.659 407.91 182.659C407.91 182.659 417.19 177.603 430.851 177.242C432.14 177.216 433.454 177.242 434.821 177.319C437.115 177.474 439.357 177.887 441.548 178.377C467.84 184.309 466.628 195.478 466.628 195.478Z" fill="#EF8062"/>
<path d="M440.694 175.72L439.869 170.793L439.637 169.349L438.219 160.889L436.802 168.91L435.951 173.734L435.668 175.256C435.487 176.287 435.281 177.19 434.379 177.99C434.018 178.325 431.26 179.512 433.399 180.801C436.054 182.426 441.441 181.137 443.787 178.944C443.787 178.918 440.952 177.319 440.694 175.72Z" fill="#FFB27D"/>
<path d="M402.238 240.151C402.238 240.151 418.065 239.738 452.528 249.076L452.631 252.816L403.166 253.228L402.238 240.151Z" fill="#68A1BF"/>
<path d="M466.616 195.451C466.933 193.598 463.117 191.399 458.093 190.54C453.07 189.681 448.741 190.488 448.425 192.341C448.108 194.195 451.924 196.393 456.947 197.252C461.971 198.111 466.3 197.305 466.616 195.451Z" fill="#331832"/>
<path d="M433.967 155.832C433.967 155.832 432.859 157.56 432.601 160.088C432.343 162.616 436.596 157.56 436.596 157.56L433.967 155.832Z" fill="#5C305D"/>
<path d="M445.267 166.883C447.336 162.504 446.07 157.563 442.44 155.846C438.811 154.13 434.192 156.288 432.124 160.667C430.056 165.046 431.321 169.987 434.951 171.704C438.58 173.42 443.199 171.262 445.267 166.883Z" fill="#FFB27D"/>
<path d="M446.187 164.551L442.939 163.132C442.217 162.823 441.676 162.204 441.496 161.456C441.16 160.166 440.516 159.341 437.346 158.464C433.35 157.329 431.494 154.13 431.726 151.938C431.958 149.694 434.459 148.894 436.108 150.545C437.784 152.196 437.706 149.436 439.717 149.797C443.454 150.442 443.222 153.434 446.187 154.285C450.053 155.394 455.982 160.527 450.569 166.227L446.187 164.551Z" fill="#331832"/>
<path d="M438.427 163.313C438.401 163.287 438.376 163.236 438.401 163.184C438.427 163.107 438.504 163.055 438.582 163.081C438.633 163.081 439.742 163.236 439.896 164.525C439.896 164.603 439.845 164.68 439.767 164.706C439.69 164.706 439.639 164.654 439.587 164.577C439.303 163.829 438.53 163.39 438.479 163.39C438.479 163.339 438.453 163.313 438.427 163.313Z" fill="#080435"/>
<path d="M438.453 165.298C438.272 165.582 437.937 165.711 437.731 165.582C437.525 165.453 437.499 165.092 437.679 164.808C437.86 164.525 438.195 164.396 438.401 164.525C438.633 164.654 438.633 164.989 438.453 165.298Z" fill="#080435"/>
<path d="M433.376 161.224C433.35 161.198 433.324 161.172 433.324 161.121C433.324 161.044 433.376 160.966 433.427 160.94C433.479 160.94 434.381 160.553 434.793 161.559C434.819 161.611 434.793 161.714 434.742 161.766C434.69 161.817 434.613 161.792 434.587 161.74C434.175 161.224 433.479 161.224 433.453 161.224C433.427 161.224 433.402 161.224 433.376 161.224Z" fill="#080435"/>
<path d="M434.176 163.055C434.099 163.39 433.867 163.648 433.609 163.597C433.351 163.545 433.197 163.235 433.274 162.874C433.351 162.539 433.583 162.281 433.841 162.333C434.099 162.41 434.253 162.72 434.176 163.055Z" fill="#080435"/>
<path d="M450.542 166.176C450.542 166.176 446.624 170.432 443.222 169.735C443.222 169.735 447.088 166.795 442.242 162.668C442.268 162.668 447.655 163.519 450.542 166.176Z" fill="#5C305D"/>
<path d="M445.051 167.465C444.2 167.697 443.349 167.258 443.169 166.484C442.963 165.736 443.504 164.937 444.329 164.705C445.179 164.473 446.03 164.911 446.21 165.685C446.417 166.433 445.875 167.232 445.051 167.465Z" fill="#FFB27D"/>
<path d="M442.269 162.668C442.269 162.668 441.367 167.001 440.259 167.517C439.15 168.033 433.428 166.563 431.108 164.706C430.206 167.388 431.34 170.38 433.841 171.67C434.665 172.108 435.568 172.392 436.521 172.521C438.454 172.779 440.491 172.598 441.805 171.154C442.192 170.716 442.553 167.311 442.553 167.311C442.553 167.311 442.914 165.35 444.306 164.731C444.331 164.731 443.429 163.184 442.269 162.668Z" fill="#5C305D"/>
<path d="M437.086 150.39C436.931 150.39 436.777 150.364 436.57 150.287L436.648 150.106C437.55 150.416 437.859 149.719 437.885 149.693L438.065 149.771C438.065 149.797 437.782 150.39 437.086 150.39Z" fill="#331832"/>
<path d="M436.573 156.968C436.573 156.968 435.594 156.298 434.692 155.369C433.506 154.131 432.99 152.97 433.197 152.016C433.351 151.345 433.609 150.958 433.97 150.804C434.537 150.571 435.285 150.984 435.903 151.371C436.006 151.423 436.084 151.474 436.187 151.526L436.135 151.603C436.058 151.552 435.955 151.5 435.852 151.448C435.233 151.087 434.537 150.649 433.996 150.881C433.661 151.01 433.429 151.397 433.274 152.016C432.99 153.177 433.918 154.44 434.743 155.266C435.62 156.194 436.599 156.839 436.599 156.865L436.573 156.968Z" fill="white"/>
<path d="M447.58 155.55C445.312 155.137 443.92 154.131 443.121 153.357C442.27 152.506 441.961 151.784 441.961 151.758L442.064 151.732C442.064 151.758 443.301 154.699 447.606 155.472L447.58 155.55Z" fill="white"/>
<path d="M435.231 168.756C433.144 168.756 432.061 166.976 432.061 166.95C432.009 166.847 432.035 166.718 432.138 166.666C432.241 166.615 432.37 166.641 432.422 166.744C432.473 166.821 433.736 168.91 436.237 168.188C436.34 168.162 436.469 168.214 436.494 168.343C436.52 168.446 436.469 168.575 436.34 168.601C435.953 168.704 435.592 168.756 435.231 168.756Z" fill="#FFB27D"/>
<path d="M430.102 283.071C430.077 282.942 428.272 269.324 426.906 264.449C425.54 259.625 419.277 255.421 419.199 255.369L419.38 255.111C419.431 255.163 425.824 259.419 427.216 264.371C428.582 269.272 430.412 282.917 430.438 283.046L430.102 283.071Z" fill="#331832"/>
<path d="M421.235 207.239C426.39 210.36 435.128 213.016 438.556 211.649C444.923 209.147 446.573 201.771 448.454 196.044C449.434 193.104 451.264 191.427 455.414 191.582C457.141 191.659 460.002 191.324 463.379 193.233C465.028 194.136 464.796 195.993 464.41 197.515C463.817 199.913 463.25 203.344 461.497 207.393C457.321 217.04 455.414 221.219 448.068 225.165C439.046 229.988 423.4 226.429 413.218 216.137C412.187 215.054 420.023 206.491 421.235 207.239Z" fill="#FFB27D"/>
<g opacity="0.5">
<path opacity="0.5" d="M443.327 222.792C442.889 222.792 442.477 222.715 442.116 222.586C441.549 222.354 441.136 221.993 440.93 221.503C440.363 220.161 441.42 218.407 443.379 217.53C444.539 217.014 445.776 216.911 446.704 217.272C447.271 217.505 447.683 217.866 447.89 218.356C448.457 219.697 447.4 221.451 445.441 222.328C444.719 222.612 443.997 222.792 443.327 222.792ZM445.441 217.737C444.874 217.737 444.255 217.891 443.636 218.149C442.09 218.846 441.136 220.239 441.549 221.219C441.729 221.606 442.09 221.838 442.348 221.941C443.095 222.225 444.126 222.147 445.131 221.683C446.678 220.987 447.632 219.594 447.219 218.614C447.039 218.227 446.678 217.995 446.42 217.891C446.111 217.788 445.776 217.737 445.441 217.737Z" fill="#EC865C"/>
</g>
<path d="M414.844 216.653C414.844 216.653 403.038 215.285 400.461 212.242C397.883 209.198 397.084 203.137 398.862 204.917C400.615 206.67 401.672 209.43 401.672 209.43C401.672 209.43 399.43 203.214 400.641 202.879C402.394 202.389 404.533 208.012 404.533 208.012C404.533 208.012 401.646 200.274 403.451 200.506C405.255 200.738 407.42 206.464 407.42 206.464C407.42 206.464 404.765 199.319 406.853 199.629C408.941 199.938 409.843 205.484 411.622 205.149C413.426 204.813 419.097 205.484 420.411 207.47L414.844 216.653Z" fill="#FFB27D"/>
<path d="M403.785 211.598C402.497 211.417 401.595 209.56 401.543 209.482L401.801 209.354C401.801 209.379 402.677 211.133 403.811 211.314L403.785 211.598Z" fill="#E9845C"/>
<path d="M406.957 210.592C405.205 209.973 404.38 208.167 404.328 208.09L404.586 207.961C404.586 207.987 405.411 209.741 407.035 210.308L406.957 210.592Z" fill="#E9845C"/>
<path d="M409.688 208.785C408.296 208.708 407.213 206.515 407.188 206.412L407.445 206.283C407.445 206.309 408.476 208.398 409.714 208.476L409.688 208.785Z" fill="#E9845C"/>
<path d="M421.908 207.858C421.676 207.754 415.541 200.584 413.866 200.403C412.165 200.223 415.541 208.27 415.541 208.27L421.908 207.858Z" fill="#FFB27D"/>
<path d="M286.218 271.826L279.955 283.511C279.104 285.11 279.516 287.096 280.934 288.231L291.245 296.407L278.382 289.288C277.403 288.747 276.166 288.979 275.444 289.83L270.572 295.53L273.356 288.695C273.871 287.431 273.588 285.987 272.634 285.007L267.84 280.054L274 283.407C275.031 283.975 276.294 283.717 277.042 282.84L286.218 271.826Z" fill="#DAEBE8"/>
<path d="M304.957 23.5383C304.957 23.5383 359.628 119.309 367.206 99.964C376.46 76.4405 308.076 2.77463 304.957 23.5383Z" fill="#764678"/>
<path d="M368.006 96.3019C368.599 90.8595 366.459 84.179 362.799 77.1374C354.912 61.9967 339.987 45.1794 330.166 35.4554C318.541 23.9773 306.891 20.3404 306.891 20.3404C306.891 20.3404 306.916 20.3147 306.994 20.2373C307.973 19.2055 315.5 11.3644 326.377 1.45971C379.94 -0.577962 435.72 -0.784309 472.193 2.80097C494.206 4.96761 513.976 15.5171 526.993 31.8185C483.045 66.3816 365.66 102.57 365.66 102.57C365.944 102.183 366.201 101.796 366.433 101.383C367.284 99.8871 367.8 98.2106 368.006 96.4308C368.006 96.3792 368.006 96.3535 368.006 96.3019Z" fill="#68A1BF"/>
<path d="M241.934 55.3164C241.934 55.3164 200.821 56.0128 198.14 59.9076C192.985 67.4135 213.709 67.4135 213.709 67.4135L241.934 55.3164Z" fill="#FFB27D"/>
<path d="M306.889 25.8866C294.13 32.6186 284.799 36.5908 276.009 41.0789C254.306 52.17 216.569 80.4395 218.657 101.822C220.745 123.205 247.475 147.167 255.337 141.08C263.224 134.967 246.805 105.124 249.898 98.2369C252.991 91.3759 292.609 91.4533 293.898 96.7925C295.187 102.132 266.91 124.34 276.19 134.296C276.19 134.296 281.396 139.893 296.914 127.177C305.317 120.29 322.303 114.203 335.655 99.604C340.914 93.8521 348.724 85.7787 351.069 81.0585C355.065 72.9852 313.9 22.1981 306.889 25.8866Z" fill="#FFB27D"/>
<path d="M268.768 45.0762C268.768 45.0762 221.83 59.2883 208.478 76.4151C195.126 93.5419 188.605 107.496 196.234 112.448C203.864 117.401 233.223 89.157 233.223 89.157L268.768 45.0762Z" fill="#FFB27D"/>
<path d="M290.626 34.2188C273.175 39.6096 182.495 77.7063 181.412 84.1289C179.324 96.5355 213.529 84.5932 213.529 84.5932L290.626 34.2188Z" fill="#FFB27D"/>
<path d="M251.599 136.952C251.599 136.952 235.051 121.424 218.864 134.992C202.676 148.559 223.581 170.096 244.202 176.055C264.822 182.013 270.571 185.134 274.076 183.07C277.582 181.007 316.272 121.863 290.212 101.795C271.524 87.4028 250.465 103.859 251.599 136.952Z" fill="#EF8062"/>
<path d="M293.899 96.7924C293.899 96.7924 270.598 122.457 272.634 132.903C274.67 143.324 295.136 128.544 318.593 113.042C342.049 97.5404 304.235 80.8005 293.899 96.7924Z" fill="#FFB27D"/>
<path d="M218.66 102.467C218.376 102.467 218.119 102.286 218.041 102.002C217.938 101.615 215.515 92.6394 220.232 84.3597C223.351 78.9173 228.816 75.0999 236.497 73.0365C236.832 72.9333 237.193 73.1396 237.27 73.4749C237.373 73.8103 237.167 74.1714 236.832 74.2487C229.486 76.209 224.279 79.8201 221.341 84.953C216.881 92.7684 219.253 101.564 219.253 101.641C219.356 101.977 219.15 102.338 218.815 102.415C218.789 102.467 218.711 102.467 218.66 102.467Z" fill="#E9845C"/>
<path d="M200.024 89.0032C199.921 89.0032 199.792 88.9774 199.689 88.9C199.379 88.7195 199.302 88.3326 199.483 88.023C199.843 87.4556 208.169 73.9657 215.026 70.3804C221.779 66.8209 233.791 63.5193 234.306 63.3646C234.641 63.2614 235.002 63.4678 235.079 63.8031C235.183 64.1384 234.976 64.4995 234.641 64.5769C234.512 64.6027 222.243 67.9816 215.618 71.4895C209.071 74.92 200.642 88.5389 200.565 88.6937C200.436 88.8742 200.23 89.0032 200.024 89.0032Z" fill="#E9845C"/>
<path d="M227.294 158.128L219.046 144.431C217.912 142.549 215.618 141.775 213.556 142.549L198.734 148.223L214.02 139.247C215.18 138.551 215.721 137.158 215.283 135.868L212.37 127.305L217.757 134.398C218.762 135.713 220.438 136.307 222.036 135.92L230.13 133.985L222.861 138.318C221.649 139.041 221.108 140.511 221.598 141.852L227.294 158.128Z" fill="white"/>
<g opacity="0.8">
<path opacity="0.8" d="M345.014 192.33C345.014 192.33 344.988 192.33 345.014 192.33C344.086 191.401 343.57 190.189 343.57 188.925V176.518C343.57 171.927 339.807 168.239 335.219 168.342L210.617 170.818C206.286 170.895 202.678 174.171 202.162 178.479C202.162 178.479 203.992 188.28 201.672 190.318C181.851 207.703 165.457 235.43 165.457 263.881C165.457 302.416 186.001 330.041 211.854 348.767C211.854 348.767 233.583 353.461 268.433 353.564C308.875 353.693 332.538 348.767 332.538 348.767C358.391 330.041 379.811 309.922 379.811 268.188C379.786 239.712 363.65 211.004 345.014 192.33Z" fill="#ACC9C5"/>
</g>
<g opacity="0.6">
<path opacity="0.6" d="M349.368 189.467C349.368 189.467 349.342 189.467 349.368 189.467C348.414 188.487 347.873 187.197 347.873 185.856V172.727C347.873 167.878 343.929 163.957 339.109 164.061L208.295 166.692C203.759 166.795 199.97 170.251 199.403 174.791C199.403 174.791 201.31 185.185 198.887 187.326C178.06 205.717 160.867 235.096 160.867 265.222C160.867 297.335 174.193 322.251 193.087 341.08C202.521 350.469 214.842 356.402 228.066 357.898C238.196 359.058 252.115 360.142 268.947 360.193C289.671 360.271 306.219 359.058 317.689 357.795C330.139 356.427 341.919 351.372 351.404 343.195C371.252 326.12 385.867 305.357 385.867 269.762C385.867 239.635 368.932 209.225 349.368 189.467Z" fill="#ACC9C5"/>
</g>
<path d="M272.169 350.211C300.327 350.211 323.154 347.659 323.154 344.511C323.154 341.363 300.327 338.811 272.169 338.811C244.01 338.811 221.184 341.363 221.184 344.511C221.184 347.659 244.01 350.211 272.169 350.211Z" fill="#8BB2AC"/>
<path d="M233.685 184.772C222.73 184.772 212.188 184.489 202.754 183.818L202.805 183.044C255.44 186.81 342.667 178.195 343.543 178.092L343.62 178.84C342.899 178.943 283.923 184.772 233.685 184.772Z" fill="#8BB2AC"/>
<path d="M265.261 189.337C240.542 189.337 216.183 188.641 202.754 186.371L202.883 185.623C237.01 191.401 342.1 186.939 343.157 186.887L343.182 187.661C342.564 187.661 303.487 189.337 265.261 189.337Z" fill="#8BB2AC"/>
<path d="M202.16 178.867V178.093C203.397 178.093 325.035 177.912 343.104 173.656L343.284 174.404C325.138 178.686 203.397 178.867 202.16 178.867Z" fill="#8BB2AC"/>
<g opacity="0.7">
<g opacity="0.7">
<path opacity="0.7" d="M213.166 301.823C213.166 301.823 200.485 288.255 186.565 298.47C172.621 308.684 188.524 327.384 205.047 333.342C221.569 339.3 226.08 342.164 229.07 340.668C232.035 339.172 266.807 292.976 246.624 275.204C232.112 262.436 214.017 274.74 213.166 301.823Z" fill="#EF8062"/>
</g>
<g opacity="0.7">
<path opacity="0.7" d="M242.68 283.767C242.397 283.767 242.139 283.587 242.036 283.303C240.85 279.898 238.402 277.964 234.793 277.551C232.035 277.242 229.612 277.99 229.586 277.99C229.225 278.093 228.839 277.912 228.736 277.525C228.633 277.164 228.813 276.777 229.2 276.674C229.303 276.648 240.051 273.424 243.325 282.839C243.454 283.2 243.273 283.587 242.912 283.716C242.835 283.767 242.758 283.767 242.68 283.767Z" fill="#DAEBE8"/>
</g>
</g>
<path d="M300.908 295.814C300.908 295.814 303.795 272.497 282.581 267.235C261.367 261.973 256.16 292.59 263.739 313.457C271.343 334.323 272.245 341.03 276.085 342.706C279.926 344.383 352.924 340.694 353.8 306.673C354.445 282.272 327.87 274.689 300.908 295.814Z" fill="#EF8062"/>
<path d="M342.999 310.155C342.844 310.155 342.689 310.103 342.56 310.026C342.148 309.768 342.019 309.252 342.251 308.839C344.597 304.919 344.494 300.972 341.968 297.155C340.034 294.24 337.354 292.486 337.328 292.46C336.916 292.203 336.812 291.661 337.07 291.248C337.328 290.835 337.869 290.732 338.282 290.99C338.411 291.068 341.297 292.951 343.437 296.175C346.35 300.534 346.453 305.228 343.772 309.716C343.592 310 343.282 310.155 342.999 310.155Z" fill="#DAEBE8"/>
<path d="M236.314 324.187C236.314 324.187 224.663 322.252 221.596 332.802C218.528 343.351 233.762 346.627 244.407 343.222C255.053 339.843 258.43 339.534 259.358 337.625C260.286 335.716 259.95 298.961 242.887 297.826C230.643 297 226.287 310.207 236.314 324.187Z" fill="#E56E56"/>
<path d="M235.026 306.003C234.948 306.003 234.845 305.977 234.768 305.925C234.562 305.797 234.536 305.513 234.665 305.306C234.716 305.255 238.866 299.477 244.176 302.933C244.382 303.062 244.434 303.346 244.305 303.553C244.176 303.759 243.893 303.81 243.686 303.681C241.753 302.418 239.794 302.392 237.809 303.578C236.314 304.507 235.361 305.797 235.361 305.822C235.309 305.951 235.18 306.003 235.026 306.003Z" fill="#DAEBE8"/>
<path d="M245.026 239.403C245.026 239.403 237.68 230.866 228.993 236.695C220.281 242.524 229.457 254.26 239.303 258.284C249.15 262.308 251.831 264.165 253.661 263.339C255.491 262.514 277.736 235.405 265.956 224.108C257.501 216.034 246.237 223.024 245.026 239.403Z" fill="#E56E56"/>
<path d="M263.403 229.215C263.223 229.215 263.068 229.087 262.991 228.906C262.347 226.817 260.929 225.579 258.789 225.243C257.114 224.985 255.619 225.372 255.593 225.372C255.361 225.424 255.129 225.295 255.078 225.063C255.026 224.831 255.155 224.598 255.387 224.547C255.464 224.521 262.037 222.844 263.79 228.648C263.867 228.88 263.738 229.112 263.506 229.164C263.481 229.215 263.429 229.215 263.403 229.215Z" fill="#DAEBE8"/>
<path d="M305.317 224.623C305.317 224.623 293.667 222.096 290.032 232.593C286.398 243.091 301.631 247.141 312.561 244.252C323.464 241.363 326.918 241.208 327.923 239.326C328.954 237.443 330.423 200.3 313.257 198.314C300.936 196.87 295.883 209.998 305.317 224.623Z" fill="#EF8062"/>
<path d="M304.956 206.207C304.853 206.207 304.776 206.181 304.673 206.104C304.492 205.949 304.441 205.666 304.595 205.485C304.647 205.433 309.132 199.785 314.313 203.576C314.519 203.731 314.545 203.989 314.416 204.195C314.262 204.402 314.004 204.427 313.798 204.298C311.916 202.931 309.931 202.802 307.869 203.912C306.297 204.763 305.291 206.027 305.291 206.052C305.214 206.13 305.085 206.207 304.956 206.207Z" fill="#DAEBE8"/>
<path d="M193.808 262.281C193.808 262.281 197.52 256.787 192.854 252.738C188.189 248.688 182.956 255.73 182.209 261.946C181.435 268.162 180.817 269.968 181.564 270.896C182.312 271.825 201.154 280.234 205.716 271.799C208.99 265.738 203.293 260.424 193.808 262.281Z" fill="#EF8062"/>
<path d="M202.673 271.309C202.596 271.309 202.518 271.257 202.467 271.206C202.39 271.103 202.441 270.948 202.544 270.871C203.627 270.174 204.117 269.194 203.962 267.904C203.859 266.924 203.395 266.15 203.395 266.125C203.318 265.996 203.369 265.867 203.472 265.789C203.601 265.712 203.73 265.763 203.807 265.867C203.833 265.892 205.792 269.375 202.802 271.283C202.75 271.309 202.699 271.309 202.673 271.309Z" fill="#DAEBE8"/>
<path d="M335.757 239.48L340.835 253.564C341.531 255.498 343.49 256.633 345.526 256.298L360.167 253.822L344.495 259.264C343.31 259.677 342.562 260.889 342.717 262.127L343.825 270.536L340.165 263.03C339.495 261.637 338.051 260.786 336.53 260.837L328.746 261.147L336.221 258.49C337.458 258.052 338.232 256.788 338.025 255.498L335.757 239.48Z" fill="#DAEBE8"/>
<path d="M240.104 220.754L233.016 233.934C232.037 235.74 232.5 237.984 234.124 239.248L245.749 248.482L231.237 240.46C230.129 239.841 228.737 240.099 227.912 241.053L222.396 247.502L225.515 239.764C226.082 238.345 225.773 236.694 224.69 235.585L219.277 229.988L226.237 233.78C227.397 234.399 228.84 234.141 229.691 233.135L240.104 220.754Z" fill="#DAEBE8"/>
<path d="M284.85 202.002L280.288 210.488C279.669 211.649 279.953 213.093 280.984 213.918L288.459 219.877L279.128 214.718C278.406 214.331 277.53 214.486 276.989 215.105L273.457 219.258L275.468 214.28C275.829 213.351 275.623 212.319 274.952 211.597L271.473 208.012L275.958 210.462C276.705 210.875 277.633 210.694 278.174 210.049L284.85 202.002Z" fill="#DAEBE8"/>
<path d="M211.518 198.211L206.956 206.697C206.337 207.858 206.621 209.302 207.652 210.127L215.127 216.086L205.796 210.927C205.074 210.54 204.198 210.695 203.657 211.314L200.125 215.467L202.136 210.489C202.497 209.56 202.291 208.528 201.62 207.806L198.141 204.221L202.626 206.671C203.373 207.084 204.301 206.903 204.842 206.258L211.518 198.211Z" fill="#DAEBE8"/>
<path d="M200.589 286.09L196.026 294.576C195.408 295.737 195.691 297.181 196.722 298.006L204.197 303.965L194.866 298.806C194.145 298.419 193.268 298.574 192.727 299.193L189.196 303.346L191.206 298.368C191.567 297.439 191.361 296.407 190.691 295.685L187.211 292.1L191.696 294.55C192.443 294.963 193.371 294.782 193.913 294.137L200.589 286.09Z" fill="#DAEBE8"/>
<path d="M278.485 360.709C257.838 360.709 238.017 359.471 231.237 358.877C219.612 357.871 208.993 353.074 208.89 353.022C208.58 352.867 208.426 352.506 208.58 352.171C208.735 351.862 209.096 351.707 209.431 351.861C209.534 351.913 219.947 356.633 231.366 357.613C242.708 358.594 290.574 361.379 317.639 357.175C344.034 353.048 355.71 338.578 355.839 338.423C356.045 338.139 356.458 338.088 356.741 338.32C357.025 338.526 357.077 338.939 356.845 339.223C356.716 339.378 353.803 343.04 347.514 347.27C341.74 351.165 331.893 356.246 317.845 358.439C306.839 360.141 292.482 360.709 278.485 360.709Z" fill="#8BB2AC"/>
<path d="M197.674 345.826C197.545 345.826 197.416 345.774 197.313 345.697C184.966 336.747 173.573 316.705 173.444 316.499C173.264 316.19 173.367 315.803 173.676 315.622C173.986 315.441 174.372 315.545 174.553 315.854C174.656 316.061 185.92 335.844 198.06 344.64C198.344 344.846 198.396 345.233 198.189 345.516C198.06 345.749 197.88 345.826 197.674 345.826Z" fill="#8BB2AC"/>
<g opacity="0.6">
<path opacity="0.6" d="M124.86 49.1774C124.86 49.1774 118.854 37.6219 103.646 39.0664C88.4383 40.5108 90.2684 52.092 83.0253 51.0087C75.7822 49.9254 65.6522 51.0087 63.487 58.2566C61.3218 65.5046 51.5527 61.5066 51.1918 67.6712C50.8309 73.8358 62.4044 78.1691 75.7822 72.7525C89.1601 67.3101 95.6814 76.9826 114.498 75.2287C133.315 73.4747 135.634 71.3081 146.77 72.3914C157.905 73.4747 157.647 65.8399 152.569 60.7844C147.517 55.6773 127.025 56.1674 124.86 49.1774Z" fill="white"/>
</g>
<g opacity="0.4">
<path opacity="0.4" d="M170.614 98.4951C170.614 98.4951 164.093 87.2234 152.184 89.0547C140.276 90.9119 151.926 95.9932 136.306 98.4951C120.686 100.971 117.257 106.285 124.397 110.515C131.537 114.745 143.188 102.828 155.896 108.658C168.604 114.487 185.59 109.509 170.614 98.4951Z" fill="white"/>
</g>
<g opacity="0.4">
<path opacity="0.4" d="M391.102 125.655C391.102 125.655 384.581 114.384 372.672 116.215C360.764 118.072 372.415 123.153 356.794 125.655C341.174 128.131 337.746 133.445 344.886 137.675C352.026 141.905 363.677 129.989 376.384 135.818C389.092 141.647 406.078 136.669 391.102 125.655Z" fill="white"/>
</g>
<g opacity="0.4">
<path opacity="0.4" d="M449.355 101.435C449.355 101.435 444.973 93.8517 436.982 95.0898C428.966 96.3278 436.802 99.7584 426.311 101.435C415.82 103.111 413.5 106.671 418.294 109.508C423.089 112.346 430.925 104.35 439.457 108.27C448.014 112.191 459.433 108.863 449.355 101.435Z" fill="white"/>
</g>
<g opacity="0.4">
<path opacity="0.4" d="M92.2023 119.515C92.2023 119.515 87.8204 111.932 79.8298 113.17C71.8134 114.408 79.6493 117.838 69.1584 119.515C58.6676 121.192 56.3477 124.751 61.1421 127.588C65.9364 130.426 73.7724 122.43 82.3043 126.35C90.8362 130.271 102.281 126.918 92.2023 119.515Z" fill="white"/>
</g>
<path d="M113.13 167.027C113.13 167.027 114.857 171.98 108.671 174.869C102.459 177.757 104.907 180.904 106.505 182.71C109.263 185.805 97.8704 184.618 95.3444 190.525C90.9366 200.817 104.134 201.307 110.423 198.753C116.713 196.2 135.864 188.487 136.586 186.321C137.308 184.128 137.669 178.583 134.189 178.712C127.977 178.97 134.009 172.547 129.652 171.464C125.296 170.355 113.13 167.027 113.13 167.027Z" fill="#764678"/>
<path d="M152.39 198.676C158.37 197.232 164.273 192.821 169.789 186.811C173.939 182.272 176.439 177.99 176.542 177.809L166.695 171.825L171.619 174.817L168.242 171.387C166.103 175.049 157.081 184.49 149.193 186.734C143.239 188.436 134.991 186.631 132.207 186.115L124.242 195.323C130.454 200.507 144.657 200.533 152.39 198.676Z" fill="#FFB27D"/>
<path d="M122.643 336.748C122.643 336.748 122.746 340.591 125.35 341.675C127.953 342.758 135.48 343.738 132.67 346.214C131.046 347.633 123.442 346.704 121.303 346.704C119.163 346.704 117.127 347.633 115.529 346.214C113.776 344.641 115.529 336.748 115.529 336.748C115.529 336.748 117.385 337.702 119.06 337.677C121.432 337.599 122.643 336.748 122.643 336.748Z" fill="#331832"/>
<path d="M92.7682 336.748C92.7682 336.748 92.8713 340.591 95.4747 341.675C98.0781 342.758 105.605 343.738 102.795 346.214C101.171 347.633 93.5673 346.704 91.4279 346.704C89.2885 346.704 87.2521 347.633 85.654 346.214C83.9012 344.641 85.654 336.748 85.654 336.748C85.654 336.748 87.5099 337.702 89.1853 337.677C91.5825 337.599 92.7682 336.748 92.7682 336.748Z" fill="#331832"/>
<path d="M141.047 249.747C140.377 257.124 139.243 266.641 137.31 278.3C133.598 300.585 129.216 323.051 127.076 333.833C126.303 337.676 123.081 340.514 119.241 340.668L117.178 340.746C113.028 340.9 109.652 337.341 109.961 333.111L115.168 260.245L115.864 247.193C115.864 247.193 142.155 237.572 141.047 249.747Z" fill="#366F90"/>
<path d="M94.4688 242.319C94.7007 245.388 105.192 250.212 118.801 249.103C132.411 247.993 143.186 246.265 142.954 243.196C142.722 240.127 131.586 236.902 117.977 237.986C104.341 239.069 94.2368 239.25 94.4688 242.319Z" fill="#331832"/>
<path d="M131.226 245.028L97.4594 335.82C96.2479 339.715 92.7424 342.372 88.7471 342.449L87.0201 342.475C82.9217 342.552 79.777 338.735 80.5245 334.608L98.1296 244.615C98.3616 243.583 102.022 243.093 103.053 243.016C111.662 242.319 131.767 241.184 131.226 245.028Z" fill="#366F90"/>
<path d="M110.839 192.667C110.839 192.667 117.051 182.995 130.3 186.58C136.564 188.283 144.322 188.05 144.838 199.89C145.327 210.516 146.255 222.923 142.93 243.145C142.93 243.145 121.536 234.788 94.4453 242.268C94.5226 241.107 95.863 211.11 102.23 194.912C104.086 190.294 108.777 195.763 110.839 192.667Z" fill="#73B3CE"/>
<path d="M92.5625 196.329L107.178 202.88C107.178 202.88 141.563 206.698 145.017 200.92C148.651 194.859 146.1 186.476 146.1 186.476C146.1 186.476 134.268 185.805 125.324 185.496C123.288 185.418 119.473 185.599 117.462 185.625C99.0839 185.908 92.5625 196.329 92.5625 196.329Z" fill="#73B3CE"/>
<path d="M112.566 295.891L112.102 295.788L119.216 265.352C120.659 260.967 123.623 257.305 127.541 255.061L127.773 255.473C123.959 257.666 121.072 261.225 119.68 265.481L112.566 295.891Z" fill="#020202"/>
<path d="M92.1494 197.13C91.84 198.755 94.4692 202.185 100.475 203.062C106.481 203.939 108.698 201.953 108.878 199.683C109.033 197.981 106.429 195.118 100.733 194.344C94.8816 193.57 92.3556 195.969 92.1494 197.13Z" fill="#331832"/>
<path d="M103.57 242.989C103.57 242.989 122.052 239.92 140.121 243.918C140.946 244.098 141.513 244.872 141.435 245.723L140.791 252.481L121.871 247.761L103.57 242.989Z" fill="#366F90"/>
<path d="M117.461 185.625C119.935 187.998 123.931 189.804 127.075 188.901C129.808 188.101 128.828 185.548 128.828 185.548C127.617 185.625 126.019 182.478 125.787 181.266L125.529 179.796L125.4 179.074L124.988 176.727L124.601 174.611L123.054 165.971L121.611 175.05L121.379 176.598L120.528 181.911C120.271 183.613 119.111 185.006 117.461 185.625C117.487 185.625 117.487 185.625 117.461 185.625Z" fill="#FFB27D"/>
<path d="M121.379 176.598C121.379 176.598 123.08 179.023 125.4 179.048L125.168 176.314C123.725 176.16 121.379 176.598 121.379 176.598Z" fill="#331832"/>
<path d="M113.133 167.027C113.133 167.027 113.803 168.343 113.751 171.386C113.648 175.849 118.855 176.39 119.757 174.869C119.86 174.688 117.876 167.646 117.876 167.646L116.123 167.131L113.133 167.027Z" fill="#764678"/>
<path d="M126.3 177.056C130.7 175.934 133.148 170.626 131.766 165.201C130.384 159.776 125.696 156.289 121.296 157.411C116.895 158.533 114.448 163.841 115.83 169.266C117.212 174.691 121.9 178.179 126.3 177.056Z" fill="#FFB27D"/>
<path d="M125.014 158.877C124.859 159.238 127.411 163.958 118.363 167.569C109.316 171.154 112.048 158.361 118.879 156.349C128.751 153.434 131.922 159.779 131.561 162.436C131.226 165.093 125.014 158.877 125.014 158.877Z" fill="#764678"/>
<path d="M118.984 165.688C118.984 165.688 116.201 170.691 118.572 174.483C118.572 174.483 115.737 172.626 115.453 171.723C115.169 170.82 114.938 167.416 114.938 167.416L118.984 165.688Z" fill="#764678"/>
<path d="M117.281 170.459C118.39 171.078 119.679 170.846 120.143 169.944C120.607 169.015 120.065 167.777 118.957 167.132C117.849 166.513 116.56 166.745 116.096 167.648C115.632 168.576 116.147 169.84 117.281 170.459Z" fill="#FFB27D"/>
<path d="M124.575 167.131C124.627 167.105 124.653 167.053 124.678 167.002C124.704 166.899 124.627 166.795 124.524 166.795C124.472 166.795 123.08 166.46 122.307 167.905C122.255 168.008 122.281 168.111 122.384 168.162C122.462 168.214 122.565 168.162 122.642 168.085C123.338 167.311 124.421 167.157 124.472 167.157C124.524 167.157 124.55 167.157 124.575 167.131Z" fill="#080435"/>
<path d="M123.674 169.479C123.777 169.918 124.112 170.201 124.421 170.15C124.73 170.072 124.911 169.66 124.808 169.247C124.705 168.809 124.37 168.525 124.06 168.576C123.751 168.628 123.571 169.041 123.674 169.479Z" fill="#080435"/>
<path d="M131.277 166.434C131.328 166.434 131.38 166.383 131.406 166.331C131.457 166.254 131.431 166.125 131.328 166.073C131.277 166.047 130.117 165.222 128.854 166.279C128.776 166.357 128.751 166.46 128.828 166.537C128.879 166.615 129.008 166.615 129.086 166.563C130.014 166.125 131.096 166.383 131.148 166.408C131.199 166.434 131.251 166.434 131.277 166.434Z" fill="#080435"/>
<path d="M129.524 168.241C129.447 168.68 129.653 169.092 129.962 169.144C130.272 169.195 130.607 168.886 130.684 168.447C130.761 168.009 130.555 167.596 130.246 167.545C129.937 167.493 129.601 167.803 129.524 168.241Z" fill="#080435"/>
<g opacity="0.3">
<path opacity="0.3" d="M120.013 167.853C119.884 170.381 121.198 172.806 122.977 173.322C124.755 173.812 126.302 172.187 126.431 169.685C126.56 167.157 125.245 164.732 123.467 164.217C121.688 163.701 120.142 165.326 120.013 167.853Z" fill="white"/>
</g>
<g opacity="0.3">
<path opacity="0.3" d="M132.317 172.458C133.795 172.089 134.493 169.784 133.875 167.31C133.258 164.837 131.56 163.13 130.082 163.5C128.604 163.869 127.907 166.173 128.524 168.647C129.141 171.121 130.839 172.828 132.317 172.458Z" fill="white"/>
</g>
<path d="M119.987 169.633C120.013 169.761 120.065 169.89 120.091 169.994C120.451 171.18 121.122 172.186 121.972 172.805C122.307 173.063 122.668 173.244 123.029 173.347C123.39 173.45 123.751 173.476 124.086 173.424C124.189 173.398 124.266 173.398 124.369 173.373C124.679 173.295 124.962 173.14 125.246 172.96C125.942 172.47 126.432 171.67 126.689 170.69C126.792 170.277 126.87 169.865 126.895 169.4C126.921 168.936 126.895 168.446 126.818 168.008C126.792 167.801 126.767 167.621 126.715 167.44C126.328 165.764 125.349 164.319 124.112 163.752C123.957 163.674 123.802 163.623 123.648 163.571C122.849 163.365 122.101 163.494 121.431 163.984C120.58 164.603 120.013 165.66 119.833 166.976C119.807 167.156 119.781 167.363 119.781 167.543C119.781 167.646 119.781 167.775 119.781 167.879C119.781 168.214 119.807 168.549 119.833 168.885C119.884 169.117 119.936 169.375 119.987 169.633ZM125.813 171.954C125.607 172.263 125.375 172.496 125.091 172.702C124.859 172.882 124.601 172.986 124.344 173.063C123.957 173.166 123.545 173.166 123.132 173.063C122.746 172.96 122.385 172.754 122.05 172.496C121.225 171.851 120.606 170.767 120.297 169.529C120.245 169.349 120.219 169.142 120.194 168.962C120.168 168.781 120.142 168.601 120.142 168.394C120.116 168.111 120.116 167.827 120.142 167.543C120.168 167.285 120.194 167.027 120.245 166.769C120.271 166.64 120.297 166.486 120.348 166.357V166.331C120.348 166.305 120.348 166.305 120.348 166.279C120.426 166.021 120.503 165.764 120.606 165.557C120.864 164.99 121.225 164.525 121.663 164.216C121.972 163.984 122.333 163.855 122.694 163.803C123.003 163.752 123.313 163.777 123.622 163.881C123.751 163.906 123.854 163.958 123.983 164.01C125.194 164.525 126.122 165.918 126.509 167.543C126.56 167.724 126.586 167.93 126.612 168.137C126.663 168.549 126.689 168.988 126.663 169.4C126.638 169.839 126.56 170.252 126.457 170.638C126.277 171.103 126.071 171.567 125.813 171.954Z" fill="#331832"/>
<path d="M127.617 173.993C127.101 173.993 126.508 173.864 125.941 173.452C125.89 173.426 125.89 173.374 125.915 173.323C125.941 173.271 125.993 173.271 126.044 173.297C127.874 174.561 129.704 173.065 129.73 173.039C129.782 173.013 129.833 173.013 129.859 173.039C129.885 173.09 129.885 173.142 129.859 173.168C129.833 173.194 128.854 173.993 127.617 173.993Z" fill="#020202"/>
<path d="M125.865 173.838C125.813 173.838 125.787 173.812 125.762 173.761C125.736 173.503 125.839 173.219 126.045 172.909C126.071 172.858 126.148 172.832 126.174 172.858C126.226 172.884 126.251 172.935 126.226 172.987L126.2 173.013C125.968 173.374 125.916 173.606 125.942 173.735C125.968 173.786 125.916 173.838 125.865 173.838Z" fill="#020202"/>
<path d="M106.018 182.065C105.425 181.936 104.111 179.821 104.059 177.784C104.034 176.287 104.652 174.353 107.72 173.579C113.468 172.109 113.236 167.337 113.21 167.157L113.725 167.131C113.725 167.182 114.009 172.522 107.848 174.095C105.761 174.637 104.678 175.772 104.575 177.5C104.472 179.434 105.786 181.446 106.121 181.575L106.018 182.065Z" fill="#764678"/>
<path d="M128.544 168.678C128.569 168.807 128.621 168.936 128.647 169.065C128.698 169.194 128.724 169.323 128.776 169.452C128.801 169.529 128.827 169.632 128.879 169.71V169.736C128.905 169.813 128.93 169.865 128.956 169.942C128.724 169.349 128.544 168.652 128.466 167.956C128.441 167.956 128.415 167.93 128.363 167.93C128.389 168.059 128.415 168.188 128.441 168.317C128.466 168.42 128.492 168.549 128.544 168.678ZM128.544 168.678C128.569 168.807 128.621 168.936 128.647 169.065C128.698 169.194 128.724 169.323 128.776 169.452C128.801 169.529 128.827 169.632 128.879 169.71V169.736C128.905 169.813 128.93 169.865 128.956 169.942C128.724 169.349 128.544 168.652 128.466 167.956C128.441 167.956 128.415 167.93 128.363 167.93C128.389 168.059 128.415 168.188 128.441 168.317C128.466 168.42 128.492 168.549 128.544 168.678ZM128.544 168.678C128.569 168.807 128.621 168.936 128.647 169.065C128.698 169.194 128.724 169.323 128.776 169.452C128.801 169.529 128.827 169.632 128.879 169.71V169.736C128.905 169.813 128.93 169.865 128.956 169.942C128.724 169.349 128.544 168.652 128.466 167.956C128.441 167.956 128.415 167.93 128.363 167.93C128.389 168.059 128.415 168.188 128.441 168.317C128.466 168.42 128.492 168.549 128.544 168.678ZM128.544 168.678C128.569 168.807 128.621 168.936 128.647 169.065C128.698 169.194 128.724 169.323 128.776 169.452C128.801 169.529 128.827 169.632 128.879 169.71V169.736C128.905 169.813 128.93 169.865 128.956 169.942C128.724 169.349 128.544 168.652 128.466 167.956C128.441 167.956 128.415 167.93 128.363 167.93C128.389 168.059 128.415 168.188 128.441 168.317C128.466 168.42 128.492 168.549 128.544 168.678ZM128.544 168.678C128.569 168.807 128.621 168.936 128.647 169.065C128.698 169.194 128.724 169.323 128.776 169.452C128.801 169.529 128.827 169.632 128.879 169.71V169.736C128.905 169.813 128.93 169.865 128.956 169.942C128.724 169.349 128.544 168.652 128.466 167.956C128.441 167.956 128.415 167.93 128.363 167.93C128.389 168.059 128.415 168.188 128.441 168.317C128.466 168.42 128.492 168.549 128.544 168.678ZM128.544 168.678C128.569 168.807 128.621 168.936 128.647 169.065C128.698 169.194 128.724 169.323 128.776 169.452C128.801 169.529 128.827 169.632 128.879 169.71V169.736C128.905 169.813 128.93 169.865 128.956 169.942C128.724 169.349 128.544 168.652 128.466 167.956C128.441 167.956 128.415 167.93 128.363 167.93C128.389 168.059 128.415 168.188 128.441 168.317C128.466 168.42 128.492 168.549 128.544 168.678ZM128.544 168.678C128.569 168.807 128.621 168.936 128.647 169.065C128.698 169.194 128.724 169.323 128.776 169.452C128.801 169.529 128.827 169.632 128.879 169.71V169.736C128.905 169.813 128.93 169.865 128.956 169.942C128.724 169.349 128.544 168.652 128.466 167.956C128.441 167.956 128.415 167.93 128.363 167.93C128.389 168.059 128.415 168.188 128.441 168.317C128.466 168.42 128.492 168.549 128.544 168.678ZM128.544 168.678C128.569 168.807 128.621 168.936 128.647 169.065C128.698 169.194 128.724 169.323 128.776 169.452C128.801 169.529 128.827 169.632 128.879 169.71V169.736C128.905 169.813 128.93 169.865 128.956 169.942C128.724 169.349 128.544 168.652 128.466 167.956C128.441 167.956 128.415 167.93 128.363 167.93C128.389 168.059 128.415 168.188 128.441 168.317C128.466 168.42 128.492 168.549 128.544 168.678ZM128.389 169.117C128.621 169.994 128.982 170.793 129.446 171.412C129.91 172.031 130.477 172.47 131.096 172.65C131.147 172.65 131.173 172.676 131.199 172.676C131.508 172.753 131.817 172.753 132.127 172.676C132.384 172.599 132.616 172.495 132.848 172.315C133.75 171.644 134.318 170.277 134.369 168.652C134.446 165.996 133.132 163.468 131.431 162.978C131.405 162.978 131.353 162.952 131.327 162.952C131.173 162.926 131.044 162.9 130.889 162.9C130.683 162.9 130.503 162.926 130.296 162.978C130.064 163.055 129.832 163.158 129.626 163.313C128.724 163.984 128.157 165.351 128.105 166.976C128.105 167.079 128.105 167.182 128.105 167.285C128.105 167.492 128.131 167.672 128.131 167.878C128.209 168.291 128.286 168.704 128.389 169.117ZM128.982 169.942C128.75 169.349 128.569 168.652 128.492 167.956C128.466 167.75 128.466 167.543 128.466 167.337C128.466 167.208 128.466 167.105 128.466 166.976C128.492 166.202 128.621 165.506 128.879 164.912C129.111 164.345 129.42 163.906 129.832 163.597C129.858 163.571 129.858 163.571 129.884 163.571C130.09 163.416 130.296 163.339 130.503 163.262C130.683 163.21 130.889 163.21 131.096 163.236C131.199 163.236 131.302 163.261 131.405 163.287C132.977 163.726 134.189 166.15 134.111 168.652V168.678C134.111 168.678 134.111 168.678 134.111 168.704C134.06 170.2 133.544 171.464 132.719 172.057C132.307 172.367 131.843 172.47 131.379 172.367C131.327 172.367 131.276 172.341 131.224 172.341C131.173 172.315 131.121 172.315 131.096 172.289C131.096 172.289 131.07 172.289 131.044 172.263C130.683 172.134 130.322 171.876 130.013 171.541C129.626 171.128 129.317 170.613 129.059 170.019C129.008 169.994 128.982 169.968 128.982 169.942ZM128.544 168.678C128.569 168.807 128.621 168.936 128.647 169.065C128.698 169.194 128.724 169.323 128.776 169.452C128.801 169.529 128.827 169.632 128.879 169.71V169.736C128.905 169.813 128.93 169.865 128.956 169.942C128.724 169.349 128.544 168.652 128.466 167.956C128.441 167.956 128.415 167.93 128.363 167.93C128.389 168.059 128.415 168.188 128.441 168.317C128.466 168.42 128.492 168.549 128.544 168.678ZM128.544 168.678C128.569 168.807 128.621 168.936 128.647 169.065C128.698 169.194 128.724 169.323 128.776 169.452C128.801 169.529 128.827 169.632 128.879 169.71V169.736C128.905 169.813 128.93 169.865 128.956 169.942C128.724 169.349 128.544 168.652 128.466 167.956C128.441 167.956 128.415 167.93 128.363 167.93C128.389 168.059 128.415 168.188 128.441 168.317C128.466 168.42 128.492 168.549 128.544 168.678ZM128.544 168.678C128.569 168.807 128.621 168.936 128.647 169.065C128.698 169.194 128.724 169.323 128.776 169.452C128.801 169.529 128.827 169.632 128.879 169.71V169.736C128.905 169.813 128.93 169.865 128.956 169.942C128.724 169.349 128.544 168.652 128.466 167.956C128.441 167.956 128.415 167.93 128.363 167.93C128.389 168.059 128.415 168.188 128.441 168.317C128.466 168.42 128.492 168.549 128.544 168.678ZM128.544 168.678C128.569 168.807 128.621 168.936 128.647 169.065C128.698 169.194 128.724 169.323 128.776 169.452C128.801 169.529 128.827 169.632 128.879 169.71V169.736C128.905 169.813 128.93 169.865 128.956 169.942C128.724 169.349 128.544 168.652 128.466 167.956C128.441 167.956 128.415 167.93 128.363 167.93C128.389 168.059 128.415 168.188 128.441 168.317C128.466 168.42 128.492 168.549 128.544 168.678ZM128.544 168.678C128.569 168.807 128.621 168.936 128.647 169.065C128.698 169.194 128.724 169.323 128.776 169.452C128.801 169.529 128.827 169.632 128.879 169.71V169.736C128.905 169.813 128.93 169.865 128.956 169.942C128.724 169.349 128.544 168.652 128.466 167.956C128.441 167.956 128.415 167.93 128.363 167.93C128.389 168.059 128.415 168.188 128.441 168.317C128.466 168.42 128.492 168.549 128.544 168.678ZM128.544 168.678C128.569 168.807 128.621 168.936 128.647 169.065C128.698 169.194 128.724 169.323 128.776 169.452C128.801 169.529 128.827 169.632 128.879 169.71V169.736C128.905 169.813 128.93 169.865 128.956 169.942C128.724 169.349 128.544 168.652 128.466 167.956C128.441 167.956 128.415 167.93 128.363 167.93C128.389 168.059 128.415 168.188 128.441 168.317C128.466 168.42 128.492 168.549 128.544 168.678ZM128.544 168.678C128.569 168.807 128.621 168.936 128.647 169.065C128.698 169.194 128.724 169.323 128.776 169.452C128.801 169.529 128.827 169.632 128.879 169.71V169.736C128.905 169.813 128.93 169.865 128.956 169.942C128.724 169.349 128.544 168.652 128.466 167.956C128.441 167.956 128.415 167.93 128.363 167.93C128.389 168.059 128.415 168.188 128.441 168.317C128.466 168.42 128.492 168.549 128.544 168.678Z" fill="#331832"/>
<path d="M128.701 167.982C128.778 167.956 128.855 167.904 128.907 167.827C128.984 167.672 128.907 167.517 128.752 167.44C128.701 167.414 127.592 166.95 126.149 167.672C125.994 167.75 125.943 167.93 126.02 168.059C126.097 168.214 126.278 168.265 126.407 168.188C127.592 167.569 128.494 167.956 128.494 167.956C128.572 167.982 128.649 167.982 128.701 167.982Z" fill="#331832"/>
<path d="M132.384 213.715C127.461 216.011 119.367 217.558 116.429 216.011C110.964 213.148 110.191 206.39 109.031 201.051C108.438 198.316 106.943 196.64 103.206 196.382C101.659 196.279 99.1072 195.711 95.8851 197.078C94.3386 197.749 94.3386 199.426 94.5448 200.818C94.8541 203.037 95.0088 206.158 96.1945 209.975C99.0041 219.028 100.319 222.975 106.531 227.205C114.16 232.389 128.544 230.713 138.648 222.459C139.756 221.608 133.544 213.173 132.384 213.715Z" fill="#FFB27D"/>
<g opacity="0.5">
<path opacity="0.5" d="M111.455 225.58C110.759 225.58 109.96 225.348 109.238 224.935C107.588 223.955 106.789 222.278 107.434 221.144C107.666 220.731 108.078 220.421 108.594 220.292C109.444 220.06 110.553 220.267 111.532 220.86C113.182 221.84 113.981 223.517 113.337 224.651C113.105 225.064 112.692 225.374 112.177 225.528C111.97 225.554 111.713 225.58 111.455 225.58ZM109.367 220.808C109.161 220.808 108.955 220.834 108.774 220.886C108.516 220.963 108.181 221.118 108.001 221.453C107.537 222.278 108.259 223.62 109.573 224.394C110.424 224.884 111.326 225.064 112.048 224.884C112.305 224.806 112.641 224.651 112.821 224.316C113.285 223.491 112.563 222.15 111.249 221.376C110.63 220.989 109.96 220.808 109.367 220.808Z" fill="#EC865C"/>
</g>
<path d="M137.205 222.794C137.205 222.794 147.928 222.69 150.531 220.214C153.134 217.738 154.423 212.373 152.645 213.792C150.918 215.184 149.706 217.557 149.706 217.557C149.706 217.557 152.309 212.192 151.253 211.78C149.732 211.186 147.257 216.01 147.257 216.01C147.257 216.01 150.582 209.355 148.959 209.381C147.335 209.407 144.834 214.359 144.834 214.359C144.834 214.359 147.902 208.22 145.994 208.298C144.087 208.375 142.747 213.276 141.174 212.786C139.602 212.296 134.447 212.373 133.055 214.024L137.205 222.794Z" fill="#FFB27D"/>
<path d="M147.617 219.337V219.079C148.648 219.028 149.602 217.532 149.602 217.506L149.834 217.635C149.782 217.712 148.803 219.286 147.617 219.337Z" fill="#E9845C"/>
<path d="M144.887 218.1L144.836 217.842C146.357 217.481 147.259 215.985 147.259 215.959L147.491 216.088C147.439 216.165 146.511 217.713 144.887 218.1Z" fill="#E9845C"/>
<path d="M142.645 216.242C142.62 216.242 142.62 216.242 142.594 216.242V215.984C143.702 216.036 144.81 214.256 144.836 214.23L145.068 214.359C145.017 214.437 143.908 216.242 142.645 216.242Z" fill="#E9845C"/>
<path d="M131.742 214.204C131.948 214.126 138.135 208.297 139.681 208.297C141.228 208.297 137.439 215.184 137.439 215.184L131.742 214.204Z" fill="#FFB27D"/>
<path d="M173.06 179.977C173.06 179.977 183.783 179.874 186.386 177.398C188.99 174.922 190.279 169.557 188.5 170.975C186.773 172.368 185.562 174.741 185.562 174.741C185.562 174.741 188.165 169.376 187.108 168.963C185.587 168.37 183.113 173.193 183.113 173.193C183.113 173.193 186.438 166.539 184.814 166.565C183.19 166.59 180.69 171.543 180.69 171.543C180.69 171.543 183.757 165.404 181.85 165.481C179.942 165.559 178.602 170.459 177.03 169.969C175.457 169.479 170.302 169.557 168.91 171.207L173.06 179.977Z" fill="#FFB27D"/>
<path d="M167.801 172.032C168.729 170.201 173.961 165.48 175.508 165.48C177.054 165.48 171.848 175.153 171.848 175.153L167.801 172.032Z" fill="#FFB27D"/>
<path d="M174.14 172.265C173.65 170.924 174.501 169.583 174.552 169.531L174.784 169.686C174.784 169.686 173.959 170.95 174.397 172.188L174.14 172.265Z" fill="#E9845C"/>
<path d="M183.653 175.541C183.369 175.541 183.06 175.515 182.699 175.463L182.751 175.205C184.89 175.541 185.431 174.689 185.457 174.689L185.689 174.844C185.638 174.87 185.199 175.541 183.653 175.541Z" fill="#E9845C"/>
<path d="M181.204 173.527C180.844 173.527 180.405 173.476 179.941 173.373L179.993 173.115C183.009 173.811 183.756 171.799 183.756 171.773L184.014 171.851C184.014 171.877 183.421 173.527 181.204 173.527Z" fill="#E9845C"/>
<path d="M179.247 171.825C178.912 171.825 178.551 171.799 178.164 171.722L178.216 171.464C179.247 171.671 180.046 171.593 180.535 171.232C180.948 170.922 181.025 170.536 181.025 170.51L181.283 170.536C181.283 170.561 181.206 171.051 180.69 171.438C180.355 171.696 179.865 171.825 179.247 171.825Z" fill="#E9845C"/>
<path d="M440.977 297.877C440.926 297.877 440.874 297.851 440.849 297.799L435.925 290.706C435.874 290.629 435.899 290.526 435.977 290.474C436.054 290.423 436.157 290.448 436.209 290.526L441.132 297.619C441.184 297.696 441.158 297.799 441.08 297.851C441.029 297.877 441.003 297.877 440.977 297.877Z" fill="#331832"/>
<path d="M445.618 299.321C445.566 299.321 445.514 299.295 445.489 299.243L439.38 290.706C439.328 290.628 439.354 290.525 439.405 290.473C439.483 290.422 439.586 290.448 439.637 290.499L445.746 299.037C445.798 299.114 445.772 299.217 445.721 299.269C445.669 299.321 445.643 299.321 445.618 299.321Z" fill="#331832"/>
<path d="M436.88 296.614C436.828 296.614 436.777 296.588 436.751 296.537C436.699 296.459 436.725 296.356 436.777 296.304C440.901 293.235 443.117 291.688 443.324 291.688C443.401 291.688 443.478 291.765 443.478 291.842C443.478 291.92 443.427 291.997 443.349 291.997C442.989 292.126 439.354 294.783 436.983 296.537C436.957 296.614 436.905 296.614 436.88 296.614Z" fill="#331832"/>
<path d="M436.88 299.656C436.828 299.656 436.777 299.631 436.751 299.605C436.699 299.527 436.699 299.424 436.777 299.373C443.659 293.775 443.891 293.93 443.994 294.008C444.071 294.059 444.097 294.162 444.045 294.24C444.02 294.291 443.942 294.317 443.891 294.317C443.401 294.472 439.406 297.644 436.983 299.631C436.957 299.656 436.931 299.656 436.88 299.656Z" fill="#331832"/>
<path d="M151.384 340.204C151.384 340.204 141.589 330.093 144.966 324.341C148.343 318.589 154.039 336.696 154.039 336.696C154.039 336.696 151.075 315.288 157.21 314.901C163.319 314.54 157.21 336.696 157.21 336.696C157.21 336.696 159.478 331.538 161.695 331.202C163.911 330.893 163.267 335.587 159.323 340.178H151.384V340.204Z" fill="#CCD39C"/>
<path d="M152.08 340.463C152.054 340.437 149.244 337.522 146.95 333.86C143.806 328.856 143.084 324.883 144.734 322.046C145.352 320.989 146.1 320.499 146.95 320.602C148.677 320.808 150.611 323.413 152.853 328.623C153.523 330.171 154.116 331.744 154.606 333.034C154.065 327.411 153.446 316.243 156.513 312.477C157.183 311.677 157.982 311.239 158.91 311.187C159.813 311.136 160.56 311.445 161.127 312.142C163.885 315.546 161.411 327.695 160.045 333.395C161.05 331.744 162.493 329.887 163.988 329.681C164.684 329.578 165.226 329.836 165.561 330.403C166.463 332.054 165.251 336.258 161.643 340.463L161.101 339.998C164.659 335.871 165.612 331.977 164.942 330.764C164.787 330.455 164.504 330.352 164.117 330.403C162.21 330.687 160.019 334.84 159.323 336.413L158.653 336.181C158.678 336.129 160.019 331.229 160.921 325.889C162.107 318.899 162.004 314.308 160.637 312.632C160.225 312.116 159.71 311.884 159.039 311.935C158.318 311.987 157.699 312.322 157.158 312.967C153.291 317.713 155.766 336.052 155.792 336.233L155.096 336.387C153.807 332.312 149.863 321.685 146.976 321.35C146.435 321.298 145.945 321.633 145.455 322.433C141.821 328.649 152.595 339.869 152.698 339.973L152.08 340.463Z" fill="#444092"/>
<path d="M171.205 365.273C171.205 365.273 163.962 357.819 166.462 353.589C168.963 349.359 173.138 362.694 173.138 362.694C173.138 362.694 170.973 346.908 175.458 346.625C179.969 346.341 175.458 362.694 175.458 362.694C175.458 362.694 177.134 358.877 178.758 358.644C180.382 358.412 179.918 361.869 177.005 365.273H171.205Z" fill="#CCD39C"/>
<path d="M171.723 365.455C171.697 365.429 169.635 363.288 167.933 360.58C165.614 356.892 165.072 353.951 166.31 351.862C166.774 351.088 167.315 350.727 167.933 350.804C169.197 350.959 170.614 352.894 172.29 356.711C172.779 357.872 173.218 359.007 173.578 359.961C173.192 355.808 172.728 347.58 174.97 344.82C175.46 344.227 176.053 343.892 176.723 343.866C177.393 343.814 177.935 344.072 178.347 344.588C180.383 347.116 178.553 356.066 177.548 360.271C178.295 359.032 179.352 357.691 180.435 357.511C180.95 357.433 181.363 357.64 181.595 358.052C182.265 359.265 181.363 362.36 178.708 365.455L178.295 365.12C180.899 362.076 181.621 359.213 181.131 358.31C181.002 358.078 180.822 358.001 180.512 358.052C179.12 358.259 177.471 361.328 176.981 362.489L176.491 362.308C176.491 362.282 177.496 358.671 178.167 354.725C179.043 349.566 178.966 346.187 177.96 344.949C177.651 344.562 177.264 344.408 176.775 344.433C176.233 344.459 175.795 344.717 175.383 345.207C172.522 348.689 174.352 362.231 174.378 362.36L173.862 362.489C172.908 359.497 169.996 351.63 167.882 351.398C167.47 351.346 167.109 351.604 166.774 352.197C164.093 356.788 172.032 365.042 172.109 365.145L171.723 365.455Z" fill="#444092"/>
<path d="M383.342 341.289C383.342 341.289 376.099 333.835 378.599 329.605C381.099 325.374 385.275 338.71 385.275 338.71C385.275 338.71 383.11 322.924 387.595 322.64C392.106 322.357 387.595 338.71 387.595 338.71C387.595 338.71 389.27 334.892 390.894 334.66C392.518 334.428 392.054 337.884 389.142 341.289H383.342Z" fill="#CCD39C"/>
<path d="M383.859 341.469C383.834 341.443 381.771 339.302 380.07 336.594C377.75 332.905 377.209 329.965 378.446 327.875C378.91 327.102 379.452 326.741 380.07 326.818C381.333 326.973 382.751 328.907 384.426 332.725C384.916 333.885 385.354 335.02 385.715 335.975C385.329 331.822 384.865 323.594 387.107 320.834C387.597 320.241 388.19 319.905 388.86 319.88C389.53 319.828 390.071 320.086 390.484 320.602C392.52 323.13 390.69 332.08 389.685 336.284C390.432 335.046 391.489 333.705 392.572 333.524C393.087 333.447 393.5 333.653 393.732 334.066C394.402 335.278 393.5 338.373 390.845 341.469L390.432 341.133C393.036 338.09 393.757 335.227 393.268 334.324C393.139 334.092 392.958 334.014 392.649 334.066C391.257 334.272 389.607 337.342 389.118 338.502L388.628 338.322C388.628 338.296 389.633 334.685 390.303 330.739C391.18 325.58 391.102 322.201 390.097 320.963C389.788 320.576 389.401 320.421 388.911 320.447C388.37 320.473 387.932 320.731 387.52 321.221C384.658 324.703 386.488 338.244 386.514 338.373L385.999 338.502C385.045 335.51 382.132 327.643 380.019 327.411C379.606 327.36 379.245 327.618 378.91 328.211C376.23 332.802 384.169 341.056 384.246 341.159L383.859 341.469Z" fill="#444092"/>
<path d="M327.666 366.641C327.666 366.641 318.154 356.84 321.428 351.269C324.701 345.697 330.217 363.262 330.217 363.262C330.217 363.262 327.356 342.473 333.285 342.112C339.213 341.751 333.285 363.262 333.285 363.262C333.285 363.262 335.476 358.259 337.641 357.949C339.78 357.64 339.188 362.205 335.347 366.667H327.666V366.641Z" fill="#CCD39C"/>
<path d="M328.337 366.9C328.311 366.874 325.579 364.063 323.362 360.503C320.32 355.654 319.599 351.785 321.197 349.051C321.79 348.019 322.511 347.555 323.336 347.658C326.12 347.968 329.187 355.319 330.76 359.678C330.605 357.924 330.425 355.628 330.347 353.204C330.167 346.317 330.914 341.803 332.59 339.765C333.234 338.992 334.008 338.553 334.91 338.502C335.786 338.45 336.508 338.76 337.049 339.43C339.73 342.732 337.333 354.545 335.992 360.065C336.972 358.44 338.39 356.66 339.807 356.454C340.477 356.351 341.019 356.609 341.328 357.15C342.204 358.749 341.019 362.825 337.513 366.9L336.972 366.436C340.426 362.438 341.354 358.646 340.709 357.485C340.555 357.202 340.297 357.073 339.91 357.124C338.08 357.382 335.915 361.432 335.245 362.954L334.575 362.722C334.6 362.67 335.889 357.924 336.766 352.74C337.9 345.956 337.822 341.494 336.482 339.869C336.07 339.379 335.58 339.146 334.936 339.198C334.24 339.25 333.621 339.559 333.105 340.204C329.342 344.795 331.739 362.593 331.765 362.773L331.095 362.928C329.858 358.982 326.017 348.664 323.207 348.329C322.666 348.277 322.202 348.613 321.738 349.386C318.207 355.422 328.672 366.307 328.775 366.41L328.337 366.9Z" fill="#444092"/>
<path d="M469.846 347.348C469.846 347.348 463.454 340.77 465.67 337.03C467.861 333.29 471.573 345.078 471.573 345.078C471.573 345.078 469.64 331.149 473.635 330.891C477.605 330.659 473.635 345.078 473.635 345.078C473.635 345.078 475.104 341.725 476.548 341.518C477.991 341.312 477.579 344.381 475.001 347.373H469.846V347.348Z" fill="#CCD39C"/>
<path d="M470.284 347.503C470.258 347.477 468.428 345.594 466.933 343.195C464.897 339.945 464.407 337.34 465.49 335.509C465.902 334.813 466.366 334.503 466.933 334.58C468.042 334.709 469.305 336.412 470.774 339.791C471.212 340.797 471.599 341.828 471.908 342.654C471.547 338.991 471.16 331.717 473.145 329.293C473.583 328.777 474.099 328.493 474.692 328.442C475.285 328.416 475.774 328.622 476.135 329.061C477.94 331.279 476.316 339.197 475.439 342.886C476.109 341.803 477.037 340.59 477.991 340.461C478.455 340.41 478.816 340.565 478.996 340.926C479.589 341.983 478.79 344.743 476.445 347.477L476.084 347.168C478.404 344.485 479.022 341.957 478.584 341.158C478.481 340.951 478.3 340.874 478.043 340.926C476.805 341.106 475.362 343.814 474.924 344.846L474.486 344.691C474.486 344.666 475.362 341.467 475.955 337.985C476.728 333.42 476.651 330.453 475.774 329.344C475.517 329.009 475.156 328.88 474.718 328.88C474.254 328.906 473.841 329.138 473.506 329.551C470.98 332.62 472.604 344.562 472.604 344.691L472.14 344.795C471.315 342.138 468.738 335.225 466.856 335.019C466.495 334.967 466.186 335.199 465.876 335.741C463.505 339.791 470.516 347.09 470.593 347.168L470.284 347.503Z" fill="#444092"/>
<path d="M62.8408 344.949C62.8408 344.949 57.2216 339.171 59.1548 335.87C61.088 332.568 64.3616 342.963 64.3616 342.963C64.3616 342.963 62.6603 330.685 66.1659 330.479C69.6714 330.273 66.1659 342.963 66.1659 342.963C66.1659 342.963 67.4547 339.997 68.7435 339.816C70.0065 339.636 69.6457 342.318 67.3774 344.975H62.8408V344.949Z" fill="#CCD39C"/>
<path d="M63.2271 345.104C63.2013 345.078 61.6032 343.427 60.2886 341.312C58.4843 338.449 58.0719 336.154 59.0256 334.555C59.3865 333.961 59.7989 333.678 60.2886 333.729C61.2681 333.832 62.3765 335.354 63.6653 338.32C64.052 339.223 64.387 340.1 64.6706 340.848C64.3613 337.624 64.0004 331.227 65.7532 329.086C66.1398 328.622 66.6038 328.364 67.1193 328.338C67.6348 328.313 68.073 328.493 68.3823 328.88C69.9547 330.84 68.537 337.805 67.7637 341.054C68.3566 340.1 69.1814 339.043 70.0062 338.914C70.3929 338.862 70.728 339.017 70.9084 339.326C71.4239 340.281 70.728 342.679 68.6659 345.078L68.3566 344.82C70.3929 342.447 70.9342 340.229 70.5475 339.533C70.4444 339.352 70.2898 339.301 70.0836 339.326C69.001 339.481 67.7379 341.854 67.3255 342.783L66.9389 342.654C66.9389 342.628 67.7122 339.816 68.2277 336.747C68.8979 332.749 68.8463 330.118 68.073 329.138C67.841 328.854 67.5317 328.725 67.1451 328.751C66.7327 328.777 66.3718 328.983 66.0625 329.344C63.8457 332.053 65.2634 342.576 65.2634 342.679L64.851 342.783C64.1293 340.461 61.861 334.348 60.1855 334.168C59.8762 334.142 59.5927 334.348 59.3091 334.787C57.2213 338.346 63.4075 344.769 63.4591 344.846L63.2271 345.104Z" fill="#444092"/>
</g>
</svg>
