<svg width="74" height="72" viewBox="0 0 74 72" fill="none" xmlns="http://www.w3.org/2000/svg">
<rect x="0.25" y="0.25" width="73.5" height="71.5" rx="4.75" fill="white" stroke="#9A9AA9" stroke-width="0.5"/>
<path d="M38.4933 52H35.5067C34.4973 52 33.6453 51.244 33.5253 50.24L33.2067 47.7387C32.5707 47.532 31.9573 47.2773 31.3747 46.98L29.3827 48.528C28.5747 49.1533 27.4373 49.0813 26.736 48.36L24.636 46.26C23.92 45.5653 23.848 44.428 24.4733 43.6213L26.0213 41.628C25.7227 41.0453 25.468 40.432 25.2627 39.796L22.756 39.4773C21.756 39.3547 21 38.5027 21 37.4933V34.5067C21 33.4973 21.756 32.6453 22.76 32.5253L25.2613 32.2067C25.468 31.5707 25.7227 30.9573 26.02 30.3747L24.4733 28.3827C23.8467 27.5747 23.92 26.436 24.6427 25.7347L26.7427 23.6347C27.4373 22.9187 28.576 22.848 29.3813 23.472L31.3733 25.0213C31.956 24.724 32.5693 24.4693 33.2067 24.2627L33.5253 21.756C33.6453 20.756 34.4973 20 35.5067 20H38.4933C39.5027 20 40.3547 20.756 40.4747 21.76L40.7933 24.2613C41.4307 24.468 42.044 24.7227 42.6267 25.02L44.6187 23.472C45.428 22.8467 46.564 22.9187 47.2653 23.6413L49.3653 25.7413C50.0813 26.436 50.1533 27.5733 49.528 28.38L47.98 30.3733C48.2787 30.956 48.5333 31.5693 48.7387 32.2053L51.2453 32.524C52.244 32.6453 53 33.4973 53 34.5067V37.4933C53 38.5027 52.244 39.3547 51.24 39.4747L48.7387 39.7933C48.532 40.4293 48.2773 41.0427 47.98 41.6253L49.528 43.6173C50.1547 44.4253 50.0813 45.5627 49.3587 46.264L47.2587 48.364C46.564 49.08 45.4253 49.1533 44.62 48.5267L42.6267 46.9787C42.044 47.2773 41.4307 47.532 40.7947 47.7373L40.476 50.244C40.3547 51.244 39.5027 52 38.4933 52ZM31.3067 45.52C31.4173 45.52 31.5307 45.548 31.632 45.604C32.3667 46.0147 33.1627 46.3453 33.9973 46.5853C34.2533 46.6587 34.4413 46.8773 34.4747 47.1413L34.848 50.0747C34.888 50.4093 35.1773 50.6667 35.5067 50.6667H38.4933C38.8227 50.6667 39.112 50.4093 39.1507 50.0813L39.5253 47.1427C39.5587 46.8787 39.7467 46.66 40.0027 46.5867C40.8373 46.3467 41.6333 46.016 42.368 45.6053C42.6013 45.4747 42.892 45.4973 43.1013 45.6613L45.4347 47.4747C45.7027 47.6827 46.0787 47.6653 46.308 47.4293L48.4213 45.316C48.6627 45.0813 48.6813 44.7053 48.4733 44.436L46.66 42.1027C46.496 41.892 46.4733 41.6027 46.604 41.3693C47.0147 40.6347 47.3453 39.8387 47.5853 39.004C47.6587 38.748 47.8773 38.56 48.1413 38.5267L51.0747 38.1533C51.4093 38.112 51.6667 37.8227 51.6667 37.4933V34.5067C51.6667 34.1773 51.4093 33.888 51.0813 33.8493L48.1427 33.4747C47.8787 33.4413 47.66 33.2533 47.5867 32.9973C47.3467 32.1627 47.016 31.3667 46.6053 30.632C46.4747 30.3987 46.496 30.1093 46.6613 29.8987L48.4747 27.5653C48.684 27.296 48.6653 26.92 48.4307 26.6933L46.3173 24.58C46.084 24.3373 45.7067 24.3187 45.4373 24.528L43.104 26.3413C42.892 26.5053 42.6027 26.528 42.3693 26.3973C41.6373 25.9867 40.8413 25.6573 40.004 25.416C39.748 25.3427 39.56 25.124 39.5267 24.86L39.1533 21.9267C39.112 21.5907 38.8227 21.3333 38.4933 21.3333H35.5067C35.1773 21.3333 34.888 21.5907 34.8493 21.9187L34.4747 24.8573C34.4413 25.1213 34.2533 25.34 33.9973 25.4147C33.16 25.6547 32.364 25.9853 31.632 26.3947C31.3987 26.5267 31.1093 26.5027 30.8973 26.34L28.564 24.5267C28.2947 24.3173 27.92 24.336 27.692 24.5707L25.5787 26.6853C25.3373 26.92 25.3187 27.296 25.5267 27.5653L27.34 29.8987C27.504 30.1093 27.5267 30.3987 27.396 30.632C26.984 31.3667 26.6547 32.1627 26.4147 32.9973C26.3413 33.2533 26.1227 33.4413 25.8587 33.4747L22.9253 33.848C22.5907 33.888 22.3333 34.1773 22.3333 34.5067V37.4933C22.3333 37.8227 22.5907 38.112 22.9187 38.1507L25.8573 38.5253C26.1213 38.5587 26.34 38.7467 26.4133 39.0027C26.6533 39.8373 26.984 40.6333 27.3947 41.368C27.5253 41.6013 27.504 41.8907 27.3387 42.1013L25.5253 44.4347C25.316 44.704 25.3347 45.08 25.5693 45.3067L27.6827 47.42C27.916 47.6613 28.2907 47.68 28.5627 47.472L30.896 45.6587C31.0173 45.568 31.1613 45.52 31.3067 45.52Z" fill="#585858" stroke="white" stroke-width="0.3"/>
<path d="M36.9948 42.6653C33.3188 42.6653 30.3281 39.6747 30.3281 35.9987C30.3281 32.3227 33.3188 29.332 36.9948 29.332C40.6708 29.332 43.6615 32.3227 43.6615 35.9987C43.6615 39.6747 40.6708 42.6653 36.9948 42.6653ZM36.9948 30.6654C34.0535 30.6654 31.6615 33.0574 31.6615 35.9987C31.6615 38.94 34.0535 41.332 36.9948 41.332C39.9361 41.332 42.3281 38.94 42.3281 35.9987C42.3281 33.0574 39.9361 30.6654 36.9948 30.6654Z" fill="#585858" stroke="white" stroke-width="0.3"/>
</svg>
