<svg width="13" height="13" viewBox="0 0 13 13" fill="none" xmlns="http://www.w3.org/2000/svg">
<path d="M2.03125 12.5C1.69498 12.5 1.3125 12.1648 1.3125 11.6071V4.21429H11.6875V11.6071C11.6875 12.1651 11.3051 12.5 10.9688 12.5H2.03125ZM4.36719 5.07143C3.86284 5.07143 3.5625 5.51679 3.5625 5.91964V6.15179C3.5625 6.55464 3.86284 7 4.36719 7H8.63281C9.13716 7 9.4375 6.55464 9.4375 6.15179V5.91964C9.4375 5.51679 9.13716 5.07143 8.63281 5.07143H4.36719ZM0.8125 0.5H12.1875C12.3001 0.5 12.5 0.626478 12.5 0.928571V2.28571H0.5V0.928571C0.5 0.626585 0.700109 0.5 0.8125 0.5Z" stroke="black" stroke-opacity="0.71"/>
</svg>
