<svg width="20" height="20" viewBox="0 0 20 20" fill="none" xmlns="http://www.w3.org/2000/svg">
<path d="M5.8125 14.1562C5.15187 14.1562 4.60938 14.6944 4.60938 15.3594C4.60938 16.0244 5.15187 16.5625 5.8125 16.5625H11.5C13.6438 16.5625 15.3894 14.8169 15.3894 12.6731C15.3894 11.6713 15.0088 10.7262 14.3131 10C15.0088 9.27376 15.3894 8.32875 15.3894 7.31813C15.3894 5.17875 13.6438 3.4375 11.5 3.4375H5.8125C5.15187 3.4375 4.60938 3.97562 4.60938 4.64062C4.60938 5.30563 5.15187 5.84375 5.8125 5.84375H6.24562V14.1562H5.8125ZM11.5 14.1562H8.65625V11.2031H11.5044C11.8938 11.2031 12.2656 11.3562 12.55 11.6362C12.83 11.9163 12.9831 12.2837 12.9831 12.6731C12.9831 13.4912 12.3181 14.1562 11.5 14.1562ZM12.55 8.36375C12.27 8.63938 11.8981 8.7925 11.5 8.79688H8.65625V5.84375H11.5C12.3181 5.84375 12.9831 6.50438 12.9831 7.31813C12.9831 7.71188 12.83 8.08375 12.55 8.36375Z" fill="white"/>
</svg>
