<svg width="24" height="24" viewBox="0 0 24 24" fill="none" xmlns="http://www.w3.org/2000/svg">
<path d="M19.9922 2.00195C19.8608 2.00188 19.7308 2.02769 19.6094 2.07792C19.4881 2.12815 19.3778 2.20181 19.2849 2.29468C19.192 2.38755 19.1184 2.49782 19.0682 2.61918C19.0179 2.74054 18.9921 2.87061 18.9922 3.00195V3.63867C18.1488 4.68438 17.0828 5.52887 15.8719 6.11067C14.661 6.69248 13.3356 6.99696 11.9922 7.00195H5.99219C5.1968 7.00282 4.43425 7.31917 3.87183 7.88159C3.30941 8.44401 2.99306 9.20657 2.99219 10.002V12.002C2.99306 12.7973 3.30941 13.5599 3.87183 14.1223C4.43425 14.6847 5.1968 15.0011 5.99219 15.002H6.47598L4.07325 20.6084C4.00795 20.7604 3.98144 20.9263 3.9961 21.0911C4.01076 21.256 4.06612 21.4146 4.15722 21.5528C4.24832 21.6909 4.3723 21.8043 4.51804 21.8827C4.66377 21.9611 4.8267 22.0021 4.99219 22.002H8.99219C9.18794 22.0021 9.37941 21.9446 9.54279 21.8368C9.70618 21.729 9.83427 21.5755 9.91114 21.3955L12.6349 15.04C13.8655 15.1303 15.0646 15.472 16.158 16.0439C17.2514 16.6158 18.216 17.4058 18.9922 18.365V19.002C18.9922 19.2672 19.0975 19.5215 19.2851 19.7091C19.4726 19.8966 19.727 20.002 19.9922 20.002C20.2574 20.002 20.5118 19.8966 20.6993 19.7091C20.8868 19.5215 20.9922 19.2672 20.9922 19.002V3.00195C20.9923 2.87061 20.9664 2.74054 20.9162 2.61918C20.866 2.49782 20.7923 2.38755 20.6995 2.29468C20.6066 2.2018 20.4963 2.12815 20.375 2.07792C20.2536 2.02769 20.1235 2.00188 19.9922 2.00195ZM5.99219 13.002C5.72703 13.0018 5.47277 12.8964 5.28528 12.7089C5.09778 12.5214 4.99236 12.2671 4.99219 12.002V10.002C4.99237 9.73679 5.09778 9.48254 5.28528 9.29505C5.47278 9.10755 5.72703 9.00213 5.99219 9.00195H6.99219V13.002H5.99219ZM8.33301 20.002H6.50879L8.65137 15.002H10.4756L8.33301 20.002ZM18.9922 15.5238C17.0204 13.8994 14.5469 13.0082 11.9922 13.0019H8.99219V9.0019H11.9922C14.5469 8.99537 17.0205 8.10406 18.9922 6.47956V15.5238Z" fill="white"/>
</svg>
