<svg width="44" height="37" viewBox="0 0 44 37" fill="none" xmlns="http://www.w3.org/2000/svg">
<path d="M30.1852 36.2298C30.4267 36.3908 34.425 37.6252 41.9654 22.5712C43.1461 20.2098 43.9512 15.1112 41.1873 10.5763C38.4233 6.06809 28.6288 2.52597 20.498 0.969577C12.3672 -0.586812 10.4083 4.00185 8.47626 8.61735C6.46368 13.4475 0.640625 17.419 0.640625 17.419C7.67121 21.3368 16.124 15.7284 19.049 16.6408C21.9739 17.5532 23.0204 22.1687 23.2351 23.6714C23.4498 25.1473 23.7986 26.3816 27.4749 25.0668C31.1512 23.7519 29.1386 30.2994 28.5483 31.5338C28.5751 31.5338 28.0653 34.8881 30.1852 36.2298Z" fill="#A9453D"/>
</svg>
