<svg width="20" height="20" viewBox="0 0 20 20" fill="none" xmlns="http://www.w3.org/2000/svg">
<path d="M14.8125 4.75H5.1875C4.946 4.75 4.75 4.946 4.75 5.1875C4.75 5.429 4.946 5.625 5.1875 5.625H14.8125C15.054 5.625 15.25 5.429 15.25 5.1875C15.25 4.946 15.054 4.75 14.8125 4.75Z" fill="white"/>
<path d="M14.8125 14.375H5.1875C4.946 14.375 4.75 14.571 4.75 14.8125C4.75 15.054 4.946 15.25 5.1875 15.25H14.8125C15.054 15.25 15.25 15.054 15.25 14.8125C15.25 14.571 15.054 14.375 14.8125 14.375Z" fill="white"/>
<path d="M13.0625 8.03125C13.304 8.03125 13.5 7.83525 13.5 7.59375C13.5 7.35225 13.304 7.15625 13.0625 7.15625H6.9375C6.696 7.15625 6.5 7.35225 6.5 7.59375C6.5 7.83525 6.696 8.03125 6.9375 8.03125H13.0625Z" fill="white"/>
<path d="M14.8125 9.5625H5.1875C4.946 9.5625 4.75 9.7585 4.75 10C4.75 10.2415 4.946 10.4375 5.1875 10.4375H14.8125C15.054 10.4375 15.25 10.2415 15.25 10C15.25 9.7585 15.054 9.5625 14.8125 9.5625Z" fill="white"/>
<path d="M13.0625 12.8438C13.304 12.8438 13.5 12.6478 13.5 12.4062C13.5 12.1648 13.304 11.9688 13.0625 11.9688H6.9375C6.696 11.9688 6.5 12.1648 6.5 12.4062C6.5 12.6478 6.696 12.8438 6.9375 12.8438H13.0625Z" fill="white"/>
</svg>
