<svg width="14" height="8" viewBox="0 0 14 8" fill="none" xmlns="http://www.w3.org/2000/svg">
<path d="M7.71045 7.54023L13.3605 1.88023C13.4542 1.78726 13.5286 1.67666 13.5793 1.5548C13.6301 1.43294 13.6562 1.30224 13.6562 1.17023C13.6562 1.03821 13.6301 0.907509 13.5793 0.785649C13.5286 0.66379 13.4542 0.553189 13.3605 0.460226C13.1731 0.273975 12.9196 0.169434 12.6555 0.169434C12.3913 0.169434 12.1378 0.273975 11.9505 0.460226L6.95045 5.41023L2.00045 0.460226C1.81309 0.273975 1.55964 0.169433 1.29545 0.169433C1.03127 0.169433 0.777815 0.273975 0.590452 0.460225C0.495964 0.55284 0.420794 0.663285 0.369297 0.78516C0.3178 0.907036 0.291002 1.03792 0.290453 1.17023C0.291002 1.30253 0.3178 1.43342 0.369297 1.55529C0.420793 1.67717 0.495964 1.78761 0.590452 1.88023L6.24045 7.54023C6.33409 7.64173 6.44774 7.72274 6.57424 7.77815C6.70074 7.83355 6.83735 7.86216 6.97545 7.86216C7.11355 7.86216 7.25016 7.83355 7.37666 7.77815C7.50316 7.72274 7.61681 7.64173 7.71045 7.54023Z" fill="#7E7F95"/>
</svg>
