<svg width="28" height="39" viewBox="0 0 28 39" fill="none" xmlns="http://www.w3.org/2000/svg">
<path d="M27.7559 18.7264C25.9192 16.6893 23.4703 15.2955 20.9193 14.7594C19.7969 14.4378 18.6744 14.2234 17.552 14.1161C20.4091 10.578 19.8989 5.21721 16.5316 2.21516C13.1644 -0.786892 8.06242 -0.250812 5.20534 3.28732C2.34826 6.82545 2.85845 12.1862 6.22573 15.1883C6.83796 15.7244 7.45019 16.1532 8.06242 16.3677V18.7264L6.4298 17.1182C5.00126 15.6172 2.65437 15.6172 1.12379 17.1182C-0.30475 18.6192 -0.40679 20.978 1.02175 22.479L5.71553 28.2687C5.91961 29.7697 6.4298 31.1635 7.14407 32.4501C7.65427 33.415 8.36854 34.38 9.08281 35.1305V37.1676C9.08281 37.8109 9.49097 38.2397 10.1032 38.2397H23.9805C24.4907 38.2397 25.0008 37.7037 25.0008 37.1676V34.38C26.9396 31.914 27.96 28.8047 27.96 25.6955V19.4769C28.062 19.0481 27.96 18.8336 27.7559 18.7264ZM5.30738 8.64812C5.30738 5.10999 8.06242 2.32237 11.4297 2.42959C14.797 2.42959 17.45 5.32442 17.3479 8.86255C17.3479 10.7924 16.5316 12.5079 15.1031 13.6873V8.32647C15.051 7.39731 14.6626 6.52428 14.0175 5.88636C13.3725 5.24844 12.5196 4.89395 11.6338 4.89556C9.79708 4.78834 8.16446 6.39658 8.16446 8.32647V13.9017C6.4298 12.8295 5.40942 10.7924 5.30738 8.64812ZM26.0212 25.5883C26.1233 28.3759 25.2049 31.0563 23.4703 33.2006C23.2662 33.415 23.0621 33.6295 23.0621 33.9511V36.2026H11.2256V34.7016C11.2256 34.38 11.0215 34.0583 10.8175 33.8439C10.1032 33.2006 9.49096 32.4501 8.98077 31.4851C8.36854 30.413 7.96038 29.1264 7.75631 27.8398C7.75631 27.6254 7.65427 27.4109 7.55223 27.1965L2.65437 21.0852C2.34826 20.7635 2.14418 20.3347 2.14418 19.7986C2.14418 19.3697 2.34826 18.8336 2.65437 18.512C3.36864 17.8687 4.38903 17.8687 5.1033 18.512L8.06242 21.6213V24.8377L10.0012 23.7656V8.32647C10.1032 7.57596 10.7154 6.93266 11.5317 7.03988C12.246 7.03988 12.9603 7.57596 12.9603 8.32647V20.6563L15.0011 21.0852V16.1532C15.1031 16.046 15.2051 16.046 15.3072 15.9388C16.0214 15.9388 16.7357 16.046 17.45 16.1532V21.6213L19.0826 21.9429V16.3677L20.3071 16.6893C20.8173 16.7965 21.3275 17.011 21.8376 17.2254V22.5862L23.4703 22.9079V17.9759C24.3886 18.4048 25.2049 19.0481 25.9192 19.7986L26.0212 25.5883Z" fill="#9A9AA9"/>
</svg>
