<svg width="14" height="14" viewBox="0 0 14 14" fill="none" xmlns="http://www.w3.org/2000/svg">
<path d="M8.28263 6.99996L13.734 1.54847C14.0887 1.19388 14.0887 0.620544 13.734 0.265948C13.3794 -0.0886492 12.806 -0.0886492 12.4514 0.265948L6.99994 5.71744L1.5486 0.265948C1.19384 -0.0886492 0.62067 -0.0886492 0.266073 0.265948C-0.0886909 0.620544 -0.0886909 1.19388 0.266073 1.54847L5.71741 6.99996L0.266073 12.4515C-0.0886909 12.806 -0.0886909 13.3794 0.266073 13.734C0.44279 13.9109 0.675147 13.9997 0.907338 13.9997C1.13953 13.9997 1.37172 13.9109 1.5486 13.734L6.99994 8.28249L12.4514 13.734C12.6283 13.9109 12.8605 13.9997 13.0927 13.9997C13.3249 13.9997 13.5571 13.9109 13.734 13.734C14.0887 13.3794 14.0887 12.806 13.734 12.4515L8.28263 6.99996Z" fill="white"/>
</svg>
