<svg width="24" height="24" viewBox="0 0 24 24" fill="none" xmlns="http://www.w3.org/2000/svg">
<g clip-path="url(#clip0_3476_34419)">
<path d="M20.75 22H18.25C17.5608 22 17 21.4392 17 20.75V3.25C17 2.56083 17.5608 2 18.25 2H20.75C21.4392 2 22 2.56083 22 3.25V20.75C22 21.4392 21.4392 22 20.75 22ZM18.25 2.83333C18.0208 2.83333 17.8333 3.02 17.8333 3.25V20.75C17.8333 20.98 18.0208 21.1667 18.25 21.1667H20.75C20.9792 21.1667 21.1667 20.98 21.1667 20.75V3.25C21.1667 3.02 20.9792 2.83333 20.75 2.83333H18.25Z" fill="white"/>
<path d="M13.25 22H10.75C10.0608 22 9.5 21.4392 9.5 20.75V3.25C9.5 2.56083 10.0608 2 10.75 2H13.25C13.9392 2 14.5 2.56083 14.5 3.25V20.75C14.5 21.4392 13.9392 22 13.25 22ZM10.75 2.83333C10.5208 2.83333 10.3333 3.02 10.3333 3.25V20.75C10.3333 20.98 10.5208 21.1667 10.75 21.1667H13.25C13.4792 21.1667 13.6667 20.98 13.6667 20.75V3.25C13.6667 3.02 13.4792 2.83333 13.25 2.83333H10.75Z" fill="white"/>
<path d="M5.75 22H3.25C2.56083 22 2 21.4392 2 20.75V3.25C2 2.56083 2.56083 2 3.25 2H5.75C6.43917 2 7 2.56083 7 3.25V20.75C7 21.4392 6.43917 22 5.75 22ZM3.25 2.83333C3.02083 2.83333 2.83333 3.02 2.83333 3.25V20.75C2.83333 20.98 3.02083 21.1667 3.25 21.1667H5.75C5.97917 21.1667 6.16667 20.98 6.16667 20.75V3.25C6.16667 3.02 5.97917 2.83333 5.75 2.83333H3.25Z" fill="white"/>
</g>
<defs>
<clipPath id="clip0_3476_34419">
<rect width="20" height="20" fill="white" transform="translate(2 2)"/>
</clipPath>
</defs>
</svg>
