<svg width="152" height="152" viewBox="0 0 152 152" fill="none" xmlns="http://www.w3.org/2000/svg">
<path d="M46.0639 29.923H36.3359V10.274C36.3359 7.71731 38.4087 5.64453 40.9654 5.64453H41.4348C43.9915 5.64453 46.0642 7.71731 46.0642 10.274V29.923H46.0639Z" fill="#E2E6FF"/>
<path d="M41.4344 5.64453H40.965C40.0456 5.64453 39.1912 5.91587 38.4707 6.37811C39.7535 7.20105 40.6058 8.63673 40.6058 10.274V29.923H46.0636V10.274C46.0639 7.71731 43.9911 5.64453 41.4344 5.64453Z" fill="#E2E6FF"/>
<path d="M86.4125 146.369H20.1191V35.9411C20.1191 32.8455 22.096 30.0956 25.03 29.1094L86.4125 8.47656V146.369Z" fill="#FF576B"/>
<path d="M80.0137 10.6271V146.369H86.4122V8.47656L80.0137 10.6271Z" fill="#FF576B"/>
<path d="M132.517 76.4917V146.37H86.4121V71.5547H127.58C130.308 71.5547 132.517 73.7634 132.517 76.4917Z" fill="#F5FCFF"/>
<path d="M127.579 71.5508H121.18C123.907 71.5508 126.119 73.7619 126.119 76.4896V146.367H132.517V76.4899C132.517 73.7622 130.306 71.5508 127.579 71.5508Z" fill="#DDF4FE"/>
<path d="M86.4121 146.368H146.426C148.275 146.368 149.774 144.869 149.774 143.02V132.516H86.4121V146.368Z" fill="#E2E6FF"/>
<path d="M132.517 115.585V132.516H118.029V127.953C118.029 121.107 123.581 115.559 130.427 115.559H131.683C131.962 115.559 132.241 115.567 132.517 115.585Z" fill="#DDF4FE"/>
<path d="M143.375 132.52V143.024C143.375 144.873 141.876 146.371 140.027 146.371H146.426C148.275 146.371 149.774 144.873 149.774 143.024V132.52H143.375Z" fill="#E2E6FF"/>
<path d="M136.12 115.559H137.377C144.223 115.559 149.773 121.109 149.773 127.955V132.518H123.723V127.955C123.723 121.109 129.273 115.559 136.12 115.559Z" fill="#BBEC6C"/>
<path d="M137.377 115.559H136.12C135.238 115.559 134.379 115.652 133.549 115.827C139.162 117.011 143.375 121.991 143.375 127.955V132.518H149.774V127.955C149.774 121.109 144.223 115.559 137.377 115.559Z" fill="#FFA412"/>
<path d="M5.57442 146.371H20.1183V132.52H2.22656V143.024C2.22656 144.872 3.72548 146.371 5.57442 146.371Z" fill="#B6C4CF"/>
<path d="M13.7188 132.52H20.1176V146.371H13.7188V132.52Z" fill="#E2E6FF"/>
<path d="M18.3677 115.559H20.1183V132.518H2.22656V131.7C2.22656 122.785 9.45309 115.559 18.3677 115.559Z" fill="#BBEC6C"/>
<path d="M18.3686 115.559C16.7524 115.559 15.1929 115.799 13.7207 116.241V132.518H20.1195V115.559H18.3686Z" fill="white"/>
<path d="M86.4121 8.47656L107.267 28.6353C108.671 29.9932 109.465 31.8635 109.465 33.8175V71.5524H86.4121V8.47656Z" fill="#E2E6FF"/>
<path d="M107.267 28.6353L86.4121 8.47656V14.6617L100.868 28.635C102.273 29.9929 103.066 31.8632 103.066 33.8172V71.5521H109.465V33.8175C109.465 31.8635 108.672 29.9935 107.267 28.6353Z" fill="#E2E6FF"/>
<path d="M62.722 146.371H36.334V127.455C36.334 125.989 37.3107 124.702 38.7232 124.308L59.4472 118.522C61.0925 118.063 62.722 119.3 62.722 121.008V146.371Z" fill="#E2E6FF"/>
<path d="M59.4478 118.522L55.8535 119.526C56.1465 119.941 56.3241 120.449 56.3241 121.008V146.371H62.7229V121.008C62.7226 119.3 61.0931 118.063 59.4478 118.522Z" fill="#E2E6FF"/>
<path d="M120.225 89.9167H98.3899C97.5456 89.9167 96.8613 89.2324 96.8613 88.3881V83.0286C96.8613 82.1843 97.5456 81.5 98.3899 81.5H120.225C121.07 81.5 121.754 82.1843 121.754 83.0286V88.3881C121.754 89.2324 121.07 89.9167 120.225 89.9167Z" fill="#FF576B"/>
<path d="M120.225 81.5039H113.826C114.67 81.5039 115.355 82.1882 115.355 83.0325V88.3917C115.355 89.236 114.67 89.9203 113.826 89.9203H120.225C121.069 89.9203 121.754 89.236 121.754 88.3917V83.0325C121.754 82.1882 121.069 81.5039 120.225 81.5039Z" fill="#FF576B"/>
<path d="M120.225 106.85H98.3899C97.5456 106.85 96.8613 106.166 96.8613 105.322V99.9622C96.8613 99.1179 97.5456 98.4336 98.3899 98.4336H120.225C121.07 98.4336 121.754 99.1179 121.754 99.9622V105.322C121.754 106.166 121.07 106.85 120.225 106.85Z" fill="#FF576B"/>
<path d="M120.225 98.4336H113.826C114.67 98.4336 115.355 99.1179 115.355 99.9622V105.321C115.355 106.166 114.67 106.85 113.826 106.85H120.225C121.069 106.85 121.754 106.166 121.754 105.321V99.9622C121.754 99.1179 121.069 98.4336 120.225 98.4336Z" fill="#FF576B"/>
<path d="M105.612 123.952H98.3899C97.5456 123.952 96.8613 123.268 96.8613 122.423V117.064C96.8613 116.219 97.5456 115.535 98.3899 115.535H105.612C106.457 115.535 107.141 116.219 107.141 117.064V122.423C107.141 123.268 106.457 123.952 105.612 123.952Z" fill="#FF576B"/>
<path d="M105.612 115.535H99.2129C100.057 115.535 100.741 116.219 100.741 117.064V122.423C100.741 123.268 100.057 123.952 99.2129 123.952H105.612C106.456 123.952 107.14 123.268 107.14 122.423V117.064C107.14 116.219 106.456 115.535 105.612 115.535Z" fill="#FF576B"/>
<path d="M137.377 113.331C136.19 113.345 136.32 113.288 134.743 113.398V76.4904C134.743 72.5405 131.529 69.3268 127.579 69.3268H109.493C109.484 69.3268 109.474 69.3253 109.465 69.3253H88.6383V13.7251L105.719 30.2358C106.684 31.1692 107.238 32.4742 107.238 33.817V61.0565C107.238 62.2861 108.235 63.283 109.465 63.283C110.694 63.283 111.691 62.2861 111.691 61.0565V33.817C111.691 31.274 110.643 28.8016 108.814 27.034L87.959 6.87529C87.4902 6.43532 86.5919 6.04048 85.7022 6.36555L48.2897 18.9412V10.2724C48.3179 6.4846 44.9193 3.1878 40.9658 3.41759C37.1845 3.41759 34.108 6.49262 34.108 10.2724V23.7081L24.3197 26.9984C20.4749 28.291 17.8915 31.8843 17.8915 35.9408V113.344C7.98327 113.597 0 121.731 0 131.699V143.021C0 146.095 2.50058 148.595 5.57412 148.595H146.426C149.499 148.595 152 146.095 152 143.021V127.955C152 119.891 145.44 113.331 137.377 113.331ZM137.377 117.785C142.985 117.785 147.547 122.347 147.547 127.955V130.291H125.949V127.955C125.954 121.869 131.302 117.257 137.377 117.785ZM130.29 76.4904V114.547C125.12 116.804 121.496 121.963 121.496 127.955V130.29H88.6383V73.7799H127.579C129.074 73.7799 130.29 74.9959 130.29 76.4904ZM38.5611 10.2724C38.5611 8.94807 39.6399 7.87071 40.9658 7.87071C42.1565 7.69585 43.76 8.62952 43.8366 10.2724V20.438L38.5611 22.2113V10.2724ZM17.8918 117.793V130.291H4.52378C5.21639 123.432 10.9102 118.028 17.8918 117.793ZM4.45312 143.021V134.744H17.8918V144.142H5.57442C4.95603 144.142 4.45312 143.639 4.45312 143.021ZM22.3449 35.9408C22.3449 33.7992 23.7087 31.9021 25.7388 31.2196L84.1854 11.5736V23.7054L35.625 40.0285C34.4595 40.4201 33.8322 41.6827 34.224 42.8485C34.5367 43.7789 35.4041 44.3661 36.3342 44.3661C36.5694 44.3661 36.8086 44.3287 37.0441 44.2495L84.1854 28.4038V39.731L35.625 56.0538C34.4595 56.4457 33.8322 57.7083 34.224 58.8738C34.5367 59.8042 35.4041 60.3915 36.3342 60.3915C36.5694 60.3915 36.8086 60.3541 37.0441 60.2748L84.1854 44.4288V55.7561L35.625 72.0791C34.4595 72.4707 33.8322 73.7333 34.224 74.8991C34.5367 75.8295 35.4041 76.4168 36.3342 76.4168C36.5694 76.4168 36.8086 76.3794 37.0441 76.3001L84.1854 60.4544V71.545C84.1854 71.548 84.1851 71.5507 84.1851 71.5537V71.782L35.625 88.1044C34.4595 88.4963 33.8322 89.7589 34.224 90.9245C34.5367 91.8549 35.4041 92.4421 36.3342 92.4421C36.5694 92.4421 36.8086 92.4047 37.0441 92.3254L84.1848 76.4794V87.807L53.8629 97.9993C52.6974 98.3909 52.0701 99.6535 52.462 100.819C52.7746 101.75 53.642 102.337 54.5722 102.337C54.8073 102.337 55.0466 102.3 55.282 102.22L84.1848 92.5047V144.142H64.9497V121.006C64.9497 119.489 64.2568 118.093 63.0488 117.177C61.8408 116.26 60.3102 115.968 58.8495 116.376L38.1256 122.161C35.7604 122.821 34.1086 124.997 34.1086 127.453V144.142H22.3449V35.9408ZM38.5617 127.453C38.5617 126.988 38.8749 126.576 39.3229 126.45L47.3023 124.223V144.142H38.5614V127.453H38.5617ZM51.7554 144.142V122.979L60.0468 120.664C60.1588 120.633 60.2632 120.653 60.3562 120.724C60.4491 120.794 60.4963 120.889 60.4963 121.006V144.142H51.7554ZM88.6383 144.142V134.744H121.496V144.142H88.6383ZM147.547 143.021C147.547 143.64 147.044 144.142 146.426 144.142H125.949V134.744H147.547V143.021Z" fill="#1E003E"/>
<path d="M36.3343 108.468C36.5694 108.468 36.8087 108.43 37.0441 108.351L45.3109 105.572C46.4764 105.181 47.1037 103.918 46.7118 102.752C46.32 101.586 45.0574 100.959 43.8918 101.351L35.6251 104.13C34.4595 104.522 33.8322 105.784 34.2241 106.95C34.5367 107.88 35.4042 108.468 36.3343 108.468Z" fill="black"/>
<path d="M98.3896 92.143H120.225C122.296 92.143 123.98 90.4585 123.98 88.3881V83.0286C123.98 80.9579 122.296 79.2734 120.225 79.2734H98.3896C96.3189 79.2734 94.6348 80.9579 94.6348 83.0286V88.3881C94.6348 90.4585 96.3192 92.143 98.3896 92.143ZM99.0879 83.7266H119.527V87.6898H99.0879V83.7266Z" fill="black"/>
<path d="M98.3896 109.077H120.225C122.296 109.077 123.98 107.392 123.98 105.321V99.9619C123.98 97.8912 122.296 96.207 120.225 96.207H98.3896C96.3189 96.207 94.6348 97.8915 94.6348 99.9619V105.321C94.6348 107.392 96.3192 109.077 98.3896 109.077ZM99.0879 100.66H119.527V104.623H99.0879V100.66Z" fill="black"/>
<path d="M98.3896 126.178H105.612C107.683 126.178 109.367 124.494 109.367 122.423V117.064C109.367 114.993 107.683 113.309 105.612 113.309H98.3896C96.3189 113.309 94.6348 114.993 94.6348 117.064V122.423C94.6348 124.494 96.3192 126.178 98.3896 126.178ZM99.0879 117.762H104.914V121.725H99.0879V117.762Z" fill="black"/>
</svg>
