<svg width="24" height="24" viewBox="0 0 24 24" fill="none" xmlns="http://www.w3.org/2000/svg">
<g clip-path="url(#clip0_3476_34318)">
<path d="M12 7.05469C10.0616 7.05469 8.48438 5.47748 8.48438 3.53906C8.48438 1.60064 10.0616 0.0234375 12 0.0234375C13.9384 0.0234375 15.5156 1.60064 15.5156 3.53906C15.5156 5.47748 13.9384 7.05469 12 7.05469Z" fill="white"/>
<path d="M0.469984 20.1095C-0.498875 18.4307 0.078578 16.2767 1.75745 15.3071C3.47078 14.3188 5.60509 14.9412 6.55984 16.5939C7.53119 18.2753 6.95547 20.4244 5.27308 21.3963C3.58745 22.3683 1.44072 21.7899 0.469984 20.1095Z" fill="white"/>
<path d="M18.7276 21.3963C17.0463 20.425 16.4689 18.2763 17.4408 16.5939C18.3955 14.9413 20.5298 14.3187 22.2432 15.3072C23.922 16.2767 24.4995 18.4307 23.5306 20.1095C22.5611 21.7878 20.4156 22.3698 18.7276 21.3963Z" fill="white"/>
<path d="M2.87224 12.9175L1.46875 12.8405C1.65138 9.51442 3.42846 6.43548 6.22169 4.60352L6.99349 5.77905C4.57169 7.36731 3.03152 10.0363 2.87224 12.9175Z" fill="white"/>
<path d="M21.1291 12.9174C20.9698 10.0362 19.4296 7.36727 17.0078 5.77905L17.7796 4.60352C20.5729 6.43548 22.3499 9.51442 22.5325 12.8405L21.1291 12.9174Z" fill="white"/>
<path d="M11.9965 23.9765C10.3238 23.9765 8.72466 23.5961 7.24219 22.847L7.87664 21.5918C10.4447 22.8909 13.5483 22.8909 16.1164 21.5918L16.7508 22.847C15.2684 23.5961 13.6692 23.9765 11.9965 23.9765Z" fill="white"/>
</g>
<defs>
<clipPath id="clip0_3476_34318">
<rect width="24" height="24" fill="white"/>
</clipPath>
</defs>
</svg>
