<svg width="225" height="50" viewBox="0 0 225 50" fill="none" xmlns="http://www.w3.org/2000/svg">
<rect x="1" y="1" width="223" height="48" rx="5" stroke="#FF576B"/>
<rect x="15.5" y="13.5" width="23" height="23" rx="4.5" fill="#FBFAFF" stroke="#FF576B"/>
<path d="M63.974 26.766C63.974 27.15 63.902 27.54 63.758 27.936C63.614 28.332 63.394 28.698 63.098 29.034C62.802 29.366 62.428 29.634 61.976 29.838C61.524 30.042 60.992 30.144 60.38 30.144C59.56 30.144 58.86 29.95 58.28 29.562C57.7 29.17 57.256 28.632 56.948 27.948C56.644 27.26 56.492 26.468 56.492 25.572C56.492 24.68 56.644 23.892 56.948 23.208C57.256 22.52 57.7 21.984 58.28 21.6C58.86 21.212 59.56 21.018 60.38 21.018C61.06 21.018 61.64 21.142 62.12 21.39C62.604 21.638 62.99 21.96 63.278 22.356C63.57 22.752 63.77 23.17 63.878 23.61C63.942 23.878 63.974 24.136 63.974 24.384H62.108C62.108 24.264 62.098 24.148 62.078 24.036C62.018 23.6 61.842 23.238 61.55 22.95C61.258 22.658 60.868 22.512 60.38 22.512C59.804 22.512 59.328 22.762 58.952 23.262C58.576 23.758 58.388 24.528 58.388 25.572C58.388 26.62 58.576 27.396 58.952 27.9C59.328 28.4 59.804 28.65 60.38 28.65C60.748 28.65 61.06 28.562 61.316 28.386C61.572 28.21 61.768 27.98 61.904 27.696C62.04 27.408 62.108 27.098 62.108 26.766H63.974ZM68.3789 30.138C67.6909 30.138 67.0849 29.996 66.5609 29.712C66.0369 29.428 65.6269 29.038 65.3309 28.542C65.0389 28.042 64.8929 27.466 64.8929 26.814C64.8929 26.166 65.0389 25.594 65.3309 25.098C65.6269 24.598 66.0369 24.21 66.5609 23.934C67.0849 23.654 67.6909 23.514 68.3789 23.514C69.0669 23.514 69.6729 23.654 70.1969 23.934C70.7209 24.21 71.1289 24.598 71.4209 25.098C71.7169 25.594 71.8649 26.166 71.8649 26.814C71.8649 27.466 71.7169 28.042 71.4209 28.542C71.1289 29.038 70.7209 29.428 70.1969 29.712C69.6729 29.996 69.0669 30.138 68.3789 30.138ZM68.3789 28.662C68.8629 28.662 69.2509 28.494 69.5429 28.158C69.8349 27.822 69.9809 27.374 69.9809 26.814C69.9809 26.254 69.8349 25.81 69.5429 25.482C69.2509 25.154 68.8629 24.99 68.3789 24.99C67.8949 24.99 67.5069 25.154 67.2149 25.482C66.9229 25.81 66.7769 26.254 66.7769 26.814C66.7769 27.374 66.9229 27.822 67.2149 28.158C67.5069 28.494 67.8949 28.662 68.3789 28.662ZM78.6776 23.628L76.7456 30H74.2376L72.2636 23.628H74.1836L75.4916 28.848L76.7516 23.628H78.6776ZM85.872 27.99C85.84 28.35 85.688 28.696 85.416 29.028C85.148 29.356 84.768 29.624 84.276 29.832C83.788 30.04 83.198 30.144 82.506 30.144C81.802 30.144 81.188 30.004 80.664 29.724C80.14 29.44 79.734 29.05 79.446 28.554C79.158 28.054 79.014 27.478 79.014 26.826C79.014 26.166 79.16 25.588 79.452 25.092C79.748 24.592 80.158 24.204 80.682 23.928C81.21 23.648 81.82 23.508 82.512 23.508C83.22 23.508 83.832 23.65 84.348 23.934C84.864 24.214 85.262 24.608 85.542 25.116C85.822 25.62 85.962 26.208 85.962 26.88C85.962 27.088 85.954 27.252 85.938 27.372H80.898C80.982 27.804 81.164 28.14 81.444 28.38C81.724 28.616 82.104 28.734 82.584 28.734C83.084 28.734 83.444 28.654 83.664 28.494C83.888 28.33 84.012 28.162 84.036 27.99H85.872ZM82.536 24.9C82.108 24.9 81.754 25.008 81.474 25.224C81.198 25.44 81.012 25.746 80.916 26.142H84.06C84.032 25.826 83.894 25.54 83.646 25.284C83.402 25.028 83.032 24.9 82.536 24.9ZM87.1244 30V23.628H88.9904V24.492C89.1744 24.192 89.4184 23.954 89.7224 23.778C90.0304 23.598 90.3984 23.508 90.8264 23.508C91.0824 23.508 91.2824 23.528 91.4264 23.568C91.5744 23.604 91.6664 23.632 91.7024 23.652L91.3964 25.32C91.3604 25.3 91.2804 25.268 91.1564 25.224C91.0324 25.18 90.8724 25.158 90.6764 25.158C90.2484 25.158 89.9104 25.25 89.6624 25.434C89.4184 25.618 89.2444 25.852 89.1404 26.136C89.0404 26.416 88.9904 26.702 88.9904 26.994V30H87.1244ZM101.524 22.59H99.346V30H97.492V22.59H95.32V21.15H101.524V22.59ZM101.937 30V23.628H103.803V24.492C103.987 24.192 104.231 23.954 104.535 23.778C104.843 23.598 105.211 23.508 105.639 23.508C105.895 23.508 106.095 23.528 106.239 23.568C106.387 23.604 106.479 23.632 106.515 23.652L106.209 25.32C106.173 25.3 106.093 25.268 105.969 25.224C105.845 25.18 105.685 25.158 105.489 25.158C105.061 25.158 104.723 25.25 104.475 25.434C104.231 25.618 104.057 25.852 103.953 26.136C103.853 26.416 103.803 26.702 103.803 26.994V30H101.937ZM109.499 30.132C108.799 30.132 108.225 29.968 107.777 29.64C107.329 29.312 107.105 28.848 107.105 28.248C107.105 27.796 107.229 27.428 107.477 27.144C107.725 26.86 108.053 26.644 108.461 26.496C108.873 26.344 109.319 26.244 109.799 26.196C110.495 26.132 110.977 26.072 111.245 26.016C111.513 25.956 111.647 25.856 111.647 25.716V25.704C111.647 25.468 111.533 25.282 111.305 25.146C111.081 25.01 110.767 24.942 110.363 24.942C109.483 24.942 109.043 25.254 109.043 25.878H107.213C107.213 25.37 107.351 24.94 107.627 24.588C107.907 24.232 108.285 23.964 108.761 23.784C109.237 23.6 109.775 23.508 110.375 23.508C110.935 23.508 111.453 23.594 111.929 23.766C112.405 23.934 112.787 24.19 113.075 24.534C113.367 24.874 113.513 25.304 113.513 25.824V28.578C113.513 28.742 113.517 28.9 113.525 29.052C113.537 29.204 113.561 29.34 113.597 29.46C113.637 29.6 113.687 29.716 113.747 29.808C113.807 29.9 113.857 29.964 113.897 30H112.067C112.039 29.968 111.995 29.91 111.935 29.826C111.879 29.738 111.831 29.636 111.791 29.52C111.767 29.452 111.747 29.386 111.731 29.322C111.491 29.578 111.175 29.778 110.783 29.922C110.391 30.062 109.963 30.132 109.499 30.132ZM109.997 28.74C110.285 28.74 110.557 28.688 110.813 28.584C111.069 28.476 111.277 28.308 111.437 28.08C111.597 27.852 111.677 27.554 111.677 27.186V27.132C111.449 27.192 111.207 27.242 110.951 27.282C110.695 27.318 110.441 27.35 110.189 27.378C109.781 27.418 109.475 27.488 109.271 27.588C109.071 27.684 108.971 27.848 108.971 28.08C108.971 28.52 109.313 28.74 109.997 28.74ZM114.874 30V23.628H116.734V24.606C116.978 24.262 117.29 23.994 117.67 23.802C118.05 23.606 118.466 23.508 118.918 23.508C119.702 23.508 120.28 23.738 120.652 24.198C121.028 24.658 121.216 25.262 121.216 26.01V30H119.362V26.544C119.362 26.28 119.328 26.04 119.26 25.824C119.192 25.604 119.068 25.428 118.888 25.296C118.712 25.164 118.46 25.098 118.132 25.098C117.7 25.098 117.358 25.244 117.106 25.536C116.858 25.824 116.734 26.2 116.734 26.664V30H114.874ZM125.261 30.144C124.757 30.144 124.279 30.068 123.827 29.916C123.379 29.76 123.015 29.53 122.735 29.226C122.455 28.918 122.315 28.534 122.315 28.074V27.966H124.163V28.05C124.163 28.282 124.265 28.452 124.469 28.56C124.673 28.668 124.953 28.722 125.309 28.722C125.581 28.722 125.835 28.678 126.071 28.59C126.307 28.502 126.425 28.356 126.425 28.152C126.425 27.94 126.307 27.79 126.071 27.702C125.839 27.614 125.465 27.526 124.949 27.438C124.653 27.39 124.355 27.322 124.055 27.234C123.759 27.146 123.485 27.03 123.233 26.886C122.981 26.738 122.779 26.552 122.627 26.328C122.475 26.1 122.399 25.824 122.399 25.5C122.399 25.068 122.529 24.704 122.789 24.408C123.053 24.112 123.403 23.888 123.839 23.736C124.275 23.584 124.755 23.508 125.279 23.508C125.775 23.508 126.239 23.592 126.671 23.76C127.107 23.924 127.459 24.162 127.727 24.474C127.995 24.782 128.129 25.154 128.129 25.59V25.674H126.299V25.602C126.299 25.362 126.189 25.188 125.969 25.08C125.753 24.968 125.521 24.912 125.273 24.912C125.121 24.912 124.963 24.93 124.799 24.966C124.639 24.998 124.503 25.054 124.391 25.134C124.279 25.21 124.223 25.318 124.223 25.458C124.223 25.662 124.355 25.812 124.619 25.908C124.887 26.004 125.233 26.086 125.657 26.154C125.925 26.198 126.207 26.26 126.503 26.34C126.803 26.416 127.083 26.526 127.343 26.67C127.603 26.81 127.815 26.996 127.979 27.228C128.143 27.46 128.225 27.75 128.225 28.098C128.225 28.462 128.141 28.774 127.973 29.034C127.805 29.294 127.577 29.506 127.289 29.67C127.005 29.83 126.687 29.948 126.335 30.024C125.983 30.104 125.625 30.144 125.261 30.144ZM131.542 30.132C130.842 30.132 130.268 29.968 129.82 29.64C129.372 29.312 129.148 28.848 129.148 28.248C129.148 27.796 129.272 27.428 129.52 27.144C129.768 26.86 130.096 26.644 130.504 26.496C130.916 26.344 131.362 26.244 131.842 26.196C132.538 26.132 133.02 26.072 133.288 26.016C133.556 25.956 133.69 25.856 133.69 25.716V25.704C133.69 25.468 133.576 25.282 133.348 25.146C133.124 25.01 132.81 24.942 132.406 24.942C131.526 24.942 131.086 25.254 131.086 25.878H129.256C129.256 25.37 129.394 24.94 129.67 24.588C129.95 24.232 130.328 23.964 130.804 23.784C131.28 23.6 131.818 23.508 132.418 23.508C132.978 23.508 133.496 23.594 133.972 23.766C134.448 23.934 134.83 24.19 135.118 24.534C135.41 24.874 135.556 25.304 135.556 25.824V28.578C135.556 28.742 135.56 28.9 135.568 29.052C135.58 29.204 135.604 29.34 135.64 29.46C135.68 29.6 135.73 29.716 135.79 29.808C135.85 29.9 135.9 29.964 135.94 30H134.11C134.082 29.968 134.038 29.91 133.978 29.826C133.922 29.738 133.874 29.636 133.834 29.52C133.81 29.452 133.79 29.386 133.774 29.322C133.534 29.578 133.218 29.778 132.826 29.922C132.434 30.062 132.006 30.132 131.542 30.132ZM132.04 28.74C132.328 28.74 132.6 28.688 132.856 28.584C133.112 28.476 133.32 28.308 133.48 28.08C133.64 27.852 133.72 27.554 133.72 27.186V27.132C133.492 27.192 133.25 27.242 132.994 27.282C132.738 27.318 132.484 27.35 132.232 27.378C131.824 27.418 131.518 27.488 131.314 27.588C131.114 27.684 131.014 27.848 131.014 28.08C131.014 28.52 131.356 28.74 132.04 28.74ZM140.127 30.144C139.427 30.144 138.813 30.004 138.285 29.724C137.761 29.44 137.353 29.048 137.061 28.548C136.769 28.044 136.623 27.46 136.623 26.796C136.623 26.132 136.769 25.554 137.061 25.062C137.353 24.57 137.761 24.188 138.285 23.916C138.813 23.644 139.427 23.508 140.127 23.508C140.651 23.508 141.113 23.586 141.513 23.742C141.917 23.894 142.255 24.096 142.527 24.348C142.803 24.596 143.011 24.872 143.151 25.176C143.291 25.476 143.361 25.774 143.361 26.07V26.118H141.519C141.519 26.086 141.513 26.04 141.501 25.98C141.453 25.728 141.317 25.502 141.093 25.302C140.873 25.102 140.547 25.002 140.115 25.002C139.655 25.002 139.271 25.156 138.963 25.464C138.659 25.768 138.507 26.212 138.507 26.796C138.507 27.372 138.659 27.826 138.963 28.158C139.271 28.486 139.655 28.65 140.115 28.65C140.587 28.65 140.931 28.544 141.147 28.332C141.363 28.116 141.487 27.858 141.519 27.558H143.361C143.361 27.858 143.291 28.16 143.151 28.464C143.015 28.768 142.811 29.046 142.539 29.298C142.267 29.55 141.929 29.754 141.525 29.91C141.125 30.066 140.659 30.144 140.127 30.144ZM147.596 30.132C147.352 30.132 147.1 30.11 146.84 30.066C146.584 30.026 146.346 29.944 146.126 29.82C145.906 29.692 145.726 29.506 145.586 29.262C145.45 29.018 145.382 28.696 145.382 28.296V25.068H143.912V23.628H144.326C144.65 23.628 144.886 23.606 145.034 23.562C145.186 23.518 145.282 23.406 145.322 23.226C145.362 23.042 145.382 22.744 145.382 22.332V21.528H147.248V23.628H149.102V25.068H147.248V27.768C147.248 28.044 147.28 28.268 147.344 28.44C147.412 28.612 147.578 28.698 147.842 28.698C147.974 28.698 148.098 28.686 148.214 28.662C148.334 28.638 148.424 28.614 148.484 28.59V29.988C148.4 30.024 148.282 30.056 148.13 30.084C147.978 30.116 147.8 30.132 147.596 30.132ZM151.076 22.59C150.788 22.59 150.536 22.514 150.32 22.362C150.108 22.21 150.002 21.996 150.002 21.72C150.002 21.44 150.108 21.224 150.32 21.072C150.536 20.92 150.788 20.844 151.076 20.844C151.364 20.844 151.616 20.92 151.832 21.072C152.048 21.224 152.156 21.44 152.156 21.72C152.156 22 152.048 22.216 151.832 22.368C151.616 22.516 151.364 22.59 151.076 22.59ZM150.158 30V23.628H152V30H150.158ZM156.563 30.138C155.875 30.138 155.269 29.996 154.745 29.712C154.221 29.428 153.811 29.038 153.515 28.542C153.223 28.042 153.077 27.466 153.077 26.814C153.077 26.166 153.223 25.594 153.515 25.098C153.811 24.598 154.221 24.21 154.745 23.934C155.269 23.654 155.875 23.514 156.563 23.514C157.251 23.514 157.857 23.654 158.381 23.934C158.905 24.21 159.313 24.598 159.605 25.098C159.901 25.594 160.049 26.166 160.049 26.814C160.049 27.466 159.901 28.042 159.605 28.542C159.313 29.038 158.905 29.428 158.381 29.712C157.857 29.996 157.251 30.138 156.563 30.138ZM156.563 28.662C157.047 28.662 157.435 28.494 157.727 28.158C158.019 27.822 158.165 27.374 158.165 26.814C158.165 26.254 158.019 25.81 157.727 25.482C157.435 25.154 157.047 24.99 156.563 24.99C156.079 24.99 155.691 25.154 155.399 25.482C155.107 25.81 154.961 26.254 154.961 26.814C154.961 27.374 155.107 27.822 155.399 28.158C155.691 28.494 156.079 28.662 156.563 28.662ZM161.21 30V23.628H163.07V24.606C163.314 24.262 163.626 23.994 164.006 23.802C164.386 23.606 164.802 23.508 165.254 23.508C166.038 23.508 166.616 23.738 166.988 24.198C167.364 24.658 167.552 25.262 167.552 26.01V30H165.698V26.544C165.698 26.28 165.664 26.04 165.596 25.824C165.528 25.604 165.404 25.428 165.224 25.296C165.048 25.164 164.796 25.098 164.468 25.098C164.036 25.098 163.694 25.244 163.442 25.536C163.194 25.824 163.07 26.2 163.07 26.664V30H161.21ZM179.193 26.766C179.193 27.15 179.121 27.54 178.977 27.936C178.833 28.332 178.613 28.698 178.317 29.034C178.021 29.366 177.647 29.634 177.195 29.838C176.743 30.042 176.211 30.144 175.599 30.144C174.779 30.144 174.079 29.95 173.499 29.562C172.919 29.17 172.475 28.632 172.167 27.948C171.863 27.26 171.711 26.468 171.711 25.572C171.711 24.68 171.863 23.892 172.167 23.208C172.475 22.52 172.919 21.984 173.499 21.6C174.079 21.212 174.779 21.018 175.599 21.018C176.279 21.018 176.859 21.142 177.339 21.39C177.823 21.638 178.209 21.96 178.497 22.356C178.789 22.752 178.989 23.17 179.097 23.61C179.161 23.878 179.193 24.136 179.193 24.384H177.327C177.327 24.264 177.317 24.148 177.297 24.036C177.237 23.6 177.061 23.238 176.769 22.95C176.477 22.658 176.087 22.512 175.599 22.512C175.023 22.512 174.547 22.762 174.171 23.262C173.795 23.758 173.607 24.528 173.607 25.572C173.607 26.62 173.795 27.396 174.171 27.9C174.547 28.4 175.023 28.65 175.599 28.65C175.967 28.65 176.279 28.562 176.535 28.386C176.791 28.21 176.987 27.98 177.123 27.696C177.259 27.408 177.327 27.098 177.327 26.766H179.193ZM183.598 30.138C182.91 30.138 182.304 29.996 181.78 29.712C181.256 29.428 180.846 29.038 180.55 28.542C180.258 28.042 180.112 27.466 180.112 26.814C180.112 26.166 180.258 25.594 180.55 25.098C180.846 24.598 181.256 24.21 181.78 23.934C182.304 23.654 182.91 23.514 183.598 23.514C184.286 23.514 184.892 23.654 185.416 23.934C185.94 24.21 186.348 24.598 186.64 25.098C186.936 25.594 187.084 26.166 187.084 26.814C187.084 27.466 186.936 28.042 186.64 28.542C186.348 29.038 185.94 29.428 185.416 29.712C184.892 29.996 184.286 30.138 183.598 30.138ZM183.598 28.662C184.082 28.662 184.47 28.494 184.762 28.158C185.054 27.822 185.2 27.374 185.2 26.814C185.2 26.254 185.054 25.81 184.762 25.482C184.47 25.154 184.082 24.99 183.598 24.99C183.114 24.99 182.726 25.154 182.434 25.482C182.142 25.81 181.996 26.254 181.996 26.814C181.996 27.374 182.142 27.822 182.434 28.158C182.726 28.494 183.114 28.662 183.598 28.662ZM190.898 30.144C190.394 30.144 189.916 30.068 189.464 29.916C189.016 29.76 188.652 29.53 188.372 29.226C188.092 28.918 187.952 28.534 187.952 28.074V27.966H189.8V28.05C189.8 28.282 189.902 28.452 190.106 28.56C190.31 28.668 190.59 28.722 190.946 28.722C191.218 28.722 191.472 28.678 191.708 28.59C191.944 28.502 192.062 28.356 192.062 28.152C192.062 27.94 191.944 27.79 191.708 27.702C191.476 27.614 191.102 27.526 190.586 27.438C190.29 27.39 189.992 27.322 189.692 27.234C189.396 27.146 189.122 27.03 188.87 26.886C188.618 26.738 188.416 26.552 188.264 26.328C188.112 26.1 188.036 25.824 188.036 25.5C188.036 25.068 188.166 24.704 188.426 24.408C188.69 24.112 189.04 23.888 189.476 23.736C189.912 23.584 190.392 23.508 190.916 23.508C191.412 23.508 191.876 23.592 192.308 23.76C192.744 23.924 193.096 24.162 193.364 24.474C193.632 24.782 193.766 25.154 193.766 25.59V25.674H191.936V25.602C191.936 25.362 191.826 25.188 191.606 25.08C191.39 24.968 191.158 24.912 190.91 24.912C190.758 24.912 190.6 24.93 190.436 24.966C190.276 24.998 190.14 25.054 190.028 25.134C189.916 25.21 189.86 25.318 189.86 25.458C189.86 25.662 189.992 25.812 190.256 25.908C190.524 26.004 190.87 26.086 191.294 26.154C191.562 26.198 191.844 26.26 192.14 26.34C192.44 26.416 192.72 26.526 192.98 26.67C193.24 26.81 193.452 26.996 193.616 27.228C193.78 27.46 193.862 27.75 193.862 28.098C193.862 28.462 193.778 28.774 193.61 29.034C193.442 29.294 193.214 29.506 192.926 29.67C192.642 29.83 192.324 29.948 191.972 30.024C191.62 30.104 191.262 30.144 190.898 30.144ZM198.092 30.132C197.848 30.132 197.596 30.11 197.336 30.066C197.08 30.026 196.842 29.944 196.622 29.82C196.402 29.692 196.222 29.506 196.082 29.262C195.946 29.018 195.878 28.696 195.878 28.296V25.068H194.408V23.628H194.822C195.146 23.628 195.382 23.606 195.53 23.562C195.682 23.518 195.778 23.406 195.818 23.226C195.858 23.042 195.878 22.744 195.878 22.332V21.528H197.744V23.628H199.598V25.068H197.744V27.768C197.744 28.044 197.776 28.268 197.84 28.44C197.908 28.612 198.074 28.698 198.338 28.698C198.47 28.698 198.594 28.686 198.71 28.662C198.83 28.638 198.92 28.614 198.98 28.59V29.988C198.896 30.024 198.778 30.056 198.626 30.084C198.474 30.116 198.296 30.132 198.092 30.132ZM203.226 30.144C202.722 30.144 202.244 30.068 201.792 29.916C201.344 29.76 200.98 29.53 200.7 29.226C200.42 28.918 200.28 28.534 200.28 28.074V27.966H202.128V28.05C202.128 28.282 202.23 28.452 202.434 28.56C202.638 28.668 202.918 28.722 203.274 28.722C203.546 28.722 203.8 28.678 204.036 28.59C204.272 28.502 204.39 28.356 204.39 28.152C204.39 27.94 204.272 27.79 204.036 27.702C203.804 27.614 203.43 27.526 202.914 27.438C202.618 27.39 202.32 27.322 202.02 27.234C201.724 27.146 201.45 27.03 201.198 26.886C200.946 26.738 200.744 26.552 200.592 26.328C200.44 26.1 200.364 25.824 200.364 25.5C200.364 25.068 200.494 24.704 200.754 24.408C201.018 24.112 201.368 23.888 201.804 23.736C202.24 23.584 202.72 23.508 203.244 23.508C203.74 23.508 204.204 23.592 204.636 23.76C205.072 23.924 205.424 24.162 205.692 24.474C205.96 24.782 206.094 25.154 206.094 25.59V25.674H204.264V25.602C204.264 25.362 204.154 25.188 203.934 25.08C203.718 24.968 203.486 24.912 203.238 24.912C203.086 24.912 202.928 24.93 202.764 24.966C202.604 24.998 202.468 25.054 202.356 25.134C202.244 25.21 202.188 25.318 202.188 25.458C202.188 25.662 202.32 25.812 202.584 25.908C202.852 26.004 203.198 26.086 203.622 26.154C203.89 26.198 204.172 26.26 204.468 26.34C204.768 26.416 205.048 26.526 205.308 26.67C205.568 26.81 205.78 26.996 205.944 27.228C206.108 27.46 206.19 27.75 206.19 28.098C206.19 28.462 206.106 28.774 205.938 29.034C205.77 29.294 205.542 29.506 205.254 29.67C204.97 29.83 204.652 29.948 204.3 30.024C203.948 30.104 203.59 30.144 203.226 30.144Z" fill="#FF576B"/>
</svg>
