<svg width="12" height="13" viewBox="0 0 12 13" fill="none" xmlns="http://www.w3.org/2000/svg">
<path d="M11.92 6.02448C11.8724 5.90173 11.801 5.78959 11.71 5.69448L6.71 0.694482C6.61676 0.601244 6.50607 0.527283 6.38425 0.476823C6.26243 0.426363 6.13186 0.400391 6 0.400391C5.7337 0.400391 5.4783 0.506179 5.29 0.694482C5.19676 0.787721 5.1228 0.898411 5.07234 1.02023C5.02188 1.14206 4.99591 1.27262 4.99591 1.40448C4.99591 1.67078 5.1017 1.92618 5.29 2.11448L8.59 5.40448H1C0.734784 5.40448 0.48043 5.50984 0.292893 5.69738C0.105357 5.88491 0 6.13927 0 6.40448C0 6.6697 0.105357 6.92405 0.292893 7.11159C0.48043 7.29913 0.734784 7.40448 1 7.40448H8.59L5.29 10.6945C5.19627 10.7874 5.12188 10.898 5.07111 11.0199C5.02034 11.1418 4.9942 11.2725 4.9942 11.4045C4.9942 11.5365 5.02034 11.6672 5.07111 11.7891C5.12188 11.9109 5.19627 12.0215 5.29 12.1145C5.38296 12.2082 5.49356 12.2826 5.61542 12.3334C5.73728 12.3841 5.86799 12.4103 6 12.4103C6.13201 12.4103 6.26272 12.3841 6.38458 12.3334C6.50644 12.2826 6.61704 12.2082 6.71 12.1145L11.71 7.11448C11.801 7.01938 11.8724 6.90723 11.92 6.78448C12.02 6.54102 12.02 6.26794 11.92 6.02448Z" fill="#7E7F95"/>
</svg>
