<svg width="20" height="21" viewBox="0 0 20 21" fill="none" xmlns="http://www.w3.org/2000/svg">
<path fill-rule="evenodd" clip-rule="evenodd" d="M3 6.5V19C3 19.3978 3.15804 19.7794 3.43934 20.0607C3.72064 20.342 4.10218 20.5 4.5 20.5H15.5C15.8978 20.5 16.2794 20.342 16.5607 20.0607C16.842 19.7794 17 19.3978 17 19V6.5H3Z" stroke="#E6EFF1"/>
<path d="M6.5 3.333V2.244C6.5 1.557 7.127 1 7.9 1H12.1C12.873 1 13.5 1.557 13.5 2.244V3.334M6 9.41V17.59V9.41ZM10 9.41V17.59V9.41ZM14 9.41V17.59V9.41Z" stroke="#E6EFF1" stroke-linecap="round"/>
<path d="M17.5 3.5H2.5C1.67157 3.5 1 4.17157 1 5C1 5.82843 1.67157 6.5 2.5 6.5H17.5C18.3284 6.5 19 5.82843 19 5C19 4.17157 18.3284 3.5 17.5 3.5Z" stroke="#E6EFF1"/>
</svg>
