<svg width="20" height="20" viewBox="0 0 20 20" fill="none" xmlns="http://www.w3.org/2000/svg">
<path d="M19.1937 4.55626L15.4437 0.80626C15.3853 0.748335 15.3161 0.702506 15.2399 0.671403C15.1638 0.640301 15.0823 0.624535 15 0.62501H2.5C2.00272 0.62501 1.52581 0.822554 1.17417 1.17419C0.822544 1.52582 0.625 2.00273 0.625 2.50001V17.5C0.625 17.9973 0.822544 18.4742 1.17417 18.8258C1.52581 19.1775 2.00272 19.375 2.5 19.375H17.5C17.9973 19.375 18.4742 19.1775 18.8258 18.8258C19.1775 18.4742 19.375 17.9973 19.375 17.5V5.00001C19.3755 4.91776 19.3597 4.83622 19.3286 4.76007C19.2975 4.68392 19.2517 4.61466 19.1937 4.55626V4.55626ZM12.5 1.87501V5.62501H7.5V1.87501H12.5ZM5 18.125V13.75C5 13.5843 5.06585 13.4253 5.18306 13.3081C5.30027 13.1909 5.45924 13.125 5.625 13.125H14.375C14.5408 13.125 14.6997 13.1909 14.8169 13.3081C14.9342 13.4253 15 13.5843 15 13.75V18.125H5ZM18.125 17.5C18.125 17.6658 18.0592 17.8247 17.9419 17.942C17.8247 18.0592 17.6658 18.125 17.5 18.125H16.25V13.75C16.25 13.2527 16.0525 12.7758 15.7008 12.4242C15.3492 12.0726 14.8723 11.875 14.375 11.875H5.625C5.12772 11.875 4.65081 12.0726 4.29917 12.4242C3.94754 12.7758 3.75 13.2527 3.75 13.75V18.125H2.5C2.33424 18.125 2.17527 18.0592 2.05806 17.942C1.94085 17.8247 1.875 17.6658 1.875 17.5V2.50001C1.875 2.33425 1.94085 2.17528 2.05806 2.05807C2.17527 1.94086 2.33424 1.87501 2.5 1.87501H6.25V5.62501C6.25 5.95653 6.3817 6.27447 6.61612 6.50889C6.85054 6.74331 7.16848 6.87501 7.5 6.87501H12.5C12.8315 6.87501 13.1495 6.74331 13.3839 6.50889C13.6183 6.27447 13.75 5.95653 13.75 5.62501V1.87501H14.7438L18.125 5.25626V17.5Z" fill="white"/>
</svg>
