<svg width="24" height="24" viewBox="0 0 24 24" fill="none" xmlns="http://www.w3.org/2000/svg">
<path d="M11.9999 18.7203C18.2572 18.7203 23.2089 12.5604 23.4162 12.2984L23.6519 12.0003L23.4162 11.7022C23.2089 11.4401 18.2572 5.28027 11.9999 5.28027C5.74262 5.28027 0.79094 11.4401 0.58358 11.7022L0.3479 12.0003L0.58358 12.2984C0.79094 12.5604 5.74262 18.7203 11.9999 18.7203ZM11.9999 6.24027C17.037 6.24027 21.3455 10.7811 22.4111 12.0003C21.3469 13.2204 17.0442 17.7603 11.9999 17.7603C6.96278 17.7603 2.6543 13.2195 1.5887 12.0003C2.65286 10.7801 6.95558 6.24027 11.9999 6.24027Z" fill="#9A9AA9"/>
<path d="M11.9999 16.3197C14.3822 16.3197 16.3199 14.3814 16.3199 11.9997C16.3199 9.61793 14.3822 7.67969 11.9999 7.67969C9.61769 7.67969 7.67993 9.61793 7.67993 11.9997C7.67993 14.3814 9.61769 16.3197 11.9999 16.3197ZM11.9999 8.63969C13.8523 8.63969 15.3599 10.1469 15.3599 11.9997C15.3599 13.8525 13.8523 15.3597 11.9999 15.3597C10.1476 15.3597 8.63993 13.8525 8.63993 11.9997C8.63993 10.1469 10.1476 8.63969 11.9999 8.63969Z" fill="#9A9AA9"/>
</svg>
