<svg width="14" height="8" viewBox="0 0 14 8" fill="none" xmlns="http://www.w3.org/2000/svg">
<path d="M7.70996 7.57734L13.36 1.91734C13.4537 1.82437 13.5281 1.71377 13.5789 1.59191C13.6296 1.47005 13.6558 1.33935 13.6558 1.20734C13.6558 1.07532 13.6296 0.944618 13.5789 0.822759C13.5281 0.700899 13.4537 0.590298 13.36 0.497335C13.1726 0.311084 12.9191 0.206543 12.655 0.206543C12.3908 0.206543 12.1373 0.311084 11.95 0.497335L6.94996 5.44733L1.99996 0.497335C1.8126 0.311084 1.55915 0.206542 1.29496 0.206542C1.03078 0.206542 0.777327 0.311084 0.589964 0.497335C0.495476 0.58995 0.420305 0.700394 0.368809 0.82227C0.317312 0.944145 0.290514 1.07503 0.289965 1.20733C0.290514 1.33964 0.317312 1.47052 0.368809 1.5924C0.420305 1.71428 0.495476 1.82472 0.589964 1.91733L6.23996 7.57734C6.3336 7.67884 6.44726 7.75985 6.57376 7.81526C6.70026 7.87066 6.83686 7.89927 6.97496 7.89927C7.11307 7.89927 7.24967 7.87066 7.37617 7.81526C7.50267 7.75985 7.61632 7.67884 7.70996 7.57734Z" fill="#585858"/>
</svg>
