<svg width="24" height="24" viewBox="0 0 24 24" fill="none" xmlns="http://www.w3.org/2000/svg">
<path d="M16.8703 3.20357L11.7964 8.25363L8.86802 5.33893L13.9419 0.288872C14.49 -0.241073 15.5862 -0.0228607 16.3848 0.787643C17.1991 1.58256 17.4184 2.67362 16.8703 3.20357ZM4.34229 5.9624L5.76735 4.2167L19.877 18.2602L18.0134 19.5695C16.9016 20.6762 13.8949 21.3776 12.0313 21.3776H5.95527L4.01343 23.3103C3.08949 24.2299 1.6018 24.2299 0.693519 23.3103C0.473825 23.0943 0.299398 22.837 0.18035 22.5534C0.0613015 22.2698 0 21.9655 0 21.6581C0 21.3507 0.0613015 21.0464 0.18035 20.7628C0.299398 20.4792 0.473825 20.2219 0.693519 20.0059L2.63536 18.0732V12.0256C2.63536 10.2643 3.26175 7.05346 4.34229 5.9624ZM15.7114 12.1503L20.7853 7.10022C21.3177 6.55469 22.4139 6.7729 23.2126 7.5834C24.0269 8.37832 24.2461 9.46938 23.698 9.99933L18.6242 15.065L15.7114 12.1503Z" fill="#585858"/>
</svg>
