<svg width="20" height="24" viewBox="0 0 20 24" fill="none" xmlns="http://www.w3.org/2000/svg">
<path d="M18.9346 5.83087L13.3097 0.206016C13.1763 0.0725625 12.994 0 12.8125 0H2.96875C1.80564 0 0.859375 0.946266 0.859375 2.10938V21.8906C0.859375 23.0537 1.80564 24 2.96875 24H17.0312C18.1944 24 19.1406 23.0537 19.1406 21.8906V6.32812C19.1406 6.13519 19.0589 5.95514 18.9346 5.83087ZM13.5156 2.40061L16.74 5.625H14.2188C13.831 5.625 13.5156 5.30958 13.5156 4.92188V2.40061ZM17.0312 22.5938H2.96875C2.58105 22.5938 2.26562 22.2783 2.26562 21.8906V2.10938C2.26562 1.72167 2.58105 1.40625 2.96875 1.40625H12.1094V4.92188C12.1094 6.08498 13.0556 7.03125 14.2188 7.03125H17.7344V21.8906C17.7344 22.2783 17.419 22.5938 17.0312 22.5938Z" fill="#9A9AA9"/>
<path d="M14.2188 11.3438H7.1875C6.79919 11.3438 6.48438 11.6586 6.48438 12.0469C6.48438 12.4352 6.79919 12.75 7.1875 12.75H14.2188C14.6071 12.75 14.9219 12.4352 14.9219 12.0469C14.9219 11.6586 14.6071 11.3438 14.2188 11.3438Z" fill="#9A9AA9"/>
<path d="M14.2188 14.1562H7.1875C6.79919 14.1562 6.48438 14.4711 6.48438 14.8594C6.48438 15.2477 6.79919 15.5625 7.1875 15.5625H14.2188C14.6071 15.5625 14.9219 15.2477 14.9219 14.8594C14.9219 14.4711 14.6071 14.1562 14.2188 14.1562Z" fill="#9A9AA9"/>
<path d="M14.2188 16.9688H7.1875C6.79919 16.9688 6.48438 17.2836 6.48438 17.6719C6.48438 18.0602 6.79919 18.375 7.1875 18.375H14.2188C14.6071 18.375 14.9219 18.0602 14.9219 17.6719C14.9219 17.2836 14.6071 16.9688 14.2188 16.9688Z" fill="#9A9AA9"/>
<path d="M4.375 12.75C4.76333 12.75 5.07812 12.4352 5.07812 12.0469C5.07812 11.6585 4.76333 11.3438 4.375 11.3438C3.98667 11.3438 3.67188 11.6585 3.67188 12.0469C3.67188 12.4352 3.98667 12.75 4.375 12.75Z" fill="#9A9AA9"/>
<path d="M4.375 15.5625C4.76333 15.5625 5.07812 15.2477 5.07812 14.8594C5.07812 14.471 4.76333 14.1562 4.375 14.1562C3.98667 14.1562 3.67188 14.471 3.67188 14.8594C3.67188 15.2477 3.98667 15.5625 4.375 15.5625Z" fill="#9A9AA9"/>
<path d="M4.375 18.375C4.76333 18.375 5.07812 18.0602 5.07812 17.6719C5.07812 17.2835 4.76333 16.9688 4.375 16.9688C3.98667 16.9688 3.67188 17.2835 3.67188 17.6719C3.67188 18.0602 3.98667 18.375 4.375 18.375Z" fill="#9A9AA9"/>
</svg>
