<svg width="17" height="17" viewBox="0 0 17 17" fill="none" xmlns="http://www.w3.org/2000/svg">
<path d="M17 16.1015L12.2513 11.3556C13.3925 9.98646 13.9615 8.23032 13.8401 6.45253C13.7187 4.67474 12.9161 3.01217 11.5994 1.81069C10.2827 0.609203 8.55321 -0.0386897 6.77071 0.00178863C4.9882 0.042267 3.28994 0.768 2.02919 2.02801C0.768445 3.28803 0.0422915 4.98531 0.00178967 6.76678C-0.0387122 8.54825 0.609556 10.2767 1.81174 11.5927C3.01392 12.9086 4.67745 13.7107 6.45627 13.8321C8.2351 13.9534 9.99226 13.3847 11.3622 12.2442L16.1109 16.9901L17 16.1015ZM1.28008 6.93523C1.28008 5.8166 1.61198 4.72309 2.23382 3.79298C2.85566 2.86288 3.7395 2.13795 4.77358 1.70987C5.80766 1.28179 6.94553 1.16978 8.0433 1.38801C9.14107 1.60625 10.1494 2.14492 10.9409 2.93591C11.7323 3.7269 12.2713 4.73468 12.4897 5.83182C12.708 6.92895 12.596 8.06616 12.1676 9.09964C11.7393 10.1331 11.014 11.0165 10.0833 11.6379C9.15267 12.2594 8.05853 12.5911 6.93925 12.5911C5.43886 12.5895 4.00039 11.993 2.93945 10.9327C1.87851 9.87238 1.28174 8.43475 1.28008 6.93523Z" fill="#9A9AA9"/>
</svg>
