<svg width="24" height="24" viewBox="0 0 24 24" fill="none" xmlns="http://www.w3.org/2000/svg">
<g clip-path="url(#clip0_3476_34394)">
<path d="M20.75 7H3.25C2.56083 7 2 6.43917 2 5.75V3.25C2 2.56083 2.56083 2 3.25 2H20.75C21.4392 2 22 2.56083 22 3.25V5.75C22 6.43917 21.4392 7 20.75 7ZM3.25 2.83333C3.02 2.83333 2.83333 3.02 2.83333 3.25V5.75C2.83333 5.98 3.02 6.16667 3.25 6.16667H20.75C20.98 6.16667 21.1667 5.98 21.1667 5.75V3.25C21.1667 3.02 20.98 2.83333 20.75 2.83333H3.25Z" fill="white"/>
<path d="M20.7474 14.5H9.91406C9.22489 14.5 8.66406 13.9392 8.66406 13.25V10.75C8.66406 10.0608 9.22489 9.5 9.91406 9.5H20.7474C21.4365 9.5 21.9974 10.0608 21.9974 10.75V13.25C21.9974 13.9392 21.4365 14.5 20.7474 14.5ZM9.91406 10.3333C9.68406 10.3333 9.49739 10.52 9.49739 10.75V13.25C9.49739 13.48 9.68406 13.6667 9.91406 13.6667H20.7474C20.9774 13.6667 21.164 13.48 21.164 13.25V10.75C21.164 10.52 20.9774 10.3333 20.7474 10.3333H9.91406Z" fill="white"/>
<path d="M4.5 14.5C3.12167 14.5 2 13.3783 2 12C2 10.6217 3.12167 9.5 4.5 9.5C5.87833 9.5 7 10.6217 7 12C7 13.3783 5.87833 14.5 4.5 14.5ZM4.5 10.3333C3.58083 10.3333 2.83333 11.0808 2.83333 12C2.83333 12.9192 3.58083 13.6667 4.5 13.6667C5.41917 13.6667 6.16667 12.9192 6.16667 12C6.16667 11.0808 5.41917 10.3333 4.5 10.3333Z" fill="white"/>
<path d="M14.0833 22H3.25C2.56083 22 2 21.4392 2 20.75V18.25C2 17.5608 2.56083 17 3.25 17H14.0833C14.7725 17 15.3333 17.5608 15.3333 18.25V20.75C15.3333 21.4392 14.7725 22 14.0833 22ZM3.25 17.8333C3.02 17.8333 2.83333 18.02 2.83333 18.25V20.75C2.83333 20.98 3.02 21.1667 3.25 21.1667H14.0833C14.3133 21.1667 14.5 20.98 14.5 20.75V18.25C14.5 18.02 14.3133 17.8333 14.0833 17.8333H3.25Z" fill="white"/>
<path d="M19.5 22C18.1217 22 17 20.8783 17 19.5C17 18.1217 18.1217 17 19.5 17C20.8783 17 22 18.1217 22 19.5C22 20.8783 20.8783 22 19.5 22ZM19.5 17.8333C18.5808 17.8333 17.8333 18.5808 17.8333 19.5C17.8333 20.4192 18.5808 21.1667 19.5 21.1667C20.4192 21.1667 21.1667 20.4192 21.1667 19.5C21.1667 18.5808 20.4192 17.8333 19.5 17.8333Z" fill="white"/>
</g>
<defs>
<clipPath id="clip0_3476_34394">
<rect width="20" height="20" fill="white" transform="translate(2 2)"/>
</clipPath>
</defs>
</svg>
