<svg viewBox="0 0 103 103" fill="none" xmlns="http://www.w3.org/2000/svg">
<path d="M89.5643 40.3047L51.4993 64.9349L13.4341 40.3047V2.2395C13.4079 1.02912 14.3678 0.026765 15.5782 0.000525366C15.6099 -0.000104386 15.6416 -0.000104386 15.6733 0.000525366H87.3251C88.5355 -0.0257143 89.538 0.934238 89.5643 2.14462C89.5649 2.17632 89.5649 2.20802 89.5643 2.23971V40.3047Z" fill="#F1F2F2"/>
<path d="M13.4347 40.3053L0 31.3488L13.4347 17.9141V40.3053Z" fill="#1E003E"/>
<path d="M103.001 31.3488L89.5664 40.3053V17.9141L103.001 31.3488Z" fill="#1E003E"/>
<path d="M89.5638 40.1027L102.998 31.3477V94.0431C102.994 96.4181 102.053 98.6953 100.379 100.38L85.0856 85.0867L60.4551 60.4563L59.8281 59.4934L89.5638 40.1027Z" fill="#371C53"/>
<path d="M85.088 85.0873L100.381 100.38C98.6965 102.054 96.4193 102.996 94.0443 103H8.95787C6.58287 102.996 4.30568 102.054 2.62109 100.38L17.9142 85.0873L42.5445 60.457L43.1715 59.4941L51.501 64.9352L59.8305 59.4941L60.4576 60.457L85.088 85.0873Z" fill="#1E003E"/>
<path d="M43.1702 59.4934L42.5431 60.4563L17.9129 85.0865L2.61977 100.38C0.945678 98.6951 0.00419835 96.4179 0 94.0429V31.3477L43.1702 59.4934Z" fill="#371C53"/>
<path d="M76.1312 53.7389C90.9707 53.7389 103.001 41.709 103.001 26.8694C103.001 12.0299 90.9707 0 76.1312 0C61.2916 0 49.2617 12.0299 49.2617 26.8694C49.2617 41.709 61.2916 53.7389 76.1312 53.7389Z" fill="#FF576B"/>
<path d="M76.129 40.3049C74.8924 40.3049 73.8898 39.3023 73.8898 38.0657V22.0962L70.6544 24.2548C69.6255 24.9412 68.2351 24.6635 67.5486 23.6345C66.8622 22.6057 67.1399 21.2152 68.1689 20.5288L74.8863 16.0506C75.9149 15.3642 77.3054 15.6419 77.9916 16.6705C78.2372 17.0385 78.3682 17.4711 78.3682 17.9136V38.0657C78.3682 39.3023 77.3656 40.3049 76.129 40.3049Z" fill="#F1F2F2"/>
</svg>
