<svg width="32" height="33" viewBox="0 0 32 33" fill="none" xmlns="http://www.w3.org/2000/svg">
<path fill-rule="evenodd" clip-rule="evenodd" d="M16 32.2441C7.17756 32.2441 0 25.0666 0 16.2441C0 7.4217 7.17756 0.244141 16 0.244141C24.8224 0.244141 32 7.4217 32 16.2441C32 25.0666 24.8224 32.2441 16 32.2441ZM24.2974 21.8648C24.4946 21.8648 24.6552 21.7043 24.6552 21.507V11.4622L16.5146 17.9267C16.3639 18.0464 16.1819 18.1062 15.9999 18.1062C15.818 18.1062 15.636 18.0463 15.4853 17.9267L7.34475 11.4622V21.507C7.34475 21.7043 7.50531 21.8648 7.70256 21.8648H24.2974ZM23.0499 10.6235L16 16.2219L8.95006 10.6235H23.0499ZM26.3104 10.9813V21.5071C26.3104 22.6171 25.4073 23.5201 24.2974 23.5201H7.70256C6.59256 23.5201 5.68962 22.6171 5.68962 21.5071V10.9813C5.68962 9.87133 6.59262 8.96833 7.70256 8.96833H24.2974C25.4073 8.96827 26.3104 9.87133 26.3104 10.9813Z" fill="#9A9AA9"/>
</svg>
