<svg width="101" height="112" viewBox="0 0 101 112" fill="none" xmlns="http://www.w3.org/2000/svg">
<path d="M99.5215 44.3242V107.703C99.5215 108.956 98.6377 109.968 97.5488 109.968H3.45312C2.36422 109.968 1.48047 108.956 1.48047 107.703V44.3242C1.48047 43.6151 1.76453 42.9807 2.21035 42.5638C2.54965 42.2489 2.98166 42.0586 3.45312 42.0586H97.5488C98.0203 42.0586 98.4523 42.2489 98.7916 42.5638C99.2374 42.9807 99.5215 43.6151 99.5215 44.3242Z" fill="#1E003E"/>
<path d="M57.8653 7.14777C51.9209 0.320535 42.2832 0.320535 36.339 7.14777L35.1442 8.52006L33.9494 7.14777C28.005 0.320535 18.3674 0.320535 12.4231 7.14777C6.47874 13.975 6.47874 25.0439 12.4231 31.871L33.8742 56.5076C34.5757 57.3132 35.7129 57.3132 36.4144 56.5076L57.8655 31.871C63.8097 25.0437 63.8097 13.9748 57.8653 7.14777Z" fill="#FF576B"/>
<path d="M57.8654 31.8726L36.4143 56.5094C35.7138 57.3139 34.5768 57.3139 33.8745 56.5094L31.6133 53.9123L52.7175 29.6713C58.661 22.8452 58.661 11.7758 52.7175 4.94766C51.8087 3.90388 50.8137 3.02097 49.7593 2.29688C52.7284 2.89727 55.5716 4.51447 57.8652 7.14871C63.8106 13.9771 63.8106 25.0444 57.8654 31.8726Z" fill="#FF576B"/>
<path d="M88.538 45.4943C88.538 60.0448 78.578 71.923 66.0607 72.6292C65.6699 72.6505 65.2774 72.6621 64.8815 72.6621C58.8485 72.6621 53.3412 70.0673 49.1632 65.797C45.2226 61.7685 42.4614 56.2483 41.5517 50.0081C41.3376 48.5395 41.2266 47.0322 41.2266 45.4941C41.2266 32.5186 49.1464 21.6658 59.7364 18.9686C61.3924 18.5467 63.1142 18.3242 64.8815 18.3242C77.9464 18.3244 88.538 30.4893 88.538 45.4943Z" fill="#FFB54A"/>
<path d="M64.8815 64.6461C74.0917 64.6461 81.558 56.071 81.558 45.493C81.558 34.915 74.0917 26.3398 64.8815 26.3398C55.6714 26.3398 48.2051 34.915 48.2051 45.493C48.2051 56.071 55.6714 64.6461 64.8815 64.6461Z" fill="#FDDD55"/>
<path d="M99.5215 44.3268V107.705C99.5215 108.958 98.6377 109.971 97.5488 109.971H3.45313C2.36422 109.971 1.48047 108.958 1.48047 107.705V44.3268C1.48047 43.6177 1.76453 42.9833 2.21035 42.5664L50.501 76.0161L98.7916 42.5664C99.2374 42.9833 99.5215 43.6177 99.5215 44.3268Z" fill="#E2E6FF"/>
<path d="M88.0988 99.6529H79.8538C78.2562 99.6529 76.9609 98.1653 76.9609 96.3304C76.9609 94.4954 78.2562 93.0078 79.8538 93.0078H88.0988C89.6964 93.0078 90.9917 94.4954 90.9917 96.3304C90.9917 98.1653 89.6964 99.6529 88.0988 99.6529Z" fill="#3988D8"/>
<path d="M67.9253 43.5972C67.9235 43.5972 67.9216 43.5972 67.9198 43.5972L66.3612 43.6002V40.1394L69.1095 40.134C69.9266 40.1324 70.5878 39.3702 70.5864 38.4318C70.5851 37.4941 69.923 36.7355 69.1069 36.7355C69.1062 36.7355 69.1052 36.7355 69.1042 36.7355L66.361 36.741V35.6367C66.361 34.6981 65.6986 33.9375 64.8815 33.9375C64.0644 33.9375 63.402 34.6981 63.402 35.6367V36.7469L61.8249 36.75C60.3493 36.7541 59.1513 38.1359 59.1543 39.8308L59.1618 43.9398C59.1632 44.7608 59.4431 45.5321 59.9497 46.1116C60.4549 46.6896 61.1252 47.0074 61.8369 47.0074C61.8391 47.0074 61.8413 47.0074 61.8434 47.0074L63.402 47.0045V50.4652L60.6537 50.4707C59.8366 50.4723 59.1754 51.2344 59.1768 52.1728C59.1782 53.1106 59.8402 53.8691 60.6563 53.8691C60.6571 53.8691 60.6581 53.8691 60.659 53.8691L63.402 53.8637V55.3522C63.402 56.2908 64.0644 57.0514 64.8815 57.0514C65.6986 57.0514 66.361 56.2908 66.361 55.3522V53.8578L67.9376 53.8546C68.6526 53.8528 69.3241 53.5315 69.8285 52.9497C70.3331 52.3681 70.6101 51.5953 70.6087 50.774L70.6012 46.6646C70.5983 44.972 69.3981 43.5972 67.9253 43.5972ZM62.1204 43.6085L62.1141 40.148L63.4022 40.1455V43.6063L62.1204 43.6085ZM66.3612 50.4593V46.9986L67.643 46.9961L67.6493 50.4566L66.3612 50.4593Z" fill="black"/>
<path d="M97.5479 40.36H89.6186C87.5041 26.8823 77.2165 16.6249 64.8819 16.6249C64.4565 16.6249 64.0336 16.6373 63.6134 16.6616C63.2443 13.8348 62.3292 11.1271 60.9344 8.76315C60.4759 7.98627 59.5559 7.78349 58.8796 8.3098C58.2032 8.83633 58.0265 9.89279 58.4849 10.6699C59.6097 12.5762 60.354 14.755 60.6688 17.0327C48.8083 19.3414 39.7471 31.2236 39.7471 45.4928C39.7471 46.9949 39.85 48.4768 40.0467 49.9293L35.3668 55.3043C35.29 55.3924 35.2026 55.411 35.1429 55.411C35.0831 55.411 34.9957 55.3924 34.919 55.3043L13.4677 30.6677C10.8723 27.687 9.44291 23.7235 9.44291 19.5076C9.44291 15.2918 10.8723 11.3285 13.4677 8.34763C18.8258 2.1942 27.5438 2.1942 32.9017 8.34763L34.0966 9.71992C34.6744 10.3833 35.6112 10.3833 36.1888 9.71992L37.3836 8.34763C41.7826 3.29529 48.6094 2.26738 53.9857 5.84729C54.6923 6.31763 55.5977 6.04123 56.0077 5.22945C56.4176 4.41768 56.1767 3.37799 55.4697 2.90719C48.9349 -1.4444 40.6369 -0.195357 35.2912 5.94449L35.1427 6.11531L34.9941 5.94449C28.4826 -1.53411 17.8873 -1.53411 11.3757 5.94449C8.22104 9.56745 6.48392 14.3844 6.48392 19.5076C6.48392 24.6311 8.22104 29.4481 11.3755 33.0708L17.7221 40.36H3.45215C1.54873 40.36 0 42.1387 0 44.3248V107.704C0 109.89 1.54873 111.669 3.45215 111.669H35.2591C36.0761 111.669 36.7386 110.908 36.7386 109.97C36.7386 109.031 36.0761 108.27 35.2591 108.27H3.45215C3.18032 108.27 2.95898 108.016 2.95898 107.704V45.0675L49.7358 77.4687C49.9707 77.6316 50.2353 77.7129 50.5 77.7129C50.7647 77.7129 51.0291 77.6316 51.2642 77.4687L98.041 45.0675V68.8523C98.041 69.7909 98.7034 70.5515 99.5205 70.5515C100.338 70.5515 101 69.7909 101 68.8523V44.3246C101 42.1387 99.4513 40.36 97.5479 40.36ZM94.2014 43.7584L89.994 46.6729C90.0078 46.2796 90.0168 45.8861 90.0168 45.493C90.0168 44.9105 89.9999 44.3326 89.9701 43.7587H94.2014V43.7584ZM64.8819 20.0233C77.1098 20.0233 87.0579 31.4489 87.0579 45.4928C87.0579 46.6129 86.9916 47.7371 86.8655 48.8398L82.0923 52.1462C82.7154 50.0199 83.0378 47.7786 83.0378 45.4928C83.0378 33.995 74.8931 24.6406 64.8819 24.6406C54.8706 24.6406 46.7259 33.995 46.7259 45.4928C46.7259 55.8564 53.3432 64.4771 61.9797 66.0776L57.2003 69.3881C48.5147 65.7056 42.7058 56.1652 42.7058 45.4928C42.7058 31.4489 52.6539 20.0233 64.8819 20.0233ZM66.6762 62.8246C66.0836 62.9046 65.4811 62.9469 64.8819 62.9469C56.5022 62.9469 49.6849 55.1169 49.6849 45.493C49.6849 35.8691 56.5022 28.0393 64.8819 28.0393C73.2615 28.0393 80.0788 35.8691 80.0788 45.493C80.0788 48.9907 79.1816 52.3649 77.4844 55.2504C77.4579 55.2955 77.4339 55.3417 77.4118 55.3883L66.6762 62.8246ZM50.5 74.0292L6.79856 43.7584H20.6811L32.8266 57.7074C33.4651 58.4406 34.3039 58.8074 35.1429 58.8074C35.9816 58.8074 36.8204 58.4406 37.459 57.7074L40.8259 53.8405C42.855 61.5434 47.6292 68.0323 54.0691 71.557L50.5 74.0292Z" fill="black"/>
<path d="M99.5208 74.9766C98.7037 74.9766 98.0413 75.7371 98.0413 76.6758V107.706C98.0413 108.018 97.82 108.272 97.5481 108.272H42.0693C41.2523 108.272 40.5898 109.033 40.5898 109.971C40.5898 110.91 41.2523 111.67 42.0693 111.67H97.5481C99.4516 111.67 101 109.892 101 107.706V76.6758C101 75.7374 100.338 74.9766 99.5208 74.9766Z" fill="black"/>
<path d="M88.0978 101.352C90.5088 101.352 92.4702 99.0994 92.4702 96.3304C92.4702 93.5613 90.5088 91.3086 88.0978 91.3086H79.8529C77.4419 91.3086 75.4805 93.5613 75.4805 96.3304C75.4805 99.0994 77.4419 101.352 79.8529 101.352H88.0978ZM78.4396 96.3304C78.4396 95.4352 79.0737 94.707 79.8531 94.707H88.098C88.8774 94.707 89.5114 95.4352 89.5114 96.3304C89.5114 97.2253 88.8774 97.9535 88.098 97.9535H79.8531C79.0737 97.9535 78.4396 97.2253 78.4396 96.3304Z" fill="black"/>
<path d="M10.0107 94.707H14.3506C15.1677 94.707 15.8301 93.9465 15.8301 93.0078C15.8301 92.0692 15.1677 91.3086 14.3506 91.3086H10.0107C9.19367 91.3086 8.53125 92.0692 8.53125 93.0078C8.53125 93.9465 9.19367 94.707 10.0107 94.707Z" fill="black"/>
<path d="M10.0107 101.352H24.4111C25.2282 101.352 25.8906 100.591 25.8906 99.6523C25.8906 98.7137 25.2282 97.9531 24.4111 97.9531H10.0107C9.19367 97.9531 8.53125 98.7137 8.53125 99.6523C8.53125 100.591 9.19367 101.352 10.0107 101.352Z" fill="black"/>
<path d="M21.0988 12.9912C21.1013 12.9912 21.1039 12.9912 21.1067 12.9912C21.9202 12.9912 22.5818 12.2361 22.586 11.3006L22.5887 10.6961C22.5929 9.75769 21.934 8.99304 21.1169 8.98828C21.1144 8.98828 21.1118 8.98828 21.109 8.98828C20.2955 8.98828 19.6339 9.74341 19.6297 10.6789L19.627 11.2834C19.6228 12.2218 20.2817 12.9864 21.0988 12.9912Z" fill="black"/>
<path d="M21.0812 19.581C21.0838 19.581 21.0863 19.581 21.0891 19.581C21.9026 19.581 22.5642 18.8259 22.5684 17.8904L22.5711 17.286C22.5753 16.3475 21.9164 15.5829 21.0993 15.5781C21.0968 15.5781 21.0942 15.5781 21.0914 15.5781C20.2779 15.5781 19.6163 16.3333 19.6122 17.2687L19.6094 17.8732C19.6053 18.8116 20.2641 19.5763 21.0812 19.581Z" fill="black"/>
<path d="M23.6984 15.9922L24.2245 15.9954C24.2271 15.9954 24.2296 15.9954 24.2324 15.9954C25.0459 15.9954 25.7075 15.2402 25.7117 14.3047C25.7158 13.3663 25.057 12.6017 24.2399 12.5969L23.7138 12.5938C23.7112 12.5938 23.7086 12.5938 23.7059 12.5938C22.8924 12.5938 22.2307 13.3489 22.2266 14.2844C22.2224 15.2228 22.8813 15.9874 23.6984 15.9922Z" fill="black"/>
<path d="M18.5016 12.5774L17.9755 12.5742C17.9729 12.5742 17.9704 12.5742 17.9676 12.5742C17.1541 12.5742 16.4924 13.3294 16.4883 14.2648C16.4842 15.2032 17.143 15.9679 17.9601 15.9727L18.4862 15.9758C18.4888 15.9758 18.4913 15.9758 18.4941 15.9758C19.3076 15.9758 19.9692 15.2207 19.9734 14.2852C19.9775 13.347 19.3187 12.5824 18.5016 12.5774Z" fill="black"/>
</svg>
