<svg width="150" height="150" viewBox="0 0 150 150" fill="none" xmlns="http://www.w3.org/2000/svg">
<path d="M145.312 78.2227C145.312 117.864 113.176 150 73.5352 150C33.894 150 1.75781 117.864 1.75781 78.2227C1.75781 38.5815 33.894 6.44531 73.5352 6.44531C113.176 6.44531 145.312 38.5815 145.312 78.2227Z" fill="#1E003E"/>
<path d="M21.252 115.172V127.395C28.2042 134.782 36.7026 140.696 46.2321 144.619V115.172H21.252Z" fill="#BF7E52"/>
<path d="M59.1099 73.2559H61.7901V69.4817C61.4456 69.6819 61.1183 69.9245 60.8219 70.2198L54.8859 76.1559V59.4463C53.6442 56.9653 52.9713 54.1901 52.9713 51.2947V42.2424C52.3521 41.8579 51.6243 41.6325 50.8415 41.6325C48.6076 41.6325 46.796 43.4429 46.796 45.6768V67.741H43.4864V38.3228C43.4864 36.0878 41.6759 34.2773 39.4421 34.2773C37.2082 34.2773 35.3966 36.0889 35.3966 38.3228V67.741H32.0858V38.3228C32.0858 36.0878 30.2753 34.2773 28.0415 34.2773C25.8076 34.2773 23.996 36.0889 23.996 38.3228V67.741H20.6875V45.6768C20.6875 43.4429 18.877 41.6325 16.642 41.6325C14.4081 41.6325 12.5977 43.4429 12.5977 45.6768V84.613C12.5977 91.151 16.0606 96.88 21.2517 100.067V106.169H46.2318V100.067C49.8184 97.8642 52.5764 94.4469 53.9406 90.3889L61.7901 82.5394V82.4421H59.1099C58.4484 82.4421 57.9094 81.9042 57.9094 81.2428V74.4564C57.9094 73.7938 58.4484 73.2559 59.1099 73.2559Z" fill="#BF7E52"/>
<path d="M21.2517 106.171H25.5066V100.069C20.3156 96.8803 16.8514 91.1525 16.8514 84.6145V45.6783C16.8514 44.226 17.6205 42.9557 18.7695 42.2428C18.1515 41.8583 17.4248 41.6328 16.6431 41.6328C14.4093 41.6328 12.5977 43.4444 12.5977 45.6783V84.6145C12.5977 91.1525 16.0606 96.8803 21.2517 100.069V106.171Z" fill="#A8683D"/>
<path d="M21.252 115.172V127.395C22.6115 128.84 24.0317 130.227 25.5069 131.554V115.172H21.252Z" fill="#A8683D"/>
<path d="M38.6973 90.1769C37.483 90.1769 36.5 89.1939 36.5 87.9797C36.5 81.9212 41.429 76.9922 47.4886 76.9922C48.7017 76.9922 49.6859 77.9752 49.6859 79.1895C49.6859 80.4025 48.7017 81.3867 47.4886 81.3867C43.8528 81.3867 40.8945 84.3439 40.8945 87.9797C40.8945 89.1939 39.9115 90.1769 38.6973 90.1769Z" fill="#A8683D"/>
<path d="M17.4434 107.34C17.4434 106.534 18.1025 105.875 18.9082 105.875H48.5759C49.3815 105.875 50.0407 106.534 50.0407 107.34V113.999C50.0407 114.805 49.3815 115.464 48.5759 115.464H18.9082C18.1025 115.464 17.4434 114.805 17.4434 113.999V107.34Z" fill="#FFAF10"/>
<path d="M48.576 105.875H36.6123V108.766H39.6187C40.6692 108.766 41.523 109.62 41.523 110.67C41.523 111.719 40.6692 112.574 39.6187 112.574H36.6123V115.464H48.576C49.3816 115.464 50.0408 114.805 50.0408 113.999V107.34C50.0408 106.534 49.3816 105.875 48.576 105.875Z" fill="#FF9518"/>
<path d="M39.6182 112.867H32.001C30.7868 112.867 29.8037 111.883 29.8037 110.67C29.8037 109.456 30.7868 108.473 32.001 108.473H39.6182C40.8312 108.473 41.8154 109.456 41.8154 110.67C41.8154 111.883 40.8312 112.867 39.6182 112.867Z" fill="white"/>
<path d="M32.9588 110.67C32.9588 109.456 33.9419 108.473 35.1561 108.473H32.001C30.7868 108.473 29.8037 109.456 29.8037 110.67C29.8037 111.883 30.7868 112.867 32.001 112.867H35.1561C33.9419 112.867 32.9588 111.883 32.9588 110.67Z" fill="#D9EAFC"/>
<path d="M61.4971 82.4414V148.989C65.4121 149.65 69.4324 149.999 73.5351 149.999C78.1219 149.999 82.6057 149.564 86.9533 148.742V82.4414H61.4971Z" fill="#FFC987"/>
<path d="M108.592 36.628C106.722 34.758 103.692 34.758 101.823 36.628L95.7737 42.6762V11.6169C95.7737 9.34067 93.9289 7.49474 91.6516 7.49474C89.3753 7.49474 87.5294 9.34067 87.5294 11.6169V34.1011H84.1568V4.12216C84.1568 1.84593 82.312 0 80.0347 0C77.7584 0 75.9137 1.84593 75.9137 4.12216V34.1011H72.5399V4.12216C72.5399 1.84593 70.6951 0 68.4178 0C66.1415 0 64.2956 1.84593 64.2956 4.12216V34.1011H60.923V11.6169C60.923 9.34067 59.0771 7.49474 56.8009 7.49474C54.5246 7.49474 52.6787 9.34067 52.6787 11.6169V51.2947C52.6787 57.9575 56.2081 63.7951 61.4987 67.0429V73.2559H86.9538V67.0429C89.1922 65.6685 91.1114 63.8283 92.5843 61.6596V55.8712C92.5843 53.8021 94.2677 52.1198 96.3356 52.1198C97.3152 52.1198 98.2056 52.4998 98.8739 53.1166L104.031 47.961C104.273 46.3371 105.557 45.0531 107.18 44.8105L108.593 43.3983C110.462 41.5283 110.462 38.4968 108.592 36.628Z" fill="#FFC987"/>
<path d="M61.4975 73.2573H65.5018V67.0443C60.2124 63.7964 56.683 57.9588 56.683 51.2961V11.6183C56.683 10.0699 57.5367 8.7229 58.799 8.01794C58.2074 7.68721 57.5276 7.49609 56.8009 7.49609C54.5246 7.49609 52.6787 9.34203 52.6787 11.6183V51.2961C52.6787 57.9588 56.2081 63.7964 61.4987 67.0443V73.2573H61.4975Z" fill="#FFAF68"/>
<path d="M61.4971 82.4414V148.989C62.82 149.212 64.1555 149.396 65.5014 149.546V82.4414H61.4971Z" fill="#FFAF68"/>
<path d="M79.2754 56.9182C78.0612 56.9182 77.0781 55.9352 77.0781 54.721C77.0781 48.5698 82.0826 43.5664 88.2338 43.5664C89.4469 43.5664 90.4311 44.5495 90.4311 45.7637C90.4311 46.9767 89.4469 47.9609 88.2338 47.9609C84.5053 47.9609 81.4727 50.9936 81.4727 54.721C81.4727 55.9352 80.4885 56.9182 79.2754 56.9182Z" fill="#EAAC68"/>
<path d="M57.6162 74.4583C57.6162 73.6366 58.288 72.9648 59.1097 72.9648H89.3415C90.1632 72.9648 90.835 73.6366 90.835 74.4583V81.2446C90.835 82.0652 90.1632 82.737 89.3415 82.737H59.1097C58.288 82.737 57.6162 82.0652 57.6162 81.2446V74.4583Z" fill="#F24976"/>
<path d="M89.3418 72.9648H77.1504V75.9472H80.214C81.2645 75.9472 82.1183 76.8009 82.1183 77.8515C82.1183 78.9009 81.2645 79.7558 80.214 79.7558H77.1504V82.737H89.3418C90.1635 82.737 90.8352 82.0652 90.8352 81.2446V74.4583C90.8352 73.6366 90.1635 72.9648 89.3418 72.9648Z" fill="#E26693"/>
<path d="M80.2137 80.0469H72.4512C71.237 80.0469 70.2539 79.0627 70.2539 77.8496C70.2539 76.6354 71.237 75.6523 72.4512 75.6523H80.2137C81.4279 75.6523 82.411 76.6354 82.411 77.8496C82.411 79.0627 81.4279 80.0469 80.2137 80.0469Z" fill="white"/>
<path d="M73.2431 77.8496C73.2431 76.6354 74.2262 75.6523 75.4404 75.6523H72.4512C71.237 75.6523 70.2539 76.6354 70.2539 77.8496C70.2539 79.0627 71.237 80.0469 72.4512 80.0469H75.4404C74.2262 80.0469 73.2431 79.0627 73.2431 77.8496Z" fill="#D9EAFC"/>
<path d="M100.945 121.875V144.576C110.481 140.632 118.98 134.695 125.925 127.28V121.875H100.945Z" fill="#EAAC68"/>
<path d="M147.159 80.4151C145.324 78.5806 142.35 78.5806 140.515 80.4151L134.579 86.3512V55.8721C134.579 53.6382 132.769 51.8278 130.534 51.8278C128.301 51.8278 126.49 53.6382 126.49 55.8721V77.9363H123.18V48.5181C123.18 46.2843 121.369 44.4727 119.134 44.4727C116.901 44.4727 115.09 46.2843 115.09 48.5181V77.9363H111.779V48.5181C111.779 46.2843 109.969 44.4727 107.735 44.4727C105.501 44.4727 103.689 46.2843 103.689 48.5181V77.9363H100.38V55.8733C100.38 53.6394 98.5694 51.8278 96.3344 51.8278C94.1016 51.8278 92.29 53.6394 92.29 55.8733V94.8083C92.29 101.346 95.753 107.074 100.944 110.262V112.873H125.924V110.262C129.511 108.061 132.269 104.643 133.633 100.585L147.158 87.0596C148.994 85.2239 148.994 82.2496 147.159 80.4151Z" fill="#EAAC68"/>
<path d="M100.945 112.873H104.894V110.263C99.7034 107.074 96.2404 101.347 96.2404 94.8087V55.8725C96.2404 54.3561 97.0758 53.0366 98.3106 52.3443C97.7258 52.017 97.0529 51.8281 96.3354 51.8281C94.1015 51.8281 92.291 53.6386 92.291 55.8725V94.8087C92.291 101.347 95.754 107.074 100.945 110.263V112.873Z" fill="#DB9652"/>
<path d="M100.945 121.875V144.576C102.283 144.023 103.599 143.425 104.895 142.795V121.875H100.945Z" fill="#DB9652"/>
<path d="M118.389 100.368C117.176 100.368 116.191 99.3853 116.191 98.1711C116.191 92.1126 121.122 87.1836 127.18 87.1836C128.394 87.1836 129.377 88.1666 129.377 89.3809C129.377 90.5939 128.394 91.5781 127.18 91.5781C123.544 91.5781 120.586 94.5353 120.586 98.1711C120.586 99.3853 119.603 100.368 118.389 100.368Z" fill="#BF7E52"/>
<path d="M97.1367 114.043C97.1367 113.237 97.7959 112.578 98.6016 112.578H128.269C129.075 112.578 129.734 113.237 129.734 114.043V120.702C129.734 121.508 129.075 122.167 128.269 122.167H98.6016C97.7959 122.167 97.1367 121.508 97.1367 120.702V114.043Z" fill="#2DA1DC"/>
<path d="M128.267 112.578H116.304V115.468H119.31C120.361 115.468 121.214 116.323 121.214 117.372C121.214 118.423 120.361 119.276 119.31 119.276H116.304V122.167H128.267C129.073 122.167 129.732 121.508 129.732 120.702V114.043C129.732 113.237 129.073 112.578 128.267 112.578Z" fill="#1E8BC2"/>
<path d="M119.311 119.57H111.693C110.48 119.57 109.496 118.587 109.496 117.373C109.496 116.16 110.48 115.176 111.693 115.176H119.311C120.525 115.176 121.508 116.16 121.508 117.373C121.508 118.587 120.525 119.57 119.311 119.57Z" fill="white"/>
<path d="M112.647 117.373C112.647 116.16 113.63 115.176 114.844 115.176H111.693C110.48 115.176 109.496 116.16 109.496 117.373C109.496 118.587 110.48 119.57 111.693 119.57H114.844C113.63 119.57 112.647 118.587 112.647 117.373Z" fill="#D9EAFC"/>
</svg>
