<svg width="152" height="152" viewBox="0 0 152 152" fill="none" xmlns="http://www.w3.org/2000/svg">
<circle cx="76" cy="76" r="76" fill="#1F2847"/>
<g clip-path="url(#clip0_10261_13894)">
<path d="M45.6357 69.5625V106.184H59.7318L59.7367 110.561L72.3096 102.004L59.7371 93.4223L59.7312 97.8275H53.9894V69.5625H45.6357Z" fill="#FF576B"/>
<path d="M106.366 82.4401V45.8186H92.2705L92.2653 41.4414L79.6924 49.9989L92.2649 58.5804L92.2708 54.1753H98.0127V82.4401H106.366Z" fill="#EA4B83"/>
<path d="M98.0112 122.126C111.331 122.126 122.129 111.328 122.129 98.0083C122.129 84.6885 111.331 73.8906 98.0112 73.8906C84.6914 73.8906 73.8936 84.6885 73.8936 98.0083C73.8936 111.328 84.6914 122.126 98.0112 122.126Z" fill="#FFB528"/>
<path d="M122.129 98.0083C122.129 111.327 111.333 122.126 98.0117 122.126V73.8906C111.333 73.8906 122.129 84.6891 122.129 98.0083Z" fill="#FE8C01"/>
<path d="M113.533 115.123V119.966H82.4893V115.123C82.4893 106.564 89.4514 99.6016 98.0112 99.6016C106.571 99.6016 113.533 106.564 113.533 115.123Z" fill="#FD4B49"/>
<path d="M113.534 115.123V119.965H98.0117V99.6016C106.571 99.6016 113.534 106.564 113.534 115.123Z" fill="#E70B69"/>
<path d="M107.925 92.5799C107.925 98.0548 103.486 102.494 98.0115 102.494C92.5367 102.494 88.0977 98.0548 88.0977 92.5799C88.0977 87.1051 92.5367 82.668 98.0115 82.668C103.486 82.668 107.925 87.1049 107.925 92.5799Z" fill="#FFC7C7"/>
<path d="M98.0117 102.494V82.668C103.487 82.668 107.926 87.1051 107.926 92.5799C107.926 98.0548 103.487 102.494 98.0117 102.494Z" fill="#F4B3B3"/>
<path d="M53.9887 78.1103C67.3085 78.1103 78.1064 67.3125 78.1064 53.9926C78.1064 40.6728 67.3085 29.875 53.9887 29.875C40.6689 29.875 29.8711 40.6728 29.8711 53.9926C29.8711 67.3125 40.6689 78.1103 53.9887 78.1103Z" fill="#FFB528"/>
<path d="M78.1059 53.9926C78.1059 67.3118 67.3093 78.1103 53.9883 78.1103V29.875C67.3093 29.875 78.1059 40.6735 78.1059 53.9926Z" fill="#FE8C01"/>
<path d="M69.5106 71.1586V76.0007H38.4668V71.1586C38.4668 62.5991 45.429 55.6367 53.9887 55.6367C62.5485 55.6367 69.5106 62.5989 69.5106 71.1586Z" fill="#00B3FE"/>
<path d="M69.5102 71.1586V76.0007H53.9883V55.6367C62.5478 55.6367 69.5102 62.5989 69.5102 71.1586Z" fill="#0274F9"/>
<path d="M63.9019 48.6151C63.9019 54.0899 59.4629 58.5289 53.9881 58.5289C48.5132 58.5289 44.0742 54.0899 44.0742 48.6151C44.0742 43.1402 48.5132 38.7031 53.9881 38.7031C59.4629 38.7031 63.9019 43.1402 63.9019 48.6151Z" fill="#FFC7C7"/>
<path d="M53.9883 58.5289V38.7031C59.4631 38.7031 63.9021 43.1402 63.9021 48.6151C63.9021 54.0899 59.4631 58.5289 53.9883 58.5289Z" fill="#F4B3B3"/>
<path d="M98.012 71.0195C83.1311 71.0195 71.0234 83.1272 71.0234 98.0081C71.0234 112.889 83.1311 124.997 98.012 124.997C112.895 124.997 125.001 112.889 125.001 98.0081C125.001 83.1272 112.895 71.0195 98.012 71.0195ZM98.012 119.255C86.2967 119.255 76.7653 109.723 76.7653 98.0081C76.7653 86.2928 86.2967 76.7614 98.012 76.7614C109.727 76.7614 119.259 86.2928 119.259 98.0081C119.259 109.723 109.727 119.255 98.012 119.255Z" fill="#FEE158"/>
<path d="M125 98.0081C125 112.889 112.895 124.997 98.0117 124.997V119.255C109.727 119.255 119.258 109.723 119.258 98.0081C119.258 86.2928 109.727 76.7614 98.0117 76.7614V71.0195C112.895 71.0195 125 83.1272 125 98.0081Z" fill="#FFB528"/>
<path d="M53.9886 27.0039C39.1076 27.0039 27 39.1115 27 53.9925C27 68.8734 39.1076 80.981 53.9886 80.981C68.8714 80.981 80.9771 68.8734 80.9771 53.9925C80.9771 39.1115 68.8714 27.0039 53.9886 27.0039ZM53.9886 75.2392C42.2733 75.2392 32.7418 65.7077 32.7418 53.9925C32.7418 42.2772 42.2733 32.7457 53.9886 32.7457C65.7038 32.7457 75.2353 42.2772 75.2353 53.9925C75.2353 65.7077 65.7038 75.2392 53.9886 75.2392Z" fill="#FEE158"/>
<path d="M80.9768 53.9925C80.9768 68.8734 68.8711 80.981 53.9883 80.981V75.2392C65.7035 75.2392 75.235 65.7077 75.235 53.9925C75.235 42.2772 65.7035 32.7457 53.9883 32.7457V27.0039C68.8711 27.0039 80.9768 39.1115 80.9768 53.9925Z" fill="#FFB528"/>
</g>
<defs>
<clipPath id="clip0_10261_13894">
<rect width="98" height="98" fill="white" transform="translate(27 27)"/>
</clipPath>
</defs>
</svg>
