<svg width="24" height="18" viewBox="0 0 24 18" fill="none" xmlns="http://www.w3.org/2000/svg">
<path d="M19.5247 0.219938C19.2314 -0.0733126 18.7574 -0.0733126 18.4642 0.219938L16.3912 2.29294C15.0794 1.76494 13.6147 1.42444 11.9992 1.42444C4.79993 1.42444 0.302931 8.40919 0.115431 8.70694C0.00443065 8.88319 -0.0240693 9.08794 0.0194307 9.27619C-0.0165693 9.45469 0.00668066 9.64594 0.109431 9.81394C0.213681 9.98494 1.70093 12.3557 4.34093 14.3447L2.59868 16.0862C2.30543 16.3794 2.30543 16.8534 2.59868 17.1467C2.74493 17.2929 2.93693 17.3664 3.12893 17.3664C3.32093 17.3664 3.51293 17.2929 3.65918 17.1467L19.5247 1.28044C19.8172 0.987938 19.8172 0.513188 19.5247 0.219938ZM7.67918 9.20944C7.67918 6.82744 9.61718 4.88944 11.9992 4.88944C12.5332 4.88944 13.0432 4.98994 13.5149 5.16844L12.2692 6.41419C12.1792 6.40444 12.0914 6.38944 11.9992 6.38944C10.4444 6.38944 9.17918 7.65469 9.17918 9.20944C9.17918 9.30169 9.19493 9.38944 9.20393 9.47944L7.95818 10.7252C7.77968 10.2542 7.67918 9.74344 7.67918 9.20944ZM23.8829 9.80044C23.6954 10.0974 19.1984 17.0829 11.9992 17.0829C10.1197 17.0829 8.43968 16.6262 6.97343 15.9452L9.92318 12.9947C10.5397 13.3344 11.2477 13.5287 11.9999 13.5287C14.3819 13.5287 16.3199 11.5907 16.3199 9.20869C16.3199 8.45644 16.1257 7.74919 15.7859 7.13194L19.1384 3.77944C22.1039 5.83294 23.7794 8.51119 23.8897 8.69269C23.9924 8.86069 24.0157 9.05194 23.9797 9.23044C24.0224 9.42019 23.9947 9.62419 23.8829 9.80044ZM11.0617 11.8569L14.6467 8.27269C14.7517 8.56744 14.8192 8.88019 14.8192 9.21019C14.8192 10.7649 13.5539 12.0302 11.9992 12.0302C11.6692 12.0294 11.3564 11.9619 11.0617 11.8569Z" fill="#BDBDBD"/>
</svg>
