<svg width="24" height="16" viewBox="0 0 24 16" fill="none" xmlns="http://www.w3.org/2000/svg">
<path d="M8.80715 7.65C8.80715 8.34705 9.13194 9.01555 9.71006 9.50843C10.2882 10.0013 11.0723 10.2782 11.8899 10.2782C12.7075 10.2782 13.4916 10.0013 14.0697 9.50843C14.6479 9.01555 14.9726 8.34705 14.9726 7.65C14.9726 6.95295 14.6479 6.28445 14.0697 5.79157C13.4916 5.29868 12.7075 5.02178 11.8899 5.02178C11.0723 5.02178 10.2882 5.29868 9.71006 5.79157C9.13194 6.28445 8.80715 6.95295 8.80715 7.65ZM23.841 7.04457C21.2317 2.35836 17.2875 0 12 0C6.70978 0 2.76827 2.35836 0.158941 7.04692C0.0542802 7.23586 0 7.44222 0 7.65117C0 7.86013 0.0542802 8.06649 0.158941 8.25543C2.76827 12.9416 6.71253 15.3 12 15.3C17.2902 15.3 21.2317 12.9416 23.841 8.25308C24.053 7.87293 24.053 7.43176 23.841 7.04457ZM11.8899 11.7801C9.21451 11.7801 7.04558 9.93092 7.04558 7.65C7.04558 5.36908 9.21451 3.51994 11.8899 3.51994C14.5653 3.51994 16.7342 5.36908 16.7342 7.65C16.7342 9.93092 14.5653 11.7801 11.8899 11.7801Z" fill="#BDBDBD"/>
</svg>
