<svg width="32" height="33" viewBox="0 0 32 33" fill="none" xmlns="http://www.w3.org/2000/svg">
<path d="M16 32.2441C24.8366 32.2441 32 25.0807 32 16.2441C32 7.40758 24.8366 0.244141 16 0.244141C7.16344 0.244141 0 7.40758 0 16.2441C0 25.0807 7.16344 32.2441 16 32.2441Z" fill="#3A559F"/>
<path d="M21.0677 14.3496L20.7458 17.1369C20.7325 17.2641 20.6729 17.3819 20.5784 17.468C20.4838 17.5542 20.361 17.6026 20.2331 17.6041H17.324L17.3095 25.8678C17.3105 25.9657 17.2729 26.0601 17.2048 26.1305C17.1368 26.2009 17.0437 26.2418 16.9458 26.2441H13.9986C13.9496 26.2442 13.9011 26.2343 13.856 26.2151C13.8109 26.196 13.7701 26.1679 13.7361 26.1325C13.7022 26.0972 13.6757 26.0554 13.6583 26.0096C13.6409 25.9638 13.633 25.9149 13.6349 25.866V17.6041H11.4531C11.3846 17.6034 11.3169 17.5892 11.2538 17.5623C11.1908 17.5355 11.1337 17.4964 11.0857 17.4475C11.0378 17.3985 10.9999 17.3406 10.9744 17.277C10.9488 17.2134 10.936 17.1454 10.9367 17.0769L10.9258 14.2896C10.9249 14.2208 10.9375 14.1525 10.9629 14.0886C10.9883 14.0247 11.0261 13.9665 11.074 13.9172C11.122 13.8679 11.1792 13.8285 11.2424 13.8013C11.3055 13.7741 11.3734 13.7596 11.4422 13.7587H13.6349V11.0678C13.6349 7.94414 15.4895 6.24414 18.2095 6.24414H20.4386C20.5075 6.24485 20.5756 6.25916 20.639 6.28625C20.7023 6.31334 20.7598 6.35268 20.8079 6.402C20.856 6.45133 20.894 6.50967 20.9195 6.57369C20.9451 6.6377 20.9577 6.70613 20.9567 6.77505V9.1205C20.9577 9.18942 20.9451 9.25785 20.9195 9.32187C20.894 9.38588 20.856 9.44423 20.8079 9.49355C20.7598 9.54288 20.7023 9.58221 20.639 9.6093C20.5756 9.63639 20.5075 9.6507 20.4386 9.65141H19.0713C17.5931 9.65141 17.3058 10.3787 17.3058 11.4296V13.7587H20.5549C20.6288 13.7596 20.7017 13.7762 20.7687 13.8073C20.8357 13.8384 20.8954 13.8833 20.9439 13.9391C20.9923 13.9949 21.0284 14.0604 21.0497 14.1311C21.071 14.2018 21.0772 14.2763 21.0677 14.3496Z" fill="white"/>
</svg>
