<svg width="18" height="19" viewBox="0 0 18 19" fill="none" xmlns="http://www.w3.org/2000/svg">
<path d="M17.8196 9.2876H16.5597C16.4607 9.2876 16.3797 9.36855 16.3797 9.46749V16.6632H1.61997V1.912H8.81982C8.91882 1.912 8.99982 1.83105 8.99982 1.73211V0.472861C8.99982 0.37392 8.91882 0.292969 8.81982 0.292969H0.719985C0.321743 0.292969 0 0.614527 0 1.01254V17.5627C0 17.9607 0.321743 18.2822 0.719985 18.2822H17.2796C17.6779 18.2822 17.9996 17.9607 17.9996 17.5627V9.46749C17.9996 9.36855 17.9186 9.2876 17.8196 9.2876Z" fill="#585858"/>
<path d="M5.48808 9.80252L5.44534 12.4762C5.44309 12.6763 5.60508 12.8405 5.80533 12.8405H5.81433L8.46927 12.7752C8.51426 12.773 8.55926 12.755 8.59076 12.7235L17.9483 3.39161C18.018 3.3219 18.018 3.20722 17.9483 3.13752L15.1516 0.344688C15.1156 0.308709 15.0706 0.292969 15.0234 0.292969C14.9761 0.292969 14.9311 0.310958 14.8951 0.344688L5.53983 9.6766C5.50734 9.71056 5.48886 9.75553 5.48808 9.80252ZM6.9168 10.3332L15.0234 2.2493L16.0403 3.26344L7.92928 11.3518L6.90105 11.3766L6.9168 10.3332Z" fill="#585858"/>
</svg>
