<svg width="134" height="134" viewBox="0 0 134 134" fill="none" xmlns="http://www.w3.org/2000/svg">
<g clip-path="url(#clip0_7795_15947)">
<path d="M77.3566 44.4206C82.9927 40.1472 89.3057 34.7892 91.7828 30.6027C94.1669 26.5706 95.0205 22.9587 95.0205 18.7425C95.0205 8.32286 87.6556 2.61719 79.297 2.61719C71.0784 2.61719 67.9347 7.77693 66.987 9.93202C66.0413 7.77693 62.9211 2.61719 54.7015 2.61719C46.3429 2.61719 38.9902 8.32286 38.9902 18.7425C38.9902 22.9587 39.849 26.5706 42.2341 30.6027C44.6642 34.7094 50.8524 39.9939 56.4324 44.2509" fill="#FF576B"/>
<path d="M103.122 91.6831L67.0068 54.6602L30.8926 91.6831C30.6687 91.8968 30.4357 92.0951 30.1934 92.274V124.839C30.1934 128.454 33.1234 131.385 36.7394 131.385H97.2741C100.89 131.385 103.82 128.454 103.82 124.839V92.274C103.579 92.0951 103.345 91.8978 103.122 91.6831Z" fill="white"/>
<path d="M104.872 72.6374V54.2251C104.872 50.7134 102.025 47.8672 98.5132 47.8672C95.0015 47.8672 92.1543 50.7134 92.1543 54.2251V59.6977" fill="#FFA412"/>
<path d="M49.751 52.1902L62.0732 39.6523C64.8284 37.0013 69.1856 37.0013 71.9419 39.6523L112.991 81.4209C115.824 84.1465 115.912 88.6519 113.186 91.4859C111.79 92.9386 109.924 93.6685 108.056 93.6685C106.28 93.6685 104.502 93.0091 103.122 91.6811L67.007 54.6581L30.8929 91.6811C28.06 94.4057 23.5535 94.3188 20.828 91.4859C18.1024 88.6519 18.1903 84.1465 21.0233 81.4209L32.0236 70.2273" fill="#E2E6FF"/>
<path d="M41.1971 60.9089L41.1895 60.9023L41.1971 60.9089Z" fill="#1E003E"/>
<path d="M41.1912 63.5249C40.5145 63.5249 39.8387 63.2632 39.3265 62.7408L39.3204 62.7346C38.3083 61.7021 38.3256 60.0449 39.3572 59.0327C40.3897 58.0217 42.0469 58.038 43.0591 59.0706C44.0702 60.1031 44.0569 61.7634 43.0243 62.7745C42.5142 63.2744 41.8527 63.5249 41.1912 63.5249Z" fill="black"/>
<path d="M79.3431 131.385H54.668V101.289C54.668 98.1453 57.2156 95.5977 60.3593 95.5977H73.6518C76.7955 95.5977 79.3431 98.1453 79.3431 101.289V131.385Z" fill="#E1BE9C"/>
<path d="M114.833 79.5625L107.49 72.0902V54.2249C107.49 49.2757 103.463 45.2497 98.5136 45.2497C93.6963 45.2497 89.7521 49.0651 89.5466 53.8323L80.8782 45.0126C87.5807 39.7659 92.0023 35.3719 94.0357 31.9348C96.5282 27.7228 97.6385 23.6549 97.6385 18.7425C97.6385 13.0982 95.7205 8.30139 92.0923 4.87042C88.7707 1.7298 84.2264 0 79.2977 0C73.0185 0 69.1949 2.66626 66.9898 5.17099C64.7876 2.66626 60.9702 0 54.7023 0C49.7736 0 45.2323 1.7298 41.9128 4.87144C38.2896 8.30139 36.3738 13.0982 36.3738 18.7425C36.3738 23.6477 37.4871 27.7156 39.9826 31.9348C42.0038 35.3504 46.4244 39.7444 53.1371 45.0095L47.8833 50.3553C46.8701 51.3868 46.8844 53.0441 47.915 54.0572C48.9455 55.0703 50.6027 55.055 51.6158 54.0255L63.9105 41.5151C65.6525 39.863 68.3597 39.863 70.1028 41.5151L111.123 83.2552C111.14 83.2726 111.158 83.2899 111.176 83.3073C112.964 85.0279 113.02 87.8823 111.3 89.6714C110.443 90.5608 109.291 91.0515 108.055 91.0515C106.899 91.0515 105.802 90.614 104.962 89.8196L68.8801 52.8304C68.3873 52.3253 67.7115 52.0411 67.0061 52.0411C66.3007 52.0411 65.626 52.3253 65.1332 52.8304L29.0508 89.8196C27.2606 91.5147 24.4257 91.4513 22.7133 89.6714C20.9927 87.8823 21.0489 85.0279 22.837 83.3073C22.8544 83.2899 22.8717 83.2736 22.8891 83.2562L33.8905 72.0626C34.9037 71.0311 34.8883 69.3749 33.8578 68.3618C32.8273 67.3476 31.1701 67.3629 30.1569 68.3934L19.1801 79.5625C15.3392 83.2859 15.2287 89.4403 18.9409 93.3007C21.2524 95.7032 24.5116 96.6601 27.5755 96.1479V124.837C27.5755 129.889 31.6853 134 36.7388 134H97.2735C102.327 134 106.437 129.889 106.437 124.837V96.152C106.967 96.2409 107.508 96.2859 108.055 96.2859C110.727 96.2859 113.219 95.2258 115.071 93.2997C118.783 89.4403 118.674 83.2869 114.833 79.5625ZM94.7718 54.2249C94.7718 52.1618 96.4505 50.4841 98.5136 50.4841C100.577 50.4841 102.255 52.1618 102.255 54.2249V66.7649L94.7718 59.1495V54.2249ZM73.7546 37.7662C69.9709 34.1257 64.0424 34.1257 60.2577 37.7662C60.2403 37.7826 60.2219 37.8 60.2055 37.8173L56.8287 41.2524C48.8248 35.0264 45.6965 31.3132 44.4871 29.2696C42.469 25.858 41.6082 22.7102 41.6082 18.7425C41.6082 9.41165 48.1849 5.23437 54.7023 5.23437C60.1094 5.23437 62.7614 7.7984 64.024 9.89011C61.6787 14.9037 63.3247 21.0254 68.0918 24.1313C68.5335 24.4196 69.0283 24.5566 69.519 24.5566C70.3737 24.5566 71.212 24.1374 71.714 23.3676C72.5032 22.1571 72.1607 20.5357 70.9493 19.7465C68.1552 17.9257 67.3598 14.1747 69.1704 11.3766C69.2103 11.3163 69.3749 11.0065 69.3953 10.9605C70.1672 9.21843 72.6617 5.23437 79.2977 5.23437C85.8223 5.23437 92.4041 9.41165 92.4041 18.7425C92.4041 22.7164 91.5453 25.8652 89.5313 29.2696C87.8056 32.1863 83.5506 36.3135 77.1855 41.2544L73.8077 37.8173C73.7904 37.8 73.773 37.7826 73.7546 37.7662ZM57.2857 128.766V101.287C57.2857 99.5922 58.6649 98.213 60.3599 98.213H73.6523C75.3474 98.213 76.7275 99.5922 76.7275 101.287V128.766H57.2857ZM97.2735 128.766H81.9609V101.287C81.9609 96.7061 78.2334 92.9786 73.6523 92.9786H60.3599C55.7788 92.9786 52.0513 96.7061 52.0513 101.287V128.766H36.7388C34.5724 128.766 32.8099 127.003 32.8099 124.837V93.4632L67.0061 58.4062L101.203 93.4632V124.837C101.203 127.003 99.4408 128.766 97.2735 128.766Z" fill="#1E003E"/>
</g>
<defs>
<clipPath id="clip0_7795_15947">
<rect width="134" height="134" fill="white"/>
</clipPath>
</defs>
</svg>
