<svg width="32" height="29" viewBox="0 0 32 29" fill="none" xmlns="http://www.w3.org/2000/svg">
<path d="M30 0.480469H2C1.46957 0.480469 0.960859 0.691061 0.585786 1.06592C0.210714 1.44077 0 1.94919 0 2.47931V26.4655C0 26.9956 0.210714 27.504 0.585786 27.8788C0.960859 28.2537 1.46957 28.4643 2 28.4643H30C30.5304 28.4643 31.0391 28.2537 31.4142 27.8788C31.7893 27.504 32 26.9956 32 26.4655V2.47931C32 1.94919 31.7893 1.44077 31.4142 1.06592C31.0391 0.691061 30.5304 0.480469 30 0.480469V0.480469ZM2 26.4655V2.47931H30V26.4655H2Z" fill="#9A9AA9"/>
<path d="M6.92187 10.4749C7.51522 10.4749 8.09524 10.2991 8.58858 9.96963C9.08193 9.64018 9.46645 9.17193 9.69351 8.62408C9.92058 8.07623 9.97999 7.47339 9.86423 6.8918C9.74847 6.3102 9.46275 5.77597 9.04319 5.35667C8.62364 4.93736 8.08909 4.65181 7.50714 4.53613C6.9252 4.42044 6.322 4.47981 5.77382 4.70674C5.22565 4.93367 4.75711 5.31795 4.42747 5.81101C4.09782 6.30406 3.92188 6.88373 3.92188 7.47672C3.92188 8.27189 4.23795 9.03449 4.80055 9.59676C5.36316 10.159 6.12622 10.4749 6.92187 10.4749ZM6.92187 5.87768C7.23874 5.8757 7.54906 5.96779 7.81349 6.14229C8.07793 6.31679 8.28456 6.56583 8.40719 6.85783C8.52983 7.14984 8.56294 7.47166 8.50234 7.7825C8.44174 8.09334 8.29015 8.3792 8.06679 8.60383C7.84343 8.82846 7.55835 8.98175 7.24772 9.04426C6.93708 9.10677 6.61486 9.0757 6.32191 8.95497C6.02897 8.83424 5.77849 8.6293 5.60223 8.36612C5.42598 8.10295 5.33188 7.7934 5.33187 7.47672C5.3345 7.05608 5.50286 6.65343 5.80047 6.35599C6.09809 6.05855 6.50099 5.89029 6.92187 5.88767V5.87768Z" fill="#9A9AA9"/>
<path d="M20.7818 11.8434L15.3819 17.2402L11.3819 13.2425C11.1945 13.0564 10.941 12.9519 10.6769 12.9519C10.4127 12.9519 10.1592 13.0564 9.97186 13.2425L3.92188 19.369V22.1973L10.7119 15.4113L14.0019 18.6494L10.2519 22.3972H13.0019L21.4518 13.9521L28.0018 20.4683V17.65L22.1918 11.8434C22.0045 11.6572 21.751 11.5527 21.4868 11.5527C21.2227 11.5527 20.9692 11.6572 20.7818 11.8434Z" fill="#9A9AA9"/>
</svg>
