<svg width="32" height="33" viewBox="0 0 32 33" fill="none" xmlns="http://www.w3.org/2000/svg">
<path d="M25.1392 14.1875C23.8805 14.1853 22.6455 14.5301 21.5701 15.1838C20.4947 15.8375 19.6205 16.7748 19.0435 17.8929C18.4665 19.0109 18.2091 20.2662 18.2996 21.5209C18.3901 22.7757 18.825 23.9811 19.5565 25.0049L13.7109 30.847L15.3269 32.462L21.1724 26.6199C22.0517 27.2445 23.066 27.6528 24.1329 27.8117C25.1999 27.9706 26.2893 27.8756 27.3125 27.5343C28.3358 27.1931 29.264 26.6152 30.0216 25.8478C30.7792 25.0804 31.3449 24.1451 31.6726 23.118C32.0004 22.0908 32.0809 21.0009 31.9076 19.9368C31.7343 18.8727 31.3122 17.8645 30.6755 16.9943C30.0388 16.124 29.2056 15.4162 28.2435 14.9285C27.2815 14.4408 26.2179 14.1869 25.1392 14.1875ZM25.1392 25.6091C24.2351 25.6091 23.3512 25.3411 22.5995 24.8391C21.8478 24.3371 21.2618 23.6236 20.9159 22.7888C20.5699 21.954 20.4793 21.0354 20.6557 20.1492C20.8321 19.2629 21.2675 18.4489 21.9068 17.8099C22.5461 17.171 23.3606 16.7359 24.2474 16.5596C25.1341 16.3833 26.0532 16.4738 26.8885 16.8196C27.7238 17.1654 28.4378 17.751 28.9401 18.5023C29.4424 19.2536 29.7105 20.1369 29.7105 21.0405C29.709 22.2517 29.2269 23.4128 28.3699 24.2693C27.5129 25.1258 26.3511 25.6076 25.1392 25.6091Z" fill="#9A9AA9"/>
<path d="M17.1394 11.9037C17.8175 11.9037 18.4803 11.7028 19.0442 11.3263C19.608 10.9498 20.0474 10.4146 20.3069 9.78852C20.5664 9.16242 20.6343 8.47346 20.502 7.80879C20.3697 7.14412 20.0432 6.53358 19.5637 6.05438C19.0842 5.57517 18.4733 5.24883 17.8083 5.11662C17.1432 4.98441 16.4539 5.05227 15.8274 5.31161C15.2009 5.57095 14.6655 6.01013 14.2887 6.57361C13.912 7.1371 13.7109 7.79957 13.7109 8.47727C13.7118 9.38575 14.0733 10.2568 14.7161 10.8992C15.3589 11.5415 16.2304 11.9028 17.1394 11.9037ZM17.1394 7.3351C17.3654 7.3351 17.5864 7.40209 17.7743 7.52759C17.9623 7.6531 18.1087 7.83148 18.1952 8.04018C18.2817 8.24888 18.3044 8.47853 18.2603 8.70009C18.2162 8.92165 18.1073 9.12516 17.9475 9.28489C17.7877 9.44463 17.584 9.55341 17.3624 9.59748C17.1407 9.64155 16.9109 9.61893 16.7021 9.53248C16.4932 9.44604 16.3148 9.29964 16.1892 9.11182C16.0636 8.92399 15.9966 8.70316 15.9966 8.47727C15.9966 8.17435 16.117 7.88383 16.3313 7.66964C16.5456 7.45544 16.8363 7.3351 17.1394 7.3351Z" fill="#9A9AA9"/>
<path d="M11.4283 25.6081H2.28565V18.7517L7.99979 13.0443L14.3836 19.4244L15.9996 17.8048L9.61575 11.4258C9.18713 10.9976 8.60587 10.757 7.99979 10.757C7.39372 10.757 6.81246 10.9976 6.38383 11.4258L2.28565 15.5205V2.7648H25.1422V9.61778H27.4279V2.7648C27.4273 2.15914 27.1862 1.57846 26.7577 1.1502C26.3292 0.721937 25.7482 0.481073 25.1422 0.480469H2.28565C1.67965 0.481073 1.09863 0.721937 0.670121 1.1502C0.241609 1.57846 0.0006051 2.15914 0 2.7648V25.6081C0.0006051 26.2137 0.241609 26.7944 0.670121 27.2227C1.09863 27.6509 1.67965 27.8918 2.28565 27.8924H11.4283V25.6081Z" fill="#9A9AA9"/>
</svg>
