<svg width="24" height="24" viewBox="0 0 24 24" fill="none" xmlns="http://www.w3.org/2000/svg">
<g clip-path="url(#clip0_10955_13883)">
<path d="M10.2266 19.7143L9.94212 16.7181C9.91099 16.3929 9.83721 16.0957 9.72265 15.8346C9.12626 14.4782 7.86335 13.7666 7.16355 13.4634C6.88915 13.3444 6.63799 13.1784 6.41744 12.97L4.62949 11.2805C4.21835 10.8926 3.63223 10.7073 3.0693 10.7734L2.9223 7.78255C2.87674 6.8579 2.10715 6.09359 1.1322 6.00452C0.52132 5.94982 0.00292969 6.40375 0.00292969 6.97328V12.3731C0.00292969 12.9492 0.174633 13.5093 0.49957 13.9929C1.41724 15.3587 2.52213 16.5818 3.78377 17.628C4.29504 18.0521 4.58829 18.6806 4.58829 19.3523V19.6677C4.00432 19.668 3.52934 20.117 3.52934 20.6688V22.1788C3.52934 22.7309 4.00474 23.18 4.58904 23.18H9.92346C10.5078 23.18 10.9832 22.7309 10.9832 22.1788V20.6688C10.9832 20.2169 10.6626 19.8385 10.2266 19.7143ZM4.2784 17.0956C3.07043 16.0938 2.01199 14.9222 1.13262 13.613C0.884227 13.2433 0.752789 12.8145 0.752789 12.3731V6.97328C0.752789 6.82354 0.882352 6.70847 1.0323 6.70847C1.54788 6.70847 2.14174 7.17183 2.17329 7.81541L2.33055 11.0157C2.19804 11.0913 2.07612 11.1824 1.9661 11.2879C1.55974 11.6771 1.5641 12.3105 1.9758 12.6997L5.9944 16.4965C6.14084 16.6348 6.37807 16.6348 6.52451 16.4965C6.67095 16.3581 6.67095 16.134 6.52451 15.9956L2.50605 12.1988C2.38451 12.0839 2.38174 11.8985 2.50001 11.7852C2.60177 11.6877 2.72023 11.6109 2.85513 11.5559C2.86062 11.5538 2.86629 11.5516 2.87159 11.5492C3.2712 11.3899 3.77773 11.4781 4.09934 11.7816L5.88724 13.471C6.17098 13.7391 6.49516 13.9532 6.85085 14.1073C7.4509 14.3674 8.53184 14.9731 9.03012 16.1064C9.11562 16.3008 9.17107 16.5281 9.19521 16.7816L9.46798 19.6538C9.04568 19.6552 10.9977 19.6487 5.33805 19.6676V19.3523C5.3381 18.4767 4.95185 17.6543 4.2784 17.0956ZM10.2334 22.1788C10.2334 22.3403 10.0944 22.4716 9.92346 22.4716H4.58904C4.41809 22.4716 4.27915 22.3403 4.27915 22.1788V20.6688C4.27915 20.5073 4.41809 20.376 4.58904 20.376H9.92346C10.0944 20.376 10.2334 20.5073 10.2334 20.6688V22.1788Z" fill="white" stroke="white" stroke-width="0.6"/>
<path d="M22.8669 6.00471C21.8919 6.09377 21.1224 6.85808 21.0766 7.78272L20.9298 10.7735C20.3645 10.7081 19.7809 10.8927 19.3694 11.2808L17.5817 12.9699C17.3606 13.1787 17.1097 13.3447 16.8352 13.4635C16.1355 13.7669 14.8729 14.4783 14.2761 15.8346C14.1615 16.0958 14.0876 16.3931 14.0568 16.7183L13.7725 19.7143C13.3363 19.8384 13.0156 20.2169 13.0156 20.6689V22.1788C13.0156 22.7309 13.4912 23.18 14.0755 23.18H19.4101C19.9944 23.18 20.4696 22.7309 20.4696 22.1788V20.6689C20.4696 20.1169 19.9946 19.6678 19.4105 19.6676V19.3523C19.4105 18.6807 19.7037 18.0524 20.2152 17.6281C21.4771 16.5818 22.5821 15.3587 23.4995 13.993C23.8243 13.5094 23.996 12.9493 23.996 12.3732V6.97346C23.996 6.39481 23.4651 5.9493 22.8669 6.00471ZM19.7198 20.6689V22.1788C19.7198 22.3403 19.5807 22.4716 19.41 22.4716H14.0755C13.9045 22.4716 13.7654 22.3403 13.7654 22.1788V20.6689C13.7654 20.5073 13.9045 20.3761 14.0755 20.3761C20.8567 20.3843 18.7799 20.3762 19.41 20.3761C19.5807 20.3761 19.7198 20.5073 19.7198 20.6689ZM23.2462 12.3732C23.2462 12.8146 23.1147 13.2434 22.8662 13.6133C21.9871 14.9221 20.9291 16.0937 19.7209 17.0957C19.0469 17.6544 18.6606 18.4768 18.6606 19.3523V19.6676C13.0012 19.6486 14.9532 19.6552 14.5309 19.6538L14.8037 16.7816C14.8279 16.5281 14.8831 16.301 14.9688 16.1066C15.467 14.9732 16.5478 14.3675 17.1478 14.1075C17.5033 13.9536 17.8273 13.7395 18.1118 13.471L19.8995 11.7819C20.221 11.4783 20.7204 11.3877 21.1279 11.5494C21.133 11.5519 21.1385 11.5539 21.144 11.556C21.2773 11.6101 21.3966 11.6873 21.4991 11.7855C21.617 11.8986 21.6144 12.084 21.4929 12.1988L17.4745 15.9956C17.328 16.134 17.328 16.3581 17.4745 16.4965C17.6209 16.6349 17.8581 16.6349 18.0046 16.4965L22.023 12.6997C22.4349 12.3107 22.4392 11.6775 22.0333 11.2884C21.923 11.1824 21.8007 11.091 21.6682 11.0156L21.8256 7.81571C21.8542 7.24061 22.3327 6.76516 22.9386 6.70998C23.1021 6.69474 23.2461 6.81565 23.2461 6.97341V12.3732H23.2462Z" fill="white" stroke="white" stroke-width="0.6"/>
<path d="M15.065 12.4706C15.0664 12.4671 15.0679 12.4635 15.0694 12.46C15.2195 12.118 15.5428 11.8857 15.9151 11.8524C15.9184 11.852 15.9217 11.8517 15.925 11.8513C16.9785 11.7519 17.7247 10.7502 17.4857 9.69002C17.4026 9.32337 17.5263 8.94171 17.8152 8.68816C18.6119 7.98944 18.6308 6.73746 17.8093 6.01666C17.5285 5.77062 17.4048 5.39262 17.4842 5.02835C17.4853 5.02526 17.4856 5.0223 17.4864 5.0194C17.7253 3.97352 16.9881 2.95732 15.9143 2.85898C15.539 2.82494 15.2143 2.58879 15.0649 2.23971C14.6441 1.25599 13.4497 0.862663 12.5245 1.41537C12.2009 1.60938 11.7982 1.60938 11.4742 1.41537C10.5559 0.866085 9.35793 1.24858 8.93282 2.24257C8.78475 2.58874 8.45981 2.82485 8.08036 2.85944C7.01278 2.9569 6.27403 3.97343 6.51267 5.02005C6.59634 5.3869 6.47259 5.76874 6.18356 6.0221C5.38617 6.72171 5.36948 7.97379 6.19017 8.6936C6.47282 8.94148 6.59653 9.32332 6.51234 9.69288C6.27529 10.7351 7.00842 11.7503 8.07379 11.8513C8.07707 11.8517 8.08054 11.852 8.08406 11.8524C8.45967 11.8859 8.78517 12.1222 8.93418 12.4704C9.35667 13.4579 10.5534 13.8451 11.4742 13.2947C11.7982 13.1006 12.201 13.1006 12.5246 13.2947C13.4453 13.8445 14.6421 13.4586 15.065 12.4706ZM12.9097 12.6511C12.3488 12.3158 11.6509 12.3152 11.0894 12.6511C10.5607 12.9676 9.8685 12.7485 9.62278 12.1743C9.36703 11.5762 8.80725 11.1678 8.16018 11.1065C8.1569 11.1061 8.15343 11.1057 8.14992 11.1054C7.53595 11.0504 7.10507 10.4672 7.24415 9.85624C7.38876 9.22104 7.17422 8.55949 6.67814 8.12454C6.21825 7.7209 6.20676 6.99954 6.68418 6.58048C7.17422 6.15068 7.38857 5.4889 7.24359 4.85262C7.10611 4.24887 7.53037 3.66274 8.15282 3.60583C8.80246 3.54673 9.36557 3.13741 9.62348 2.5346C9.86686 1.9653 10.5582 1.74058 11.0896 2.05901C11.6508 2.39473 12.3481 2.39473 12.9097 2.05901C13.1631 1.90708 13.4695 1.87249 13.7506 1.9638C14.0318 2.05498 14.2595 2.2631 14.377 2.53732C14.6333 3.13737 15.1964 3.54668 15.8506 3.60635C16.4632 3.66204 16.8895 4.24277 16.7575 4.84437C16.7567 4.84746 16.7557 4.8506 16.7553 4.85369C16.6103 5.48946 16.8252 6.15101 17.3209 6.58596C17.7839 6.99194 17.7894 7.71349 17.3147 8.12984C16.8248 8.55963 16.6103 9.22123 16.7549 9.85624C16.8994 10.4343 16.482 11.0486 15.8491 11.1054C15.8459 11.1058 15.8425 11.1062 15.8392 11.1065C15.1919 11.1676 14.6322 11.576 14.3763 12.1741C14.3748 12.1775 14.3733 12.181 14.3719 12.1847C14.1246 12.7468 13.4385 12.9684 12.9097 12.6511Z" fill="white" stroke="white" stroke-width="0.5"/>
<path d="M15.7716 7.35545C15.7716 5.27556 14.0795 3.58342 11.9996 3.58342C9.91968 3.58342 8.22754 5.27556 8.22754 7.35545C8.22754 9.43534 9.91968 11.1273 11.9996 11.1273C14.0795 11.1273 15.7716 9.43534 15.7716 7.35545ZM11.9996 10.3775C10.333 10.3775 8.97735 9.02181 8.97735 7.3555C8.97735 5.68895 10.3331 4.33328 11.9996 4.33328C13.6661 4.33328 15.0218 5.689 15.0218 7.3555C15.0218 9.02181 13.6661 10.3775 11.9996 10.3775Z" fill="white" stroke="white" stroke-width="0.5"/>
<path d="M13.2146 6.34231L12.8313 6.29656L12.6497 5.93046C12.3812 5.39009 11.6125 5.3944 11.3473 5.93229L11.1851 6.28376L10.7852 6.34235C10.1907 6.42893 9.95242 7.16042 10.3823 7.5807L10.6664 7.84484L10.5981 8.24243C10.4959 8.8361 11.1191 9.28863 11.6517 9.00888L11.9875 8.82143L12.3494 9.01071C12.8829 9.28882 13.5042 8.83676 13.4021 8.24351L13.3355 7.8567L13.6178 7.58065C14.048 7.1591 13.8083 6.42874 13.2146 6.34231ZM12.802 7.32935C12.6321 7.49613 12.5541 7.73609 12.5944 7.97117V7.97192L12.6552 8.32446L12.3347 8.15698C12.1234 8.04654 11.8718 8.04659 11.6605 8.15754L11.3449 8.3232L11.4051 7.97173C11.4458 7.73595 11.3678 7.49562 11.1972 7.32921L10.94 7.07731L11.2933 7.02588C11.5298 6.99148 11.7341 6.84284 11.8403 6.6281L11.9992 6.30593L12.1599 6.62993C12.2657 6.84321 12.47 6.99129 12.7058 7.02551L13.0601 7.07749L12.802 7.32935Z" fill="white"/>
</g>
<defs>
<clipPath id="clip0_10955_13883">
<rect width="24" height="24" fill="white"/>
</clipPath>
</defs>
</svg>
