<svg width="152" height="152" viewBox="0 0 152 152" fill="none" xmlns="http://www.w3.org/2000/svg">
<path d="M76 152C117.974 152 152 117.974 152 76C152 34.0264 117.974 0 76 0C34.0264 0 0 34.0264 0 76C0 117.974 34.0264 152 76 152Z" fill="#1E003E"/>
<path d="M0 119.938H152V123.5C152 125.459 150.397 127.062 148.438 127.062H3.5625C1.60431 127.062 0 125.459 0 123.5V119.938Z" fill="#B3B3B3"/>
<path d="M128.25 98.5625H23.75L0 119.938H152L128.25 98.5625Z" fill="#E6E6E6"/>
<path d="M12.3789 115.188L25.5732 103.312H126.428L139.622 115.188H12.3789Z" fill="#F5F5F5"/>
<path d="M85.5 119.938C85.5 121.248 84.436 122.312 83.125 122.312H66.5C65.189 122.312 64.125 121.248 64.125 119.938H85.5Z" fill="#E6E6E6"/>
<path d="M23.75 98.5625V34.4375C23.75 32.4781 25.3543 30.875 27.3125 30.875H124.688C126.647 30.875 128.25 32.4781 128.25 34.4375V98.5625H23.75Z" fill="#263740"/>
<path d="M121.125 38H30.875V92.625H121.125V38Z" fill="#FF576B"/>
<path d="M122.312 102.125C122.968 102.125 123.5 101.593 123.5 100.938C123.5 100.282 122.968 99.75 122.312 99.75C121.657 99.75 121.125 100.282 121.125 100.938C121.125 101.593 121.657 102.125 122.312 102.125Z" fill="#70CCBD"/>
<path d="M76 35.625C76.6558 35.625 77.1875 35.0933 77.1875 34.4375C77.1875 33.7817 76.6558 33.25 76 33.25C75.3442 33.25 74.8125 33.7817 74.8125 34.4375C74.8125 35.0933 75.3442 35.625 76 35.625Z" fill="#CC584C"/>
<path d="M136.562 124.688H124.688C124.032 124.688 123.5 124.157 123.5 123.5C123.5 122.843 124.032 122.312 124.688 122.312H136.562C137.219 122.312 137.75 122.843 137.75 123.5C137.75 124.157 137.219 124.688 136.562 124.688Z" fill="#263740"/>
</svg>
