<svg width="20" height="20" viewBox="0 0 20 20" fill="none" xmlns="http://www.w3.org/2000/svg">
<path d="M16.5796 4.32422H3.42042C3.18919 4.32422 3 4.51341 3 4.74464C3 4.97587 3.18919 5.16506 3.42042 5.16506H16.5796C16.8108 5.16506 17 4.97587 17 4.74464C17 4.51341 16.8108 4.32422 16.5796 4.32422Z" fill="white"/>
<path d="M12.6697 7.8125H3.42042C3.18919 7.8125 3 8.00169 3 8.23292C3 8.46415 3.18919 8.65334 3.42042 8.65334H12.6697C12.9009 8.65334 13.0901 8.46415 13.0901 8.23292C13.0901 8.00169 12.9009 7.8125 12.6697 7.8125Z" fill="white"/>
<path d="M16.5796 11.3438H3.42042C3.18919 11.3438 3 11.5329 3 11.7642C3 11.9954 3.18919 12.1846 3.42042 12.1846H16.5796C16.8108 12.1846 17 11.9954 17 11.7642C17 11.5329 16.8108 11.3438 16.5796 11.3438Z" fill="white"/>
<path d="M9.34835 14.8359H3.42042C3.18919 14.8359 3 15.0251 3 15.2564C3 15.4876 3.18919 15.6768 3.42042 15.6768H9.34835C9.57958 15.6768 9.76877 15.4876 9.76877 15.2564C9.76877 15.0251 9.57958 14.8359 9.34835 14.8359Z" fill="white"/>
</svg>
