<svg width="20" height="20" viewBox="0 0 20 20" fill="none" xmlns="http://www.w3.org/2000/svg">
<g clip-path="url(#clip0_8041_19544)">
<path d="M11.3983 3.96108L8.55273 6.80663C8.54723 6.8121 8.54381 6.81875 8.53834 6.82427C9.23936 6.72217 9.95951 6.79217 10.6271 7.05248L12.5584 5.12119C13.1982 4.48137 14.2387 4.48137 14.8786 5.12119C15.5184 5.76095 15.5184 6.80157 14.8786 7.44134C14.7695 7.55049 11.8685 10.4515 12.033 10.2869C11.3881 10.9318 10.3302 10.9042 9.71281 10.2869C9.39308 9.96716 8.87251 9.96716 8.55273 10.2869L8.05469 10.7849C8.19283 11.0196 8.3512 11.2455 8.55273 11.447C9.76788 12.6622 11.8595 12.7593 13.1755 11.4614C13.181 11.4559 13.1876 11.4525 13.1931 11.447L16.0387 8.60148C17.3201 7.32004 17.3201 5.24252 16.0387 3.96108C14.7572 2.67964 12.6797 2.67964 11.3983 3.96108Z" fill="white"/>
<path d="M9.37887 12.9429L7.44134 14.8804C6.80158 15.5202 5.76096 15.5202 5.1212 14.8804C4.48138 14.2406 4.48138 13.2 5.1212 12.5602C5.2303 12.4511 8.13749 9.54389 7.97296 9.70842C8.61783 9.06355 9.67582 9.09108 10.2932 9.70842C10.6129 10.0282 11.1335 10.0282 11.4532 9.70842L11.9513 9.21038C11.8131 8.97566 11.6548 8.7498 11.4532 8.54834C10.2404 7.33545 8.15031 7.23225 6.83048 8.53393C6.82499 8.53939 6.81837 8.54284 6.81285 8.54834L3.96106 11.4001C2.67967 12.6815 2.67962 14.7591 3.96106 16.0405C5.2425 17.3219 7.32007 17.3219 8.60146 16.0405L11.4532 13.1887C11.4587 13.1832 11.4621 13.1766 11.4676 13.1711C10.7666 13.2732 10.0465 13.2032 9.37887 12.9429Z" fill="white"/>
</g>
<defs>
<clipPath id="clip0_8041_19544">
<rect width="14" height="14" fill="white" transform="translate(3 3)"/>
</clipPath>
</defs>
</svg>
