<svg width="32" height="33" viewBox="0 0 32 33" fill="none" xmlns="http://www.w3.org/2000/svg">
<path d="M16 32.2432C24.8366 32.2432 32 25.0797 32 16.2432C32 7.40661 24.8366 0.243164 16 0.243164C7.16344 0.243164 0 7.40661 0 16.2432C0 25.0797 7.16344 32.2432 16 32.2432Z" fill="#007AB9"/>
<path d="M25.5584 17.5309V24.1274H21.7339V17.973C21.7339 16.4277 21.1818 15.3724 19.797 15.3724C18.7403 15.3724 18.1126 16.0829 17.8353 16.7708C17.7347 17.0167 17.7087 17.3581 17.7087 17.7029V24.1271H13.884C13.884 24.1271 13.9353 13.7036 13.884 12.6247H17.709V14.2547C17.7013 14.2675 17.6904 14.2801 17.6836 14.2923H17.709V14.2547C18.2172 13.4726 19.1236 12.3546 21.1558 12.3546C23.672 12.3546 25.5584 13.9985 25.5584 17.5309ZM9.88296 7.08008C8.57468 7.08008 7.71875 7.93886 7.71875 9.06717C7.71875 10.1715 8.54987 11.0551 9.83276 11.0551H9.85758C11.1915 11.0551 12.0209 10.1715 12.0209 9.06717C11.9956 7.93886 11.1915 7.08008 9.88296 7.08008ZM7.94607 24.1274H11.7694V12.6247H7.94607V24.1274Z" fill="#F1F2F2"/>
</svg>
