<svg width="11" height="9" viewBox="0 0 11 9" fill="none" xmlns="http://www.w3.org/2000/svg">
<path d="M3.43761 7.71429H2.06257C1.68292 7.71429 1.37504 7.42641 1.37504 7.07143V1.92857C1.37504 1.57359 1.68292 1.28571 2.06257 1.28571H3.43761C3.81725 1.28571 4.12513 0.997835 4.12513 0.642857C4.12513 0.287879 3.81789 0 3.43761 0H2.06257C0.923428 0 0 0.863437 0 1.92857V7.07143C0 8.13656 0.923428 9 2.06257 9H3.43761C3.81725 9 4.12513 8.71212 4.12513 8.35714C4.12513 8.00216 3.81789 7.71429 3.43761 7.71429ZM10.7984 4.04598L8.0483 1.47455C7.77952 1.22324 7.34445 1.22364 7.0761 1.47455C6.80754 1.72567 6.80754 2.13248 7.0761 2.38359L8.65418 3.85714H4.12513C3.74485 3.85714 3.43761 4.14442 3.43761 4.5C3.43761 4.85558 3.74506 5.14286 4.12513 5.14286H8.65418L7.07761 6.61701C6.80904 6.86812 6.80904 7.27493 7.07761 7.52605C7.34617 7.77716 7.78124 7.77716 8.04981 7.52605L10.7999 4.95462C11.067 4.7029 11.067 4.2971 10.7984 4.04598Z" fill="#FB5B38"/>
</svg>
