<svg xmlns="http://www.w3.org/2000/svg" xmlns:xlink="http://www.w3.org/1999/xlink" version="1.1" width="20px" height="20px" viewBox="0 0 256 256" xml:space="preserve">
<desc>Created with Fabric.js 1.7.22</desc>
<defs>
</defs>
<g transform="translate(128 128) scale(0.72 0.72)" style="">
	<g style="stroke: none; stroke-width: 0; stroke-dasharray: none; stroke-linecap: butt; stroke-linejoin: miter; stroke-miterlimit: 10; fill: none; fill-rule: nonzero; opacity: 1;" transform="translate(-175.05 -175.05000000000004) scale(3.89 3.89)" >
	<path d="M 83.273 45.356 c 0.088 -0.23 0.088 -0.481 0 -0.711 c -0.016 -0.041 -0.039 -0.075 -0.06 -0.113 c -0.025 -0.047 -0.042 -0.098 -0.075 -0.141 L 70.87 28.422 c -0.336 -0.437 -0.962 -0.521 -1.402 -0.184 c -0.438 0.336 -0.521 0.964 -0.184 1.402 L 80.316 44 H 27.089 c -0.552 0 -1 0.448 -1 1 s 0.448 1 1 1 h 53.226 L 69.284 60.359 c -0.337 0.438 -0.254 1.066 0.184 1.402 c 0.182 0.14 0.396 0.207 0.608 0.207 c 0.301 0 0.597 -0.135 0.794 -0.391 l 12.268 -15.969 c 0.033 -0.043 0.05 -0.094 0.075 -0.141 C 83.234 45.43 83.257 45.396 83.273 45.356 z" style="stroke: none; stroke-width: 1; stroke-dasharray: none; stroke-linecap: butt; stroke-linejoin: miter; stroke-miterlimit: 10; fill: rgb(0,0,0); fill-rule: nonzero; opacity: 1;" transform=" matrix(1 0 0 1 0 0) " stroke-linecap="round" />
	<path d="M 61.178 90 H 7.655 c -0.552 0 -1 -0.447 -1 -1 V 1 c 0 -0.552 0.448 -1 1 -1 h 53.522 c 0.553 0 1 0.448 1 1 v 35.224 c 0 0.552 -0.447 1 -1 1 s -1 -0.448 -1 -1 V 2 H 8.655 v 86 h 51.522 V 53.711 c 0 -0.553 0.447 -1 1 -1 s 1 0.447 1 1 V 89 C 62.178 89.553 61.73 90 61.178 90 z" style="stroke: none; stroke-width: 1; stroke-dasharray: none; stroke-linecap: butt; stroke-linejoin: miter; stroke-miterlimit: 10; fill: rgb(0,0,0); fill-rule: nonzero; opacity: 1;" transform=" matrix(1 0 0 1 0 0) " stroke-linecap="round" />
</g>
</g>
</svg>