<svg width="40" height="40" viewBox="0 0 40 40" fill="none" xmlns="http://www.w3.org/2000/svg">
<rect width="40" height="40" rx="5" fill="white"/>
<path d="M28.2422 12.9688H11.7578C10.7905 12.9688 10 13.7558 10 14.7266V25.2734C10 26.2445 10.7911 27.0312 11.7578 27.0312H28.2422C29.2095 27.0312 30 26.2442 30 25.2734V14.7266C30 13.7556 29.2091 12.9688 28.2422 12.9688ZM27.9723 14.1406C27.4039 14.7108 20.7283 21.4082 20.4541 21.6834C20.225 21.9131 19.7751 21.9133 19.5459 21.6834L12.0277 14.1406H27.9723ZM11.1719 25.058V14.942L16.2135 20L11.1719 25.058ZM12.0277 25.8594L17.0408 20.83L18.716 22.5107C19.4025 23.1994 20.5978 23.1991 21.2841 22.5107L22.9593 20.83L27.9723 25.8594H12.0277ZM28.8281 25.058L23.7865 20L28.8281 14.942V25.058Z" fill="#FF576B"/>
</svg>
