<svg width="48" height="48" viewBox="0 0 48 48" fill="none" xmlns="http://www.w3.org/2000/svg">
<path d="M42.8133 47.5H5.18665C2.59833 47.5 0.5 45.4017 0.5 42.8133V5.18665C0.5 2.59833 2.59833 0.5 5.18665 0.5H42.8133C45.4017 0.5 47.4999 2.59833 47.4999 5.18665V42.8133C47.5 45.4017 45.4017 47.5 42.8133 47.5Z" fill="white" stroke="#1E003E"/>
<path d="M40.0553 28.1042C39.8438 27.8447 39.5889 27.6353 39.3132 27.4874C39.2903 27.4114 39.2659 27.331 39.2399 27.248C39.2101 27.1526 39.1801 27.0627 39.1511 26.9797C39.5811 26.0706 39.5473 25.2801 39.473 24.8438C39.3589 24.1062 39.044 23.4877 38.4827 22.8984C37.7981 22.1798 36.6584 21.7185 35.751 21.4457C35.7399 21.0143 35.7264 20.5253 35.7131 20.2207C35.6953 19.8156 35.6584 18.9761 35.3949 18.1285C35.1997 17.4318 34.9121 16.7921 34.5561 16.2512C35.9307 14.6009 36.6762 12.8961 36.6739 11.3753C36.6702 8.91081 34.7516 7.31836 31.7863 7.31836C30.3784 7.31836 28.773 7.67494 27.1409 8.35074C27.1382 8.35187 27.0486 8.3896 26.9242 8.44232C26.428 7.95558 25.774 7.31489 25.7303 7.27688C24.984 6.62598 24.0576 6.2959 22.9769 6.2959C21.6903 6.2959 20.2121 6.77272 18.5831 7.71315C17.1783 8.52417 15.6685 9.684 14.2169 11.0673C11.2572 13.8876 8.87102 17.2644 7.83386 20.1002C7.3886 21.3177 7.19729 22.4225 7.26537 23.3838C7.34786 24.551 7.8215 25.531 8.63345 26.2167L9.13855 26.6445C8.97852 27.3379 8.93619 28.072 9.01307 28.8366C9.15878 30.286 9.89292 31.6638 11.0804 32.7157C12.0351 33.5617 13.2056 34.1113 14.3836 34.2807C15.4409 36.391 17.0557 38.1697 19.0874 39.4533C21.2793 40.8382 23.9027 41.6136 26.6741 41.6959C26.8508 41.7012 27.0296 41.7039 27.2055 41.7039C30.0667 41.7039 32.7466 41.0004 34.9536 39.6697C37.2262 38.2995 38.9667 36.2829 39.9869 33.8381C39.9906 33.8293 39.9941 33.8205 39.9976 33.8116C40.1737 33.3585 40.7486 31.7636 40.7486 30.2651C40.7488 29.1823 40.3716 28.4923 40.0553 28.1042Z" fill="#1F2847"/>
<path d="M14.7477 24.6698C14.4679 24.6553 14.2085 24.6803 13.9938 24.7235C12.1979 25.0856 11.1837 26.6134 11.3832 28.5985C11.5638 30.3943 13.3808 31.9087 15.0628 31.9538C15.2369 31.9579 15.4095 31.9465 15.5787 31.9177C17.3989 31.6073 17.8753 29.6308 17.5753 27.6894C17.2365 25.4976 15.7538 24.7249 14.7477 24.6698ZM16.5311 29.863C16.4642 30.0184 16.1996 30.2309 15.8211 30.2166C15.4317 30.1865 14.9983 29.9036 14.9397 29.199C14.9108 28.8509 15.0422 28.4272 15.123 28.2057C15.2793 27.7772 15.1383 27.3282 14.7719 27.0883C14.5566 26.9474 14.2994 26.8995 14.0479 26.9533C13.8009 27.0062 13.5904 27.1515 13.4553 27.3626C13.3433 27.5376 13.2749 27.7559 13.2382 27.8731C13.2283 27.9045 13.2205 27.9293 13.2146 27.9453C13.1322 28.1671 13.0005 28.2319 12.9116 28.2198C12.8694 28.2141 12.8115 28.1859 12.7744 28.0843C12.6732 27.8068 12.755 27.0217 13.2781 26.4445C13.6095 26.0786 14.1294 25.8914 14.6344 25.9554C15.1603 26.0222 15.5977 26.3402 15.8659 26.851C16.2223 27.5296 15.9049 28.2417 15.7152 28.6671C15.6947 28.7132 15.6758 28.7555 15.6598 28.7935C15.5409 29.0759 15.5346 29.3226 15.6424 29.488C15.7251 29.615 15.8724 29.6894 16.0464 29.6927C16.1274 29.6941 16.2015 29.6768 16.2669 29.6616C16.3604 29.6399 16.4571 29.6173 16.5159 29.6911C16.5373 29.7152 16.5706 29.7712 16.5311 29.863Z" fill="white"/>
<path d="M38.1296 29.4757C37.8786 29.3211 37.5784 29.3749 37.5784 29.3749C37.5784 29.3749 37.4414 28.4371 37.0534 27.5851C35.9034 28.4927 34.4227 29.1306 33.2953 29.4542C31.9943 29.8276 30.2339 30.1146 28.2698 29.9975C27.1801 29.9096 26.4591 29.5913 26.188 30.4726C28.6772 31.3839 31.3123 30.9938 31.3123 30.9938C31.3632 30.9886 31.4087 31.0257 31.4139 31.0766C31.4182 31.1181 31.3929 31.1599 31.3565 31.1753C31.3565 31.1753 29.3324 32.1151 26.1178 31.1209C26.2072 31.8749 26.942 32.2129 27.2931 32.3494C27.7349 32.5213 28.2189 32.6009 28.2189 32.6009C32.2021 33.286 35.926 31.0086 36.7645 30.4349C36.8273 30.3919 36.869 30.4338 36.8185 30.5099C36.7701 30.583 36.7671 30.5873 36.7364 30.6269C35.7103 31.9506 32.9515 33.4833 29.3626 33.4827C27.7972 33.4824 26.2326 32.931 25.6582 32.0836C24.7671 30.7688 25.6141 28.8497 27.0992 29.0497C27.1009 29.05 27.6072 29.1073 27.7496 29.1232C29.6061 29.33 32.293 29.0696 34.5078 28.0416C36.534 27.1012 37.2993 26.0662 37.1844 25.2283C37.1533 25.0025 37.0523 24.7659 36.8353 24.5432C36.4712 24.1868 35.8937 23.9094 34.9197 23.636C34.5979 23.5456 34.3795 23.4879 34.1443 23.4105C33.726 23.2728 33.5194 23.1619 33.4725 22.3754C33.452 22.0314 33.3921 20.8333 33.3705 20.3381C33.3323 19.4705 33.228 18.2847 32.4921 17.795C32.3004 17.6675 32.0871 17.6059 31.863 17.594C31.6436 17.5837 31.5336 17.623 31.4896 17.6305C31.0695 17.7017 30.8214 17.9253 30.5116 18.1834C29.5939 18.9481 28.8188 19.0734 27.9571 19.0362C27.4422 19.0147 26.8965 18.9345 26.2709 18.8975C26.1492 18.8903 26.0271 18.8828 25.9052 18.8764C24.4618 18.8025 22.9137 20.0492 22.6565 21.8193C22.2983 24.2834 24.0827 25.5566 24.5979 26.3038C24.6637 26.3931 24.7396 26.5192 24.7396 26.6387C24.7396 26.7816 24.647 26.8952 24.5562 26.9916C24.5561 26.9917 24.5565 26.9922 24.5563 26.9923C23.0838 28.5064 22.6127 30.912 23.1676 32.917C23.2369 33.1675 23.3247 33.407 23.4287 33.6356C24.7307 36.6783 28.7697 38.0952 32.7156 36.8064C33.2442 36.6337 33.7448 36.4201 34.2148 36.1732C35.0998 35.7396 35.8734 35.1433 36.5105 34.4574C37.5572 33.3634 38.1801 32.1743 38.4219 30.709C38.5405 29.9249 38.3667 29.6215 38.1296 29.4757ZM32.8167 24.4387C32.8112 24.7629 32.6151 25.0226 32.3785 25.0186C32.1421 25.0145 31.9548 24.7484 31.9603 24.4242C31.9659 24.0999 32.1619 23.8403 32.3985 23.8443C32.6349 23.8483 32.8221 24.1145 32.8167 24.4387ZM31.7324 20.6043C32.1925 20.5302 32.4151 21.0066 32.5795 21.7938C32.6902 22.3234 32.669 22.8098 32.546 23.0919C32.3334 23.0618 32.1021 23.063 31.8607 23.0919C31.6772 22.8574 31.5124 22.4788 31.4199 22.036C31.2554 21.2488 31.2725 20.6785 31.7324 20.6043ZM30.1889 24.8361C30.2933 24.6239 30.6137 24.5678 30.9048 24.7108C31.1959 24.8538 31.3473 25.1418 31.2431 25.3541C31.1387 25.5664 30.8182 25.6224 30.5272 25.4795C30.236 25.3364 30.0847 25.0484 30.1889 24.8361ZM28.3853 24.5978C28.338 24.6717 28.2363 24.6583 28.0208 24.6342C27.6308 24.5897 27.2372 24.5638 26.6406 24.7774C26.6406 24.7774 26.4238 24.8644 26.3269 24.8644C26.2991 24.8644 26.276 24.8549 26.2564 24.8376C26.2421 24.8255 26.224 24.8014 26.2236 24.7595C26.223 24.6715 26.3031 24.5464 26.4327 24.4331C26.5843 24.3016 26.8209 24.1603 27.2495 24.0926C27.8399 24.0226 28.2727 24.2979 28.3732 24.4608C28.4162 24.5307 28.3993 24.5767 28.3853 24.5978ZM25.0924 23.7855C25.015 23.7746 24.9822 23.7417 24.9725 23.6978C24.9425 23.5621 25.1514 23.3386 25.3716 23.1772C26.0386 22.6979 26.9032 22.5941 27.6282 22.9062C27.9827 23.0573 28.3169 23.3262 28.4793 23.5913C28.5578 23.7197 28.5731 23.8192 28.5222 23.8715C28.443 23.9551 28.2408 23.8594 27.9116 23.715C27.5825 23.5706 27.1551 23.4093 26.6391 23.4408C25.9084 23.4855 25.2738 23.8063 25.0924 23.7855Z" fill="white"/>
<path d="M30.1063 14.8538C30.1694 14.8684 30.2096 14.759 30.1531 14.7273C29.3192 14.2597 28.0397 13.942 27.1322 13.9356C27.0874 13.9353 27.0623 13.8835 27.089 13.8477C27.2459 13.6366 27.4609 13.428 27.6575 13.2772C27.7017 13.2433 27.6748 13.1722 27.6193 13.1755C26.3268 13.255 24.8532 13.8737 24.0061 14.4512C23.9643 14.4797 23.9103 14.4424 23.9206 14.3929C23.9866 14.0748 24.1948 13.6556 24.3028 13.4598C24.3284 13.4136 24.2784 13.3624 24.2313 13.3865C22.8697 14.083 21.3496 15.3235 20.1149 16.7503C20.0713 16.8007 20.1361 16.8719 20.1899 16.8328C21.2564 16.057 22.7183 15.3357 24.6337 14.8686C26.7791 14.3452 28.8446 14.5646 30.1063 14.8538Z" fill="white"/>
<path d="M25.4964 10.4311C25.4964 10.4311 24.1406 8.85904 23.7313 8.74311C21.2131 8.06254 15.7733 11.8141 12.3002 16.7703C10.8949 18.7758 8.88309 22.3271 9.84506 24.1537C9.96361 24.3802 10.6345 24.9617 10.9946 25.2621C11.5971 24.3869 12.5824 23.7533 13.7003 23.536C15.1237 19.7164 17.4996 16.1964 20.6449 13.7745C22.9793 11.8277 25.4964 10.4311 25.4964 10.4311Z" fill="white"/>
</svg>
