<svg width="24" height="25" viewBox="0 0 24 25" fill="none" xmlns="http://www.w3.org/2000/svg">
<path d="M20.5 14.0097C20.2348 14.0097 19.9804 14.115 19.7929 14.3026C19.6054 14.4901 19.5 14.7444 19.5 15.0097V19.0097C19.5 19.2749 19.3946 19.5292 19.2071 19.7168C19.0196 19.9043 18.7652 20.0097 18.5 20.0097H4.5C4.23478 20.0097 3.98043 19.9043 3.79289 19.7168C3.60536 19.5292 3.5 19.2749 3.5 19.0097V9.41966L9.38 15.3097C9.9425 15.8715 10.705 16.187 11.5 16.187C12.295 16.187 13.0575 15.8715 13.62 15.3097L15.26 13.6697C15.4483 13.4814 15.5541 13.226 15.5541 12.9597C15.5541 12.6934 15.4483 12.438 15.26 12.2497C15.0717 12.0614 14.8163 11.9556 14.55 11.9556C14.2837 11.9556 14.0283 12.0614 13.84 12.2497L12.2 13.8897C12.0131 14.0729 11.7618 14.1755 11.5 14.1755C11.2382 14.1755 10.9869 14.0729 10.8 13.8897L4.91 8.00966H11.5C11.7652 8.00966 12.0196 7.9043 12.2071 7.71677C12.3946 7.52923 12.5 7.27488 12.5 7.00966C12.5 6.74445 12.3946 6.49009 12.2071 6.30256C12.0196 6.11502 11.7652 6.00966 11.5 6.00966H4.5C3.70435 6.00966 2.94129 6.32573 2.37868 6.88834C1.81607 7.45095 1.5 8.21401 1.5 9.00966V19.0097C1.5 19.8053 1.81607 20.5684 2.37868 21.131C2.94129 21.6936 3.70435 22.0097 4.5 22.0097H18.5C19.2956 22.0097 20.0587 21.6936 20.6213 21.131C21.1839 20.5684 21.5 19.8053 21.5 19.0097V15.0097C21.5 14.7444 21.3946 14.4901 21.2071 14.3026C21.0196 14.115 20.7652 14.0097 20.5 14.0097ZM22.21 5.29966L19.21 2.29966C19.1149 2.20862 19.0028 2.13726 18.88 2.08966C18.6365 1.98964 18.3635 1.98964 18.12 2.08966C17.9972 2.13726 17.8851 2.20862 17.79 2.29966L14.79 5.29966C14.6017 5.48797 14.4959 5.74336 14.4959 6.00966C14.4959 6.27596 14.6017 6.53136 14.79 6.71966C14.9783 6.90797 15.2337 7.01375 15.5 7.01375C15.7663 7.01375 16.0217 6.90797 16.21 6.71966L17.5 5.41966V11.0097C17.5 11.2749 17.6054 11.5292 17.7929 11.7168C17.9804 11.9043 18.2348 12.0097 18.5 12.0097C18.7652 12.0097 19.0196 11.9043 19.2071 11.7168C19.3946 11.5292 19.5 11.2749 19.5 11.0097V5.41966L20.79 6.71966C20.883 6.81339 20.9936 6.88778 21.1154 6.93855C21.2373 6.98932 21.368 7.01546 21.5 7.01546C21.632 7.01546 21.7627 6.98932 21.8846 6.93855C22.0064 6.88778 22.117 6.81339 22.21 6.71966C22.3037 6.6267 22.3781 6.5161 22.4289 6.39424C22.4797 6.27238 22.5058 6.14167 22.5058 6.00966C22.5058 5.87765 22.4797 5.74694 22.4289 5.62509C22.3781 5.50323 22.3037 5.39262 22.21 5.29966Z" fill="white"/>
</svg>
