<svg width="20" height="17" viewBox="0 0 20 17" fill="none" xmlns="http://www.w3.org/2000/svg">
<path d="M1.99843 3.71182H0.398438V7.7095H0.406437L0.398438 14.9053C0.398438 15.7848 1.11844 16.5044 1.99843 16.5044H16.3984V14.9053H1.99843V3.71182ZM5.99842 10.9076H17.1984L14.3984 7.30973L12.3984 9.71633L9.59841 6.11042L5.99842 10.9076ZM17.9984 2.11274H11.5984L9.99841 0.513672H5.19843C4.31843 0.513672 3.60643 1.23325 3.60643 2.11274L3.59843 11.7072C3.59843 12.5867 4.31843 13.3062 5.19843 13.3062H17.9984C18.8784 13.3062 19.5984 12.5867 19.5984 11.7072V3.71182C19.5984 2.83233 18.8784 2.11274 17.9984 2.11274ZM17.9984 11.7072H5.19843V2.11274H9.33442L10.4624 3.24009L10.9344 3.71182H17.9984V11.7072Z" fill="#585858"/>
</svg>
