<svg width="14" height="24" viewBox="0 0 14 24" fill="none" xmlns="http://www.w3.org/2000/svg">
<path d="M12.3522 0H1.65228C0.76085 0 0.03125 0.728914 0.03125 1.62103V22.3783C0.03125 23.2704 0.76085 24 1.65228 24H12.3522C13.2436 24 13.9732 23.2718 13.9732 22.379V1.62103C13.9732 0.728914 13.2436 0 12.3522 0ZM5.29068 1.16846H8.71376C8.82211 1.16846 8.90988 1.25623 8.90988 1.36526C8.90988 1.4736 8.82211 1.56137 8.71376 1.56137H5.29068C5.18233 1.56137 5.09456 1.4736 5.09456 1.36526C5.09456 1.25623 5.18233 1.16846 5.29068 1.16846ZM7.00222 23.1895C6.55445 23.1895 6.19171 22.8267 6.19171 22.3783C6.19171 21.9298 6.55445 21.5678 7.00222 21.5678C7.44999 21.5678 7.81274 21.9298 7.81274 22.3783C7.81274 22.8267 7.44999 23.1895 7.00222 23.1895ZM12.8452 21H1.15925V2.57074H12.8452V21Z" fill="white"/>
</svg>
