<svg width="74" height="72" viewBox="0 0 74 72" fill="none" xmlns="http://www.w3.org/2000/svg">
<rect x="0.25" y="0.25" width="73.5" height="71.5" rx="4.75" fill="white" stroke="#9A9AA9" stroke-width="0.5"/>
<path d="M45.4421 17H28.5579C27.1513 17 26 18.1541 26 19.5666V52.4323C26 53.8448 27.1513 55 28.5579 55H45.4421C46.8487 55 48 53.847 48 52.4334V19.5666C48 18.1541 46.8487 17 45.4421 17ZM34.2992 18.8501H39.7008C39.8717 18.8501 40.0102 18.989 40.0102 19.1617C40.0102 19.3332 39.8717 19.4722 39.7008 19.4722H34.2992C34.1283 19.4722 33.9898 19.3332 33.9898 19.1617C33.9898 18.989 34.1283 18.8501 34.2992 18.8501ZM37 53.7167C36.2934 53.7167 35.721 53.1423 35.721 52.4323C35.721 51.7222 36.2934 51.149 37 51.149C37.7066 51.149 38.279 51.7222 38.279 52.4323C38.279 53.1423 37.7066 53.7167 37 53.7167ZM46.22 50.25H27.78V21.0703H46.22V50.25Z" fill="#585858"/>
</svg>
