<svg width="" height="9" viewBox="0 0 7 9" fill="none" xmlns="http://www.w3.org/2000/svg">
<path d="M6.125 0C6.60807 0 7 0.377754 7 0.84375V8.15625C7 8.62207 6.60807 9 6.125 9H4.375V7.59375C4.375 7.12793 3.98307 6.75 3.5 6.75C3.01693 6.75 2.625 7.12793 2.625 7.59375V9H0.875C0.391745 9 0 8.62207 0 8.15625V0.84375C0 0.377754 0.391745 0 0.875 0H6.125ZM1.16667 4.78125C1.16667 4.93594 1.29719 5.0625 1.45833 5.0625H2.04167C2.20208 5.0625 2.33333 4.93594 2.33333 4.78125V4.21875C2.33333 4.06406 2.20208 3.9375 2.04167 3.9375H1.45833C1.29719 3.9375 1.16667 4.06406 1.16667 4.21875V4.78125ZM3.20833 3.9375C3.04792 3.9375 2.91667 4.06406 2.91667 4.21875V4.78125C2.91667 4.93594 3.04792 5.0625 3.20833 5.0625H3.79167C3.95208 5.0625 4.08333 4.93594 4.08333 4.78125V4.21875C4.08333 4.06406 3.95208 3.9375 3.79167 3.9375H3.20833ZM4.66667 4.78125C4.66667 4.93594 4.79792 5.0625 4.95833 5.0625H5.54167C5.70208 5.0625 5.83333 4.93594 5.83333 4.78125V4.21875C5.83333 4.06406 5.70208 3.9375 5.54167 3.9375H4.95833C4.79792 3.9375 4.66667 4.06406 4.66667 4.21875V4.78125ZM1.45833 1.6875C1.29719 1.6875 1.16667 1.81406 1.16667 1.96875V2.53125C1.16667 2.68594 1.29719 2.8125 1.45833 2.8125H2.04167C2.20208 2.8125 2.33333 2.68594 2.33333 2.53125V1.96875C2.33333 1.81406 2.20208 1.6875 2.04167 1.6875H1.45833ZM2.91667 2.53125C2.91667 2.68594 3.04792 2.8125 3.20833 2.8125H3.79167C3.95208 2.8125 4.08333 2.68594 4.08333 2.53125V1.96875C4.08333 1.81406 3.95208 1.6875 3.79167 1.6875H3.20833C3.04792 1.6875 2.91667 1.81406 2.91667 1.96875V2.53125ZM4.95833 1.6875C4.79792 1.6875 4.66667 1.81406 4.66667 1.96875V2.53125C4.66667 2.68594 4.79792 2.8125 4.95833 2.8125H5.54167C5.70208 2.8125 5.83333 2.68594 5.83333 2.53125V1.96875C5.83333 1.81406 5.70208 1.6875 5.54167 1.6875H4.95833Z" fill="#5A5A5A"/>
</svg>
