<svg width="48" height="48" viewBox="0 0 48 48" fill="none" xmlns="http://www.w3.org/2000/svg">
<path d="M42.8133 47.5H5.18665C2.59833 47.5 0.5 45.4017 0.5 42.8133V5.18665C0.5 2.59833 2.59833 0.5 5.18665 0.5H42.8133C45.4017 0.5 47.4999 2.59833 47.4999 5.18665V42.8133C47.5 45.4017 45.4017 47.5 42.8133 47.5Z" fill="white" stroke="#283593"/>
<path d="M34.1063 11.2817C33.2341 10.4512 31.9693 10.1812 30.834 10.5829C30.5129 10.6902 30.2791 10.9686 30.2289 11.3033L29.9767 13.0358C29.5944 15.6527 27.3553 17.5961 24.7107 17.6067H21.1087C20.6954 17.6067 20.3353 17.8882 20.2353 18.2892L17.5338 29.0949C17.4134 29.5775 17.7071 30.0662 18.1896 30.1865C18.2608 30.2043 18.3339 30.2133 18.4072 30.2133H22.9096C23.3229 30.2132 23.683 29.9318 23.7831 29.5308L25.413 23.0095H28.9248C31.6207 23.0185 33.9724 21.181 34.6158 18.563L35.2804 15.8994C35.7482 14.2609 35.2998 12.4977 34.1063 11.2817Z" fill="#03A9F4"/>
<path d="M4.90025 41.019C4.40294 41.0189 3.99983 40.6157 4 40.1184C4 40.045 4.00903 39.9719 4.02676 39.9007L4.92727 36.3169V36.279L5.82777 32.6969C5.92781 32.2959 6.28794 32.0145 6.70126 32.0144H8.99207C10.2354 32.0142 11.2435 33.0218 11.2438 34.2651C11.2438 34.4492 11.2213 34.6327 11.1767 34.8113L10.9515 35.7118C10.7011 36.7143 9.80031 37.4175 8.76701 37.4173H6.5049L5.77551 40.3367C5.67531 40.7382 5.31416 41.0198 4.90025 41.019ZM6.95511 35.6162H8.76684C8.97341 35.6156 9.15306 35.4745 9.2027 35.274L9.42785 34.3735C9.48956 34.1337 9.34503 33.8892 9.10519 33.8276C9.06822 33.818 9.03023 33.8133 8.99199 33.8135H7.40532L6.95511 35.6162Z" fill="#283593"/>
<path d="M14.5299 41.0191H13.2477C11.8691 41.0195 10.7513 39.9022 10.751 38.5236C10.7509 38.3194 10.776 38.1159 10.8254 37.9179L10.9443 37.4388C11.2108 36.3636 12.1778 35.6101 13.2855 35.6144H14.5678C15.9463 35.6168 17.0619 36.7363 17.0596 38.1148C17.0592 38.318 17.0341 38.5204 16.9847 38.7174L16.8658 39.1965C16.5991 40.269 15.6351 41.0211 14.5299 41.0191ZM12.5741 38.3555C12.4816 38.7281 12.7087 39.1051 13.0813 39.1977C13.1357 39.2112 13.1915 39.218 13.2477 39.2182H14.5299C14.8076 39.2189 15.0499 39.0302 15.1171 38.7607L15.2359 38.2816C15.3285 37.909 15.1014 37.532 14.7287 37.4395C14.6743 37.426 14.6185 37.4191 14.5624 37.419H13.2801C13.0024 37.4182 12.7602 37.607 12.693 37.8764L12.5741 38.3555Z" fill="#283593"/>
<path d="M15.7059 41.019C15.2086 41.0188 14.8056 40.6155 14.8057 40.1182C14.8057 40.0449 14.8147 39.9717 14.8324 39.9006L15.7329 36.2986C15.8533 35.8158 16.3423 35.5218 16.8252 35.6422C17.3081 35.7626 17.6021 36.2515 17.4817 36.7345L16.5812 40.3364C16.481 40.7381 16.1198 41.0197 15.7059 41.019Z" fill="#283593"/>
<path d="M26.5116 41.019C26.0143 41.0188 25.6112 40.6155 25.6113 40.1182C25.6113 40.0449 25.6204 39.9718 25.6381 39.9006L26.5386 36.3167V36.2789L27.4391 32.6968C27.5391 32.2958 27.8993 32.0144 28.3126 32.0143H30.6034C31.8467 32.014 32.8548 33.0217 32.8551 34.265C32.8551 34.4491 32.8326 34.6326 32.788 34.8112L32.5629 35.7117C32.3124 36.7142 31.4116 37.4174 30.3783 37.4172H28.1163L27.3869 40.3365C27.2866 40.7381 26.9255 41.0198 26.5116 41.019ZM28.5664 35.6161H30.38C30.5866 35.6155 30.7662 35.4745 30.8159 35.274L31.041 34.3735C31.1027 34.1336 30.9582 33.8892 30.7184 33.8275C30.6814 33.818 30.6433 33.8133 30.6052 33.8134H29.0167L28.5664 35.6161Z" fill="#03A9F4"/>
<path d="M36.1413 41.019H34.859C33.4804 41.0193 32.3626 39.902 32.3623 38.5235C32.3622 38.3193 32.3873 38.1158 32.4368 37.9177L32.5556 37.4387C32.8221 36.3635 33.7892 35.61 34.8968 35.6143H36.1791C37.5577 35.6139 38.6755 36.7312 38.6758 38.1098C38.6759 38.314 38.6508 38.5175 38.6013 38.7155L38.4825 39.1946C38.216 40.2698 37.2489 41.0233 36.1413 41.019ZM34.1854 38.3554C34.0929 38.728 34.32 39.105 34.6926 39.1976C34.7471 39.2111 34.8029 39.2179 34.859 39.2181H36.1413C36.4189 39.2188 36.6612 39.0301 36.7284 38.7606L36.8473 38.2815C36.9398 37.9089 36.7127 37.5319 36.3401 37.4393C36.2856 37.4258 36.2298 37.419 36.1737 37.4188H34.8914C34.6138 37.4181 34.3715 37.6068 34.3043 37.8763L34.1854 38.3554Z" fill="#03A9F4"/>
<path d="M37.3172 41.019C36.8199 41.0188 36.4169 40.6155 36.417 40.1182C36.417 40.0449 36.426 39.9717 36.4438 39.9006L37.3443 36.2986C37.4646 35.8158 37.9536 35.5218 38.4366 35.6422C38.9194 35.7626 39.2134 36.2515 39.093 36.7345L38.1925 40.3364C38.0923 40.7381 37.7312 41.0197 37.3172 41.019Z" fill="#03A9F4"/>
<path d="M21.1089 40.1186C20.8077 40.1185 20.5266 39.9678 20.3597 39.717L18.5587 37.0156C18.2827 36.6019 18.3944 36.0427 18.8082 35.7666C19.222 35.4906 19.7811 35.6023 20.0572 36.0161L21.8581 38.7175C22.1346 39.1309 22.0237 39.6901 21.6103 39.9667C21.4619 40.0659 21.2874 40.1187 21.1089 40.1186Z" fill="#283593"/>
<path d="M19.3084 42.82C18.8111 42.8198 18.408 42.4165 18.4082 41.9192C18.4083 41.7087 18.4821 41.5049 18.6168 41.3432L23.1192 35.9403C23.4379 35.5584 24.006 35.5072 24.3879 35.8259C24.7698 36.1447 24.8211 36.7128 24.5023 37.0947L19.9999 42.4975C19.8286 42.7022 19.5753 42.8203 19.3084 42.82Z" fill="#283593"/>
<path d="M40.9198 41.019C40.4225 41.0189 40.0194 40.6156 40.0195 40.1183C40.0195 40.0449 40.0286 39.9718 40.0463 39.9006L41.8472 32.6968C41.9676 32.214 42.4566 31.92 42.9395 32.0404C43.4224 32.1608 43.7164 32.6497 43.596 33.1327L41.795 40.3365C41.6949 40.7382 41.3338 41.0198 40.9198 41.019Z" fill="#03A9F4"/>
<path d="M31.1325 6.5578C30.2672 5.5668 29.0155 4.99874 27.6999 5H17.5065C17.0709 5 16.6979 5.31168 16.6204 5.74019L13.0184 25.5506C12.9299 26.04 13.2549 26.5084 13.7443 26.597C13.7971 26.6065 13.8508 26.6113 13.9045 26.6113H19.3074C19.7207 26.6113 20.0808 26.3298 20.1809 25.9288L21.8125 19.4076H24.7102C28.2523 19.3936 31.2509 16.7895 31.761 13.2844L32.2112 10.2065C32.3968 8.89149 32.0033 7.56053 31.1325 6.5578Z" fill="#283593"/>
</svg>
