<svg  viewBox="0 0 26 25" fill="none" xmlns="http://www.w3.org/2000/svg">
<path d="M12.7808 0C5.87758 0 0.28125 5.59675 0.28125 12.4998C0.28125 19.4028 5.87758 25 12.7808 25C19.6841 25 25.2811 19.4031 25.2811 12.4998C25.2811 5.59642 19.6841 0 12.7808 0ZM18.723 8.99542L17.5357 10.1827L15.119 7.76608L14.2022 8.68292L16.6189 11.0997L10.6912 17.0268L8.27467 14.6105L7.35783 15.5273L9.77442 17.9439L9.18375 18.5346L9.1725 18.5233C9.107 18.6312 9.0005 18.7098 8.874 18.7379L6.62042 19.2404C6.58667 19.248 6.55233 19.2517 6.51842 19.2517C6.39542 19.2517 6.27592 19.2033 6.18733 19.1144C6.07367 19.0012 6.02633 18.8376 6.06133 18.6808L6.56358 16.4279C6.59192 16.3015 6.67075 16.1947 6.77842 16.1294L6.767 16.118L16.3062 6.57842C16.446 6.43883 16.6732 6.43883 16.813 6.57883L18.7232 8.48858C18.863 8.62842 18.863 8.85558 18.723 8.99542Z" fill="#9A9AA9"/>
</svg>
