<svg width="152" height="152" viewBox="0 0 152 152" fill="none" xmlns="http://www.w3.org/2000/svg">
<path d="M76 152C117.974 152 152 117.974 152 76C152 34.0264 117.974 0 76 0C34.0264 0 0 34.0264 0 76C0 117.974 34.0264 152 76 152Z" fill="#6AAF50"/>
<path d="M40.2832 30.3424L40.2808 30.3436C31.4817 34.9345 27.7901 45.5502 31.8216 54.6191C37.6246 67.6742 45.4164 79.6154 54.8199 90.0728L61.9268 97.1797L109.152 144.404C120.973 138.664 131.08 129.95 138.505 119.235L121.08 101.809C120.408 100.819 119.545 99.9388 118.503 99.2317L52.7679 33.4973C50.0088 29.4316 44.6389 28.0696 40.2832 30.3424Z" fill="#4D8538"/>
<path d="M103.785 89.2448C101.353 87.5945 98.1578 87.6028 95.7347 89.2659L92.2458 91.6605C88.3597 94.3276 83.1917 94.1827 79.4564 91.3081C75.9361 88.5985 72.576 85.6933 69.3852 82.6147C66.3063 79.4239 63.4014 76.0641 60.6918 72.5435C57.8169 68.8085 57.6723 63.6405 60.3394 59.7541L62.734 56.2653C64.3968 53.8422 64.4054 50.6472 62.7551 48.2152L52.7682 33.4976C50.0094 29.4322 44.6395 28.0701 40.2835 30.3427L40.2808 30.3439C31.4817 34.9348 27.7901 45.5504 31.8216 54.6194C37.6246 67.6745 45.4164 79.6157 54.8199 90.0731L61.9268 97.18C72.3846 106.583 84.3258 114.375 97.3805 120.178C106.45 124.21 117.065 120.518 121.656 111.719L121.657 111.716C123.93 107.361 122.568 101.991 118.502 99.2317L103.785 89.2448Z" fill="white"/>
</svg>
