<svg width="74" height="72" viewBox="0 0 74 72" fill="none" xmlns="http://www.w3.org/2000/svg">
<rect x="0.25" y="0.25" width="73.5" height="71.5" rx="4.75" fill="white" stroke="#9A9AA9" stroke-width="0.5"/>
<path d="M51 20H23C22.4696 20 21.9609 20.2106 21.5858 20.5854C21.2107 20.9603 21 21.4687 21 21.9988V45.985C21 46.5151 21.2107 47.0235 21.5858 47.3984C21.9609 47.7732 22.4696 47.9838 23 47.9838H51C51.5304 47.9838 52.0391 47.7732 52.4142 47.3984C52.7893 47.0235 53 46.5151 53 45.985V21.9988C53 21.4687 52.7893 20.9603 52.4142 20.5854C52.0391 20.2106 51.5304 20 51 20ZM23 45.985V21.9988H51V45.985H23Z" fill="#585858"/>
<path d="M27.9219 29.9964C28.5152 29.9964 29.0952 29.8206 29.5886 29.4911C30.0819 29.1617 30.4664 28.6934 30.6935 28.1456C30.9206 27.5977 30.98 26.9949 30.8642 26.4133C30.7485 25.8317 30.4628 25.2975 30.0432 24.8782C29.6236 24.4588 29.0891 24.1733 28.5071 24.0576C27.9252 23.9419 27.322 24.0013 26.7738 24.2282C26.2256 24.4552 25.7571 24.8394 25.4275 25.3325C25.0978 25.8255 24.9219 26.4052 24.9219 26.9982C24.9219 27.7934 25.2379 28.556 25.8006 29.1182C26.3632 29.6805 27.1262 29.9964 27.9219 29.9964ZM27.9219 25.3992C28.2387 25.3972 28.5491 25.4893 28.8135 25.6638C29.0779 25.8383 29.2846 26.0873 29.4072 26.3793C29.5298 26.6713 29.5629 26.9931 29.5023 27.304C29.4417 27.6148 29.2901 27.9007 29.0668 28.1253C28.8434 28.3499 28.5584 28.5032 28.2477 28.5657C27.9371 28.6283 27.6149 28.5972 27.3219 28.4765C27.029 28.3557 26.7785 28.1508 26.6022 27.8876C26.426 27.6244 26.3319 27.3149 26.3319 26.9982C26.3345 26.5776 26.5029 26.1749 26.8005 25.8775C27.0981 25.58 27.501 25.4118 27.9219 25.4092V25.3992Z" fill="#585858"/>
<path d="M41.7818 31.3609L36.3819 36.7578L32.3819 32.7601C32.1945 32.574 31.941 32.4695 31.6769 32.4695C31.4127 32.4695 31.1592 32.574 30.9719 32.7601L24.9219 38.8866V41.7149L31.7119 34.9289L35.0019 38.167L31.2519 41.9148H34.0019L42.4518 33.4697L49.0018 39.9859V37.1676L43.1918 31.3609C43.0045 31.1748 42.751 31.0703 42.4868 31.0703C42.2227 31.0703 41.9692 31.1748 41.7818 31.3609Z" fill="#585858"/>
</svg>
