<svg width="115" height="115" viewBox="0 0 115 115" fill="none" xmlns="http://www.w3.org/2000/svg">
<path d="M64.1719 7.86719C63.675 7.86719 63.2734 8.26969 63.2734 8.76563V54.4125C63.2734 54.9085 63.675 55.311 64.1719 55.311H109.819C110.316 55.311 110.717 54.9085 110.717 54.4125C110.716 28.7478 89.8366 7.86719 64.1719 7.86719Z" fill="#E6E7E8"/>
<path d="M54.4313 12.0625C28.7611 12.0625 7.87695 32.9431 7.87695 58.6078C7.87695 59.1038 8.27855 59.5063 8.77539 59.5063H54.4313C54.9281 59.5063 55.3297 59.1038 55.3297 58.6078V12.9609C55.3297 12.465 54.9281 12.0625 54.4313 12.0625Z" fill="#E6E7E8"/>
<path d="M54.4313 63.2734H8.77539C8.27855 63.2734 7.87695 63.6759 7.87695 64.1719C7.87695 89.842 28.7611 110.726 54.4313 110.726C54.9281 110.726 55.3297 110.324 55.3297 109.828V64.1719C55.3297 63.6759 54.9281 63.2734 54.4313 63.2734Z" fill="#E6E7E8"/>
<path d="M106.108 63.2734H60.4609C59.9641 63.2734 59.5625 63.6759 59.5625 64.1719V109.828C59.5625 110.324 59.9641 110.726 60.4609 110.726C86.1257 110.726 107.006 89.842 107.006 64.1719C107.006 63.6759 106.604 63.2734 106.108 63.2734Z" fill="#E6E7E8"/>
<path d="M106.224 50.8188H60.5781V5.17188C85.7901 5.17188 106.224 25.6068 106.224 50.8188Z" fill="#FA759E"/>
<path d="M83.8198 30.5273C82.5405 31.4258 80.9853 31.9586 79.3034 31.9586C77.6215 31.9586 76.0654 31.4267 74.7869 30.5273C70.9955 31.645 68.2266 35.1462 68.2266 39.2988V45.3345C68.2266 45.6822 68.5087 45.9643 68.8564 45.9643H89.7513C90.099 45.9643 90.3811 45.6822 90.3811 45.3345V39.2988C90.3802 35.1462 87.6103 31.645 83.8198 30.5273Z" fill="#6DC9F7"/>
<path d="M79.3029 16.2148C74.9553 16.2148 71.4316 19.7385 71.4316 24.0861C71.4316 28.4327 74.9553 31.9573 79.3029 31.9573C83.6495 31.9573 87.1741 28.4336 87.1741 24.0861C87.1741 19.7385 83.6504 16.2148 79.3029 16.2148Z" fill="white"/>
<path d="M50.8375 9.36719V55.0141H5.18164C5.18164 29.8013 25.6256 9.36719 50.8375 9.36719Z" fill="#FF4A73"/>
<path d="M5.18164 55.0141H5.27328C6.71258 31.0995 26.56 12.1496 50.8375 12.1496V9.36719C25.6256 9.36809 5.18164 29.8021 5.18164 55.0141Z" fill="white"/>
<path d="M50.8375 60.5781V106.234C25.6256 106.234 5.18164 85.7991 5.18164 60.5781H50.8375Z" fill="#F9D335"/>
<path d="M102.514 60.5781C102.514 85.7991 82.0791 106.234 56.8672 106.234V60.5781H102.514Z" fill="#1E003E"/>
<path d="M60.5781 4.27344C60.0813 4.27344 59.6797 4.67594 59.6797 5.17188V50.8188C59.6797 51.3147 60.0813 51.7172 60.5781 51.7172H106.225C106.722 51.7172 107.123 51.3147 107.123 50.8188C107.123 25.154 86.2429 4.27344 60.5781 4.27344ZM61.4766 49.9204V6.0793C85.4406 6.55277 104.844 25.9572 105.318 49.9204H61.4766Z" fill="#3A2C60"/>
<path d="M85.5384 30.2412C87.1026 28.6564 88.0711 26.4831 88.0711 24.0861C88.0711 19.2507 84.1368 15.3164 79.3014 15.3164C74.4661 15.3164 70.5318 19.2498 70.5318 24.0861C70.5318 26.4831 71.5003 28.6564 73.0645 30.2412C69.6783 31.8575 67.3262 35.3013 67.3262 39.2975V45.3332C67.3262 46.1759 68.0117 46.8614 68.8535 46.8614H89.7485C90.5912 46.8614 91.2767 46.1759 91.2767 45.3332V39.2975C91.2776 35.3021 88.9255 31.8575 85.5384 30.2412ZM79.3023 17.1133C83.1468 17.1133 86.2751 20.2407 86.2751 24.0861C86.2751 27.9314 83.1477 31.0588 79.3023 31.0588C75.457 31.0588 72.3296 27.9314 72.3296 24.0861C72.3296 20.2407 75.457 17.1133 79.3023 17.1133ZM89.4807 45.0646H69.123V39.2975C69.123 35.6975 71.4446 32.6392 74.6664 31.517C76.0132 32.3598 77.5989 32.8557 79.3014 32.8557C81.004 32.8557 82.5897 32.3598 83.9356 31.517C87.1574 32.6401 89.4798 35.6975 89.4798 39.2975V45.0646H89.4807Z" fill="#3A2C60"/>
<path d="M26.154 55.9102C26.6508 55.9102 27.0524 55.5077 27.0524 55.0117C27.0524 54.5158 26.6508 54.1133 26.154 54.1133H21.3437C20.8469 54.1133 20.4453 54.5158 20.4453 55.0117C20.4453 55.5077 20.8469 55.9102 21.3437 55.9102H26.154Z" fill="#3A2C60"/>
<path d="M50.8375 8.46875C25.1674 8.46875 4.2832 29.3484 4.2832 55.0141C4.2832 55.51 4.6848 55.9125 5.18164 55.9125H16.5891C17.0859 55.9125 17.4875 55.51 17.4875 55.0141C17.4875 54.5182 17.0859 54.1157 16.5891 54.1157H6.08816C6.56164 30.1525 25.9697 10.7481 49.9391 10.2746V54.1157H30.6056C30.1088 54.1157 29.7072 54.5182 29.7072 55.0141C29.7072 55.51 30.1088 55.9125 30.6056 55.9125H50.8375C51.3344 55.9125 51.736 55.51 51.736 55.0141V9.36719C51.736 8.87125 51.3344 8.46875 50.8375 8.46875Z" fill="#3A2C60"/>
<path d="M50.8375 59.6797H5.18164C4.6848 59.6797 4.2832 60.0822 4.2832 60.5781C4.2832 86.2483 25.1674 107.132 50.8375 107.132C51.3344 107.132 51.736 106.73 51.736 106.234V60.5781C51.736 60.0822 51.3344 59.6797 50.8375 59.6797ZM49.9391 105.327C25.9697 104.854 6.56254 85.446 6.08816 61.4766H49.9391V105.327Z" fill="#3A2C60"/>
<path d="M102.514 59.6797H56.8672C56.3704 59.6797 55.9688 60.0822 55.9688 60.5781V106.234C55.9688 106.73 56.3704 107.132 56.8672 107.132C82.532 107.132 103.413 86.2483 103.413 60.5781C103.413 60.0822 103.01 59.6797 102.514 59.6797ZM57.7656 105.327V61.4766H101.607C101.132 85.4451 81.7296 104.853 57.7656 105.327Z" fill="#3A2C60"/>
</svg>
