<svg width="10" height="11" viewBox="0 0 10 11" fill="none" xmlns="http://www.w3.org/2000/svg">
<path d="M7.00935 5.64235C7.34033 5.3435 7.6058 4.97387 7.78775 4.55854C7.96969 4.14322 8.06386 3.69193 8.06386 3.23529C8.06386 2.37724 7.73709 1.55433 7.15545 0.947596C6.57381 0.34086 5.78494 0 4.96237 0C4.13981 0 3.35093 0.34086 2.76929 0.947596C2.18765 1.55433 1.86089 2.37724 1.86089 3.23529C1.86089 3.69193 1.95505 4.14322 2.137 4.55854C2.31895 4.97387 2.58442 5.3435 2.91539 5.64235C2.04707 6.05251 1.31036 6.71487 0.793347 7.55024C0.276339 8.3856 0.000912986 9.35861 0 10.3529C0 10.5246 0.0653525 10.6891 0.181681 10.8105C0.298009 10.9318 0.455784 11 0.620297 11C0.784809 11 0.942584 10.9318 1.05891 10.8105C1.17524 10.6891 1.24059 10.5246 1.24059 10.3529C1.24059 9.32328 1.63271 8.33579 2.33068 7.6077C3.02865 6.87962 3.9753 6.47059 4.96237 6.47059C5.94945 6.47059 6.8961 6.87962 7.59407 7.6077C8.29204 8.33579 8.68415 9.32328 8.68415 10.3529C8.68415 10.5246 8.74951 10.6891 8.86583 10.8105C8.98216 10.9318 9.13994 11 9.30445 11C9.46896 11 9.62674 10.9318 9.74307 10.8105C9.85939 10.6891 9.92475 10.5246 9.92475 10.3529C9.92383 9.35861 9.64841 8.3856 9.1314 7.55024C8.61439 6.71487 7.87768 6.05251 7.00935 5.64235ZM4.96237 5.17647C4.59432 5.17647 4.23454 5.06262 3.92852 4.84932C3.6225 4.63602 3.38398 4.33285 3.24313 3.97815C3.10229 3.62345 3.06544 3.23314 3.13724 2.85659C3.20904 2.48004 3.38627 2.13415 3.64653 1.86268C3.90678 1.5912 4.23835 1.40632 4.59933 1.33142C4.96031 1.25652 5.33447 1.29496 5.6745 1.44188C6.01454 1.5888 6.30517 1.83761 6.50965 2.15683C6.71412 2.47606 6.82326 2.85137 6.82326 3.23529C6.82326 3.75013 6.62721 4.24387 6.27822 4.60791C5.92924 4.97195 5.45591 5.17647 4.96237 5.17647Z" fill="#5E5E5E"/>
</svg>
