<svg width="14" height="14" viewBox="0 0 14 14" fill="none" xmlns="http://www.w3.org/2000/svg">
<path d="M7 14C3.15 14 0 10.85 0 7C0 3.15 3.15 0 7 0C10.85 0 14 3.15 14 7C14 10.85 10.85 14 7 14ZM7 1.16667C3.79167 1.16667 1.16667 3.79167 1.16667 7C1.16667 10.2083 3.79167 12.8333 7 12.8333C10.2083 12.8333 12.8333 10.2083 12.8333 7C12.8333 3.79167 10.2083 1.16667 7 1.16667Z" fill="#9A9AA9"/>
<path d="M7.0013 9.3335C6.6513 9.3335 6.41797 9.10017 6.41797 8.75017V8.34184C6.41797 7.46684 6.88464 6.7085 7.58464 6.30017C8.0513 6.06684 8.28464 5.54184 8.16797 5.07517C8.10964 4.6085 7.7013 4.20017 7.23464 4.14184C6.88464 4.0835 6.53464 4.14184 6.24297 4.37517C6.00964 4.55017 5.83464 4.90017 5.83464 5.25017C5.83464 5.60017 5.6013 5.8335 5.2513 5.8335C4.9013 5.8335 4.66797 5.60017 4.66797 5.25017C4.66797 4.55017 4.95964 3.9085 5.48464 3.44184C6.00964 2.97517 6.70964 2.80017 7.40964 2.91684C8.34297 3.09184 9.1013 3.85017 9.2763 4.7835C9.4513 5.77517 8.98464 6.76684 8.10964 7.2335C7.75964 7.4085 7.58464 7.81684 7.58464 8.2835V8.75017C7.58464 9.10017 7.3513 9.3335 7.0013 9.3335Z" fill="#9A9AA9"/>
<path d="M7 11.375C6.53333 11.375 6.125 10.9667 6.125 10.5C6.125 10.0333 6.53333 9.625 7 9.625C7.46667 9.625 7.875 10.0333 7.875 10.5C7.875 10.9667 7.46667 11.375 7 11.375ZM7 10.2083C6.825 10.2083 6.70833 10.325 6.70833 10.5C6.70833 10.675 6.825 10.7917 7 10.7917C7.175 10.7917 7.29167 10.675 7.29167 10.5C7.29167 10.325 7.175 10.2083 7 10.2083Z" fill="#9A9AA9"/>
</svg>
