<svg width="20" height="21" viewBox="0 0 20 21" fill="none" xmlns="http://www.w3.org/2000/svg">
<path d="M17 2.4043H15V1.4043C15 1.13908 14.8946 0.884726 14.7071 0.69719C14.5196 0.509654 14.2652 0.404297 14 0.404297C13.7348 0.404297 13.4804 0.509654 13.2929 0.69719C13.1054 0.884726 13 1.13908 13 1.4043V2.4043H7V1.4043C7 1.13908 6.89464 0.884726 6.70711 0.69719C6.51957 0.509654 6.26522 0.404297 6 0.404297C5.73478 0.404297 5.48043 0.509654 5.29289 0.69719C5.10536 0.884726 5 1.13908 5 1.4043V2.4043H3C2.20435 2.4043 1.44129 2.72037 0.87868 3.28298C0.316071 3.84559 0 4.60865 0 5.4043V17.4043C0 18.1999 0.316071 18.963 0.87868 19.5256C1.44129 20.0882 2.20435 20.4043 3 20.4043H17C17.7956 20.4043 18.5587 20.0882 19.1213 19.5256C19.6839 18.963 20 18.1999 20 17.4043V5.4043C20 4.60865 19.6839 3.84559 19.1213 3.28298C18.5587 2.72037 17.7956 2.4043 17 2.4043ZM18 17.4043C18 17.6695 17.8946 17.9239 17.7071 18.1114C17.5196 18.2989 17.2652 18.4043 17 18.4043H3C2.73478 18.4043 2.48043 18.2989 2.29289 18.1114C2.10536 17.9239 2 17.6695 2 17.4043V10.4043H18V17.4043ZM18 8.4043H2V5.4043C2 5.13908 2.10536 4.88473 2.29289 4.69719C2.48043 4.50965 2.73478 4.4043 3 4.4043H5V5.4043C5 5.66951 5.10536 5.92387 5.29289 6.1114C5.48043 6.29894 5.73478 6.4043 6 6.4043C6.26522 6.4043 6.51957 6.29894 6.70711 6.1114C6.89464 5.92387 7 5.66951 7 5.4043V4.4043H13V5.4043C13 5.66951 13.1054 5.92387 13.2929 6.1114C13.4804 6.29894 13.7348 6.4043 14 6.4043C14.2652 6.4043 14.5196 6.29894 14.7071 6.1114C14.8946 5.92387 15 5.66951 15 5.4043V4.4043H17C17.2652 4.4043 17.5196 4.50965 17.7071 4.69719C17.8946 4.88473 18 5.13908 18 5.4043V8.4043Z" fill="#7E7F95"/>
</svg>
