<svg width="20" height="20" viewBox="0 0 20 20" fill="none" xmlns="http://www.w3.org/2000/svg">
<g clip-path="url(#clip0_8041_19521)">
<path d="M16.5796 4.32422H3.42042C3.18919 4.32422 3 4.51341 3 4.74464C3 4.97587 3.18919 5.16506 3.42042 5.16506H16.5796C16.8108 5.16506 17 4.97587 17 4.74464C17 4.51341 16.8108 4.32422 16.5796 4.32422Z" fill="white"/>
<path d="M16.5808 7.8125H7.37355C7.14231 7.8125 6.95312 8.00169 6.95312 8.23292C6.95312 8.46415 7.14231 8.65334 7.37355 8.65334H16.5808C16.812 8.65334 17.0012 8.46415 17.0012 8.23292C17.0012 8.00169 16.812 7.8125 16.5808 7.8125Z" fill="white"/>
<path d="M16.5796 11.3438H3.42042C3.18919 11.3438 3 11.5329 3 11.7642C3 11.9954 3.18919 12.1846 3.42042 12.1846H16.5796C16.8108 12.1846 17 11.9954 17 11.7642C17 11.5329 16.8108 11.3438 16.5796 11.3438Z" fill="white"/>
<path d="M16.5788 14.8359H10.6509C10.4197 14.8359 10.2305 15.0251 10.2305 15.2564C10.2305 15.4876 10.4197 15.6768 10.6509 15.6768H16.5788C16.81 15.6768 16.9992 15.4876 16.9992 15.2564C16.9992 15.0251 16.81 14.8359 16.5788 14.8359Z" fill="white"/>
</g>
<defs>
<clipPath id="clip0_8041_19521">
<rect width="14" height="14" fill="white" transform="translate(3 3)"/>
</clipPath>
</defs>
</svg>
