<svg width="24" height="24" viewBox="0 0 24 24" fill="none" xmlns="http://www.w3.org/2000/svg">
<g clip-path="url(#clip0_3476_34384)">
<path d="M20.75 7H3.25C2.56083 7 2 6.43917 2 5.75V3.25C2 2.56083 2.56083 2 3.25 2H20.75C21.4392 2 22 2.56083 22 3.25V5.75C22 6.43917 21.4392 7 20.75 7ZM3.25 2.83333C3.02083 2.83333 2.83333 3.02 2.83333 3.25V5.75C2.83333 5.98 3.02083 6.16667 3.25 6.16667H20.75C20.9792 6.16667 21.1667 5.98 21.1667 5.75V3.25C21.1667 3.02 20.9792 2.83333 20.75 2.83333H3.25Z" fill="white"/>
<path d="M20.75 14.5H3.25C2.56083 14.5 2 13.9392 2 13.25V10.75C2 10.0608 2.56083 9.5 3.25 9.5H20.75C21.4392 9.5 22 10.0608 22 10.75V13.25C22 13.9392 21.4392 14.5 20.75 14.5ZM3.25 10.3333C3.02083 10.3333 2.83333 10.52 2.83333 10.75V13.25C2.83333 13.48 3.02083 13.6667 3.25 13.6667H20.75C20.9792 13.6667 21.1667 13.48 21.1667 13.25V10.75C21.1667 10.52 20.9792 10.3333 20.75 10.3333H3.25Z" fill="white"/>
<path d="M20.75 22H3.25C2.56083 22 2 21.4392 2 20.75V18.25C2 17.5608 2.56083 17 3.25 17H20.75C21.4392 17 22 17.5608 22 18.25V20.75C22 21.4392 21.4392 22 20.75 22ZM3.25 17.8333C3.02083 17.8333 2.83333 18.02 2.83333 18.25V20.75C2.83333 20.98 3.02083 21.1667 3.25 21.1667H20.75C20.9792 21.1667 21.1667 20.98 21.1667 20.75V18.25C21.1667 18.02 20.9792 17.8333 20.75 17.8333H3.25Z" fill="white"/>
</g>
<defs>
<clipPath id="clip0_3476_34384">
<rect width="20" height="20" fill="white" transform="translate(2 2)"/>
</clipPath>
</defs>
</svg>
