<svg width="74" height="72" viewBox="0 0 74 72" fill="none" xmlns="http://www.w3.org/2000/svg">
<rect x="0.25" y="0.25" width="73.5" height="71.5" rx="4.75" fill="white" stroke="#9A9AA9" stroke-width="0.5"/>
<path d="M28.3333 24.3333C27.7587 24.3333 27.2076 24.5792 26.8013 25.0168C26.3949 25.4543 26.1667 26.0478 26.1667 26.6667V45.3333C26.1667 45.9522 26.3949 46.5457 26.8013 46.9832C27.2076 47.4208 27.7587 47.6667 28.3333 47.6667V39.5C28.3333 38.5717 28.6757 37.6815 29.2852 37.0251C29.8947 36.3687 30.7214 36 31.5833 36H42.4167C43.2786 36 44.1053 36.3687 44.7148 37.0251C45.3243 37.6815 45.6667 38.5717 45.6667 39.5V47.6667C46.2413 47.6667 46.7924 47.4208 47.1987 46.9832C47.6051 46.5457 47.8333 45.9522 47.8333 45.3333V30.4467C47.8332 29.8279 47.6049 29.2345 47.1985 28.797L43.6863 25.0147C43.2797 24.5779 42.7288 24.3328 42.1545 24.3333H41.3333V27.8333C41.3333 28.7616 40.9909 29.6518 40.3814 30.3082C39.7719 30.9646 38.9453 31.3333 38.0833 31.3333H33.75C32.888 31.3333 32.0614 30.9646 31.4519 30.3082C30.8424 29.6518 30.5 28.7616 30.5 27.8333V24.3333H28.3333ZM32.6667 24.3333V27.8333C32.6667 28.1428 32.7808 28.4395 32.984 28.6583C33.1871 28.8771 33.4627 29 33.75 29H38.0833C38.3707 29 38.6462 28.8771 38.8494 28.6583C39.0525 28.4395 39.1667 28.1428 39.1667 27.8333V24.3333H32.6667ZM43.5 47.6667V39.5C43.5 39.1906 43.3859 38.8938 43.1827 38.675C42.9795 38.4562 42.704 38.3333 42.4167 38.3333H31.5833C31.296 38.3333 31.0205 38.4562 30.8173 38.675C30.6141 38.8938 30.5 39.1906 30.5 39.5V47.6667H43.5ZM24 26.6667C24 25.429 24.4565 24.242 25.2692 23.3668C26.0819 22.4917 27.1841 22 28.3333 22H42.1545C43.3037 22.0003 44.4057 22.4921 45.2182 23.3673L48.7303 27.1497C49.543 28.0246 49.9998 29.2114 50 30.449V45.3333C50 46.571 49.5435 47.758 48.7308 48.6332C47.9181 49.5083 46.8159 50 45.6667 50H28.3333C27.1841 50 26.0819 49.5083 25.2692 48.6332C24.4565 47.758 24 46.571 24 45.3333V26.6667Z" fill="#585858"/>
</svg>
