<svg viewBox="0 0 21 21" fill="none" xmlns="http://www.w3.org/2000/svg">
<path d="M20.7114 19.2894L17.0014 15.6094C18.4415 13.8138 19.1389 11.5347 18.9502 9.24072C18.7615 6.94672 17.701 4.8122 15.9869 3.27606C14.2727 1.73992 12.0352 0.918926 9.73429 0.981887C7.43341 1.04485 5.24409 1.98698 3.61651 3.61456C1.98893 5.24214 1.0468 7.43145 0.98384 9.73234C0.920879 12.0332 1.74188 14.2708 3.27801 15.9849C4.81415 17.6991 6.94867 18.7595 9.24267 18.9482C11.5367 19.1369 13.8158 18.4395 15.6114 16.9994L19.2914 20.6794C19.3843 20.7731 19.4949 20.8475 19.6168 20.8983C19.7387 20.9491 19.8694 20.9752 20.0014 20.9752C20.1334 20.9752 20.2641 20.9491 20.3859 20.8983C20.5078 20.8475 20.6184 20.7731 20.7114 20.6794C20.8916 20.493 20.9924 20.2438 20.9924 19.9844C20.9924 19.7251 20.8916 19.4759 20.7114 19.2894ZM10.0014 16.9994C8.6169 16.9994 7.26352 16.5889 6.11238 15.8197C4.96123 15.0505 4.06403 13.9573 3.53421 12.6782C3.0044 11.3991 2.86578 9.99165 3.13587 8.63378C3.40597 7.27592 4.07265 6.02864 5.05162 5.04967C6.03059 4.0707 7.27787 3.40402 8.63574 3.13392C9.9936 2.86382 11.4011 3.00245 12.6802 3.53226C13.9592 4.06207 15.0525 4.95928 15.8217 6.11042C16.5908 7.26157 17.0014 8.61495 17.0014 9.99942C17.0014 11.8559 16.2639 13.6364 14.9511 14.9492C13.6384 16.2619 11.8579 16.9994 10.0014 16.9994Z" fill="#585858"/>
</svg>
