<svg width="20" height="20" viewBox="0 0 20 20" fill="none" xmlns="http://www.w3.org/2000/svg">
<g clip-path="url(#clip0_3476_34369)">
<path d="M18.75 5H1.25C0.560833 5 0 4.43917 0 3.75V1.25C0 0.560833 0.560833 0 1.25 0H18.75C19.4392 0 20 0.560833 20 1.25V3.75C20 4.43917 19.4392 5 18.75 5ZM1.25 0.833333C1.02 0.833333 0.833333 1.02 0.833333 1.25V3.75C0.833333 3.98 1.02 4.16667 1.25 4.16667H18.75C18.98 4.16667 19.1667 3.98 19.1667 3.75V1.25C19.1667 1.02 18.98 0.833333 18.75 0.833333H1.25Z" fill="white"/>
<path d="M7.91667 12.5003H1.25C0.560833 12.5003 0 11.9395 0 11.2503V7.91699C0 7.22783 0.560833 6.66699 1.25 6.66699H7.91667C8.60583 6.66699 9.16667 7.22783 9.16667 7.91699V11.2503C9.16667 11.9395 8.60583 12.5003 7.91667 12.5003ZM1.25 7.50033C1.02 7.50033 0.833333 7.68699 0.833333 7.91699V11.2503C0.833333 11.4803 1.02 11.667 1.25 11.667H7.91667C8.14667 11.667 8.33333 11.4803 8.33333 11.2503V7.91699C8.33333 7.68699 8.14667 7.50033 7.91667 7.50033H1.25Z" fill="white"/>
<path d="M7.91667 20.0003H1.25C0.560833 20.0003 0 19.4395 0 18.7503V15.417C0 14.7278 0.560833 14.167 1.25 14.167H7.91667C8.60583 14.167 9.16667 14.7278 9.16667 15.417V18.7503C9.16667 19.4395 8.60583 20.0003 7.91667 20.0003ZM1.25 15.0003C1.02 15.0003 0.833333 15.187 0.833333 15.417V18.7503C0.833333 18.9803 1.02 19.167 1.25 19.167H7.91667C8.14667 19.167 8.33333 18.9803 8.33333 18.7503V15.417C8.33333 15.187 8.14667 15.0003 7.91667 15.0003H1.25Z" fill="white"/>
<path d="M18.7526 12.5003H12.0859C11.3968 12.5003 10.8359 11.9395 10.8359 11.2503V7.91699C10.8359 7.22783 11.3968 6.66699 12.0859 6.66699H18.7526C19.4418 6.66699 20.0026 7.22783 20.0026 7.91699V11.2503C20.0026 11.9395 19.4418 12.5003 18.7526 12.5003ZM12.0859 7.50033C11.8559 7.50033 11.6693 7.68699 11.6693 7.91699V11.2503C11.6693 11.4803 11.8559 11.667 12.0859 11.667H18.7526C18.9826 11.667 19.1693 11.4803 19.1693 11.2503V7.91699C19.1693 7.68699 18.9826 7.50033 18.7526 7.50033H12.0859Z" fill="white"/>
<path d="M18.7526 20.0003H12.0859C11.3968 20.0003 10.8359 19.4395 10.8359 18.7503V15.417C10.8359 14.7278 11.3968 14.167 12.0859 14.167H18.7526C19.4418 14.167 20.0026 14.7278 20.0026 15.417V18.7503C20.0026 19.4395 19.4418 20.0003 18.7526 20.0003ZM12.0859 15.0003C11.8559 15.0003 11.6693 15.187 11.6693 15.417V18.7503C11.6693 18.9803 11.8559 19.167 12.0859 19.167H18.7526C18.9826 19.167 19.1693 18.9803 19.1693 18.7503V15.417C19.1693 15.187 18.9826 15.0003 18.7526 15.0003H12.0859Z" fill="white"/>
</g>
<defs>
<clipPath id="clip0_3476_34369">
<rect width="20" height="20" fill="white"/>
</clipPath>
</defs>
</svg>
