<svg width="24" height="24" viewBox="0 0 24 24" fill="none" xmlns="http://www.w3.org/2000/svg">
<path d="M23.6463 2.79928C23.1742 2.32721 22.4091 2.32738 21.9375 2.79945L11.0934 13.6453L6.09802 8.64973C5.62596 8.17782 4.86082 8.17766 4.38923 8.64957C3.91716 9.12148 3.91716 9.88662 4.38907 10.3584L10.239 16.2086C10.4657 16.4353 10.773 16.5626 11.0936 16.5626C11.414 16.5626 11.7215 16.4353 11.9481 16.2086L23.6466 4.50808C24.1182 4.03633 24.1182 3.27119 23.6463 2.79928Z" fill="#9A9AA9"/>
<path d="M21.0369 10.5439C20.3696 10.5439 19.8285 11.0848 19.8285 11.7523V20.7055H2.41674V3.29369H16.2034C16.8709 3.29369 17.4118 2.75283 17.4118 2.08532C17.4118 1.41798 16.8709 0.876953 16.2034 0.876953H1.20837C0.541027 0.876953 0 1.41782 0 2.08532V21.9139C0 22.5814 0.541027 23.1222 1.20837 23.1222H21.0369C21.7044 23.1222 22.2453 22.5814 22.2453 21.9139V11.7523C22.2453 11.0849 21.7044 10.5439 21.0369 10.5439Z" fill="#9A9AA9"/>
</svg>
