<svg height="147" viewBox="0 0 381 147" fill="none" xmlns="http://www.w3.org/2000/svg">
<mask id="mask0_7193_16728" style="mask-type:alpha" maskUnits="userSpaceOnUse" x="0" y="0" width="381" height="147">
<path opacity="0.95" d="M380.462 0H0V146.119H380.462V0Z" fill="#F4F4F4"/>
</mask>
<g mask="url(#mask0_7193_16728)">
<path d="M133.119 192.375C141.584 192.375 149.858 189.865 156.897 185.162C163.935 180.459 169.421 173.775 172.66 165.954C175.899 158.134 176.747 149.528 175.096 141.226C173.444 132.924 169.368 125.298 163.382 119.312C157.397 113.327 149.771 109.25 141.468 107.599C133.166 105.948 124.561 106.795 116.74 110.034C108.92 113.274 102.235 118.76 97.5325 125.798C92.8297 132.836 90.3195 141.111 90.3195 149.576V192.375" stroke="#44AB96" stroke-width="10.0602" stroke-miterlimit="10" stroke-linecap="round" stroke-linejoin="round"/>
<path d="M331.111 77.2207C354.748 77.2207 373.91 58.3391 373.91 35.0528C373.91 11.7665 354.748 -7.11043 331.111 -7.11043C307.474 -7.11043 288.312 11.7665 288.312 35.0528V207.258" stroke="#DA774A" stroke-width="10.0602" stroke-miterlimit="10" stroke-linecap="round" stroke-linejoin="round"/>
<path d="M-134.992 207.259C-134.992 249.601 -101.217 283.926 -59.5524 283.926C-17.8881 283.926 15.8848 249.601 15.8848 207.259C15.8848 164.917 -17.8909 130.592 -59.5551 130.592L-257.286 130.592" stroke="#FFB017" stroke-width="10.0602" stroke-miterlimit="10" stroke-linecap="round" stroke-linejoin="round"/>
<path d="M179.267 -147.786C185.078 -147.791 190.833 -146.651 196.204 -144.432C201.574 -142.213 206.455 -138.958 210.568 -134.852C214.68 -130.746 217.944 -125.871 220.172 -120.504C222.4 -115.137 223.55 -109.384 223.555 -103.573L223.555 22.3685C223.55 28.1796 222.4 33.9328 220.172 39.2997C217.944 44.6667 214.68 49.5421 210.568 53.6477C206.455 57.7533 201.574 61.0087 196.204 63.228C190.833 65.4473 185.078 66.587 179.267 66.582V66.582C173.456 66.587 167.7 65.4473 162.33 63.228C156.959 61.0087 152.078 57.7533 147.966 53.6477C143.853 49.5421 140.59 44.6667 138.361 39.2997C136.133 33.9328 134.984 28.1796 134.979 22.3685V-103.573C134.984 -109.384 136.133 -115.137 138.361 -120.504C140.59 -125.871 143.853 -130.746 147.966 -134.852C152.078 -138.958 156.959 -142.213 162.33 -144.432C167.7 -146.651 173.456 -147.791 179.267 -147.786V-147.786Z" stroke="#FFB017" stroke-width="10.0602" stroke-miterlimit="10" stroke-linecap="round" stroke-linejoin="round"/>
<path d="M-58.5479 -21.25L-21.9362 -21.25C-10.1775 -21.1194 1.05515 -16.3566 9.32397 -7.99537C17.5928 0.36584 22.2305 11.6508 22.2305 23.4101C22.2305 35.1695 17.5928 46.4545 9.32397 54.8157C1.05515 63.1769 -10.1775 67.9397 -21.9362 68.0703L-95.1586 68.0703C-101.015 68.0611 -106.811 66.8986 -112.218 64.6491C-117.625 62.3996 -122.535 59.1072 -126.67 54.9598C-130.804 50.8125 -134.081 45.8914 -136.313 40.4776C-138.545 35.0638 -139.689 29.2634 -139.68 23.4074V19.4401C-139.688 14.1046 -138.646 8.81963 -136.612 3.88705C-134.577 -1.04554 -131.592 -5.52916 -127.825 -9.30785C-124.058 -13.0865 -119.584 -16.0863 -114.657 -18.1358C-109.731 -20.1853 -104.449 -21.2444 -99.1139 -21.2528" stroke="#4484AB" stroke-width="10.0602" stroke-miterlimit="10" stroke-linecap="round" stroke-linejoin="round"/>
<path d="M344.51 257.875V120.917" stroke="#44AB96" stroke-width="10.0602" stroke-miterlimit="10" stroke-linecap="round" stroke-linejoin="round"/>
<path d="M79.332 62.8594V15.0094C79.3474 -12.9625 68.2507 -39.7948 48.483 -59.5853C28.7153 -79.3757 1.89569 -90.5033 -26.0762 -90.5201L-68.0648 -90.5201C-84.8931 -90.5417 -101.025 -97.2415 -112.917 -109.148C-124.809 -121.054 -131.49 -137.194 -131.492 -154.022V-154.022" stroke="#DA774A" stroke-width="10.0602" stroke-miterlimit="10" stroke-linecap="round" stroke-linejoin="round"/>
</g>
<path opacity="0.9" d="M380.462 0H0V146.119H380.462V0Z" fill="#1E003E"/>
<path d="M165.445 71.0859C165.445 70.0615 165.084 69.278 164.361 68.7357C163.637 68.1812 162.336 67.6027 160.456 67.0001C158.575 66.3854 157.087 65.7827 155.99 65.1921C153.001 63.5771 151.506 61.4015 151.506 58.6656C151.506 57.2433 151.904 55.9778 152.7 54.8689C153.507 53.748 154.658 52.8742 156.153 52.2474C157.659 51.6207 159.347 51.3073 161.215 51.3073C163.095 51.3073 164.77 51.6508 166.241 52.3378C167.711 53.0128 168.85 53.971 169.658 55.2124C170.477 56.4539 170.887 57.864 170.887 59.443H165.463C165.463 58.2377 165.084 57.3036 164.324 56.6407C163.565 55.9657 162.498 55.6283 161.124 55.6283C159.799 55.6283 158.768 55.9115 158.033 56.478C157.298 57.0324 156.93 57.7676 156.93 58.6836C156.93 59.5394 157.358 60.2565 158.214 60.8351C159.082 61.4136 160.353 61.956 162.028 62.4622C165.114 63.3902 167.362 64.5413 168.772 65.9153C170.182 67.2893 170.887 69.0008 170.887 71.0498C170.887 73.3278 170.025 75.1176 168.302 76.4193C166.578 77.7089 164.258 78.3538 161.341 78.3538C159.317 78.3538 157.472 77.9862 155.809 77.2509C154.146 76.5037 152.874 75.4852 151.994 74.1956C151.127 72.9059 150.693 71.4114 150.693 69.7119H156.135C156.135 72.6166 157.87 74.069 161.341 74.069C162.631 74.069 163.637 73.8099 164.361 73.2916C165.084 72.7613 165.445 72.0261 165.445 71.0859ZM181.337 70.1458L179.457 72.0261V77.9922H174.232V50.2226H179.457V65.608L180.469 64.3063L185.477 58.4305H191.751L184.682 66.5842L192.365 77.9922H186.363L181.337 70.1458ZM205.003 63.33C204.291 63.2336 203.665 63.1853 203.122 63.1853C201.146 63.1853 199.85 63.8543 199.235 65.1921V77.9922H194.01V58.4305H198.946L199.091 60.7627C200.139 58.9669 201.592 58.0689 203.448 58.0689C204.026 58.0689 204.569 58.1473 205.075 58.304L205.003 63.33ZM218.327 77.9922C218.086 77.5221 217.911 76.9376 217.803 76.2385C216.537 77.6487 214.892 78.3538 212.867 78.3538C210.951 78.3538 209.36 77.7993 208.094 76.6905C206.841 75.5816 206.214 74.1835 206.214 72.4961C206.214 70.423 206.979 68.8321 208.51 67.7232C210.053 66.6144 212.276 66.0539 215.181 66.0419H217.586V64.9209C217.586 64.017 217.351 63.2938 216.881 62.7514C216.423 62.2091 215.693 61.9379 214.693 61.9379C213.813 61.9379 213.12 62.1488 212.614 62.5707C212.12 62.9925 211.873 63.571 211.873 64.3063H206.648C206.648 63.1733 206.997 62.1247 207.696 61.1605C208.395 60.1963 209.384 59.443 210.661 58.9006C211.939 58.3462 213.373 58.0689 214.964 58.0689C217.375 58.0689 219.285 58.6776 220.695 59.8949C222.118 61.1002 222.829 62.7997 222.829 64.9933V73.4724C222.841 75.3285 223.1 76.7327 223.606 77.6848V77.9922H218.327ZM214.006 74.3583C214.777 74.3583 215.489 74.1895 216.139 73.8521C216.79 73.5025 217.272 73.0385 217.586 72.46V69.0972H215.633C213.018 69.0972 211.626 70.0012 211.457 71.8091L211.439 72.1165C211.439 72.7673 211.668 73.3037 212.126 73.7255C212.584 74.1474 213.211 74.3583 214.006 74.3583ZM226.083 68.0667C226.083 65.0656 226.794 62.649 228.216 60.817C229.651 58.985 231.579 58.0689 234.002 58.0689C236.147 58.0689 237.816 58.8042 239.01 60.2746L239.226 58.4305H243.963V77.3413C243.963 79.0528 243.571 80.5414 242.788 81.8069C242.017 83.0724 240.926 84.0367 239.516 84.6996C238.106 85.3625 236.454 85.6939 234.562 85.6939C233.128 85.6939 231.73 85.4046 230.368 84.8261C229.006 84.2596 227.975 83.5244 227.276 82.6205L229.59 79.4385C230.892 80.8969 232.471 81.6261 234.327 81.6261C235.713 81.6261 236.792 81.2525 237.563 80.5052C238.335 79.77 238.72 78.7214 238.72 77.3594V76.3108C237.515 77.6728 235.93 78.3538 233.965 78.3538C231.615 78.3538 229.711 77.4378 228.252 75.6057C226.806 73.7617 226.083 71.321 226.083 68.2837V68.0667ZM231.308 68.4464C231.308 70.2181 231.663 71.6102 232.374 72.6227C233.086 73.6231 234.062 74.1232 235.303 74.1232C236.894 74.1232 238.033 73.5266 238.72 72.3334V64.1074C238.021 62.9142 236.894 62.3175 235.339 62.3175C234.086 62.3175 233.098 62.8298 232.374 63.8543C231.663 64.8788 231.308 66.4095 231.308 68.4464ZM247.236 68.0667C247.236 65.0656 247.947 62.649 249.369 60.817C250.803 58.985 252.732 58.0689 255.154 58.0689C257.3 58.0689 258.969 58.8042 260.162 60.2746L260.379 58.4305H265.116V77.3413C265.116 79.0528 264.724 80.5414 263.941 81.8069C263.169 83.0724 262.079 84.0367 260.668 84.6996C259.258 85.3625 257.607 85.6939 255.715 85.6939C254.28 85.6939 252.882 85.4046 251.52 84.8261C250.158 84.2596 249.128 83.5244 248.429 82.6205L250.743 79.4385C252.045 80.8969 253.624 81.6261 255.48 81.6261C256.866 81.6261 257.944 81.2525 258.716 80.5052C259.487 79.77 259.873 78.7214 259.873 77.3594V76.3108C258.668 77.6728 257.083 78.3538 255.118 78.3538C252.768 78.3538 250.863 77.4378 249.405 75.6057C247.959 73.7617 247.236 71.321 247.236 68.2837V68.0667ZM252.46 68.4464C252.46 70.2181 252.816 71.6102 253.527 72.6227C254.238 73.6231 255.214 74.1232 256.456 74.1232C258.047 74.1232 259.186 73.5266 259.873 72.3334V64.1074C259.174 62.9142 258.047 62.3175 256.492 62.3175C255.239 62.3175 254.25 62.8298 253.527 63.8543C252.816 64.8788 252.46 66.4095 252.46 68.4464ZM274.662 77.9922H269.419V50.2226H274.662V77.9922ZM287.986 78.3538C285.117 78.3538 282.779 77.4739 280.971 75.7142C279.175 73.9545 278.277 71.6102 278.277 68.6814V68.1752C278.277 66.2106 278.657 64.4569 279.416 62.9142C280.176 61.3594 281.248 60.1661 282.635 59.3345C284.033 58.4908 285.624 58.0689 287.407 58.0689C290.083 58.0689 292.186 58.9126 293.717 60.6C295.26 62.2874 296.031 64.6799 296.031 67.7775V69.9108H283.575C283.743 71.1884 284.25 72.2129 285.093 72.9843C285.949 73.7556 287.028 74.1413 288.33 74.1413C290.342 74.1413 291.915 73.4121 293.048 71.9537L295.615 74.8283C294.832 75.9372 293.771 76.805 292.433 77.4317C291.096 78.0464 289.613 78.3538 287.986 78.3538ZM287.389 62.2995C286.353 62.2995 285.509 62.649 284.858 63.3481C284.22 64.0471 283.81 65.0475 283.629 66.3492H290.897V65.9334C290.873 64.7763 290.559 63.8844 289.957 63.2577C289.354 62.6189 288.498 62.2995 287.389 62.2995Z" fill="white"/>
<path d="M164.361 68.7357L163.973 69.2414L163.978 69.2455L164.361 68.7357ZM160.456 67.0001L160.257 67.6058L160.261 67.6069L160.456 67.0001ZM155.99 65.1921L155.687 65.7528L155.688 65.7532L155.99 65.1921ZM152.7 54.8689L152.182 54.4964L152.182 54.4975L152.7 54.8689ZM156.153 52.2474L155.908 51.659L155.906 51.6597L156.153 52.2474ZM166.241 52.3378L165.971 52.9152L165.975 52.917L166.241 52.3378ZM169.658 55.2124L169.124 55.5599L169.126 55.5635L169.658 55.2124ZM170.887 59.443V60.0802H171.524V59.443H170.887ZM165.463 59.443H164.826V60.0802H165.463V59.443ZM164.324 56.6407L163.901 57.117L163.905 57.1208L164.324 56.6407ZM158.033 56.478L158.417 56.9868L158.422 56.9828L158.033 56.478ZM158.214 60.8351L157.857 61.363L157.86 61.3653L158.214 60.8351ZM162.028 62.4622L161.844 63.0722L161.845 63.0725L162.028 62.4622ZM168.302 76.4193L168.684 76.9296L168.686 76.9278L168.302 76.4193ZM155.809 77.2509L155.548 77.8323L155.552 77.8338L155.809 77.2509ZM151.994 74.1956L151.466 74.5513L151.468 74.5547L151.994 74.1956ZM150.693 69.7119V69.0746H150.055V69.7119H150.693ZM156.135 69.7119H156.772V69.0746H156.135V69.7119ZM164.361 73.2916L164.732 73.8096L164.737 73.8055L164.361 73.2916ZM166.083 71.0859C166.083 69.8915 165.65 68.9058 164.743 68.2258L163.978 69.2455C164.518 69.6503 164.808 70.2314 164.808 71.0859H166.083ZM164.748 68.2299C163.931 67.6036 162.538 66.9983 160.65 66.3932L160.261 67.6069C162.134 68.2071 163.344 68.7589 163.973 69.2414L164.748 68.2299ZM160.654 66.3943C158.791 65.7854 157.342 65.1964 156.292 64.631L155.688 65.7532C156.831 66.369 158.36 66.9853 160.257 67.6058L160.654 66.3943ZM156.293 64.6315C153.451 63.0959 152.144 61.1073 152.144 58.6656H150.869C150.869 61.6957 152.551 64.0583 155.687 65.7528L156.293 64.6315ZM152.144 58.6656C152.144 57.3706 152.503 56.2362 153.217 55.2404L152.182 54.4975C151.305 55.7194 150.869 57.116 150.869 58.6656H152.144ZM153.217 55.2414C153.944 54.2313 154.994 53.4244 156.399 52.8351L155.906 51.6597C154.322 52.3239 153.07 53.2648 152.182 54.4964L153.217 55.2414ZM156.397 52.8358C157.816 52.2457 159.419 51.9446 161.215 51.9446V50.67C159.275 50.67 157.503 50.9957 155.908 51.659L156.397 52.8358ZM161.215 51.9446C163.017 51.9446 164.598 52.2735 165.971 52.9152L166.511 51.7605C164.943 51.0282 163.174 50.67 161.215 50.67V51.9446ZM165.975 52.917C167.346 53.5465 168.388 54.4288 169.124 55.5599L170.192 54.8649C169.313 53.5132 168.076 52.4791 166.507 51.7587L165.975 52.917ZM169.126 55.5635C169.872 56.6943 170.25 57.9808 170.25 59.443H171.524C171.524 57.7473 171.082 56.2135 170.19 54.8613L169.126 55.5635ZM170.887 58.8057H165.463V60.0802H170.887V58.8057ZM166.101 59.443C166.101 58.0931 165.669 56.9683 164.744 56.1606L163.905 57.1208C164.499 57.6389 164.826 58.3822 164.826 59.443H166.101ZM164.748 56.1644C163.836 55.354 162.599 54.991 161.124 54.991V56.2655C162.398 56.2655 163.294 56.5775 163.901 57.117L164.748 56.1644ZM161.124 54.991C159.717 54.991 158.53 55.2908 157.644 55.9732L158.422 56.9828C159.007 56.5322 159.881 56.2655 161.124 56.2655V54.991ZM157.649 55.9692C156.755 56.6432 156.293 57.5664 156.293 58.6836H157.567C157.567 57.9689 157.84 57.4216 158.417 56.9868L157.649 55.9692ZM156.293 58.6836C156.293 59.7966 156.867 60.694 157.857 61.363L158.571 60.3071C157.849 59.819 157.567 59.2821 157.567 58.6836H156.293ZM157.86 61.3653C158.804 61.9942 160.144 62.5584 161.844 63.0722L162.213 61.8521C160.563 61.3535 159.359 60.8329 158.567 60.3048L157.86 61.3653ZM161.845 63.0725C164.888 63.9877 167.023 65.1009 168.327 66.3717L169.217 65.4589C167.701 63.9816 165.34 62.7928 162.212 61.8519L161.845 63.0725ZM168.327 66.3717C169.609 67.6204 170.25 69.1649 170.25 71.0498H171.524C171.524 68.8368 170.755 66.9582 169.217 65.4589L168.327 66.3717ZM170.25 71.0498C170.25 73.1407 169.472 74.737 167.918 75.9108L168.686 76.9278C170.579 75.4982 171.524 73.5149 171.524 71.0498H170.25ZM167.92 75.909C166.34 77.0914 164.169 77.7165 161.341 77.7165V78.9911C164.348 78.9911 166.817 78.3265 168.684 76.9296L167.92 75.909ZM161.341 77.7165C159.395 77.7165 157.64 77.3635 156.067 76.6681L155.552 77.8338C157.305 78.6088 159.238 78.9911 161.341 78.9911V77.7165ZM156.07 76.6696C154.496 75.9623 153.324 75.0136 152.521 73.8364L151.468 74.5547C152.425 75.9568 153.796 77.045 155.548 77.8323L156.07 76.6696ZM152.523 73.8398C151.733 72.6651 151.33 71.297 151.33 69.7119H150.055C150.055 71.5258 150.521 73.1467 151.466 74.5513L152.523 73.8398ZM150.693 70.3492H156.135V69.0746H150.693V70.3492ZM155.497 69.7119C155.497 71.2953 155.976 72.5885 157.027 73.4685C158.057 74.3302 159.533 74.7063 161.341 74.7063V73.4317C159.679 73.4317 158.551 73.0816 157.845 72.491C157.161 71.9186 156.772 71.0333 156.772 69.7119H155.497ZM161.341 74.7063C162.707 74.7063 163.862 74.4332 164.732 73.8096L163.989 72.7736C163.413 73.1865 162.555 73.4317 161.341 73.4317V74.7063ZM164.737 73.8055C165.633 73.1485 166.083 72.2175 166.083 71.0859H164.808C164.808 71.8346 164.534 72.3741 163.984 72.7777L164.737 73.8055ZM181.337 70.1458L181.874 69.8021L181.446 69.1352L180.886 69.6952L181.337 70.1458ZM179.457 72.0261L179.006 71.5754L178.819 71.7621V72.0261H179.457ZM179.457 77.9922V78.6295H180.094V77.9922H179.457ZM174.232 77.9922H173.595V78.6295H174.232V77.9922ZM174.232 50.2226V49.5853H173.595V50.2226H174.232ZM179.457 50.2226H180.094V49.5853H179.457V50.2226ZM179.457 65.608H178.819V67.4653L179.96 65.9992L179.457 65.608ZM180.469 64.3063L179.984 63.8929L179.975 63.9037L179.966 63.915L180.469 64.3063ZM185.477 58.4305V57.7932H185.183L184.992 58.0171L185.477 58.4305ZM191.751 58.4305L192.232 58.848L193.147 57.7932H191.751V58.4305ZM184.682 66.5842L184.2 66.1668L183.88 66.5355L184.153 66.9402L184.682 66.5842ZM192.365 77.9922V78.6295H193.563L192.894 77.6362L192.365 77.9922ZM186.363 77.9922L185.826 78.3359L186.014 78.6295H186.363V77.9922ZM180.886 69.6952L179.006 71.5754L179.907 72.4767L181.788 70.5965L180.886 69.6952ZM178.819 72.0261V77.9922H180.094V72.0261H178.819ZM179.457 77.3549H174.232V78.6295H179.457V77.3549ZM174.869 77.9922V50.2226H173.595V77.9922H174.869ZM174.232 50.8599H179.457V49.5853H174.232V50.8599ZM178.819 50.2226V65.608H180.094V50.2226H178.819ZM179.96 65.9992L180.972 64.6975L179.966 63.915L178.954 65.2167L179.96 65.9992ZM180.954 64.7196L185.962 58.8439L184.992 58.0171L179.984 63.8929L180.954 64.7196ZM185.477 59.0678H191.751V57.7932H185.477V59.0678ZM191.269 58.0131L184.2 66.1668L185.163 67.0017L192.232 58.848L191.269 58.0131ZM184.153 66.9402L191.837 78.3482L192.894 77.6362L185.21 66.2282L184.153 66.9402ZM192.365 77.3549H186.363V78.6295H192.365V77.3549ZM186.9 77.6484L181.874 69.8021L180.8 70.4896L185.826 78.3359L186.9 77.6484ZM205.003 63.33L204.917 63.9615L205.629 64.0581L205.64 63.3391L205.003 63.33ZM199.235 65.1921L198.656 64.9261L198.598 65.0527V65.1921H199.235ZM199.235 77.9922V78.6295H199.873V77.9922H199.235ZM194.01 77.9922H193.373V78.6295H194.01V77.9922ZM194.01 58.4305V57.7932H193.373V58.4305H194.01ZM198.946 58.4305L199.582 58.3911L199.545 57.7932H198.946V58.4305ZM199.091 60.7627L198.455 60.8022L198.584 62.8938L199.641 61.0841L199.091 60.7627ZM205.075 58.304L205.712 58.3131L205.719 57.8362L205.263 57.6952L205.075 58.304ZM205.088 62.6985C204.357 62.5994 203.701 62.5481 203.122 62.5481V63.8226C203.629 63.8226 204.226 63.8678 204.917 63.9615L205.088 62.6985ZM203.122 62.5481C200.998 62.5481 199.411 63.2826 198.656 64.9261L199.814 65.4582C200.289 64.4259 201.294 63.8226 203.122 63.8226V62.5481ZM198.598 65.1921V77.9922H199.873V65.1921H198.598ZM199.235 77.3549H194.01V78.6295H199.235V77.3549ZM194.648 77.9922V58.4305H193.373V77.9922H194.648ZM194.01 59.0678H198.946V57.7932H194.01V59.0678ZM198.31 58.47L198.455 60.8022L199.727 60.7233L199.582 58.3911L198.31 58.47ZM199.641 61.0841C200.592 59.4555 201.849 58.7062 203.448 58.7062V57.4317C201.334 57.4317 199.687 58.4782 198.54 60.4414L199.641 61.0841ZM203.448 58.7062C203.968 58.7062 204.447 58.7766 204.886 58.9128L205.263 57.6952C204.691 57.518 204.084 57.4317 203.448 57.4317V58.7062ZM204.438 58.2948L204.365 63.3208L205.64 63.3391L205.712 58.3131L204.438 58.2948ZM218.327 77.9922L217.76 78.283L217.938 78.6295H218.327V77.9922ZM217.803 76.2385L218.432 76.1408L218.226 74.8123L217.328 75.8129L217.803 76.2385ZM208.094 76.6905L207.672 77.1678L207.674 77.1698L208.094 76.6905ZM208.51 67.7232L208.138 67.2057L208.136 67.2071L208.51 67.7232ZM215.181 66.0419V65.4046L215.179 65.4046L215.181 66.0419ZM217.586 66.0419V66.6791H218.223V66.0419H217.586ZM216.881 62.7514L216.394 63.1626L216.399 63.1688L216.881 62.7514ZM212.614 62.5707L212.206 62.081L212.2 62.086L212.614 62.5707ZM211.873 64.3063V64.9435H212.51V64.3063H211.873ZM206.648 64.3063H206.011V64.9435H206.648V64.3063ZM207.696 61.1605L208.212 61.5345L207.696 61.1605ZM210.661 58.9006L210.91 59.4872L210.915 59.4852L210.661 58.9006ZM220.695 59.8949L220.279 60.3774L220.283 60.3811L220.695 59.8949ZM222.829 73.4724H222.191L222.191 73.4765L222.829 73.4724ZM223.606 77.6848H224.243V77.526L224.169 77.3857L223.606 77.6848ZM223.606 77.9922V78.6295H224.243V77.9922H223.606ZM216.139 73.8521L216.433 74.4179L216.441 74.4135L216.139 73.8521ZM217.586 72.46L218.146 72.7635L218.223 72.6215V72.46H217.586ZM217.586 69.0972H218.223V68.46H217.586V69.0972ZM211.457 71.8091L210.822 71.7499L210.821 71.7608L210.821 71.7717L211.457 71.8091ZM211.439 72.1165L210.803 72.079L210.802 72.0977V72.1165H211.439ZM218.894 77.7014C218.693 77.3085 218.534 76.7939 218.432 76.1408L217.173 76.3362C217.289 77.0813 217.479 77.7357 217.76 78.283L218.894 77.7014ZM217.328 75.8129C216.193 77.0783 214.725 77.7165 212.867 77.7165V78.9911C215.059 78.9911 216.881 78.2191 218.277 76.6642L217.328 75.8129ZM212.867 77.7165C211.082 77.7165 209.647 77.2041 208.514 76.2112L207.674 77.1698C209.072 78.3946 210.819 78.9911 212.867 78.9911V77.7165ZM208.516 76.2132C207.401 75.2264 206.851 74.0027 206.851 72.4961H205.577C205.577 74.3643 206.28 75.9368 207.672 77.1678L208.516 76.2132ZM206.851 72.4961C206.851 70.6044 207.536 69.2154 208.884 68.2393L208.136 67.2071C206.422 68.4487 205.577 70.2417 205.577 72.4961H206.851ZM208.882 68.2407C210.274 67.2403 212.346 66.6909 215.184 66.6791L215.179 65.4046C212.207 65.4169 209.832 65.9884 208.138 67.2057L208.882 68.2407ZM215.181 66.6791H217.586V65.4046H215.181V66.6791ZM218.223 66.0419V64.9209H216.948V66.0419H218.223ZM218.223 64.9209C218.223 63.9047 217.957 63.02 217.362 62.3341L216.399 63.1688C216.745 63.5677 216.948 64.1293 216.948 64.9209H218.223ZM217.368 62.3403C216.745 61.603 215.801 61.3006 214.693 61.3006V62.5752C215.586 62.5752 216.1 62.8151 216.394 63.1626L217.368 62.3403ZM214.693 61.3006C213.714 61.3006 212.86 61.5359 212.206 62.0811L213.022 63.0602C213.38 62.7617 213.912 62.5752 214.693 62.5752V61.3006ZM212.2 62.086C211.545 62.6456 211.235 63.412 211.235 64.3063H212.51C212.51 63.7301 212.695 63.3394 213.028 63.0553L212.2 62.086ZM211.873 63.669H206.648V64.9435H211.873V63.669ZM207.285 64.3063C207.285 63.3148 207.588 62.3959 208.212 61.5345L207.18 60.7864C206.407 61.8535 206.011 63.0318 206.011 64.3063H207.285ZM208.212 61.5345C208.833 60.6787 209.722 59.9919 210.91 59.4872L210.412 58.314C209.046 58.894 207.958 59.7138 207.18 60.7864L208.212 61.5345ZM210.915 59.4852C212.102 58.9701 213.448 58.7062 214.964 58.7062V57.4317C213.298 57.4317 211.776 57.7222 210.408 58.316L210.915 59.4852ZM214.964 58.7062C217.268 58.7062 219.015 59.2863 220.279 60.3773L221.112 59.4125C219.555 58.0689 217.482 57.4317 214.964 57.4317V58.7062ZM220.283 60.3811C221.537 61.4435 222.191 62.9503 222.191 64.9933H223.466C223.466 62.649 222.698 60.757 221.107 59.4088L220.283 60.3811ZM222.191 64.9933V73.4724H223.466V64.9933H222.191ZM222.191 73.4765C222.204 75.3711 222.466 76.8974 223.043 77.984L224.169 77.3857C223.734 76.568 223.478 75.2859 223.466 73.4683L222.191 73.4765ZM222.969 77.6848V77.9922H224.243V77.6848H222.969ZM223.606 77.3549H218.327V78.6295H223.606V77.3549ZM214.006 74.9956C214.874 74.9956 215.686 74.8047 216.433 74.4178L215.846 73.2863C215.291 73.5743 214.681 73.721 214.006 73.721V74.9956ZM216.441 74.4135C217.187 74.0126 217.766 73.4645 218.146 72.7635L217.025 72.1564C216.778 72.6125 216.393 72.9925 215.838 73.2906L216.441 74.4135ZM218.223 72.46V69.0972H216.948V72.46H218.223ZM217.586 68.46H215.633V69.7345H217.586V68.46ZM215.633 68.46C214.267 68.46 213.123 68.6933 212.28 69.2407C211.404 69.8097 210.923 70.6728 210.822 71.7499L212.091 71.8683C212.16 71.1375 212.459 70.6446 212.975 70.3097C213.524 69.9531 214.384 69.7345 215.633 69.7345V68.46ZM210.821 71.7717L210.803 72.079L212.075 72.1539L212.093 71.8465L210.821 71.7717ZM210.802 72.1165C210.802 72.9363 211.098 73.6457 211.694 74.1943L212.558 73.2568C212.237 72.9616 212.076 72.5983 212.076 72.1165H210.802ZM211.694 74.1943C212.3 74.752 213.097 74.9956 214.006 74.9956V73.721C213.325 73.721 212.868 73.5427 212.558 73.2568L211.694 74.1943ZM228.216 60.817L227.714 60.4241L227.713 60.4262L228.216 60.817ZM239.01 60.2746L238.515 60.6762L239.466 61.8485L239.642 60.3491L239.01 60.2746ZM239.226 58.4305V57.7932H238.66L238.594 58.3561L239.226 58.4305ZM243.963 58.4305H244.6V57.7932H243.963V58.4305ZM242.788 81.8069L242.246 81.4714L242.244 81.4752L242.788 81.8069ZM230.368 84.8261L230.617 84.2395L230.612 84.2377L230.368 84.8261ZM227.276 82.6205L226.761 82.2456L226.48 82.6322L226.772 83.0103L227.276 82.6205ZM229.59 79.4385L230.066 79.0142L229.54 78.4247L229.075 79.0637L229.59 79.4385ZM237.563 80.5052L237.123 80.0439L237.12 80.0475L237.563 80.5052ZM238.72 76.3108H239.358V74.6291L238.243 75.8885L238.72 76.3108ZM228.252 75.6057L227.751 75.999L227.754 76.0026L228.252 75.6057ZM232.374 72.6227L231.853 72.989L231.855 72.9919L232.374 72.6227ZM238.72 72.3334L239.273 72.6514L239.358 72.5038V72.3334H238.72ZM238.72 64.1074H239.358V63.9345L239.27 63.7852L238.72 64.1074ZM232.374 63.8543L231.854 63.4868L231.851 63.4909L232.374 63.8543ZM226.72 68.0667C226.72 65.1652 227.407 62.8989 228.72 61.2078L227.713 60.4262C226.181 62.3991 225.446 64.966 225.446 68.0667H226.72ZM228.718 61.2098C230.026 59.5393 231.766 58.7062 234.002 58.7062V57.4317C231.392 57.4317 229.275 58.4306 227.714 60.4241L228.718 61.2098ZM234.002 58.7062C235.984 58.7062 237.46 59.3759 238.515 60.6762L239.504 59.873C238.173 58.2325 236.31 57.4317 234.002 57.4317V58.7062ZM239.642 60.3491L239.859 58.505L238.594 58.3561L238.377 60.2001L239.642 60.3491ZM239.226 59.0678H243.963V57.7932H239.226V59.0678ZM243.326 58.4305V77.3413H244.6V58.4305H243.326ZM243.326 77.3413C243.326 78.9524 242.958 80.3211 242.246 81.4715L243.33 82.1423C244.185 80.7616 244.6 79.1532 244.6 77.3413H243.326ZM242.244 81.4752C241.541 82.6284 240.548 83.5102 239.245 84.1228L239.787 85.2763C241.304 84.5631 242.492 83.5164 243.332 82.1386L242.244 81.4752ZM239.245 84.1228C237.935 84.7382 236.38 85.0566 234.562 85.0566V86.3312C236.528 86.3312 238.276 85.9867 239.787 85.2763L239.245 84.1228ZM234.562 85.0566C233.216 85.0566 231.903 84.7857 230.617 84.2396L230.119 85.4127C231.557 86.0236 233.039 86.3312 234.562 86.3312V85.0566ZM230.612 84.2377C229.324 83.7017 228.395 83.025 227.78 82.2306L226.772 83.0103C227.556 84.0238 228.688 84.8176 230.123 85.4145L230.612 84.2377ZM227.792 82.9953L230.106 79.8134L229.075 79.0637L226.761 82.2456L227.792 82.9953ZM229.115 79.8629C230.53 81.4486 232.279 82.2634 234.327 82.2634V80.9888C232.663 80.9888 231.254 80.3452 230.066 79.0142L229.115 79.8629ZM234.327 82.2634C235.829 82.2634 237.085 81.856 238.007 80.9629L237.12 80.0475C236.499 80.6489 235.598 80.9888 234.327 80.9888V82.2634ZM238.003 80.9665C238.933 80.0797 239.358 78.8445 239.358 77.3594H238.083C238.083 78.5983 237.736 79.4602 237.123 80.0439L238.003 80.9665ZM239.358 77.3594V76.3108H238.083V77.3594H239.358ZM238.243 75.8885C237.169 77.1019 235.764 77.7165 233.965 77.7165V78.9911C236.096 78.9911 237.861 78.2437 239.197 76.7332L238.243 75.8885ZM233.965 77.7165C231.808 77.7165 230.088 76.8883 228.751 75.2088L227.754 76.0026C229.334 77.9872 231.422 78.9911 233.965 78.9911V77.7165ZM228.754 75.2124C227.419 73.51 226.72 71.2209 226.72 68.2837H225.446C225.446 71.421 226.194 74.0133 227.751 75.999L228.754 75.2124ZM226.72 68.2837V68.0667H225.446V68.2837H226.72ZM230.671 68.4464C230.671 70.2948 231.04 71.832 231.853 72.989L232.896 72.2564C232.286 71.3885 231.945 70.1414 231.945 68.4464H230.671ZM231.855 72.9919C232.687 74.1627 233.858 74.7605 235.303 74.7605V73.486C234.265 73.486 233.484 73.0834 232.894 72.2534L231.855 72.9919ZM235.303 74.7605C237.08 74.7605 238.452 74.0763 239.273 72.6514L238.168 72.0154C237.614 72.9769 236.709 73.486 235.303 73.486V74.7605ZM239.358 72.3334V64.1074H238.083V72.3334H239.358ZM239.27 63.7852C238.441 62.3693 237.087 61.6803 235.339 61.6803V62.9548C236.702 62.9548 237.602 63.459 238.17 64.4295L239.27 63.7852ZM235.339 61.6803C233.879 61.6803 232.696 62.2932 231.854 63.4868L232.895 64.2218C233.499 63.3664 234.293 62.9548 235.339 62.9548V61.6803ZM231.851 63.4909C231.032 64.6704 230.671 66.3544 230.671 68.4464H231.945C231.945 66.4645 232.294 65.0871 232.898 64.2177L231.851 63.4909ZM249.369 60.817L248.867 60.4241L248.865 60.4262L249.369 60.817ZM260.162 60.2746L259.667 60.6762L260.619 61.8485L260.795 60.3491L260.162 60.2746ZM260.379 58.4305V57.7932H259.812L259.746 58.3561L260.379 58.4305ZM265.116 58.4305H265.753V57.7932H265.116V58.4305ZM263.941 81.8069L263.399 81.4714L263.397 81.4752L263.941 81.8069ZM251.52 84.8261L251.769 84.2395L251.765 84.2377L251.52 84.8261ZM248.429 82.6205L247.913 82.2456L247.632 82.6322L247.925 83.0103L248.429 82.6205ZM250.743 79.4385L251.218 79.0142L250.692 78.4247L250.228 79.0637L250.743 79.4385ZM258.716 80.5052L258.276 80.0439L258.272 80.0475L258.716 80.5052ZM259.873 76.3108H260.51V74.6291L259.396 75.8885L259.873 76.3108ZM249.405 75.6057L248.904 75.999L248.906 76.0026L249.405 75.6057ZM253.527 72.6227L253.006 72.989L253.008 72.9919L253.527 72.6227ZM259.873 72.3334L260.425 72.6514L260.51 72.5038V72.3334H259.873ZM259.873 64.1074H260.51V63.9345L260.423 63.7852L259.873 64.1074ZM253.527 63.8543L253.006 63.4868L253.004 63.4909L253.527 63.8543ZM247.873 68.0667C247.873 65.1652 248.559 62.8989 249.872 61.2078L248.865 60.4262C247.334 62.3991 246.598 64.966 246.598 68.0667H247.873ZM249.871 61.2098C251.178 59.5393 252.918 58.7062 255.154 58.7062V57.4317C252.545 57.4317 250.428 58.4306 248.867 60.4241L249.871 61.2098ZM255.154 58.7062C257.136 58.7062 258.612 59.3759 259.667 60.6762L260.657 59.873C259.326 58.2325 257.463 57.4317 255.154 57.4317V58.7062ZM260.795 60.3491L261.012 58.505L259.746 58.3561L259.529 60.2001L260.795 60.3491ZM260.379 59.0678H265.116V57.7932H260.379V59.0678ZM264.479 58.4305V77.3413H265.753V58.4305H264.479ZM264.479 77.3413C264.479 78.9524 264.111 80.3211 263.399 81.4715L264.483 82.1423C265.337 80.7616 265.753 79.1532 265.753 77.3413H264.479ZM263.397 81.4752C262.694 82.6284 261.7 83.5102 260.397 84.1228L260.939 85.2763C262.457 84.5631 263.645 83.5164 264.485 82.1386L263.397 81.4752ZM260.397 84.1228C259.088 84.7382 257.533 85.0566 255.715 85.0566V86.3312C257.681 86.3312 259.428 85.9867 260.939 85.2763L260.397 84.1228ZM255.715 85.0566C254.369 85.0566 253.055 84.7857 251.769 84.2396L251.271 85.4127C252.709 86.0236 254.192 86.3312 255.715 86.3312V85.0566ZM251.765 84.2377C250.476 83.7017 249.547 83.025 248.933 82.2306L247.925 83.0103C248.708 84.0238 249.84 84.8176 251.276 85.4145L251.765 84.2377ZM248.944 82.9953L251.258 79.8134L250.228 79.0637L247.913 82.2456L248.944 82.9953ZM250.267 79.8629C251.683 81.4486 253.431 82.2634 255.48 82.2634V80.9888C253.816 80.9888 252.406 80.3452 251.218 79.0142L250.267 79.8629ZM255.48 82.2634C256.981 82.2634 258.237 81.856 259.159 80.9629L258.272 80.0475C257.652 80.6489 256.75 80.9888 255.48 80.9888V82.2634ZM259.156 80.9665C260.086 80.0797 260.51 78.8445 260.51 77.3594H259.236C259.236 78.5983 258.889 79.4602 258.276 80.0439L259.156 80.9665ZM260.51 77.3594V76.3108H259.236V77.3594H260.51ZM259.396 75.8885C258.322 77.1019 256.917 77.7165 255.118 77.7165V78.9911C257.249 78.9911 259.013 78.2437 260.35 76.7332L259.396 75.8885ZM255.118 77.7165C252.961 77.7165 251.241 76.8883 249.904 75.2088L248.906 76.0026C250.486 77.9872 252.574 78.9911 255.118 78.9911V77.7165ZM249.906 75.2124C248.571 73.51 247.873 71.2209 247.873 68.2837H246.598C246.598 71.421 247.346 74.0133 248.904 75.999L249.906 75.2124ZM247.873 68.2837V68.0667H246.598V68.2837H247.873ZM251.823 68.4464C251.823 70.2948 252.193 71.832 253.006 72.989L254.049 72.2564C253.439 71.3885 253.098 70.1414 253.098 68.4464H251.823ZM253.008 72.9919C253.84 74.1627 255.011 74.7605 256.456 74.7605V73.486C255.418 73.486 254.636 73.0834 254.047 72.2534L253.008 72.9919ZM256.456 74.7605C258.232 74.7605 259.605 74.0763 260.425 72.6514L259.321 72.0154C258.767 72.9769 257.861 73.486 256.456 73.486V74.7605ZM260.51 72.3334V64.1074H259.236V72.3334H260.51ZM260.423 63.7852C259.593 62.3693 258.239 61.6803 256.492 61.6803V62.9548C257.854 62.9548 258.754 63.459 259.323 64.4295L260.423 63.7852ZM256.492 61.6803C255.031 61.6803 253.849 62.2932 253.006 63.4868L254.048 64.2218C254.652 63.3664 255.446 62.9548 256.492 62.9548V61.6803ZM253.004 63.4909C252.185 64.6704 251.823 66.3544 251.823 68.4464H253.098C253.098 66.4645 253.447 65.0871 254.051 64.2177L253.004 63.4909ZM274.662 77.9922V78.6295H275.299V77.9922H274.662ZM269.419 77.9922H268.781V78.6295H269.419V77.9922ZM269.419 50.2226V49.5853H268.781V50.2226H269.419ZM274.662 50.2226H275.299V49.5853H274.662V50.2226ZM274.662 77.3549H269.419V78.6295H274.662V77.3549ZM270.056 77.9922V50.2226H268.781V77.9922H270.056ZM269.419 50.8599H274.662V49.5853H269.419V50.8599ZM274.024 50.2226V77.9922H275.299V50.2226H274.024ZM280.971 75.7142L280.525 76.1694L280.527 76.1709L280.971 75.7142ZM279.416 62.9142L279.988 63.1956L279.989 63.1938L279.416 62.9142ZM282.635 59.3345L282.962 59.881L282.964 59.8801L282.635 59.3345ZM293.717 60.6L293.245 61.0282L293.247 61.03L293.717 60.6ZM296.031 69.9108V70.5481H296.669V69.9108H296.031ZM283.575 69.9108V69.2735H282.848L282.943 69.9942L283.575 69.9108ZM285.093 72.9843L284.663 73.4546L284.667 73.4576L285.093 72.9843ZM293.048 71.9537L293.523 71.5292L293.014 70.9588L292.545 71.5628L293.048 71.9537ZM295.615 74.8283L296.136 75.1961L296.428 74.782L296.091 74.4038L295.615 74.8283ZM292.433 77.4317L292.7 78.0108L292.704 78.0088L292.433 77.4317ZM284.858 63.3481L284.392 62.9138L284.388 62.9182L284.858 63.3481ZM283.629 66.3492L282.998 66.2615L282.897 66.9865H283.629V66.3492ZM290.897 66.3492V66.9865H291.534V66.3492H290.897ZM290.897 65.9334H291.534L291.534 65.9201L290.897 65.9334ZM289.957 63.2577L289.493 63.695L289.497 63.6994L289.957 63.2577ZM287.986 77.7165C285.259 77.7165 283.088 76.8853 281.416 75.2575L280.527 76.1709C282.47 78.0625 284.976 78.9911 287.986 78.9911V77.7165ZM281.417 75.259C279.764 73.639 278.915 71.4696 278.915 68.6814H277.64C277.64 71.7509 278.587 74.27 280.525 76.1694L281.417 75.259ZM278.915 68.6814V68.1752H277.64V68.6814H278.915ZM278.915 68.1752C278.915 66.2942 279.278 64.6391 279.988 63.1956L278.845 62.6327C278.037 64.2748 277.64 66.127 277.64 68.1752H278.915ZM279.989 63.1938C280.698 61.7416 281.69 60.6447 282.962 59.8809L282.307 58.788C280.807 59.6876 279.653 60.9771 278.844 62.6345L279.989 63.1938ZM282.964 59.8801C284.254 59.1019 285.729 58.7062 287.407 58.7062V57.4317C285.519 57.4317 283.812 57.8797 282.305 58.7888L282.964 59.8801ZM287.407 58.7062C289.938 58.7062 291.856 59.4974 293.245 61.0282L294.189 60.1718C292.516 58.3278 290.229 57.4317 287.407 57.4317V58.7062ZM293.247 61.03C294.649 62.5636 295.394 64.7818 295.394 67.7775H296.669C296.669 64.578 295.871 62.0112 294.187 60.17L293.247 61.03ZM295.394 67.7775V69.9108H296.669V67.7775H295.394ZM296.031 69.2735H283.575V70.5481H296.031V69.2735ZM282.943 69.9942C283.129 71.4004 283.695 72.5691 284.663 73.4546L285.523 72.5139C284.804 71.8567 284.358 70.9764 284.206 69.8274L282.943 69.9942ZM284.667 73.4576C285.655 74.3484 286.892 74.7786 288.329 74.7786V73.504C287.163 73.504 286.243 73.1629 285.52 72.5109L284.667 73.4576ZM288.329 74.7786C290.519 74.7786 292.286 73.9739 293.551 72.3447L292.545 71.5628C291.545 72.8504 290.166 73.504 288.329 73.504V74.7786ZM292.573 72.3782L295.14 75.2528L296.091 74.4038L293.523 71.5292L292.573 72.3782ZM295.095 74.4606C294.381 75.4713 293.41 76.2705 292.163 76.8546L292.704 78.0088C294.133 77.3394 295.283 76.4031 296.136 75.1961L295.095 74.4606ZM292.167 76.8526C290.921 77.4251 289.531 77.7165 287.986 77.7165V78.9911C289.695 78.9911 291.27 78.6677 292.7 78.0108L292.167 76.8526ZM287.389 61.6622C286.193 61.6622 285.174 62.0734 284.392 62.9138L285.325 63.7823C285.844 63.2246 286.513 62.9368 287.389 62.9368V61.6622ZM284.388 62.9182C283.634 63.7428 283.19 64.8801 282.998 66.2615L284.26 66.4369C284.43 65.2149 284.805 64.3514 285.329 63.778L284.388 62.9182ZM283.629 66.9865H290.897V65.7119H283.629V66.9865ZM291.534 66.3492V65.9334H290.259V66.3492H291.534ZM291.534 65.9201C291.508 64.6571 291.162 63.592 290.416 62.816L289.497 63.6994C289.956 64.1769 290.238 64.8955 290.26 65.9467L291.534 65.9201ZM290.42 62.8203C289.667 62.0222 288.625 61.6622 287.389 61.6622V62.9368C288.372 62.9368 289.041 63.2155 289.493 63.695L290.42 62.8203Z" fill="white"/>
<path d="M156.982 92.4377H153.397V96.1406H151.53V87.0793H157.43V88.5916H153.397V90.9316H156.982V92.4377ZM162.29 95.456C161.846 95.9954 161.232 96.2651 160.448 96.2651C159.726 96.2651 159.174 96.0576 158.793 95.6427C158.415 95.2278 158.222 94.62 158.214 93.8193V89.4068H160.012V93.757C160.012 94.4582 160.332 94.8088 160.971 94.8088C161.581 94.8088 162 94.5972 162.228 94.174V89.4068H164.033V96.1406H162.34L162.29 95.456ZM167.045 89.4068L167.101 90.1848C167.582 89.5832 168.227 89.2824 169.036 89.2824C169.75 89.2824 170.281 89.4919 170.63 89.9109C170.978 90.33 171.156 90.9565 171.165 91.7904V96.1406H169.366V91.834C169.366 91.4523 169.283 91.1764 169.117 91.0063C168.951 90.832 168.675 90.7449 168.29 90.7449C167.783 90.7449 167.404 90.9606 167.151 91.3921V96.1406H165.352V89.4068H167.045ZM172.254 92.7239C172.254 91.6743 172.488 90.8382 172.957 90.2159C173.43 89.5935 174.075 89.2824 174.893 89.2824C175.548 89.2824 176.09 89.5272 176.517 90.0167V86.5814H178.322V96.1406H176.697L176.61 95.4249C176.162 95.985 175.586 96.2651 174.88 96.2651C174.088 96.2651 173.451 95.9539 172.97 95.3316C172.492 94.7051 172.254 93.8359 172.254 92.7239ZM174.052 92.8546C174.052 93.4853 174.162 93.9686 174.382 94.3047C174.602 94.6408 174.922 94.8088 175.341 94.8088C175.897 94.8088 176.289 94.5744 176.517 94.1056V91.4481C176.293 90.9793 175.905 90.7449 175.353 90.7449C174.486 90.7449 174.052 91.4481 174.052 92.8546ZM183.5 91.0934C183.255 91.0602 183.039 91.0436 182.852 91.0436C182.172 91.0436 181.726 91.2739 181.514 91.7344V96.1406H179.716V89.4068H181.415L181.465 90.2097C181.826 89.5915 182.326 89.2824 182.964 89.2824C183.164 89.2824 183.35 89.3093 183.525 89.3633L183.5 91.0934ZM188.086 96.1406C188.003 95.9788 187.943 95.7776 187.906 95.5369C187.47 96.0224 186.904 96.2651 186.207 96.2651C185.547 96.2651 185 96.0742 184.564 95.6925C184.132 95.3108 183.917 94.8295 183.917 94.2487C183.917 93.5351 184.18 92.9874 184.707 92.6057C185.238 92.224 186.004 92.0311 187.004 92.0269H187.831V91.6411C187.831 91.3299 187.75 91.0809 187.589 90.8942C187.431 90.7075 187.18 90.6142 186.835 90.6142C186.533 90.6142 186.294 90.6868 186.12 90.832C185.95 90.9772 185.865 91.1764 185.865 91.4295H184.066C184.066 91.0395 184.186 90.6785 184.427 90.3466C184.668 90.0147 185.008 89.7553 185.448 89.5686C185.887 89.3778 186.381 89.2824 186.929 89.2824C187.759 89.2824 188.416 89.4919 188.902 89.9109C189.391 90.3258 189.636 90.9108 189.636 91.666V94.5848C189.64 95.2237 189.729 95.7071 189.904 96.0348V96.1406H188.086ZM186.599 94.8897C186.865 94.8897 187.109 94.8316 187.333 94.7155C187.557 94.5951 187.723 94.4354 187.831 94.2362V93.0787H187.159C186.259 93.0787 185.78 93.3899 185.721 94.0122L185.715 94.118C185.715 94.342 185.794 94.5267 185.952 94.6719C186.109 94.8171 186.325 94.8897 186.599 94.8897ZM192.916 96.1406H191.111V89.4068H192.916V96.1406ZM191.005 87.6643C191.005 87.3946 191.094 87.1726 191.273 86.9984C191.455 86.8241 191.702 86.737 192.013 86.737C192.32 86.737 192.565 86.8241 192.748 86.9984C192.93 87.1726 193.022 87.3946 193.022 87.6643C193.022 87.9381 192.928 88.1621 192.742 88.3364C192.559 88.5107 192.316 88.5978 192.013 88.5978C191.711 88.5978 191.466 88.5107 191.279 88.3364C191.096 88.1621 191.005 87.9381 191.005 87.6643ZM198.05 94.2798C198.05 94.0599 197.94 93.8877 197.72 93.7633C197.505 93.6346 197.156 93.5205 196.675 93.421C195.073 93.0849 194.273 92.4045 194.273 91.3797C194.273 90.7822 194.519 90.2843 195.013 89.886C195.511 89.4836 196.16 89.2824 196.961 89.2824C197.816 89.2824 198.498 89.4836 199.009 89.886C199.523 90.2885 199.78 90.8113 199.78 91.4544H197.982C197.982 91.1971 197.899 90.9855 197.733 90.8196C197.567 90.6495 197.307 90.5644 196.955 90.5644C196.652 90.5644 196.418 90.6329 196.252 90.7698C196.086 90.9067 196.003 91.0809 196.003 91.2925C196.003 91.4917 196.096 91.6535 196.283 91.778C196.474 91.8983 196.793 92.0041 197.241 92.0954C197.689 92.1825 198.067 92.2821 198.374 92.3941C199.324 92.7426 199.799 93.3463 199.799 94.2051C199.799 94.8192 199.536 95.3171 199.009 95.6988C198.482 96.0763 197.801 96.2651 196.967 96.2651C196.403 96.2651 195.901 96.1655 195.461 95.9664C195.026 95.7631 194.683 95.4872 194.434 95.1386C194.185 94.786 194.061 94.4064 194.061 93.9998H195.766C195.783 94.3192 195.901 94.564 196.121 94.7341C196.341 94.9042 196.635 94.9893 197.005 94.9893C197.349 94.9893 197.608 94.925 197.783 94.7964C197.961 94.6636 198.05 94.4914 198.05 94.2798ZM204.062 96.2651C203.075 96.2651 202.27 95.9622 201.647 95.3565C201.029 94.7507 200.72 93.9437 200.72 92.9355V92.7613C200.72 92.085 200.851 91.4813 201.112 90.9503C201.373 90.415 201.743 90.0043 202.22 89.718C202.701 89.4276 203.249 89.2824 203.863 89.2824C204.784 89.2824 205.508 89.5728 206.035 90.1537C206.566 90.7345 206.831 91.5581 206.831 92.6244V93.3587H202.544C202.602 93.7985 202.776 94.1512 203.066 94.4167C203.361 94.6823 203.732 94.815 204.18 94.815C204.873 94.815 205.415 94.564 205.805 94.062L206.688 95.0515C206.419 95.4332 206.054 95.732 205.593 95.9477C205.132 96.1593 204.622 96.2651 204.062 96.2651ZM203.857 90.7387C203.5 90.7387 203.209 90.859 202.985 91.0996C202.765 91.3403 202.624 91.6846 202.562 92.1327H205.064V91.9896C205.056 91.5913 204.948 91.2842 204.74 91.0685C204.533 90.8486 204.238 90.7387 203.857 90.7387Z" fill="#FF576B"/>
<path d="M109.297 50.7188C96.7371 50.7188 86.4609 61.2339 86.4609 74.0858C86.4609 86.9377 96.7371 97.4528 109.297 97.4528C121.857 97.4528 132.133 86.9377 132.133 74.0858C132.133 61.2339 121.857 50.7188 109.297 50.7188ZM109.297 55.3922C118.431 55.3922 126.196 62.4023 127.337 71.7491H109.297V55.3922ZM118.431 90.2091L110.667 76.4225H127.566C126.652 82.2643 123.455 87.405 118.431 90.2091Z" fill="white"/>
</svg>
