<svg width="364" height="113" viewBox="0 0 364 113" fill="none" xmlns="http://www.w3.org/2000/svg">
<path d="M136.75 47.0938C136.75 46.2812 136.625 45.5521 136.375 44.9062C136.146 44.2396 135.708 43.6354 135.062 43.0938C134.417 42.5312 133.51 41.9792 132.344 41.4375C131.177 40.8958 129.667 40.3333 127.812 39.75C125.75 39.0833 123.792 38.3333 121.938 37.5C120.104 36.6667 118.479 35.6979 117.062 34.5938C115.667 33.4688 114.562 32.1667 113.75 30.6875C112.958 29.2083 112.562 27.4896 112.562 25.5312C112.562 23.6354 112.979 21.9167 113.812 20.375C114.646 18.8125 115.812 17.4792 117.312 16.375C118.812 15.25 120.583 14.3854 122.625 13.7812C124.688 13.1771 126.948 12.875 129.406 12.875C132.76 12.875 135.688 13.4792 138.188 14.6875C140.688 15.8958 142.625 17.5521 144 19.6562C145.396 21.7604 146.094 24.1667 146.094 26.875H136.781C136.781 25.5417 136.5 24.375 135.938 23.375C135.396 22.3542 134.562 21.5521 133.438 20.9688C132.333 20.3854 130.938 20.0938 129.25 20.0938C127.625 20.0938 126.271 20.3438 125.188 20.8438C124.104 21.3229 123.292 21.9792 122.75 22.8125C122.208 23.625 121.938 24.5417 121.938 25.5625C121.938 26.3333 122.125 27.0312 122.5 27.6562C122.896 28.2812 123.479 28.8646 124.25 29.4062C125.021 29.9479 125.969 30.4583 127.094 30.9375C128.219 31.4167 129.521 31.8854 131 32.3438C133.479 33.0938 135.656 33.9375 137.531 34.875C139.427 35.8125 141.01 36.8646 142.281 38.0312C143.552 39.1979 144.51 40.5208 145.156 42C145.802 43.4792 146.125 45.1562 146.125 47.0312C146.125 49.0104 145.74 50.7812 144.969 52.3438C144.198 53.9062 143.083 55.2292 141.625 56.3125C140.167 57.3958 138.427 58.2188 136.406 58.7812C134.385 59.3438 132.125 59.625 129.625 59.625C127.375 59.625 125.156 59.3333 122.969 58.75C120.781 58.1458 118.792 57.2396 117 56.0312C115.229 54.8229 113.812 53.2812 112.75 51.4062C111.688 49.5312 111.156 47.3125 111.156 44.75H120.562C120.562 46.1667 120.781 47.3646 121.219 48.3438C121.656 49.3229 122.271 50.1146 123.062 50.7188C123.875 51.3229 124.833 51.7604 125.938 52.0312C127.062 52.3021 128.292 52.4375 129.625 52.4375C131.25 52.4375 132.583 52.2083 133.625 51.75C134.688 51.2917 135.469 50.6562 135.969 49.8438C136.49 49.0312 136.75 48.1146 136.75 47.0938ZM160.938 10.9688V59H151.938V10.9688H160.938ZM182.25 25.1875L167.562 41.9375L159.688 49.9062L156.406 43.4062L162.656 35.4688L171.438 25.1875H182.25ZM172.906 59L162.906 43.375L169.125 37.9375L183.281 59H172.906ZM195.125 32.5625V59H186.125V25.1875H194.594L195.125 32.5625ZM205.312 24.9688L205.156 33.3125C204.719 33.25 204.188 33.1979 203.562 33.1562C202.958 33.0938 202.406 33.0625 201.906 33.0625C200.635 33.0625 199.531 33.2292 198.594 33.5625C197.677 33.875 196.906 34.3438 196.281 34.9688C195.677 35.5938 195.219 36.3542 194.906 37.25C194.615 38.1458 194.448 39.1667 194.406 40.3125L192.594 39.75C192.594 37.5625 192.812 35.5521 193.25 33.7188C193.688 31.8646 194.323 30.25 195.156 28.875C196.01 27.5 197.052 26.4375 198.281 25.6875C199.51 24.9375 200.917 24.5625 202.5 24.5625C203 24.5625 203.51 24.6042 204.031 24.6875C204.552 24.75 204.979 24.8438 205.312 24.9688ZM226.75 51.375V36.3125C226.75 35.2292 226.573 34.3021 226.219 33.5312C225.865 32.7396 225.312 32.125 224.562 31.6875C223.833 31.25 222.885 31.0312 221.719 31.0312C220.719 31.0312 219.854 31.2083 219.125 31.5625C218.396 31.8958 217.833 32.3854 217.438 33.0312C217.042 33.6562 216.844 34.3958 216.844 35.25H207.844C207.844 33.8125 208.177 32.4479 208.844 31.1562C209.51 29.8646 210.479 28.7292 211.75 27.75C213.021 26.75 214.531 25.9688 216.281 25.4062C218.052 24.8438 220.031 24.5625 222.219 24.5625C224.844 24.5625 227.177 25 229.219 25.875C231.26 26.75 232.865 28.0625 234.031 29.8125C235.219 31.5625 235.812 33.75 235.812 36.375V50.8438C235.812 52.6979 235.927 54.2188 236.156 55.4062C236.385 56.5729 236.719 57.5938 237.156 58.4688V59H228.062C227.625 58.0833 227.292 56.9375 227.062 55.5625C226.854 54.1667 226.75 52.7708 226.75 51.375ZM227.938 38.4062L228 43.5H222.969C221.781 43.5 220.75 43.6354 219.875 43.9062C219 44.1771 218.281 44.5625 217.719 45.0625C217.156 45.5417 216.74 46.1042 216.469 46.75C216.219 47.3958 216.094 48.1042 216.094 48.875C216.094 49.6458 216.271 50.3438 216.625 50.9688C216.979 51.5729 217.49 52.0521 218.156 52.4062C218.823 52.7396 219.604 52.9062 220.5 52.9062C221.854 52.9062 223.031 52.6354 224.031 52.0938C225.031 51.5521 225.802 50.8854 226.344 50.0938C226.906 49.3021 227.198 48.5521 227.219 47.8438L229.594 51.6562C229.26 52.5104 228.802 53.3958 228.219 54.3125C227.656 55.2292 226.938 56.0938 226.062 56.9062C225.188 57.6979 224.135 58.3542 222.906 58.875C221.677 59.375 220.219 59.625 218.531 59.625C216.385 59.625 214.438 59.1979 212.688 58.3438C210.958 57.4688 209.583 56.2708 208.562 54.75C207.562 53.2083 207.062 51.4583 207.062 49.5C207.062 47.7292 207.396 46.1562 208.062 44.7812C208.729 43.4062 209.708 42.25 211 41.3125C212.312 40.3542 213.948 39.6354 215.906 39.1562C217.865 38.6562 220.135 38.4062 222.719 38.4062H227.938ZM264.156 25.1875H272.312V57.875C272.312 60.9583 271.625 63.5729 270.25 65.7188C268.896 67.8854 267 69.5208 264.562 70.625C262.125 71.75 259.292 72.3125 256.062 72.3125C254.646 72.3125 253.146 72.125 251.562 71.75C250 71.375 248.5 70.7917 247.062 70C245.646 69.2083 244.458 68.2083 243.5 67L247.469 61.6875C248.51 62.8958 249.719 63.8333 251.094 64.5C252.469 65.1875 253.99 65.5312 255.656 65.5312C257.281 65.5312 258.656 65.2292 259.781 64.625C260.906 64.0417 261.771 63.1771 262.375 62.0312C262.979 60.9062 263.281 59.5417 263.281 57.9375V33L264.156 25.1875ZM241.406 42.5V41.8438C241.406 39.2604 241.719 36.9167 242.344 34.8125C242.99 32.6875 243.896 30.8646 245.062 29.3438C246.25 27.8229 247.688 26.6458 249.375 25.8125C251.062 24.9792 252.969 24.5625 255.094 24.5625C257.344 24.5625 259.229 24.9792 260.75 25.8125C262.271 26.6458 263.521 27.8333 264.5 29.375C265.479 30.8958 266.24 32.6979 266.781 34.7812C267.344 36.8438 267.781 39.1042 268.094 41.5625V43C267.781 45.3542 267.312 47.5417 266.688 49.5625C266.062 51.5833 265.24 53.3542 264.219 54.875C263.198 56.375 261.927 57.5417 260.406 58.375C258.906 59.2083 257.115 59.625 255.031 59.625C252.948 59.625 251.062 59.1979 249.375 58.3438C247.708 57.4896 246.281 56.2917 245.094 54.75C243.906 53.2083 242.99 51.3958 242.344 49.3125C241.719 47.2292 241.406 44.9583 241.406 42.5ZM250.406 41.8438V42.5C250.406 43.8958 250.542 45.1979 250.812 46.4062C251.083 47.6146 251.5 48.6875 252.062 49.625C252.646 50.5417 253.365 51.2604 254.219 51.7812C255.094 52.2812 256.125 52.5312 257.312 52.5312C258.958 52.5312 260.302 52.1875 261.344 51.5C262.385 50.7917 263.167 49.8229 263.688 48.5938C264.208 47.3646 264.51 45.9479 264.594 44.3438V40.25C264.552 38.9375 264.375 37.7604 264.062 36.7188C263.75 35.6562 263.312 34.75 262.75 34C262.188 33.25 261.458 32.6667 260.562 32.25C259.667 31.8333 258.604 31.625 257.375 31.625C256.188 31.625 255.156 31.8958 254.281 32.4375C253.427 32.9583 252.708 33.6771 252.125 34.5938C251.562 35.5104 251.135 36.5938 250.844 37.8438C250.552 39.0729 250.406 40.4062 250.406 41.8438ZM300.719 25.1875H308.875V57.875C308.875 60.9583 308.188 63.5729 306.812 65.7188C305.458 67.8854 303.562 69.5208 301.125 70.625C298.688 71.75 295.854 72.3125 292.625 72.3125C291.208 72.3125 289.708 72.125 288.125 71.75C286.562 71.375 285.062 70.7917 283.625 70C282.208 69.2083 281.021 68.2083 280.062 67L284.031 61.6875C285.073 62.8958 286.281 63.8333 287.656 64.5C289.031 65.1875 290.552 65.5312 292.219 65.5312C293.844 65.5312 295.219 65.2292 296.344 64.625C297.469 64.0417 298.333 63.1771 298.938 62.0312C299.542 60.9062 299.844 59.5417 299.844 57.9375V33L300.719 25.1875ZM277.969 42.5V41.8438C277.969 39.2604 278.281 36.9167 278.906 34.8125C279.552 32.6875 280.458 30.8646 281.625 29.3438C282.812 27.8229 284.25 26.6458 285.938 25.8125C287.625 24.9792 289.531 24.5625 291.656 24.5625C293.906 24.5625 295.792 24.9792 297.312 25.8125C298.833 26.6458 300.083 27.8333 301.062 29.375C302.042 30.8958 302.802 32.6979 303.344 34.7812C303.906 36.8438 304.344 39.1042 304.656 41.5625V43C304.344 45.3542 303.875 47.5417 303.25 49.5625C302.625 51.5833 301.802 53.3542 300.781 54.875C299.76 56.375 298.49 57.5417 296.969 58.375C295.469 59.2083 293.677 59.625 291.594 59.625C289.51 59.625 287.625 59.1979 285.938 58.3438C284.271 57.4896 282.844 56.2917 281.656 54.75C280.469 53.2083 279.552 51.3958 278.906 49.3125C278.281 47.2292 277.969 44.9583 277.969 42.5ZM286.969 41.8438V42.5C286.969 43.8958 287.104 45.1979 287.375 46.4062C287.646 47.6146 288.062 48.6875 288.625 49.625C289.208 50.5417 289.927 51.2604 290.781 51.7812C291.656 52.2812 292.688 52.5312 293.875 52.5312C295.521 52.5312 296.865 52.1875 297.906 51.5C298.948 50.7917 299.729 49.8229 300.25 48.5938C300.771 47.3646 301.073 45.9479 301.156 44.3438V40.25C301.115 38.9375 300.938 37.7604 300.625 36.7188C300.312 35.6562 299.875 34.75 299.312 34C298.75 33.25 298.021 32.6667 297.125 32.25C296.229 31.8333 295.167 31.625 293.938 31.625C292.75 31.625 291.719 31.8958 290.844 32.4375C289.99 32.9583 289.271 33.6771 288.688 34.5938C288.125 35.5104 287.698 36.5938 287.406 37.8438C287.115 39.0729 286.969 40.4062 286.969 41.8438ZM325.375 11V59H316.344V11H325.375ZM348.375 59.625C345.75 59.625 343.396 59.2083 341.312 58.375C339.229 57.5208 337.458 56.3438 336 54.8438C334.562 53.3438 333.458 51.6042 332.688 49.625C331.917 47.625 331.531 45.5 331.531 43.25V42C331.531 39.4375 331.896 37.0938 332.625 34.9688C333.354 32.8438 334.396 31 335.75 29.4375C337.125 27.875 338.792 26.6771 340.75 25.8438C342.708 24.9896 344.917 24.5625 347.375 24.5625C349.771 24.5625 351.896 24.9583 353.75 25.75C355.604 26.5417 357.156 27.6667 358.406 29.125C359.677 30.5833 360.635 32.3333 361.281 34.375C361.927 36.3958 362.25 38.6458 362.25 41.125V44.875H335.375V38.875H353.406V38.1875C353.406 36.9375 353.177 35.8229 352.719 34.8438C352.281 33.8438 351.615 33.0521 350.719 32.4688C349.823 31.8854 348.677 31.5938 347.281 31.5938C346.094 31.5938 345.073 31.8542 344.219 32.375C343.365 32.8958 342.667 33.625 342.125 34.5625C341.604 35.5 341.208 36.6042 340.938 37.875C340.688 39.125 340.562 40.5 340.562 42V43.25C340.562 44.6042 340.75 45.8542 341.125 47C341.521 48.1458 342.073 49.1354 342.781 49.9688C343.51 50.8021 344.385 51.4479 345.406 51.9062C346.448 52.3646 347.625 52.5938 348.938 52.5938C350.562 52.5938 352.073 52.2812 353.469 51.6562C354.885 51.0104 356.104 50.0417 357.125 48.75L361.5 53.5C360.792 54.5208 359.823 55.5 358.594 56.4375C357.385 57.375 355.927 58.1458 354.219 58.75C352.51 59.3333 350.562 59.625 348.375 59.625Z" fill="#1F2847"/>
<path d="M136.375 44.9062L135.902 45.0688L135.905 45.0778L135.909 45.0867L136.375 44.9062ZM135.062 43.0938L134.734 43.4709L134.741 43.4768L135.062 43.0938ZM127.812 39.75L127.659 40.2258L127.662 40.227L127.812 39.75ZM121.938 37.5L121.731 37.9552L121.733 37.9561L121.938 37.5ZM117.062 34.5938L116.749 34.9831L116.755 34.9881L117.062 34.5938ZM113.75 30.6875L113.309 30.9235L113.312 30.9282L113.75 30.6875ZM113.812 20.375L114.252 20.6128L114.254 20.6103L113.812 20.375ZM117.312 16.375L117.609 16.7777L117.613 16.775L117.312 16.375ZM122.625 13.7812L122.484 13.3014L122.483 13.3018L122.625 13.7812ZM144 19.6562L143.581 19.9298L143.583 19.9326L144 19.6562ZM146.094 26.875V27.375H146.594V26.875H146.094ZM136.781 26.875H136.281V27.375H136.781V26.875ZM135.938 23.375L135.496 23.6094L135.502 23.6201L135.938 23.375ZM133.438 20.9688L133.204 21.4109L133.207 21.4126L133.438 20.9688ZM125.188 20.8438L125.39 21.3011L125.397 21.2977L125.188 20.8438ZM122.75 22.8125L123.166 23.0899L123.169 23.085L122.75 22.8125ZM122.5 27.6562L122.071 27.9136L122.078 27.9238L122.5 27.6562ZM124.25 29.4062L124.537 28.9972L124.25 29.4062ZM131 32.3438L130.852 32.8214L130.855 32.8223L131 32.3438ZM137.531 34.875L137.308 35.3222L137.31 35.3232L137.531 34.875ZM145.156 42L144.698 42.2001L145.156 42ZM141.625 56.3125L141.327 55.9111L141.625 56.3125ZM122.969 58.75L122.836 59.232L122.84 59.2331L122.969 58.75ZM117 56.0312L116.718 56.4443L116.72 56.4458L117 56.0312ZM111.156 44.75V44.25H110.656V44.75H111.156ZM120.562 44.75H121.062V44.25H120.562V44.75ZM123.062 50.7188L122.759 51.1163L122.764 51.12L123.062 50.7188ZM125.938 52.0312L125.818 52.5169L125.82 52.5174L125.938 52.0312ZM133.625 51.75L133.427 51.2909L133.424 51.2923L133.625 51.75ZM135.969 49.8438L135.548 49.5739L135.543 49.5817L135.969 49.8438ZM137.25 47.0938C137.25 46.23 137.117 45.4382 136.841 44.7258L135.909 45.0867C136.133 45.666 136.25 46.3325 136.25 47.0938H137.25ZM136.848 44.7437C136.584 43.9757 136.086 43.2992 135.384 42.7107L134.741 43.4768C135.331 43.9716 135.708 44.5035 135.902 45.0688L136.848 44.7437ZM135.391 42.7167C134.697 42.112 133.745 41.5366 132.554 40.984L132.133 41.891C133.276 42.4217 134.137 42.9505 134.734 43.4708L135.391 42.7167ZM132.554 40.984C131.361 40.4299 129.828 39.86 127.963 39.273L127.662 40.227C129.505 40.8067 130.993 41.3618 132.133 41.891L132.554 40.984ZM127.966 39.2742C125.92 38.6128 123.979 37.8693 122.142 37.0439L121.733 37.9561C123.604 38.7974 125.58 39.5538 127.659 40.2258L127.966 39.2742ZM122.144 37.0448C120.343 36.2258 118.752 35.2767 117.37 34.1994L116.755 34.9881C118.206 36.1191 119.866 37.1075 121.731 37.9552L122.144 37.0448ZM117.376 34.2045C116.028 33.1178 114.967 31.8653 114.188 30.4468L113.312 30.9282C114.158 32.4681 115.305 33.8197 116.749 34.983L117.376 34.2045ZM114.191 30.4516C113.444 29.0562 113.062 27.4211 113.062 25.5312H112.062C112.062 27.5581 112.473 29.3604 113.309 30.9234L114.191 30.4516ZM113.062 25.5312C113.062 23.7115 113.462 22.0755 114.252 20.6128L113.373 20.1372C112.497 21.7578 112.062 23.5594 112.062 25.5312H113.062ZM114.254 20.6103C115.05 19.1171 116.166 17.8399 117.609 16.7777L117.016 15.9723C115.459 17.1184 114.242 18.5079 113.371 20.1397L114.254 20.6103ZM117.613 16.775C119.059 15.6902 120.775 14.8503 122.767 14.2607L122.483 13.3018C120.392 13.9206 118.566 14.8098 117.012 15.975L117.613 16.775ZM122.766 14.2611C124.776 13.6721 126.989 13.375 129.406 13.375V12.375C126.907 12.375 124.599 12.6821 122.484 13.3014L122.766 14.2611ZM129.406 13.375C132.701 13.375 135.55 13.9682 137.97 15.1377L138.405 14.2373C135.825 12.9901 132.82 12.375 129.406 12.375V13.375ZM137.97 15.1377C140.397 16.3107 142.261 17.9094 143.581 19.9298L144.419 19.3827C142.989 17.1947 140.978 15.4809 138.405 14.2373L137.97 15.1377ZM143.583 19.9326C144.921 21.9489 145.594 24.2575 145.594 26.875H146.594C146.594 24.0758 145.871 21.572 144.417 19.3799L143.583 19.9326ZM146.094 26.375H136.781V27.375H146.094V26.375ZM137.281 26.875C137.281 25.4698 136.984 24.2161 136.373 23.1299L135.502 23.6201C136.016 24.5339 136.281 25.6135 136.281 26.875H137.281ZM136.379 23.1406C135.785 22.0215 134.874 21.1502 133.668 20.5249L133.207 21.4126C134.251 21.9539 135.006 22.6869 135.496 23.6094L136.379 23.1406ZM133.671 20.5267C132.474 19.8943 130.992 19.5938 129.25 19.5938V20.5938C130.883 20.5938 132.193 20.8765 133.204 21.4108L133.671 20.5267ZM129.25 19.5938C127.577 19.5938 126.146 19.8506 124.978 20.3898L125.397 21.2977C126.395 20.8369 127.673 20.5938 129.25 20.5938V19.5938ZM124.985 20.3865C123.83 20.8972 122.935 21.6108 122.331 22.54L123.169 23.085C123.649 22.3475 124.378 21.7486 125.39 21.301L124.985 20.3865ZM122.334 22.5352C121.735 23.4336 121.438 24.4477 121.438 25.5625H122.438C122.438 24.6356 122.682 23.8164 123.166 23.0898L122.334 22.5352ZM121.438 25.5625C121.438 26.4185 121.647 27.2063 122.071 27.9135L122.929 27.399C122.603 26.8562 122.438 26.2481 122.438 25.5625H121.438ZM122.078 27.9238C122.517 28.6173 123.152 29.2458 123.963 29.8153L124.537 28.9972C123.806 28.4834 123.275 27.9452 122.922 27.3887L122.078 27.9238ZM123.963 29.8153C124.769 30.3821 125.75 30.9084 126.898 31.3975L127.29 30.4775C126.188 30.0082 125.273 29.5138 124.537 28.9972L123.963 29.8153ZM126.898 31.3975C128.042 31.8848 129.361 32.3592 130.852 32.8213L131.148 31.8662C129.681 31.4116 128.396 30.9485 127.29 30.4775L126.898 31.3975ZM130.855 32.8223C133.313 33.566 135.463 34.3999 137.308 35.3222L137.755 34.4278C135.849 33.4751 133.645 32.6215 131.145 31.8652L130.855 32.8223ZM137.31 35.3232C139.172 36.2443 140.714 37.2712 141.943 38.3996L142.619 37.6629C141.307 36.458 139.682 35.3807 137.753 34.4268L137.31 35.3232ZM141.943 38.3996C143.166 39.5224 144.082 40.7891 144.698 42.2001L145.614 41.7999C144.939 40.2526 143.938 38.8734 142.619 37.6629L141.943 38.3996ZM144.698 42.2001C145.312 43.6068 145.625 45.2141 145.625 47.0312H146.625C146.625 45.0984 146.292 43.3516 145.614 41.7999L144.698 42.2001ZM145.625 47.0312C145.625 48.9442 145.253 50.6377 144.52 52.1225L145.417 52.565C146.226 50.9248 146.625 49.0766 146.625 47.0312H145.625ZM144.52 52.1225C143.786 53.6109 142.724 54.873 141.327 55.9111L141.923 56.7139C143.442 55.5853 144.61 54.2016 145.417 52.565L144.52 52.1225ZM141.327 55.9111C139.925 56.9526 138.243 57.751 136.272 58.2996L136.54 59.2629C138.611 58.6865 140.409 57.839 141.923 56.7139L141.327 55.9111ZM136.272 58.2996C134.302 58.8478 132.088 59.125 129.625 59.125V60.125C132.162 60.125 134.468 59.8397 136.54 59.2629L136.272 58.2996ZM129.625 59.125C127.419 59.125 125.243 58.8391 123.098 58.2669L122.84 59.2331C125.069 59.8276 127.331 60.125 129.625 60.125V59.125ZM123.102 58.268C120.964 57.6776 119.024 56.7933 117.28 55.6167L116.72 56.4458C118.559 57.6859 120.599 58.6141 122.836 59.232L123.102 58.268ZM117.282 55.6182C115.574 54.4532 114.21 52.9686 113.185 51.1597L112.315 51.6528C113.415 53.5939 114.884 55.1926 116.718 56.4443L117.282 55.6182ZM113.185 51.1597C112.173 49.373 111.656 47.2425 111.656 44.75H110.656C110.656 47.3825 111.202 49.6895 112.315 51.6528L113.185 51.1597ZM111.156 45.25H120.562V44.25H111.156V45.25ZM120.062 44.75C120.062 46.2155 120.288 47.4873 120.762 48.5477L121.675 48.1398C121.274 47.2419 121.062 46.1179 121.062 44.75H120.062ZM120.762 48.5477C121.231 49.5971 121.896 50.4575 122.759 51.1162L123.366 50.3213C122.646 49.7717 122.081 49.0487 121.675 48.1398L120.762 48.5477ZM122.764 51.12C123.636 51.7686 124.657 52.2321 125.818 52.5169L126.057 51.5456C125.009 51.2887 124.114 50.8773 123.361 50.3175L122.764 51.12ZM125.82 52.5174C126.989 52.7987 128.258 52.9375 129.625 52.9375V51.9375C128.325 51.9375 127.136 51.8055 126.055 51.5451L125.82 52.5174ZM129.625 52.9375C131.292 52.9375 132.7 52.7032 133.826 52.2077L133.424 51.2923C132.466 51.7135 131.208 51.9375 129.625 51.9375V52.9375ZM133.823 52.2091C134.959 51.7189 135.83 51.0231 136.395 50.1058L135.543 49.5817C135.107 50.2894 134.416 50.8645 133.427 51.2909L133.823 52.2091ZM136.39 50.1136C136.965 49.2158 137.25 48.2044 137.25 47.0938H136.25C136.25 48.0247 136.014 48.8467 135.548 49.5739L136.39 50.1136ZM160.938 10.9688H161.438V10.4688H160.938V10.9688ZM160.938 59V59.5H161.438V59H160.938ZM151.938 59H151.438V59.5H151.938V59ZM151.938 10.9688V10.4688H151.438V10.9688H151.938ZM182.25 25.1875L182.626 25.5171L183.353 24.6875H182.25V25.1875ZM167.562 41.9375L167.918 42.289L167.929 42.2784L167.938 42.2672L167.562 41.9375ZM159.688 49.9062L159.241 50.1316L159.554 50.7522L160.043 50.2577L159.688 49.9062ZM156.406 43.4062L156.013 43.0969L155.816 43.3472L155.96 43.6316L156.406 43.4062ZM162.656 35.4688L162.276 35.144L162.27 35.1516L162.263 35.1594L162.656 35.4688ZM171.438 25.1875V24.6875H171.207L171.057 24.8628L171.438 25.1875ZM172.906 59L172.485 59.2695L172.633 59.5H172.906V59ZM162.906 43.375L162.577 42.9986L162.253 43.2819L162.485 43.6445L162.906 43.375ZM169.125 37.9375L169.54 37.6586L169.223 37.1874L168.796 37.5611L169.125 37.9375ZM183.281 59V59.5H184.22L183.696 58.7211L183.281 59ZM160.438 10.9688V59H161.438V10.9688H160.438ZM160.938 58.5H151.938V59.5H160.938V58.5ZM152.438 59V10.9688H151.438V59H152.438ZM151.938 11.4688H160.938V10.4688H151.938V11.4688ZM181.874 24.8579L167.187 41.6078L167.938 42.2672L182.626 25.5171L181.874 24.8579ZM167.207 41.586L159.332 49.5548L160.043 50.2577L167.918 42.289L167.207 41.586ZM160.134 49.6809L156.853 43.1809L155.96 43.6316L159.241 50.1316L160.134 49.6809ZM156.799 43.7156L163.049 35.7781L162.263 35.1594L156.013 43.0969L156.799 43.7156ZM163.036 35.7935L171.818 25.5122L171.057 24.8628L162.276 35.144L163.036 35.7935ZM171.438 25.6875H182.25V24.6875H171.438V25.6875ZM173.327 58.7305L163.327 43.1055L162.485 43.6445L172.485 59.2695L173.327 58.7305ZM163.235 43.7514L169.454 38.3139L168.796 37.5611L162.577 42.9986L163.235 43.7514ZM168.71 38.2164L182.866 59.2789L183.696 58.7211L169.54 37.6586L168.71 38.2164ZM183.281 58.5H172.906V59.5H183.281V58.5ZM195.125 32.5625H195.625V32.5445L195.624 32.5266L195.125 32.5625ZM195.125 59V59.5H195.625V59H195.125ZM186.125 59H185.625V59.5H186.125V59ZM186.125 25.1875V24.6875H185.625V25.1875H186.125ZM194.594 25.1875L195.092 25.1516L195.059 24.6875H194.594V25.1875ZM205.312 24.9688L205.812 24.9781L205.819 24.6247L205.488 24.5006L205.312 24.9688ZM205.156 33.3125L205.086 33.8075L205.646 33.8875L205.656 33.3219L205.156 33.3125ZM203.562 33.1562L203.511 33.6536L203.52 33.6545L203.529 33.6551L203.562 33.1562ZM198.594 33.5625L198.755 34.0358L198.761 34.0336L198.594 33.5625ZM196.281 34.9688L195.928 34.6151L195.922 34.6212L196.281 34.9688ZM194.906 37.25L194.434 37.0853L194.431 37.0952L194.906 37.25ZM194.406 40.3125L194.258 40.79L194.882 40.9837L194.906 40.3307L194.406 40.3125ZM192.594 39.75H192.094V40.1184L192.446 40.2275L192.594 39.75ZM193.25 33.7188L193.736 33.8348L193.737 33.8336L193.25 33.7188ZM195.156 28.875L194.732 28.6111L194.729 28.6158L195.156 28.875ZM198.281 25.6875L198.021 25.2607L198.281 25.6875ZM204.031 24.6875L203.952 25.1812L203.962 25.1828L203.972 25.1839L204.031 24.6875ZM194.625 32.5625V59H195.625V32.5625H194.625ZM195.125 58.5H186.125V59.5H195.125V58.5ZM186.625 59V25.1875H185.625V59H186.625ZM186.125 25.6875H194.594V24.6875H186.125V25.6875ZM194.095 25.2234L194.626 32.5984L195.624 32.5266L195.092 25.1516L194.095 25.2234ZM204.813 24.9594L204.656 33.3031L205.656 33.3219L205.812 24.9781L204.813 24.9594ZM205.227 32.8175C204.773 32.7527 204.229 32.6995 203.596 32.6574L203.529 33.6551C204.146 33.6963 204.664 33.7473 205.086 33.8075L205.227 32.8175ZM203.614 32.6589C202.996 32.595 202.427 32.5625 201.906 32.5625V33.5625C202.386 33.5625 202.92 33.5925 203.511 33.6536L203.614 32.6589ZM201.906 32.5625C200.593 32.5625 199.43 32.7345 198.426 33.0914L198.761 34.0336C199.632 33.7239 200.677 33.5625 201.906 33.5625V32.5625ZM198.432 33.0892C197.45 33.424 196.612 33.9311 195.928 34.6152L196.635 35.3223C197.201 34.7564 197.904 34.326 198.755 34.0358L198.432 33.0892ZM195.922 34.6212C195.263 35.3029 194.768 36.1274 194.434 37.0853L195.378 37.4147C195.669 36.5809 196.091 35.8846 196.641 35.3163L195.922 34.6212ZM194.431 37.0952C194.122 38.0436 193.95 39.1117 193.907 40.2943L194.906 40.3307C194.946 39.2216 195.107 38.2481 195.382 37.4048L194.431 37.0952ZM194.554 39.835L192.742 39.2725L192.446 40.2275L194.258 40.79L194.554 39.835ZM193.094 39.75C193.094 37.5955 193.309 35.6246 193.736 33.8348L192.764 33.6027C192.316 35.4795 192.094 37.5295 192.094 39.75H193.094ZM193.737 33.8336C194.164 32.0212 194.782 30.457 195.584 29.1342L194.729 28.6158C193.864 30.043 193.211 31.708 192.763 33.6039L193.737 33.8336ZM195.581 29.1388C196.399 27.8219 197.387 26.8188 198.542 26.1143L198.021 25.2607C196.717 26.0562 195.622 27.1781 194.732 28.6112L195.581 29.1388ZM198.542 26.1143C199.685 25.4169 200.999 25.0625 202.5 25.0625V24.0625C200.834 24.0625 199.336 24.4581 198.021 25.2607L198.542 26.1143ZM202.5 25.0625C202.972 25.0625 203.456 25.1018 203.952 25.1812L204.11 24.1938C203.565 24.1065 203.028 24.0625 202.5 24.0625V25.0625ZM203.972 25.1839C204.47 25.2437 204.854 25.3308 205.137 25.4369L205.488 24.5006C205.104 24.3567 204.634 24.2563 204.091 24.1911L203.972 25.1839ZM226.219 33.5312L225.762 33.7354L225.764 33.74L226.219 33.5312ZM224.562 31.6875L224.305 32.1163L224.311 32.1194L224.562 31.6875ZM219.125 31.5625L219.333 32.0174L219.343 32.0123L219.125 31.5625ZM217.438 33.0312L217.86 33.2988L217.864 33.2925L217.438 33.0312ZM216.844 35.25V35.75H217.344V35.25H216.844ZM207.844 35.25H207.344V35.75H207.844V35.25ZM208.844 31.1562L208.399 30.9269L208.844 31.1562ZM211.75 27.75L212.055 28.1461L212.059 28.1429L211.75 27.75ZM216.281 25.4062L216.13 24.9297L216.128 24.9302L216.281 25.4062ZM234.031 29.8125L233.615 30.0899L233.618 30.0933L234.031 29.8125ZM236.156 55.4062L235.665 55.501L235.666 55.5026L236.156 55.4062ZM237.156 58.4688H237.656V58.3507L237.603 58.2451L237.156 58.4688ZM237.156 59V59.5H237.656V59H237.156ZM228.062 59L227.611 59.2154L227.747 59.5H228.062V59ZM227.062 55.5625L226.568 55.6363L226.569 55.6447L227.062 55.5625ZM227.938 38.4062L228.437 38.4001L228.431 37.9062H227.938V38.4062ZM228 43.5V44H228.506L228.5 43.4939L228 43.5ZM217.719 45.0625L218.043 45.4432L218.051 45.4362L217.719 45.0625ZM216.469 46.75L216.007 46.5566L216.002 46.5695L216.469 46.75ZM216.625 50.9688L216.19 51.2153L216.194 51.2216L216.625 50.9688ZM218.156 52.4062L217.922 52.8479L217.933 52.8535L218.156 52.4062ZM226.344 50.0938L225.936 49.8041L225.931 49.8114L226.344 50.0938ZM227.219 47.8438L227.643 47.5794L226.768 46.174L226.719 47.8291L227.219 47.8438ZM229.594 51.6562L230.06 51.838L230.151 51.6046L230.018 51.3919L229.594 51.6562ZM228.219 54.3125L227.797 54.044L227.793 54.051L228.219 54.3125ZM226.062 56.9062L226.398 57.2771L226.403 57.2726L226.062 56.9062ZM222.906 58.875L223.095 59.3382L223.101 59.3354L222.906 58.875ZM212.688 58.3438L212.462 58.7899L212.468 58.7931L212.688 58.3438ZM208.562 54.75L208.143 55.0221L208.147 55.0287L208.562 54.75ZM211 41.3125L211.294 41.7172L211.295 41.7163L211 41.3125ZM215.906 39.1562L216.025 39.6419L216.03 39.6407L215.906 39.1562ZM227.25 51.375V36.3125H226.25V51.375H227.25ZM227.25 36.3125C227.25 35.1764 227.064 34.1743 226.673 33.3225L225.764 33.74C226.081 34.4299 226.25 35.282 226.25 36.3125H227.25ZM226.675 33.3271C226.278 32.4399 225.655 31.7457 224.814 31.2556L224.311 32.1194C224.97 32.5043 225.451 33.0393 225.762 33.7354L226.675 33.3271ZM224.82 31.2588C223.989 30.7604 222.944 30.5312 221.719 30.5312V31.5312C222.827 31.5312 223.678 31.7396 224.305 32.1162L224.82 31.2588ZM221.719 30.5312C220.66 30.5312 219.718 30.7187 218.907 31.1127L219.343 32.0123C219.991 31.698 220.777 31.5312 221.719 31.5312V30.5312ZM218.917 31.1078C218.103 31.4799 217.462 32.0343 217.011 32.77L217.864 33.2925C218.205 32.7365 218.689 32.3118 219.333 32.0172L218.917 31.1078ZM217.015 32.7637C216.561 33.4805 216.344 34.3161 216.344 35.25H217.344C217.344 34.4756 217.522 33.832 217.86 33.2988L217.015 32.7637ZM216.844 34.75H207.844V35.75H216.844V34.75ZM208.344 35.25C208.344 33.8932 208.658 32.6072 209.288 31.3856L208.399 30.9269C207.697 32.2887 207.344 33.7318 207.344 35.25H208.344ZM209.288 31.3856C209.918 30.1655 210.836 29.0852 212.055 28.1461L211.445 27.3539C210.122 28.3731 209.103 29.5637 208.399 30.9269L209.288 31.3856ZM212.059 28.1429C213.277 27.1844 214.733 26.429 216.434 25.8823L216.128 24.9302C214.329 25.5085 212.764 26.3156 211.441 27.3571L212.059 28.1429ZM216.433 25.8828C218.147 25.3383 220.074 25.0625 222.219 25.0625V24.0625C219.989 24.0625 217.957 24.3492 216.13 24.9297L216.433 25.8828ZM222.219 25.0625C224.788 25.0625 227.053 25.4906 229.022 26.3346L229.416 25.4154C227.302 24.5094 224.899 24.0625 222.219 24.0625V25.0625ZM229.022 26.3346C230.98 27.1736 232.505 28.4252 233.615 30.0898L234.447 29.5352C233.224 27.6998 231.541 26.3264 229.416 25.4154L229.022 26.3346ZM233.618 30.0933C234.737 31.7424 235.312 33.8258 235.312 36.375H236.312C236.312 33.6742 235.701 31.3826 234.445 29.5317L233.618 30.0933ZM235.312 36.375V50.8438H236.312V36.375H235.312ZM235.312 50.8438C235.312 52.7148 235.428 54.2704 235.665 55.501L236.647 55.3115C236.426 54.1671 236.312 52.681 236.312 50.8438H235.312ZM235.666 55.5026C235.902 56.7043 236.248 57.7695 236.709 58.6924L237.603 58.2451C237.19 57.418 236.869 56.4415 236.647 55.3099L235.666 55.5026ZM236.656 58.4688V59H237.656V58.4688H236.656ZM237.156 58.5H228.062V59.5H237.156V58.5ZM228.514 58.7846C228.102 57.9226 227.78 56.825 227.556 55.4803L226.569 55.6447C226.804 57.05 227.148 58.2441 227.611 59.2154L228.514 58.7846ZM227.557 55.4887C227.352 54.117 227.25 52.7459 227.25 51.375H226.25C226.25 52.7958 226.356 54.2163 226.568 55.6363L227.557 55.4887ZM227.438 38.4124L227.5 43.5061L228.5 43.4939L228.437 38.4001L227.438 38.4124ZM228 43H222.969V44H228V43ZM222.969 43C221.745 43 220.662 43.1393 219.727 43.4286L220.023 44.3839C220.838 44.1315 221.817 44 222.969 44V43ZM219.727 43.4286C218.798 43.7161 218.013 44.1323 217.387 44.6888L218.051 45.4362C218.55 44.9927 219.202 44.6381 220.023 44.3839L219.727 43.4286ZM217.395 44.6819C216.776 45.209 216.31 45.8345 216.008 46.5566L216.93 46.9434C217.169 46.3738 217.537 45.8743 218.043 45.4431L217.395 44.6819ZM216.002 46.5695C215.728 47.2791 215.594 48.0494 215.594 48.875H216.594C216.594 48.1589 216.71 47.5126 216.935 46.9305L216.002 46.5695ZM215.594 48.875C215.594 49.7257 215.79 50.5096 216.19 51.2153L217.06 50.7222C216.752 50.1779 216.594 49.5659 216.594 48.875H215.594ZM216.194 51.2216C216.598 51.9119 217.18 52.4537 217.922 52.8478L218.391 51.9647C217.799 51.6505 217.36 51.2339 217.056 50.7159L216.194 51.2216ZM217.933 52.8535C218.681 53.2278 219.542 53.4062 220.5 53.4062V52.4062C219.666 52.4062 218.964 52.2513 218.38 51.959L217.933 52.8535ZM220.5 53.4062C221.922 53.4062 223.184 53.1216 224.269 52.5334L223.793 51.6541C222.879 52.1493 221.787 52.4062 220.5 52.4062V53.4062ZM224.269 52.5334C225.326 51.9609 226.162 51.2444 226.756 50.3761L225.931 49.8114C225.442 50.5264 224.736 51.1433 223.793 51.6541L224.269 52.5334ZM226.751 50.3834C227.35 49.5401 227.694 48.6959 227.719 47.8584L226.719 47.8291C226.702 48.4083 226.462 49.064 225.936 49.8041L226.751 50.3834ZM226.794 48.1081L229.169 51.9206L230.018 51.3919L227.643 47.5794L226.794 48.1081ZM229.128 51.4745C228.808 52.2935 228.366 53.1499 227.797 54.0441L228.641 54.5809C229.238 53.6417 229.712 52.7274 230.06 51.838L229.128 51.4745ZM227.793 54.051C227.256 54.925 226.568 55.7549 225.722 56.5399L226.403 57.2726C227.307 56.4326 228.056 55.5334 228.645 54.574L227.793 54.051ZM225.727 56.5355C224.899 57.2851 223.896 57.9128 222.711 58.4146L223.101 59.3354C224.375 58.7956 225.476 58.1108 226.398 57.277L225.727 56.5355ZM222.718 58.4119C221.562 58.8819 220.171 59.125 218.531 59.125V60.125C220.267 60.125 221.792 59.8681 223.095 59.3381L222.718 58.4119ZM218.531 59.125C216.454 59.125 214.582 58.712 212.907 57.8944L212.468 58.7931C214.293 59.6839 216.317 60.125 218.531 60.125V59.125ZM212.913 57.8976C211.256 57.059 209.948 55.9169 208.978 54.4713L208.147 55.0287C209.219 56.6248 210.661 57.8785 212.462 58.7899L212.913 57.8976ZM208.982 54.4779C208.038 53.0227 207.562 51.3684 207.562 49.5H206.562C206.562 51.5483 207.087 53.394 208.143 55.0221L208.982 54.4779ZM207.562 49.5C207.562 47.7927 207.884 46.2964 208.512 44.9994L207.613 44.5631C206.908 46.0161 206.562 47.6656 206.562 49.5H207.562ZM208.512 44.9994C209.142 43.7018 210.066 42.6085 211.294 41.7172L210.706 40.9078C209.351 41.8915 208.317 43.1107 207.613 44.5631L208.512 44.9994ZM211.295 41.7163C212.544 40.8046 214.115 40.1092 216.025 39.6419L215.787 38.6706C213.78 39.1617 212.081 39.9038 210.705 40.9087L211.295 41.7163ZM216.03 39.6407C217.938 39.1534 220.166 38.9062 222.719 38.9062V37.9062C220.105 37.9062 217.791 38.1591 215.783 38.6718L216.03 39.6407ZM222.719 38.9062H227.938V37.9062H222.719V38.9062ZM264.156 25.1875V24.6875H263.709L263.659 25.1318L264.156 25.1875ZM272.312 25.1875H272.812V24.6875H272.312V25.1875ZM270.25 65.7188L269.829 65.449L269.826 65.4538L270.25 65.7188ZM264.562 70.625L264.356 70.1695L264.353 70.171L264.562 70.625ZM251.562 71.75L251.446 72.2362L251.447 72.2365L251.562 71.75ZM247.062 70L246.819 70.4365L246.821 70.438L247.062 70ZM243.5 67L243.099 66.7008L242.869 67.0091L243.108 67.3107L243.5 67ZM247.469 61.6875L247.847 61.361L247.441 60.8894L247.068 61.3883L247.469 61.6875ZM251.094 64.5L251.317 64.0527L251.312 64.0501L251.094 64.5ZM259.781 64.625L259.551 64.1811L259.545 64.1845L259.781 64.625ZM262.375 62.0312L261.934 61.7947L261.933 61.798L262.375 62.0312ZM263.281 33L262.784 32.9443L262.781 32.9721V33H263.281ZM242.344 34.8125L241.865 34.6671L241.864 34.6701L242.344 34.8125ZM245.062 29.3438L244.668 29.036L244.666 29.0394L245.062 29.3438ZM264.5 29.375L264.078 29.6431L264.08 29.6457L264.5 29.375ZM266.781 34.7812L266.297 34.9071L266.299 34.9128L266.781 34.7812ZM268.094 41.5625H268.594V41.5308L268.59 41.4994L268.094 41.5625ZM268.094 43L268.589 43.0658L268.594 43.033V43H268.094ZM264.219 54.875L264.632 55.1563L264.634 55.1537L264.219 54.875ZM260.406 58.375L260.166 57.9365L260.163 57.9379L260.406 58.375ZM249.375 58.3438L249.147 58.7887L249.149 58.7899L249.375 58.3438ZM242.344 49.3125L241.865 49.4562L241.866 49.4605L242.344 49.3125ZM252.062 49.625L251.634 49.8823L251.641 49.8934L252.062 49.625ZM254.219 51.7812L253.958 52.2081L253.965 52.2118L253.971 52.2154L254.219 51.7812ZM261.344 51.5L261.619 51.9173L261.625 51.9135L261.344 51.5ZM264.594 44.3438L265.093 44.3697L265.094 44.3567V44.3438H264.594ZM264.594 40.25H265.094V40.2421L265.094 40.2341L264.594 40.25ZM264.062 36.7188L263.583 36.8598L263.584 36.8624L264.062 36.7188ZM254.281 32.4375L254.542 32.8644L254.544 32.8626L254.281 32.4375ZM252.125 34.5938L251.703 34.3253L251.699 34.3322L252.125 34.5938ZM250.844 37.8438L251.33 37.9592L251.331 37.9574L250.844 37.8438ZM264.156 25.6875H272.312V24.6875H264.156V25.6875ZM271.812 25.1875V57.875H272.812V25.1875H271.812ZM271.812 57.875C271.812 60.8829 271.143 63.3992 269.829 65.449L270.671 65.9885C272.107 63.7467 272.812 61.0337 272.812 57.875H271.812ZM269.826 65.4538C268.527 67.5328 266.708 69.104 264.356 70.1695L264.769 71.0805C267.292 69.9377 269.265 68.238 270.674 65.9837L269.826 65.4538ZM264.353 70.171C261.993 71.2602 259.234 71.8125 256.062 71.8125V72.8125C259.35 72.8125 262.257 72.2398 264.772 71.079L264.353 70.171ZM256.062 71.8125C254.69 71.8125 253.229 71.6308 251.678 71.2635L251.447 72.2365C253.063 72.6192 254.602 72.8125 256.062 72.8125V71.8125ZM251.679 71.2638C250.161 70.8995 248.703 70.3326 247.304 69.562L246.821 70.438C248.297 71.2507 249.839 71.8505 251.446 72.2362L251.679 71.2638ZM247.306 69.5635C245.944 68.802 244.807 67.8438 243.892 66.6893L243.108 67.3107C244.109 68.5729 245.348 69.6146 246.819 70.4365L247.306 69.5635ZM243.901 67.2992L247.869 61.9867L247.068 61.3883L243.099 66.7008L243.901 67.2992ZM247.09 62.014C248.174 63.2717 249.437 64.2522 250.876 64.9499L251.312 64.0501C250.001 63.4145 248.847 62.52 247.847 61.361L247.09 62.014ZM250.87 64.9472C252.32 65.6723 253.919 66.0312 255.656 66.0312V65.0312C254.061 65.0312 252.617 64.7027 251.317 64.0528L250.87 64.9472ZM255.656 66.0312C257.342 66.0312 258.803 65.7179 260.018 65.0655L259.545 64.1845C258.51 64.7404 257.221 65.0312 255.656 65.0312V66.0312ZM260.011 65.0689C261.229 64.4375 262.167 63.4984 262.817 62.2645L261.933 61.798C261.375 62.8558 260.583 63.6458 259.551 64.1811L260.011 65.0689ZM262.815 62.2678C263.467 61.0538 263.781 59.6035 263.781 57.9375H262.781C262.781 59.4799 262.491 60.7587 261.935 61.7947L262.815 62.2678ZM263.781 57.9375V33H262.781V57.9375H263.781ZM263.778 33.0557L264.653 25.2432L263.659 25.1318L262.784 32.9443L263.778 33.0557ZM241.906 42.5V41.8438H240.906V42.5H241.906ZM241.906 41.8438C241.906 39.3003 242.214 37.0055 242.823 34.9549L241.864 34.6701C241.224 36.8278 240.906 39.2205 240.906 41.8438H241.906ZM242.822 34.9579C243.453 32.8814 244.334 31.1144 245.459 29.6481L244.666 29.0394C243.457 30.6148 242.526 32.4936 241.865 34.6671L242.822 34.9579ZM245.457 29.6515C246.599 28.1883 247.978 27.06 249.596 26.2608L249.154 25.3642C247.397 26.2317 245.901 27.4575 244.668 29.036L245.457 29.6515ZM249.596 26.2608C251.207 25.4656 253.036 25.0625 255.094 25.0625V24.0625C252.902 24.0625 250.918 24.4927 249.154 25.3642L249.596 26.2608ZM255.094 25.0625C257.284 25.0625 259.081 25.4683 260.51 26.251L260.99 25.374C259.377 24.4901 257.403 24.0625 255.094 24.0625V25.0625ZM260.51 26.251C261.953 27.0416 263.142 28.1687 264.078 29.6431L264.922 29.1069C263.9 27.4979 262.589 26.2501 260.99 25.374L260.51 26.251ZM264.08 29.6457C265.025 31.1143 265.767 32.8656 266.297 34.9071L267.265 34.6554C266.713 32.5302 265.933 30.6773 264.92 29.1043L264.08 29.6457ZM266.299 34.9128C266.854 36.9496 267.288 39.1868 267.598 41.6256L268.59 41.4994C268.275 39.0215 267.833 36.7379 267.264 34.6497L266.299 34.9128ZM267.594 41.5625V43H268.594V41.5625H267.594ZM267.598 42.9342C267.289 45.2639 266.826 47.4237 266.21 49.4148L267.165 49.7102C267.799 47.6596 268.274 45.4444 268.589 43.0658L267.598 42.9342ZM266.21 49.4148C265.597 51.3962 264.794 53.1216 263.804 54.5963L264.634 55.1537C265.686 53.5868 266.528 51.7705 267.165 49.7102L266.21 49.4148ZM263.805 54.5937C262.827 56.0315 261.614 57.1429 260.166 57.9365L260.647 58.8135C262.24 57.9404 263.569 56.7185 264.632 55.1563L263.805 54.5937ZM260.163 57.9379C258.752 58.722 257.048 59.125 255.031 59.125V60.125C257.181 60.125 259.06 59.6947 260.649 58.8121L260.163 57.9379ZM255.031 59.125C253.018 59.125 251.211 58.7129 249.601 57.8976L249.149 58.7899C250.914 59.6829 252.878 60.125 255.031 60.125V59.125ZM249.603 57.8988C248.005 57.0796 246.634 55.9305 245.49 54.4449L244.698 55.0551C245.928 56.6529 247.412 57.8996 249.147 58.7887L249.603 57.8988ZM245.49 54.4449C244.343 52.9557 243.452 51.1978 242.821 49.1645L241.866 49.4605C242.527 51.5938 243.47 53.461 244.698 55.0551L245.49 54.4449ZM242.823 49.1688C242.213 47.1377 241.906 44.9159 241.906 42.5H240.906C240.906 45.0008 241.224 47.3206 241.865 49.4562L242.823 49.1688ZM249.906 41.8438V42.5H250.906V41.8438H249.906ZM249.906 42.5C249.906 43.928 250.045 45.2672 250.325 46.5156L251.3 46.2969C251.039 45.1287 250.906 43.8636 250.906 42.5H249.906ZM250.325 46.5156C250.606 47.7693 251.04 48.8933 251.634 49.8822L252.491 49.3678C251.96 48.4817 251.561 47.4599 251.3 46.2969L250.325 46.5156ZM251.641 49.8934C252.261 50.8689 253.034 51.6442 253.958 52.2081L254.479 51.3544C253.696 50.8766 253.03 50.2144 252.484 49.3566L251.641 49.8934ZM253.971 52.2154C254.934 52.7657 256.054 53.0312 257.312 53.0312V52.0312C256.196 52.0312 255.254 51.7968 254.467 51.3471L253.971 52.2154ZM257.312 53.0312C259.026 53.0312 260.473 52.6735 261.619 51.9173L261.068 51.0827C260.131 51.7015 258.891 52.0312 257.312 52.0312V53.0312ZM261.625 51.9135C262.751 51.1478 263.592 50.101 264.148 48.7888L263.227 48.3987C262.741 49.5449 262.02 50.4355 261.063 51.0865L261.625 51.9135ZM264.148 48.7888C264.696 47.4963 265.007 46.0206 265.093 44.3697L264.094 44.3178C264.014 45.8753 263.721 47.2329 263.227 48.3987L264.148 48.7888ZM265.094 44.3438V40.25H264.094V44.3438H265.094ZM265.094 40.2341C265.051 38.8869 264.869 37.6658 264.541 36.5751L263.584 36.8624C263.881 37.855 264.053 38.9881 264.094 40.2659L265.094 40.2341ZM264.542 36.5777C264.216 35.468 263.754 34.5056 263.15 33.7L262.35 34.3C262.871 34.9944 263.284 35.8445 263.583 36.8598L264.542 36.5777ZM263.15 33.7C262.535 32.8805 261.74 32.2461 260.773 31.7966L260.352 32.7034C261.177 33.0872 261.84 33.6195 262.35 34.3L263.15 33.7ZM260.773 31.7966C259.797 31.3427 258.66 31.125 257.375 31.125V32.125C258.549 32.125 259.536 32.324 260.352 32.7034L260.773 31.7966ZM257.375 31.125C256.109 31.125 254.984 31.4146 254.018 32.0124L254.544 32.8626C255.329 32.3771 256.266 32.125 257.375 32.125V31.125ZM254.021 32.0106C253.096 32.5746 252.324 33.3498 251.703 34.3253L252.547 34.8622C253.093 34.0043 253.758 33.3421 254.542 32.8644L254.021 32.0106ZM251.699 34.3322C251.103 35.3025 250.658 36.4377 250.357 37.7301L251.331 37.9574C251.612 36.7498 252.022 35.7183 252.551 34.8553L251.699 34.3322ZM250.357 37.7283C250.055 39.0001 249.906 40.3726 249.906 41.8438H250.906C250.906 40.4399 251.049 39.1458 251.33 37.9592L250.357 37.7283ZM300.719 25.1875V24.6875H300.272L300.222 25.1318L300.719 25.1875ZM308.875 25.1875H309.375V24.6875H308.875V25.1875ZM306.812 65.7188L306.391 65.449L306.389 65.4538L306.812 65.7188ZM301.125 70.625L300.919 70.1695L300.915 70.171L301.125 70.625ZM288.125 71.75L288.008 72.2362L288.01 72.2365L288.125 71.75ZM283.625 70L283.381 70.4365L283.384 70.438L283.625 70ZM280.062 67L279.662 66.7008L279.432 67.0091L279.671 67.3107L280.062 67ZM284.031 61.6875L284.41 61.361L284.003 60.8894L283.631 61.3883L284.031 61.6875ZM287.656 64.5L287.88 64.0527L287.874 64.0501L287.656 64.5ZM296.344 64.625L296.114 64.1811L296.107 64.1845L296.344 64.625ZM298.938 62.0312L298.497 61.7947L298.495 61.798L298.938 62.0312ZM299.844 33L299.347 32.9443L299.344 32.9721V33H299.844ZM278.906 34.8125L278.428 34.6671L278.427 34.6701L278.906 34.8125ZM281.625 29.3438L281.231 29.036L281.228 29.0394L281.625 29.3438ZM301.062 29.375L300.64 29.6431L300.642 29.6457L301.062 29.375ZM303.344 34.7812L302.86 34.9071L302.861 34.9128L303.344 34.7812ZM304.656 41.5625H305.156V41.5308L305.152 41.4994L304.656 41.5625ZM304.656 43L305.152 43.0658L305.156 43.033V43H304.656ZM300.781 54.875L301.195 55.1563L301.196 55.1537L300.781 54.875ZM296.969 58.375L296.728 57.9365L296.726 57.9379L296.969 58.375ZM285.938 58.3438L285.709 58.7887L285.712 58.7899L285.938 58.3438ZM278.906 49.3125L278.427 49.4562L278.429 49.4605L278.906 49.3125ZM288.625 49.625L288.196 49.8823L288.203 49.8934L288.625 49.625ZM290.781 51.7812L290.521 52.2081L290.527 52.2118L290.533 52.2154L290.781 51.7812ZM297.906 51.5L298.182 51.9173L298.187 51.9135L297.906 51.5ZM301.156 44.3438L301.656 44.3697L301.656 44.3567V44.3438H301.156ZM301.156 40.25H301.656V40.2421L301.656 40.2341L301.156 40.25ZM300.625 36.7188L300.145 36.8598L300.146 36.8624L300.625 36.7188ZM290.844 32.4375L291.104 32.8644L291.107 32.8626L290.844 32.4375ZM288.688 34.5938L288.266 34.3253L288.261 34.3322L288.688 34.5938ZM287.406 37.8438L287.893 37.9592L287.893 37.9574L287.406 37.8438ZM300.719 25.6875H308.875V24.6875H300.719V25.6875ZM308.375 25.1875V57.875H309.375V25.1875H308.375ZM308.375 57.875C308.375 60.8829 307.705 63.3992 306.392 65.449L307.233 65.9885C308.67 63.7467 309.375 61.0337 309.375 57.875H308.375ZM306.389 65.4538C305.089 67.5328 303.271 69.104 300.919 70.1695L301.331 71.0805C303.854 69.9377 305.828 68.238 307.236 65.9837L306.389 65.4538ZM300.915 70.171C298.556 71.2602 295.796 71.8125 292.625 71.8125V72.8125C295.912 72.8125 298.819 72.2398 301.335 71.079L300.915 70.171ZM292.625 71.8125C291.252 71.8125 289.791 71.6308 288.24 71.2635L288.01 72.2365C289.625 72.6192 291.164 72.8125 292.625 72.8125V71.8125ZM288.242 71.2638C286.724 70.8995 285.265 70.3326 283.866 69.562L283.384 70.438C284.86 71.2507 286.401 71.8505 288.008 72.2362L288.242 71.2638ZM283.869 69.5635C282.506 68.802 281.37 67.8438 280.454 66.6893L279.671 67.3107C280.672 68.5729 281.91 69.6146 283.381 70.4365L283.869 69.5635ZM280.463 67.2992L284.432 61.9867L283.631 61.3883L279.662 66.7008L280.463 67.2992ZM283.653 62.014C284.737 63.2717 285.999 64.2522 287.438 64.9499L287.874 64.0501C286.563 63.4145 285.409 62.52 284.41 61.361L283.653 62.014ZM287.433 64.9472C288.883 65.6723 290.481 66.0312 292.219 66.0312V65.0312C290.623 65.0312 289.18 64.7027 287.88 64.0528L287.433 64.9472ZM292.219 66.0312C293.904 66.0312 295.365 65.7179 296.58 65.0655L296.107 64.1845C295.072 64.7404 293.783 65.0312 292.219 65.0312V66.0312ZM296.574 65.0689C297.792 64.4375 298.729 63.4984 299.38 62.2645L298.495 61.798C297.937 62.8558 297.146 63.6458 296.114 64.1811L296.574 65.0689ZM299.378 62.2678C300.03 61.0538 300.344 59.6035 300.344 57.9375H299.344C299.344 59.4799 299.053 60.7587 298.497 61.7947L299.378 62.2678ZM300.344 57.9375V33H299.344V57.9375H300.344ZM300.341 33.0557L301.216 25.2432L300.222 25.1318L299.347 32.9443L300.341 33.0557ZM278.469 42.5V41.8438H277.469V42.5H278.469ZM278.469 41.8438C278.469 39.3003 278.776 37.0055 279.386 34.9549L278.427 34.6701C277.786 36.8278 277.469 39.2205 277.469 41.8438H278.469ZM279.385 34.9579C280.016 32.8814 280.897 31.1144 282.022 29.6481L281.228 29.0394C280.02 30.6148 279.088 32.4936 278.428 34.6671L279.385 34.9579ZM282.019 29.6515C283.162 28.1883 284.541 27.06 286.159 26.2608L285.716 25.3642C283.959 26.2317 282.463 27.4575 281.231 29.036L282.019 29.6515ZM286.159 26.2608C287.769 25.4656 289.598 25.0625 291.656 25.0625V24.0625C289.464 24.0625 287.481 24.4927 285.716 25.3642L286.159 26.2608ZM291.656 25.0625C293.847 25.0625 295.644 25.4683 297.072 26.251L297.553 25.374C295.94 24.4901 293.966 24.0625 291.656 24.0625V25.0625ZM297.072 26.251C298.515 27.0416 299.704 28.1687 300.64 29.6431L301.485 29.1069C300.463 27.4979 299.152 26.2501 297.553 25.374L297.072 26.251ZM300.642 29.6457C301.588 31.1143 302.329 32.8656 302.86 34.9071L303.828 34.6554C303.275 32.5302 302.496 30.6773 301.483 29.1043L300.642 29.6457ZM302.861 34.9128C303.417 36.9496 303.85 39.1868 304.16 41.6256L305.152 41.4994C304.837 39.0215 304.396 36.7379 303.826 34.6497L302.861 34.9128ZM304.156 41.5625V43H305.156V41.5625H304.156ZM304.161 42.9342C303.851 45.2639 303.388 47.4237 302.772 49.4148L303.728 49.7102C304.362 47.6596 304.836 45.4444 305.152 43.0658L304.161 42.9342ZM302.772 49.4148C302.16 51.3962 301.356 53.1216 300.366 54.5963L301.196 55.1537C302.248 53.5868 303.09 51.7705 303.728 49.7102L302.772 49.4148ZM300.368 54.5937C299.389 56.0315 298.177 57.1429 296.728 57.9365L297.209 58.8135C298.802 57.9404 300.131 56.7185 301.195 55.1563L300.368 54.5937ZM296.726 57.9379C295.315 58.722 293.61 59.125 291.594 59.125V60.125C293.744 60.125 295.623 59.6947 297.212 58.8121L296.726 57.9379ZM291.594 59.125C289.581 59.125 287.774 58.7129 286.163 57.8976L285.712 58.7899C287.476 59.6829 289.44 60.125 291.594 60.125V59.125ZM286.166 57.8988C284.567 57.0796 283.197 55.9305 282.052 54.4449L281.26 55.0551C282.491 56.6529 283.975 57.8996 285.709 58.7887L286.166 57.8988ZM282.052 54.4449C280.905 52.9557 280.014 51.1978 279.384 49.1645L278.429 49.4605C279.09 51.5938 280.032 53.461 281.26 55.0551L282.052 54.4449ZM279.385 49.1688C278.776 47.1377 278.469 44.9159 278.469 42.5H277.469C277.469 45.0008 277.787 47.3206 278.427 49.4562L279.385 49.1688ZM286.469 41.8438V42.5H287.469V41.8438H286.469ZM286.469 42.5C286.469 43.928 286.607 45.2672 286.887 46.5156L287.863 46.2969C287.601 45.1287 287.469 43.8636 287.469 42.5H286.469ZM286.887 46.5156C287.168 47.7693 287.603 48.8933 288.196 49.8822L289.054 49.3678C288.522 48.4817 288.124 47.4599 287.863 46.2969L286.887 46.5156ZM288.203 49.8934C288.824 50.8689 289.596 51.6442 290.521 52.2081L291.042 51.3544C290.258 50.8766 289.593 50.2144 289.047 49.3566L288.203 49.8934ZM290.533 52.2154C291.496 52.7657 292.616 53.0312 293.875 53.0312V52.0312C292.759 52.0312 291.816 51.7968 291.029 51.3471L290.533 52.2154ZM293.875 53.0312C295.588 53.0312 297.036 52.6735 298.182 51.9173L297.631 51.0827C296.693 51.7015 295.454 52.0312 293.875 52.0312V53.0312ZM298.187 51.9135C299.313 51.1478 300.154 50.101 300.71 48.7888L299.79 48.3987C299.304 49.5449 298.582 50.4355 297.625 51.0865L298.187 51.9135ZM300.71 48.7888C301.258 47.4963 301.57 46.0206 301.656 44.3697L300.657 44.3178C300.576 45.8753 300.284 47.2329 299.79 48.3987L300.71 48.7888ZM301.656 44.3438V40.25H300.656V44.3438H301.656ZM301.656 40.2341C301.613 38.8869 301.431 37.6658 301.104 36.5751L300.146 36.8624C300.444 37.855 300.616 38.9881 300.656 40.2659L301.656 40.2341ZM301.105 36.5777C300.778 35.468 300.317 34.5056 299.712 33.7L298.913 34.3C299.433 34.9944 299.847 35.8445 300.145 36.8598L301.105 36.5777ZM299.712 33.7C299.098 32.8805 298.302 32.2461 297.336 31.7966L296.914 32.7034C297.739 33.0872 298.402 33.6195 298.913 34.3L299.712 33.7ZM297.336 31.7966C296.36 31.3427 295.222 31.125 293.938 31.125V32.125C295.111 32.125 296.098 32.324 296.914 32.7034L297.336 31.7966ZM293.938 31.125C292.672 31.125 291.546 31.4146 290.581 32.0124L291.107 32.8626C291.891 32.3771 292.828 32.125 293.938 32.125V31.125ZM290.583 32.0106C289.659 32.5746 288.886 33.3498 288.266 34.3253L289.109 34.8622C289.655 34.0043 290.321 33.3421 291.104 32.8644L290.583 32.0106ZM288.261 34.3322C287.666 35.3025 287.221 36.4377 286.919 37.7301L287.893 37.9574C288.175 36.7498 288.584 35.7183 289.114 34.8553L288.261 34.3322ZM286.92 37.7283C286.618 39.0001 286.469 40.3726 286.469 41.8438H287.469C287.469 40.4399 287.611 39.1458 287.893 37.9592L286.92 37.7283ZM325.375 11H325.875V10.5H325.375V11ZM325.375 59V59.5H325.875V59H325.375ZM316.344 59H315.844V59.5H316.344V59ZM316.344 11V10.5H315.844V11H316.344ZM324.875 11V59H325.875V11H324.875ZM325.375 58.5H316.344V59.5H325.375V58.5ZM316.844 59V11H315.844V59H316.844ZM316.344 11.5H325.375V10.5H316.344V11.5ZM341.312 58.375L341.123 58.8376L341.127 58.8392L341.312 58.375ZM336 54.8438L335.639 55.1897L335.642 55.1923L336 54.8438ZM332.688 49.625L332.221 49.8048L332.222 49.8065L332.688 49.625ZM332.625 34.9688L332.152 34.8065L332.625 34.9688ZM335.75 29.4375L335.375 29.1072L335.372 29.11L335.75 29.4375ZM340.75 25.8438L340.946 26.3038L340.95 26.3021L340.75 25.8438ZM358.406 29.125L358.027 29.4504L358.029 29.4535L358.406 29.125ZM361.281 34.375L360.805 34.5258L360.805 34.5272L361.281 34.375ZM362.25 44.875V45.375H362.75V44.875H362.25ZM335.375 44.875H334.875V45.375H335.375V44.875ZM335.375 38.875V38.375H334.875V38.875H335.375ZM353.406 38.875V39.375H353.906V38.875H353.406ZM352.719 34.8438L352.261 35.0442L352.266 35.0557L352.719 34.8438ZM342.125 34.5625L341.692 34.3123L341.688 34.3197L342.125 34.5625ZM340.938 37.875L340.448 37.7708L340.447 37.7769L340.938 37.875ZM341.125 47L340.65 47.1555L340.652 47.1633L341.125 47ZM342.781 49.9688L342.4 50.2926L342.405 50.298L342.781 49.9688ZM345.406 51.9062L345.201 52.3624L345.205 52.3639L345.406 51.9062ZM353.469 51.6562L353.673 52.1126L353.676 52.1112L353.469 51.6562ZM357.125 48.75L357.493 48.4113L357.096 47.9804L356.733 48.44L357.125 48.75ZM361.5 53.5L361.911 53.785L362.139 53.4559L361.868 53.1613L361.5 53.5ZM358.594 56.4375L358.291 56.0399L358.287 56.0425L358.594 56.4375ZM354.219 58.75L354.38 59.2232L354.385 59.2214L354.219 58.75ZM348.375 59.125C345.803 59.125 343.513 58.7168 341.498 57.9108L341.127 58.8392C343.278 59.6998 345.697 60.125 348.375 60.125V59.125ZM341.502 57.9124C339.477 57.0822 337.765 55.9423 336.358 54.4952L335.642 55.1923C337.151 56.7452 338.981 57.9594 341.123 58.8376L341.502 57.9124ZM336.361 54.4978C334.97 53.0463 333.901 51.3629 333.153 49.4435L332.222 49.8065C333.016 51.8454 334.155 53.6412 335.639 55.1897L336.361 54.4978ZM333.154 49.4452C332.406 47.5054 332.031 45.4416 332.031 43.25H331.031C331.031 45.5584 331.427 47.7446 332.221 49.8048L333.154 49.4452ZM332.031 43.25V42H331.031V43.25H332.031ZM332.031 42C332.031 39.4851 332.389 37.197 333.098 35.131L332.152 34.8065C331.403 36.9905 331.031 39.3899 331.031 42H332.031ZM333.098 35.131C333.808 33.0614 334.819 31.275 336.128 29.765L335.372 29.11C333.972 30.725 332.9 32.6261 332.152 34.8065L333.098 35.131ZM336.125 29.7678C337.45 28.2627 339.055 27.1086 340.946 26.3038L340.554 25.3837C338.529 26.2456 336.8 27.4873 335.375 29.1072L336.125 29.7678ZM340.95 26.3021C342.836 25.4792 344.975 25.0625 347.375 25.0625V24.0625C344.858 24.0625 342.58 24.4999 340.55 25.3854L340.95 26.3021ZM347.375 25.0625C349.716 25.0625 351.772 25.4492 353.554 26.2098L353.946 25.2902C352.02 24.4675 349.826 24.0625 347.375 24.0625V25.0625ZM353.554 26.2098C355.341 26.9729 356.829 28.0533 358.027 29.4504L358.786 28.7996C357.483 27.2801 355.868 26.1104 353.946 25.2902L353.554 26.2098ZM358.029 29.4535C359.25 30.8548 360.177 32.5425 360.805 34.5258L361.758 34.2242C361.094 32.1241 360.104 30.3119 358.783 28.7965L358.029 29.4535ZM360.805 34.5272C361.433 36.4914 361.75 38.689 361.75 41.125H362.75C362.75 38.6027 362.421 36.3003 361.758 34.2228L360.805 34.5272ZM361.75 41.125V44.875H362.75V41.125H361.75ZM362.25 44.375H335.375V45.375H362.25V44.375ZM335.875 44.875V38.875H334.875V44.875H335.875ZM335.375 39.375H353.406V38.375H335.375V39.375ZM353.906 38.875V38.1875H352.906V38.875H353.906ZM353.906 38.1875C353.906 36.8756 353.665 35.6869 353.172 34.6318L352.266 35.0557C352.689 35.9589 352.906 36.9994 352.906 38.1875H353.906ZM353.177 34.6433C352.701 33.556 351.971 32.6875 350.992 32.0498L350.446 32.8877C351.258 33.4167 351.861 34.1315 352.261 35.0442L353.177 34.6433ZM350.992 32.0498C349.993 31.3996 348.745 31.0938 347.281 31.0938V32.0938C348.609 32.0938 349.653 32.3712 350.446 32.8877L350.992 32.0498ZM347.281 31.0938C346.019 31.0938 344.905 31.3712 343.958 31.9481L344.479 32.8019C345.241 32.3372 346.168 32.0938 347.281 32.0938V31.0938ZM343.958 31.9481C343.027 32.516 342.272 33.3085 341.692 34.3124L342.558 34.8126C343.061 33.9415 343.702 33.2756 344.479 32.8019L343.958 31.9481ZM341.688 34.3197C341.139 35.3086 340.728 36.4613 340.448 37.7708L341.427 37.9792C341.689 36.747 342.07 35.6914 342.562 34.8053L341.688 34.3197ZM340.447 37.7769C340.19 39.0643 340.062 40.4727 340.062 42H341.062C341.062 40.5273 341.185 39.1857 341.428 37.9731L340.447 37.7769ZM340.062 42V43.25H341.062V42H340.062ZM340.062 43.25C340.062 44.6506 340.256 45.9537 340.65 47.1555L341.6 46.8445C341.244 45.7546 341.062 44.5578 341.062 43.25H340.062ZM340.652 47.1633C341.066 48.3615 341.648 49.407 342.4 50.2926L343.162 49.6449C342.498 48.8638 341.975 47.9302 341.598 46.8367L340.652 47.1633ZM342.405 50.298C343.182 51.1861 344.116 51.8749 345.201 52.3624L345.611 51.4501C344.655 51.0209 343.839 50.4181 343.158 49.6395L342.405 50.298ZM345.205 52.3639C346.319 52.8541 347.566 53.0938 348.938 53.0938V52.0938C347.684 52.0938 346.577 51.875 345.608 51.4486L345.205 52.3639ZM348.938 53.0938C350.628 53.0938 352.209 52.7682 353.673 52.1126L353.264 51.1999C351.937 51.7943 350.497 52.0938 348.938 52.0938V53.0938ZM353.676 52.1112C355.169 51.4305 356.45 50.4103 357.517 49.06L356.733 48.44C355.758 49.673 354.602 50.5903 353.261 51.2013L353.676 52.1112ZM356.757 49.0887L361.132 53.8387L361.868 53.1613L357.493 48.4113L356.757 49.0887ZM361.089 53.215C360.417 54.1839 359.488 55.1267 358.291 56.0399L358.897 56.8351C360.158 55.8733 361.166 54.8578 361.911 53.785L361.089 53.215ZM358.287 56.0425C357.128 56.9418 355.719 57.6891 354.052 58.2786L354.385 59.2214C356.135 58.6026 357.643 57.8082 358.9 56.8325L358.287 56.0425ZM354.057 58.2768C352.411 58.8391 350.519 59.125 348.375 59.125V60.125C350.606 60.125 352.61 59.8276 354.38 59.2232L354.057 58.2768Z" fill="#1F2847"/>
<path d="M116.719 82.25V105H112.031V82.25H116.719ZM125.781 91.9688V95.625H115.438V91.9688H125.781ZM126.875 82.25V85.9219H115.438V82.25H126.875ZM138.969 100.953V88.0938H143.469V105H139.234L138.969 100.953ZM139.469 97.4844L140.797 97.4531C140.797 98.5781 140.667 99.625 140.406 100.594C140.146 101.552 139.755 102.385 139.234 103.094C138.714 103.792 138.057 104.339 137.266 104.734C136.474 105.12 135.542 105.312 134.469 105.312C133.646 105.312 132.885 105.198 132.188 104.969C131.5 104.729 130.906 104.359 130.406 103.859C129.917 103.349 129.531 102.698 129.25 101.906C128.979 101.104 128.844 100.141 128.844 99.0156V88.0938H133.344V99.0469C133.344 99.5469 133.401 99.9688 133.516 100.312C133.641 100.656 133.812 100.938 134.031 101.156C134.25 101.375 134.505 101.531 134.797 101.625C135.099 101.719 135.432 101.766 135.797 101.766C136.724 101.766 137.453 101.578 137.984 101.203C138.526 100.828 138.906 100.318 139.125 99.6719C139.354 99.0156 139.469 98.2865 139.469 97.4844ZM151.312 91.7031V105H146.812V88.0938H151.031L151.312 91.7031ZM150.656 95.9531H149.438C149.438 94.7031 149.599 93.5781 149.922 92.5781C150.245 91.5677 150.698 90.7083 151.281 90C151.865 89.2812 152.557 88.7344 153.359 88.3594C154.172 87.974 155.078 87.7812 156.078 87.7812C156.87 87.7812 157.594 87.8958 158.25 88.125C158.906 88.3542 159.469 88.7188 159.938 89.2188C160.417 89.7188 160.781 90.3802 161.031 91.2031C161.292 92.026 161.422 93.0312 161.422 94.2188V105H156.891V94.2031C156.891 93.4531 156.786 92.8698 156.578 92.4531C156.37 92.0365 156.062 91.7448 155.656 91.5781C155.26 91.401 154.771 91.3125 154.188 91.3125C153.583 91.3125 153.057 91.4323 152.609 91.6719C152.172 91.9115 151.807 92.2448 151.516 92.6719C151.234 93.0885 151.021 93.5781 150.875 94.1406C150.729 94.7031 150.656 95.3073 150.656 95.9531ZM174.828 101.312V81H179.359V105H175.281L174.828 101.312ZM164.141 96.75V96.4219C164.141 95.1302 164.286 93.9583 164.578 92.9062C164.87 91.8438 165.297 90.9323 165.859 90.1719C166.422 89.4115 167.115 88.8229 167.938 88.4062C168.76 87.9896 169.698 87.7812 170.75 87.7812C171.74 87.7812 172.604 87.9896 173.344 88.4062C174.094 88.8229 174.729 89.4167 175.25 90.1875C175.781 90.9479 176.208 91.849 176.531 92.8906C176.854 93.9219 177.089 95.0521 177.234 96.2812V97C177.089 98.1771 176.854 99.2708 176.531 100.281C176.208 101.292 175.781 102.177 175.25 102.938C174.729 103.688 174.094 104.271 173.344 104.688C172.594 105.104 171.719 105.312 170.719 105.312C169.667 105.312 168.729 105.099 167.906 104.672C167.094 104.245 166.406 103.646 165.844 102.875C165.292 102.104 164.87 101.198 164.578 100.156C164.286 99.1146 164.141 97.9792 164.141 96.75ZM168.641 96.4219V96.75C168.641 97.4479 168.693 98.099 168.797 98.7031C168.911 99.3073 169.094 99.8438 169.344 100.312C169.604 100.771 169.938 101.13 170.344 101.391C170.76 101.641 171.266 101.766 171.859 101.766C172.63 101.766 173.266 101.594 173.766 101.25C174.266 100.896 174.646 100.411 174.906 99.7969C175.177 99.1823 175.333 98.474 175.375 97.6719V95.625C175.344 94.9688 175.25 94.3802 175.094 93.8594C174.948 93.3281 174.729 92.875 174.438 92.5C174.156 92.125 173.802 91.8333 173.375 91.625C172.958 91.4167 172.464 91.3125 171.891 91.3125C171.307 91.3125 170.807 91.4479 170.391 91.7188C169.974 91.9792 169.635 92.3385 169.375 92.7969C169.125 93.2552 168.938 93.7969 168.812 94.4219C168.698 95.0365 168.641 95.7031 168.641 96.4219ZM187.375 91.7812V105H182.875V88.0938H187.109L187.375 91.7812ZM192.469 87.9844L192.391 92.1562C192.172 92.125 191.906 92.099 191.594 92.0781C191.292 92.0469 191.016 92.0312 190.766 92.0312C190.13 92.0312 189.578 92.1146 189.109 92.2812C188.651 92.4375 188.266 92.6719 187.953 92.9844C187.651 93.2969 187.422 93.6771 187.266 94.125C187.12 94.5729 187.036 95.0833 187.016 95.6562L186.109 95.375C186.109 94.2812 186.219 93.276 186.438 92.3594C186.656 91.4323 186.974 90.625 187.391 89.9375C187.818 89.25 188.339 88.7188 188.953 88.3438C189.568 87.9688 190.271 87.7812 191.062 87.7812C191.312 87.7812 191.568 87.8021 191.828 87.8438C192.089 87.875 192.302 87.9219 192.469 87.9844ZM203.188 101.188V93.6562C203.188 93.1146 203.099 92.651 202.922 92.2656C202.745 91.8698 202.469 91.5625 202.094 91.3438C201.729 91.125 201.255 91.0156 200.672 91.0156C200.172 91.0156 199.74 91.1042 199.375 91.2812C199.01 91.4479 198.729 91.6927 198.531 92.0156C198.333 92.3281 198.234 92.6979 198.234 93.125H193.734C193.734 92.4062 193.901 91.724 194.234 91.0781C194.568 90.4323 195.052 89.8646 195.688 89.375C196.323 88.875 197.078 88.4844 197.953 88.2031C198.839 87.9219 199.828 87.7812 200.922 87.7812C202.234 87.7812 203.401 88 204.422 88.4375C205.443 88.875 206.245 89.5312 206.828 90.4062C207.422 91.2812 207.719 92.375 207.719 93.6875V100.922C207.719 101.849 207.776 102.609 207.891 103.203C208.005 103.786 208.172 104.297 208.391 104.734V105H203.844C203.625 104.542 203.458 103.969 203.344 103.281C203.24 102.583 203.188 101.885 203.188 101.188ZM203.781 94.7031L203.812 97.25H201.297C200.703 97.25 200.188 97.3177 199.75 97.4531C199.312 97.5885 198.953 97.7812 198.672 98.0312C198.391 98.2708 198.182 98.5521 198.047 98.875C197.922 99.1979 197.859 99.5521 197.859 99.9375C197.859 100.323 197.948 100.672 198.125 100.984C198.302 101.286 198.557 101.526 198.891 101.703C199.224 101.87 199.615 101.953 200.062 101.953C200.74 101.953 201.328 101.818 201.828 101.547C202.328 101.276 202.714 100.943 202.984 100.547C203.266 100.151 203.411 99.776 203.422 99.4219L204.609 101.328C204.443 101.755 204.214 102.198 203.922 102.656C203.641 103.115 203.281 103.547 202.844 103.953C202.406 104.349 201.88 104.677 201.266 104.938C200.651 105.188 199.922 105.312 199.078 105.312C198.005 105.312 197.031 105.099 196.156 104.672C195.292 104.234 194.604 103.635 194.094 102.875C193.594 102.104 193.344 101.229 193.344 100.25C193.344 99.3646 193.51 98.5781 193.844 97.8906C194.177 97.2031 194.667 96.625 195.312 96.1562C195.969 95.6771 196.786 95.3177 197.766 95.0781C198.745 94.8281 199.88 94.7031 201.172 94.7031H203.781ZM215.938 88.0938V105H211.422V88.0938H215.938ZM211.141 83.6875C211.141 83.0312 211.37 82.4896 211.828 82.0625C212.286 81.6354 212.901 81.4219 213.672 81.4219C214.432 81.4219 215.042 81.6354 215.5 82.0625C215.969 82.4896 216.203 83.0312 216.203 83.6875C216.203 84.3438 215.969 84.8854 215.5 85.3125C215.042 85.7396 214.432 85.9531 213.672 85.9531C212.901 85.9531 212.286 85.7396 211.828 85.3125C211.37 84.8854 211.141 84.3438 211.141 83.6875ZM228.797 100.328C228.797 100.005 228.703 99.7135 228.516 99.4531C228.328 99.1927 227.979 98.9531 227.469 98.7344C226.969 98.5052 226.245 98.2969 225.297 98.1094C224.443 97.9219 223.646 97.6875 222.906 97.4062C222.177 97.1146 221.542 96.7656 221 96.3594C220.469 95.9531 220.052 95.474 219.75 94.9219C219.448 94.3594 219.297 93.7188 219.297 93C219.297 92.2917 219.448 91.625 219.75 91C220.062 90.375 220.505 89.8229 221.078 89.3438C221.661 88.8542 222.37 88.474 223.203 88.2031C224.047 87.9219 224.995 87.7812 226.047 87.7812C227.516 87.7812 228.776 88.0156 229.828 88.4844C230.891 88.9531 231.703 89.599 232.266 90.4219C232.839 91.2344 233.125 92.1615 233.125 93.2031H228.625C228.625 92.7656 228.531 92.375 228.344 92.0312C228.167 91.6771 227.885 91.401 227.5 91.2031C227.125 90.9948 226.635 90.8906 226.031 90.8906C225.531 90.8906 225.099 90.9792 224.734 91.1562C224.37 91.3229 224.089 91.5521 223.891 91.8438C223.703 92.125 223.609 92.4375 223.609 92.7812C223.609 93.0417 223.661 93.276 223.766 93.4844C223.88 93.6823 224.062 93.8646 224.312 94.0312C224.562 94.1979 224.885 94.3542 225.281 94.5C225.688 94.6354 226.188 94.7604 226.781 94.875C228 95.125 229.089 95.4531 230.047 95.8594C231.005 96.2552 231.766 96.7969 232.328 97.4844C232.891 98.1615 233.172 99.0521 233.172 100.156C233.172 100.906 233.005 101.594 232.672 102.219C232.339 102.844 231.859 103.391 231.234 103.859C230.609 104.318 229.859 104.677 228.984 104.938C228.12 105.188 227.146 105.312 226.062 105.312C224.49 105.312 223.156 105.031 222.062 104.469C220.979 103.906 220.156 103.193 219.594 102.328C219.042 101.453 218.766 100.557 218.766 99.6406H223.031C223.052 100.255 223.208 100.75 223.5 101.125C223.802 101.5 224.182 101.771 224.641 101.938C225.109 102.104 225.615 102.188 226.156 102.188C226.74 102.188 227.224 102.109 227.609 101.953C227.995 101.786 228.286 101.568 228.484 101.297C228.693 101.016 228.797 100.693 228.797 100.328ZM243.875 105.312C242.562 105.312 241.385 105.104 240.344 104.688C239.302 104.26 238.417 103.672 237.688 102.922C236.969 102.172 236.417 101.302 236.031 100.312C235.646 99.3125 235.453 98.25 235.453 97.125V96.5C235.453 95.2188 235.635 94.0469 236 92.9844C236.365 91.9219 236.885 91 237.562 90.2188C238.25 89.4375 239.083 88.8385 240.062 88.4219C241.042 87.9948 242.146 87.7812 243.375 87.7812C244.573 87.7812 245.635 87.9792 246.562 88.375C247.49 88.7708 248.266 89.3333 248.891 90.0625C249.526 90.7917 250.005 91.6667 250.328 92.6875C250.651 93.6979 250.812 94.8229 250.812 96.0625V97.9375H237.375V94.9375H246.391V94.5938C246.391 93.9688 246.276 93.4115 246.047 92.9219C245.828 92.4219 245.495 92.026 245.047 91.7344C244.599 91.4427 244.026 91.2969 243.328 91.2969C242.734 91.2969 242.224 91.4271 241.797 91.6875C241.37 91.9479 241.021 92.3125 240.75 92.7812C240.49 93.25 240.292 93.8021 240.156 94.4375C240.031 95.0625 239.969 95.75 239.969 96.5V97.125C239.969 97.8021 240.062 98.4271 240.25 99C240.448 99.5729 240.724 100.068 241.078 100.484C241.443 100.901 241.88 101.224 242.391 101.453C242.911 101.682 243.5 101.797 244.156 101.797C244.969 101.797 245.724 101.641 246.422 101.328C247.13 101.005 247.74 100.521 248.25 99.875L250.438 102.25C250.083 102.76 249.599 103.25 248.984 103.719C248.38 104.188 247.651 104.573 246.797 104.875C245.943 105.167 244.969 105.312 243.875 105.312Z" fill="#FF576B"/>
<path d="M50.5003 13.5834C27.3545 13.5834 8.41699 32.8959 8.41699 56.5C8.41699 80.1042 27.3545 99.4167 50.5003 99.4167C73.6462 99.4167 92.5836 80.1042 92.5836 56.5C92.5836 32.8959 73.6462 13.5834 50.5003 13.5834ZM50.5003 22.1667C67.3337 22.1667 81.642 35.0417 83.7462 52.2084H50.5003V22.1667ZM67.3337 86.1125L53.0253 60.7917H84.167C82.4837 71.5209 76.592 80.9625 67.3337 86.1125Z" fill="#1F2847"/>
</svg>
