<svg width="48" height="48" viewBox="0 0 48 48" fill="none" xmlns="http://www.w3.org/2000/svg">
<rect x="0.25" y="0.25" width="47.5" height="47.5" rx="6.75" stroke="#CDC7C7" stroke-width="0.5"/>
<path d="M23.5054 18.0666C22.8456 18.2218 22.574 18.998 23.0397 19.4248C23.3889 19.8129 24.7472 19.2696 24.7472 18.7263C24.7472 18.1054 24.3591 17.8726 23.5054 18.0666Z" fill="black"/>
<path d="M15.0449 22.2965C15.0449 26.216 15.3942 27.1086 16.9853 27.1086C17.8778 27.1086 18.1495 26.9534 18.1495 26.3324C18.1495 25.9056 17.8778 25.5563 17.5674 25.5563C17.1405 25.5563 16.9853 25.0906 16.9853 23.81C16.9853 22.5294 17.1405 22.0637 17.5674 22.0637C17.8778 22.0637 18.1495 21.7144 18.1495 21.2876C18.1495 20.8607 17.9166 20.5114 17.6062 20.5114C17.3345 20.5114 16.9853 20.1622 16.8688 19.7353C16.7524 19.2696 16.3255 18.9592 15.8599 18.9592C15.0837 18.9592 15.0449 19.1532 15.0449 22.2965Z" fill="black"/>
<path d="M11.1642 20.6279C10.4657 20.9771 10.1552 21.4816 10.0776 22.3742C9.96119 23.4996 10.1164 23.6936 11.3194 24.1981C13.1433 24.9742 13.1433 25.6727 11.3582 25.4787C10.1552 25.3235 10 25.4399 10 26.216C10 27.031 10.194 27.1086 11.7463 27.1086C13.1433 27.1086 13.5702 26.9145 14.1135 26.1384C14.9285 24.8966 14.618 24.1981 12.8329 23.1115L11.3582 22.2577L12.8329 22.1413C13.9583 22.0249 14.2687 21.8697 14.2687 21.2488C14.2687 20.8607 14.0359 20.5114 13.7254 20.5114C13.415 20.5114 12.9493 20.4338 12.6389 20.3174C12.3672 20.201 11.7075 20.3562 11.1642 20.6279Z" fill="black"/>
<path d="M27.1911 20.4338L25.5225 20.5502V24.8189C25.5225 29.0489 25.5225 29.0877 26.415 28.9713C26.9583 28.8937 27.3076 28.5444 27.3852 27.9623C27.5016 27.3414 27.7733 27.1085 28.5494 27.1085C29.83 27.1085 30.2957 26.7981 30.9166 25.6727C31.4987 24.5085 31.4599 23.0338 30.7614 21.7144C30.1405 20.4726 29.5584 20.2786 27.1911 20.4338ZM29.2091 23.81C29.2091 25.1294 29.0927 25.3622 28.3554 25.4787C27.5404 25.5951 27.4628 25.4399 27.4628 23.81C27.4628 22.1801 27.5404 22.0249 28.3554 22.1413C29.0927 22.2577 29.2091 22.4905 29.2091 23.81Z" fill="black"/>
<path d="M33.5944 20.6666C31.654 21.6368 31.2271 25.013 32.857 26.4876C33.7884 27.3414 36.9705 27.225 36.9705 26.3324C36.9705 25.9444 36.4661 25.6727 35.4571 25.5563C33.0899 25.2458 33.2063 24.3921 35.6123 24.3921H37.6303L37.3586 23.1115C36.8541 20.8607 35.3019 19.8129 33.5944 20.6666ZM35.5347 22.5682C35.6511 23.0338 35.3795 23.2279 34.6809 23.2279C33.6332 23.2279 33.2451 22.2965 34.1765 21.9473C34.9138 21.6368 35.4183 21.8696 35.5347 22.5682Z" fill="black"/>
<path d="M18.9258 23.81C18.9258 27.0698 18.9258 27.1086 19.8959 27.1086C20.8273 27.1086 20.8661 26.9922 20.8661 24.7414C20.8661 22.7234 20.9825 22.3354 21.6423 22.1801C22.0691 22.0637 22.4184 21.6368 22.4184 21.2488C22.4184 20.6279 22.1079 20.5114 20.6721 20.5114H18.9258V23.81Z" fill="black"/>
<path d="M22.8066 23.81C22.8066 27.0698 22.8066 27.1086 23.7768 27.1086C24.747 27.1086 24.747 27.0698 24.747 23.81C24.747 20.5502 24.747 20.5114 23.7768 20.5114C22.8066 20.5114 22.8066 20.5502 22.8066 23.81Z" fill="black"/>
</svg>
