<svg width="14" height="14" viewBox="0 0 14 14" fill="none" xmlns="http://www.w3.org/2000/svg">
<path d="M13.8851 2.76281L12.5843 4.06361L9.93637 1.4159L8.93185 2.42042L11.5797 5.06832L5.08513 11.5624L2.43742 8.91494L1.4329 9.91946L4.08061 12.5672L3.43345 13.2143L3.42113 13.202C3.34936 13.3202 3.23268 13.4063 3.09408 13.4371L0.624955 13.9877C0.587977 13.996 0.550361 14 0.5132 14C0.378436 14 0.247507 13.947 0.150451 13.8496C0.0259128 13.7255 -0.0259475 13.5463 0.0124 13.3746L0.562686 10.9062C0.593729 10.7677 0.680103 10.6507 0.798067 10.5791L0.785558 10.5666L11.2371 0.114643C11.3903 -0.0382904 11.6392 -0.0382903 11.7924 0.1151L13.8852 2.2075C14.0385 2.36071 14.0385 2.6096 13.8851 2.76281Z" fill="#7C7C7C"/>
</svg>
