<svg width="134" height="133" viewBox="0 0 134 133" fill="none" xmlns="http://www.w3.org/2000/svg">
<g clip-path="url(#clip0_7795_15927)">
<path d="M91.5331 29.0664H60.0298C56.5607 29.0664 53.1636 30.4629 50.7127 32.8985L3.85802 79.4034C-1.2782 84.5026 -1.2782 92.7995 3.85802 97.8987L35.3613 129.167C40.5101 134.28 48.8503 134.277 53.9956 129.167L100.853 82.6606C103.341 80.1882 104.711 76.9042 104.711 73.413V42.1458C104.711 34.9337 98.8 29.0664 91.5331 29.0664ZM78.3551 63.9451C73.5107 63.9451 69.5697 60.0338 69.5697 55.2253C69.5697 50.4168 73.5104 46.5055 78.3551 46.5055C83.1995 46.5055 87.1404 50.4168 87.1404 55.2253C87.1404 60.0338 83.1997 63.9451 78.3551 63.9451Z" fill="#1E003E"/>
<path d="M100.847 32.9023L84.5644 49.0634C86.1552 50.6422 87.1403 52.8222 87.1403 55.2266C87.1403 60.0348 83.1996 63.9464 78.3549 63.9464C75.9327 63.9464 73.7366 62.9686 72.1454 61.3897L19.6094 113.533L35.3611 129.168C40.5099 134.281 48.8501 134.277 53.9955 129.168L100.853 82.6611C103.341 80.1887 104.711 76.9047 104.711 73.4135V42.1466C104.711 38.5405 103.233 35.2706 100.847 32.9023Z" fill="#FF4A73"/>
<path d="M133.995 33.4255C133.995 50.3708 121.197 64.3804 104.71 66.5313V57.7245C116.336 55.6609 125.209 45.5459 125.209 33.4255C125.209 19.7938 114.052 8.7198 100.318 8.7198C88.0772 8.7198 77.8864 17.4975 75.8361 29.0656C75.5725 30.4899 75.4262 31.9431 75.4262 33.4255C75.4262 38.1343 76.7144 42.6394 79.2332 46.5632C81.1657 49.586 83.8012 52.2892 87.0811 54.4691C87.1397 54.7016 87.1397 54.9632 87.1397 55.2248C87.1397 58.2186 85.5877 60.8926 83.2739 62.4621C78.0322 59.1485 73.9617 54.9632 71.2092 50.1674C68.2222 45.1098 66.6406 39.384 66.6406 33.4255C66.6406 31.9433 66.7286 30.4899 66.9335 29.0656C69.1005 12.6726 83.2443 0 100.317 0C118.884 0 133.995 14.9978 133.995 33.4255Z" fill="#C9D2D9"/>
<path d="M125.21 33.4251C125.21 45.5582 116.344 55.654 104.711 57.722V66.5327C121.207 64.3852 133.995 50.3753 133.995 33.4251C133.995 24.2097 130.218 15.8536 124.12 9.80078L117.911 15.964C122.418 20.4374 125.21 26.6138 125.21 33.4251Z" fill="#B7C4CC"/>
</g>
<defs>
<clipPath id="clip0_7795_15927">
<rect width="134" height="133" fill="white"/>
</clipPath>
</defs>
</svg>
