<svg width="127" height="127" viewBox="0 0 127 127" fill="none" xmlns="http://www.w3.org/2000/svg">
<g clip-path="url(#clip0_7808_13605)">
<path d="M106.535 125.14H20.4629C17.8601 125.14 15.75 123.03 15.75 120.427V20.9082C15.75 18.3054 17.8601 16.1953 20.4629 16.1953H106.535C109.138 16.1953 111.248 18.3054 111.248 20.9082V120.427C111.248 123.03 109.138 125.14 106.535 125.14Z" fill="#E2E6FF"/>
<path d="M63.5002 25.7959C60.8563 25.7959 58.7129 23.6525 58.7129 21.0086V6.64668C58.7129 4.00275 60.8563 1.85938 63.5002 1.85938C66.1441 1.85938 68.2875 4.00275 68.2875 6.64668V21.0086C68.2875 23.6525 66.1441 25.7959 63.5002 25.7959Z" fill="#FF576B"/>
<path d="M36.2111 25.7959C33.5672 25.7959 31.4238 23.6525 31.4238 21.0086V6.64668C31.4238 4.00275 33.5672 1.85938 36.2111 1.85938C38.8551 1.85938 40.9984 4.00275 40.9984 6.64668V21.0086C40.9984 23.6525 38.8551 25.7959 36.2111 25.7959Z" fill="#FF576B"/>
<path d="M90.7873 25.7959C88.1434 25.7959 86 23.6525 86 21.0086V6.64668C86 4.00275 88.1434 1.85938 90.7873 1.85938C93.4312 1.85938 95.5746 4.00275 95.5746 6.64668V21.0086C95.5746 23.6525 93.4312 25.7959 90.7873 25.7959Z" fill="#FF576B"/>
<path d="M94.1914 53.9961H55C52.808 53.9961 51.0312 52.2193 51.0312 50.0273C51.0312 47.8354 52.808 46.0586 55 46.0586H94.1914C96.3834 46.0586 98.1602 47.8354 98.1602 50.0273C98.1602 52.2191 96.3834 53.9961 94.1914 53.9961Z" fill="#7A8C98"/>
<path d="M94.1914 78.6055H55C52.808 78.6055 51.0312 76.8287 51.0312 74.6367C51.0312 72.4447 52.808 70.668 55 70.668H94.1914C96.3834 70.668 98.1602 72.4447 98.1602 74.6367C98.1602 76.8287 96.3834 78.6055 94.1914 78.6055Z" fill="#7A8C98"/>
<path d="M94.1914 103.215H55C52.808 103.215 51.0312 101.438 51.0312 99.2461C51.0312 97.0541 52.808 95.2773 55 95.2773H94.1914C96.3834 95.2773 98.1602 97.0541 98.1602 99.2461C98.1602 101.438 96.3834 103.215 94.1914 103.215Z" fill="#7A8C98"/>
<path d="M106.536 16.1953H96.9805C99.5832 16.1953 101.693 18.3054 101.693 20.9082V120.427C101.693 123.03 99.5832 125.14 96.9805 125.14H106.536C109.138 125.14 111.249 123.03 111.249 120.427V20.9082C111.249 18.3052 109.138 16.1953 106.536 16.1953Z" fill="#FF576B"/>
<path d="M90.7866 1.85938C89.7711 1.85938 88.8313 2.17762 88.0566 2.71687C89.2991 3.58156 90.1139 5.018 90.1139 6.64668V21.0086C90.1139 22.637 89.2991 24.0735 88.0566 24.9384C88.8313 25.4777 89.7714 25.7959 90.7866 25.7959C93.4306 25.7959 95.574 23.6525 95.574 21.0086V6.64668C95.574 4.00275 93.4306 1.85938 90.7866 1.85938Z" fill="white"/>
<path d="M35.5181 54.317L47.1145 40.3659C47.7714 39.5756 47.6632 38.4028 46.8729 37.746C46.0831 37.0894 44.9099 37.1976 44.2531 37.9876L34.3128 49.9462L32.1402 46.417C31.6017 45.5421 30.4559 45.269 29.5806 45.808C28.7057 46.3468 28.4331 47.4927 28.9716 48.3674L32.5028 54.103C33.1706 55.1869 34.705 55.2953 35.5181 54.317Z" fill="black"/>
<path d="M28.9738 72.9224L32.505 78.658C33.1722 79.7419 34.7066 79.8503 35.5197 78.8718L47.1162 64.9206C47.773 64.1304 47.6648 62.9576 46.8746 62.3008C46.0848 61.6442 44.9115 61.7521 44.2547 62.5424L34.3145 74.501L32.1418 70.9717C31.6033 70.0969 30.4576 69.8238 29.5822 70.3628C28.7076 70.9018 28.435 72.0478 28.9738 72.9224Z" fill="black"/>
<path d="M28.9738 97.645L32.505 103.381C33.1722 104.465 34.7066 104.573 35.5197 103.594L47.1162 89.6433C47.773 88.853 47.6648 87.6802 46.8746 87.0234C46.0848 86.3668 44.9115 86.4747 44.2547 87.265L34.3145 99.2236L32.1418 95.6944C31.6033 94.8195 30.4576 94.5467 29.5822 95.0854C28.7076 95.6244 28.435 96.7704 28.9738 97.645Z" fill="black"/>
<path d="M111.249 105.024C110.222 105.024 109.389 105.856 109.389 106.884V120.426C109.389 121.999 108.109 123.279 106.536 123.279H20.4639C18.891 123.279 17.6113 121.999 17.6113 120.426V38.8955C17.6113 37.8678 16.7784 37.0352 15.751 37.0352C14.7236 37.0352 13.8906 37.8678 13.8906 38.8955V120.426C13.8906 124.051 16.8394 127 20.4639 127H106.536C110.161 127 113.109 124.051 113.109 120.426V106.884C113.109 105.857 112.276 105.024 111.249 105.024Z" fill="black"/>
<path d="M106.536 14.3349H97.4358V6.64766C97.4358 2.98227 94.4538 0 90.7881 0C87.1225 0 84.1405 2.98202 84.1405 6.64766V14.3349H70.1477V6.64766C70.1477 2.98202 67.1654 0 63.5 0C59.8346 0 56.8523 2.98202 56.8523 6.64766V14.3349H42.8593V6.64766C42.8593 2.98227 39.8773 0 36.2116 0C32.5462 0 29.564 2.98202 29.564 6.64766V14.3349H20.4639C16.8394 14.3349 13.8906 17.2837 13.8906 20.9081V30.2143C13.8906 31.242 14.7236 32.0747 15.751 32.0747C16.7784 32.0747 17.6113 31.242 17.6113 30.2143V20.9081C17.6113 19.3353 18.891 18.0556 20.4639 18.0556H29.564V21.0096C29.564 24.675 32.546 27.6572 36.2116 27.6572C39.8773 27.6572 42.8593 24.6752 42.8593 21.0096V18.0556H56.8523V21.0096C56.8523 24.675 59.8344 27.6572 63.5 27.6572C67.1656 27.6572 70.1477 24.6752 70.1477 21.0096V18.0556H84.1407V21.0096C84.1407 24.675 87.1227 27.6572 90.7884 27.6572C94.4538 27.6572 97.436 24.6752 97.436 21.0096V18.0556H106.536C108.109 18.0556 109.389 19.3353 109.389 20.9081V98.203C109.389 99.2307 110.222 100.063 111.249 100.063C112.276 100.063 113.109 99.2307 113.109 98.203V20.9081C113.109 17.2837 110.161 14.3349 106.536 14.3349ZM39.1388 21.0096C39.1388 22.6236 37.8259 23.9365 36.2119 23.9365C34.5981 23.9365 33.2849 22.6236 33.2849 21.0096C33.2849 17.044 33.2849 7.88888 33.2849 6.64766C33.2849 5.03362 34.5978 3.7207 36.2119 3.7207C37.8259 3.7207 39.1388 5.03362 39.1388 6.64766V21.0096ZM66.4269 21.0096C66.4269 22.6236 65.114 23.9365 63.5 23.9365C61.886 23.9365 60.573 22.6236 60.573 21.0096C60.573 17.044 60.573 7.88888 60.573 6.64766C60.573 5.03362 61.886 3.7207 63.5 3.7207C65.114 3.7207 66.4269 5.03362 66.4269 6.64766V21.0096ZM93.7153 21.0096C93.7153 22.6236 92.4024 23.9365 90.7884 23.9365C89.1743 23.9365 87.8614 22.6236 87.8614 21.0096C87.8614 17.044 87.8614 7.88888 87.8614 6.64766C87.8614 5.03362 89.1743 3.7207 90.7884 3.7207C92.4022 3.7207 93.7153 5.03362 93.7153 6.64766V21.0096Z" fill="black"/>
<path d="M55.001 55.8574H94.1924C97.4066 55.8574 100.021 53.2425 100.021 50.0283C100.021 46.8141 97.4066 44.1992 94.1924 44.1992H55.001C51.7868 44.1992 49.1719 46.8141 49.1719 50.0283C49.1719 53.2425 51.7868 55.8574 55.001 55.8574ZM55.001 47.9199H94.1924C95.355 47.9199 96.3008 48.8657 96.3008 50.0283C96.3008 51.1909 95.355 52.1367 94.1924 52.1367H55.001C53.8384 52.1367 52.8926 51.1909 52.8926 50.0283C52.8926 48.8657 53.8384 47.9199 55.001 47.9199Z" fill="black"/>
<path d="M55.001 80.4668H94.1924C97.4066 80.4668 100.021 77.8519 100.021 74.6377C100.021 71.4235 97.4066 68.8086 94.1924 68.8086H55.001C51.7868 68.8086 49.1719 71.4235 49.1719 74.6377C49.1719 77.8519 51.7868 80.4668 55.001 80.4668ZM55.001 72.5293H94.1924C95.355 72.5293 96.3008 73.4751 96.3008 74.6377C96.3008 75.8003 95.355 76.7461 94.1924 76.7461H55.001C53.8384 76.7461 52.8926 75.8003 52.8926 74.6377C52.8926 73.4751 53.8384 72.5293 55.001 72.5293Z" fill="black"/>
<path d="M55.001 105.076H94.1924C97.4066 105.076 100.021 102.461 100.021 99.2471C100.021 96.0329 97.4066 93.418 94.1924 93.418H55.001C51.7868 93.418 49.1719 96.0329 49.1719 99.2471C49.1719 102.461 51.7868 105.076 55.001 105.076ZM55.001 97.1387H94.1924C95.355 97.1387 96.3008 98.0845 96.3008 99.2471C96.3008 100.41 95.355 101.355 94.1924 101.355H55.001C53.8384 101.355 52.8926 100.41 52.8926 99.2471C52.8926 98.0845 53.8384 97.1387 55.001 97.1387Z" fill="black"/>
</g>
<defs>
<clipPath id="clip0_7808_13605">
<rect width="127" height="127" fill="white"/>
</clipPath>
</defs>
</svg>
