<svg width="89" height="88" viewBox="0 0 89 88" fill="none" xmlns="http://www.w3.org/2000/svg">
<path d="M44.332 88C68.6326 88 88.332 68.3005 88.332 44C88.332 19.6995 68.6326 0 44.332 0C20.0315 0 0.332031 19.6995 0.332031 44C0.332031 68.3005 20.0315 88 44.332 88Z" fill="url(#paint0_linear_2236_13595)"/>
<path d="M51.8056 52.999L45.6328 58.4843C44.9692 59.0739 43.9205 58.6029 43.9205 57.7152V55.6597H27.8028C27.2346 55.6597 26.7739 55.1991 26.7739 54.6309V27.4707C26.7739 26.9026 27.2345 26.4419 27.8028 26.4419H32.6038C33.1719 26.4419 33.6326 26.9025 33.6326 27.4707V48.801H43.9206V46.7451C43.9206 45.8575 44.9692 45.3866 45.6326 45.9761L51.8057 51.4616C52.2659 51.8708 52.266 52.59 51.8056 52.999ZM60.8613 32.3404H44.7435V30.2849C44.7435 29.3972 43.6948 28.9262 43.0312 29.5158L36.8584 35.0011C36.3981 35.4101 36.3981 36.1293 36.8584 36.5385L43.0316 42.0239C43.695 42.6135 44.7435 42.1426 44.7435 41.255V39.1991H55.0315V60.5294C55.0315 61.0975 55.4921 61.5582 56.0604 61.5582H60.8614C61.4295 61.5582 61.8902 61.0976 61.8902 60.5294V33.3691C61.8901 32.8009 61.4295 32.3404 60.8613 32.3404V32.3404Z" fill="url(#paint1_linear_2236_13595)"/>
<defs>
<linearGradient id="paint0_linear_2236_13595" x1="14.5349" y1="144.374" x2="71.5054" y2="2.15002e-06" gradientUnits="userSpaceOnUse">
<stop stop-color="#FF576B"/>
<stop offset="1" stop-color="white"/>
</linearGradient>
<linearGradient id="paint1_linear_2236_13595" x1="44.332" y1="61.5581" x2="44.332" y2="26.4419" gradientUnits="userSpaceOnUse">
<stop stop-color="#FF576B"/>
<stop offset="1" stop-color="#FF9FAB"/>
</linearGradient>
</defs>
</svg>
