<svg width="32" height="33" viewBox="0 0 32 33" fill="none" xmlns="http://www.w3.org/2000/svg">
<path fill-rule="evenodd" clip-rule="evenodd" d="M22.362 12.9811C22.368 13.1221 22.372 13.2631 22.372 13.4061C22.372 17.7431 19.07 22.7451 13.032 22.7451C11.178 22.7451 9.453 22.2021 8 21.2711C8.257 21.3011 8.518 21.3161 8.783 21.3161C10.321 21.3161 11.736 20.7921 12.86 19.9111C11.423 19.8851 10.211 18.9361 9.793 17.6321C9.994 17.6701 10.199 17.6901 10.411 17.6901C10.71 17.6901 11 17.6501 11.276 17.5751C9.774 17.2741 8.643 15.9471 8.643 14.3571V14.3151C9.085 14.5611 9.592 14.7091 10.13 14.7261C9.249 14.1371 8.669 13.1321 8.669 11.9941C8.669 11.3921 8.831 10.8281 9.114 10.3431C10.733 12.3291 13.152 13.6361 15.88 13.7731C15.824 13.5331 15.795 13.2821 15.795 13.0251C15.795 11.2121 17.265 9.74214 19.077 9.74214C20.022 9.74214 20.875 10.1411 21.473 10.7791C22.221 10.6321 22.924 10.3591 23.558 9.98314C23.313 10.7491 22.792 11.3921 22.115 11.7991C22.779 11.7191 23.411 11.5431 24 11.2821C23.56 11.9401 23.003 12.5181 22.362 12.9811ZM16 0.244141C7.163 0.244141 0 7.40714 0 16.2441C0 25.0801 7.163 32.2441 16 32.2441C24.837 32.2441 32 25.0801 32 16.2441C32 7.40714 24.837 0.244141 16 0.244141" fill="#41A1F2"/>
</svg>
