<svg width="20" height="20" viewBox="0 0 20 20" fill="none" xmlns="http://www.w3.org/2000/svg">
<path d="M3 16.1797H17V17H3V16.1797Z" fill="white"/>
<path d="M10.0001 15.332C8.74812 15.3282 7.4704 14.8498 6.49193 14.0195C5.68311 13.3331 4.71011 12.0904 4.66797 10.0676L4.69531 10.0593V5.46094H3.84766V3H7.94922V5.46094H7.12891L7.13118 10.0342C7.18512 12.0829 8.91814 12.8612 10.0011 12.8711C11.0841 12.8611 12.8172 12.0829 12.8711 10.0342L12.8734 5.46094H12.0508V3H16.1523V5.46094H15.332L15.3296 10.0676C15.2872 12.1012 14.3051 13.3459 13.4887 14.0319C12.51 14.8544 11.2385 15.3282 10.0001 15.332Z" fill="white"/>
</svg>
