<svg width="56" height="16" viewBox="0 0 56 16" fill="none" xmlns="http://www.w3.org/2000/svg">
<path d="M49 15C45.15 15 42 11.85 42 8C42 4.15 45.15 1 49 1C52.85 1 56 4.15 56 8C56 11.85 52.85 15 49 15ZM49 2.16667C45.7917 2.16667 43.1667 4.79167 43.1667 8C43.1667 11.2083 45.7917 13.8333 49 13.8333C52.2083 13.8333 54.8333 11.2083 54.8333 8C54.8333 4.79167 52.2083 2.16667 49 2.16667Z" fill="#9A9AA9"/>
<path d="M48.9993 10.3335C48.6493 10.3335 48.416 10.1002 48.416 9.75017V9.34184C48.416 8.46684 48.8827 7.7085 49.5827 7.30017C50.0493 7.06684 50.2827 6.54184 50.166 6.07517C50.1077 5.6085 49.6993 5.20017 49.2327 5.14184C48.8827 5.0835 48.5327 5.14184 48.241 5.37517C48.0077 5.55017 47.8327 5.90017 47.8327 6.25017C47.8327 6.60017 47.5993 6.8335 47.2493 6.8335C46.8993 6.8335 46.666 6.60017 46.666 6.25017C46.666 5.55017 46.9577 4.9085 47.4827 4.44184C48.0077 3.97517 48.7077 3.80017 49.4077 3.91684C50.341 4.09184 51.0993 4.85017 51.2743 5.7835C51.4493 6.77517 50.9827 7.76684 50.1077 8.2335C49.7577 8.4085 49.5827 8.81684 49.5827 9.2835V9.75017C49.5827 10.1002 49.3493 10.3335 48.9993 10.3335Z" fill="#9A9AA9"/>
<path d="M48.9993 12.0827C49.3215 12.0827 49.5827 11.8215 49.5827 11.4993C49.5827 11.1772 49.3215 10.916 48.9993 10.916C48.6772 10.916 48.416 11.1772 48.416 11.4993C48.416 11.8215 48.6772 12.0827 48.9993 12.0827Z" fill="#9A9AA9"/>
<path d="M49 12.375C48.5333 12.375 48.125 11.9667 48.125 11.5C48.125 11.0333 48.5333 10.625 49 10.625C49.4667 10.625 49.875 11.0333 49.875 11.5C49.875 11.9667 49.4667 12.375 49 12.375ZM49 11.2083C48.825 11.2083 48.7083 11.325 48.7083 11.5C48.7083 11.675 48.825 11.7917 49 11.7917C49.175 11.7917 49.2917 11.675 49.2917 11.5C49.2917 11.325 49.175 11.2083 49 11.2083Z" fill="#9A9AA9"/>
<path d="M8.16211 3.04688V9.81445C8.15755 10.7533 7.86133 11.5212 7.27344 12.1182C6.6901 12.7152 5.89714 13.0501 4.89453 13.123L4.5459 13.1367C3.45671 13.1367 2.58854 12.8428 1.94141 12.2549C1.29427 11.667 0.966146 10.8581 0.957031 9.82812V3.04688H2.25586V9.78711C2.25586 10.5072 2.4541 11.0677 2.85059 11.4688C3.24707 11.8652 3.81217 12.0635 4.5459 12.0635C5.28874 12.0635 5.85612 11.8652 6.24805 11.4688C6.64453 11.0723 6.84277 10.514 6.84277 9.79395V3.04688H8.16211ZM13.8838 8.97363H11.5459V13H10.2266V3.04688H13.5215C14.6426 3.04688 15.5039 3.30208 16.1055 3.8125C16.7116 4.32292 17.0146 5.06576 17.0146 6.04102C17.0146 6.66081 16.846 7.20085 16.5088 7.66113C16.1761 8.12142 15.7113 8.46549 15.1143 8.69336L17.4521 12.918V13H16.0439L13.8838 8.97363ZM11.5459 7.90039H13.5625C14.2142 7.90039 14.7314 7.73177 15.1143 7.39453C15.5016 7.05729 15.6953 6.60612 15.6953 6.04102C15.6953 5.42578 15.5107 4.9541 15.1416 4.62598C14.777 4.29785 14.2484 4.13151 13.5557 4.12695H11.5459V7.90039ZM20.1797 11.9268H24.8965V13H18.8604V3.04688H20.1797V11.9268Z" fill="#2E2E2E"/>
</svg>
