<svg width="34" height="35" viewBox="0 0 34 35" fill="none" xmlns="http://www.w3.org/2000/svg">
<path d="M32.725 19.1034C33.0331 19.1034 33.3308 19.2149 33.563 19.4173C33.7952 19.6197 33.9462 19.8993 33.9881 20.2043L34 20.3776V28.8728C34.0001 30.2832 33.4602 31.6402 32.491 32.6654C31.5218 33.6906 30.1968 34.3062 28.7878 34.3861L28.475 34.3946H20.5394C21.4506 33.7405 22.1935 32.8655 22.6899 31.8477L28.475 31.8461C29.2219 31.846 29.9414 31.5652 30.4907 31.0593C31.04 30.5535 31.3788 29.8597 31.4398 29.1157L31.45 28.8728V20.3776C31.45 20.0397 31.5843 19.7156 31.8234 19.4766C32.0625 19.2376 32.3868 19.1034 32.725 19.1034ZM16.575 12.3072C17.3006 12.3072 18.019 12.4501 18.6893 12.7276C19.3596 13.0051 19.9687 13.4118 20.4818 13.9246C20.9948 14.4373 21.4018 15.046 21.6794 15.716C21.9571 16.3859 22.1 17.1039 22.1 17.8291V28.8728C22.1 29.5979 21.9571 30.3159 21.6794 30.9859C21.4018 31.6558 20.9948 32.2645 20.4818 32.7773C19.9687 33.29 19.3596 33.6968 18.6893 33.9743C18.019 34.2518 17.3006 34.3946 16.575 34.3946H5.525C4.79945 34.3946 4.081 34.2518 3.41067 33.9743C2.74035 33.6968 2.13128 33.29 1.61823 32.7773C1.10519 32.2645 0.698223 31.6558 0.420565 30.9859C0.142908 30.3159 1.18578e-08 29.5979 1.18578e-08 28.8728V17.8291C1.18578e-08 17.1039 0.142908 16.3859 0.420565 15.716C0.698223 15.046 1.10519 14.4373 1.61823 13.9246C2.65437 12.889 4.05968 12.3072 5.525 12.3072H16.575ZM16.575 14.8558H5.525C4.73598 14.8558 3.97928 15.169 3.42136 15.7266C2.86344 16.2842 2.55 17.0405 2.55 17.8291V28.8728C2.55 30.514 3.8828 31.8461 5.525 31.8461H16.575C17.364 31.8461 18.1207 31.5328 18.6786 30.9752C19.2366 30.4176 19.55 29.6613 19.55 28.8728V17.8291C19.55 17.0405 19.2366 16.2842 18.6786 15.7266C18.1207 15.169 17.364 14.8558 16.575 14.8558ZM6.9037 19.2784C6.99882 19.1035 7.15237 18.9675 7.33755 18.8942C7.52273 18.821 7.72777 18.815 7.9169 18.8774L8.0563 18.9385L14.7815 22.605C14.9042 22.6719 15.0086 22.7679 15.0853 22.8847C15.162 23.0014 15.2088 23.1353 15.2214 23.2744C15.234 23.4135 15.2121 23.5536 15.1576 23.6822C15.1031 23.8108 15.0177 23.9241 14.909 24.0118L14.7815 24.0968L8.0563 27.7633C7.93823 27.8272 7.80669 27.8622 7.67246 27.8655C7.53822 27.8688 7.40512 27.8403 7.28404 27.7823C7.16296 27.7243 7.05736 27.6384 6.97589 27.5318C6.89441 27.4251 6.83938 27.3007 6.8153 27.1686L6.8 27.0174V19.6861C6.79981 19.5437 6.83547 19.4034 6.9037 19.2784ZM28.475 0.414063C29.8862 0.41397 31.244 0.953595 32.2698 1.92224C33.2956 2.89089 33.9116 4.21511 33.9915 5.62328L34 5.9359V14.431C33.9999 14.7539 33.8772 15.0647 33.6566 15.3006C33.4361 15.5365 33.1342 15.6799 32.8119 15.7019C32.4896 15.724 32.171 15.6229 31.9204 15.4191C31.6698 15.2154 31.5059 14.9242 31.4619 14.6043L31.45 14.431V5.9359C31.45 5.1897 31.1692 4.4708 30.6634 3.92189C30.1577 3.37298 29.4639 3.0342 28.7198 2.9728L28.475 2.9626H19.975C19.652 2.9625 19.341 2.83986 19.105 2.61945C18.8689 2.39903 18.7254 2.09729 18.7034 1.77519C18.6813 1.45308 18.7825 1.13463 18.9863 0.884185C19.1902 0.633737 19.4816 0.469963 19.8016 0.425956L19.975 0.414063H28.475ZM14.025 0.414063C14.348 0.414161 14.659 0.536808 14.895 0.757219C15.1311 0.977631 15.2746 1.27937 15.2966 1.60148C15.3187 1.92358 15.2175 2.24203 15.0137 2.49248C14.8098 2.74293 14.5184 2.9067 14.1984 2.95071L14.025 2.9626H5.525C4.77838 2.96263 4.05906 3.24323 3.50984 3.74871C2.96061 4.25418 2.62164 4.94757 2.5602 5.69124L2.55 5.9359V11.716C1.53 12.2121 0.6562 12.9563 1.18578e-08 13.867V5.9359C-9.23894e-05 4.52547 0.539842 3.16848 1.50904 2.14328C2.47824 1.11808 3.80323 0.50241 5.2122 0.422558L5.525 0.414063H14.025Z" fill="#9A9AA9"/>
</svg>
