<svg width="37" height="29" viewBox="0 0 37 29" fill="none" xmlns="http://www.w3.org/2000/svg">
<path d="M6.16667 0.414062C4.53116 0.414063 2.96265 1.06924 1.80617 2.23547C0.6497 3.40169 0 4.98344 0 6.63273V22.1794C0 23.8287 0.6497 25.4104 1.80617 26.5767C2.96265 27.7429 4.53116 28.3981 6.16667 28.3981H21.5833C23.2188 28.3981 24.7873 27.7429 25.9438 26.5767C27.1003 25.4104 27.75 23.8287 27.75 22.1794V20.6247L33.3 24.8223C33.6436 25.0822 34.0521 25.2404 34.4798 25.2793C34.9075 25.3182 35.3376 25.2362 35.7217 25.0425C36.1058 24.8489 36.4288 24.5511 36.6546 24.1827C36.8804 23.8143 37 23.3898 37 22.9567V5.8554C37 5.42232 36.8804 4.99779 36.6546 4.62939C36.4288 4.26099 36.1058 3.96327 35.7217 3.76959C35.3376 3.57591 34.9075 3.49393 34.4798 3.53282C34.0521 3.57171 33.6436 3.72995 33.3 3.9898L27.75 8.1874V6.63273C27.75 4.98344 27.1003 3.40169 25.9438 2.23547C24.7873 1.06924 23.2188 0.414063 21.5833 0.414062H6.16667ZM27.75 12.0741L33.9167 7.41006V21.4021L27.75 16.7381V12.0741ZM24.6667 6.63273V22.1794C24.6667 23.004 24.3418 23.7949 23.7636 24.378C23.1853 24.9611 22.4011 25.2887 21.5833 25.2887H6.16667C5.34892 25.2887 4.56466 24.9611 3.98642 24.378C3.40818 23.7949 3.08333 23.004 3.08333 22.1794V6.63273C3.08333 5.80808 3.40818 5.01721 3.98642 4.4341C4.56466 3.85099 5.34892 3.5234 6.16667 3.5234H21.5833C22.4011 3.5234 23.1853 3.85099 23.7636 4.4341C24.3418 5.01721 24.6667 5.80808 24.6667 6.63273Z" fill="#9A9AA9"/>
</svg>
