<svg width="24" height="24" viewBox="0 0 24 24" fill="none" xmlns="http://www.w3.org/2000/svg">
<path d="M11.9939 17.6537C11.7862 17.6537 11.5784 17.6477 11.3695 17.6364C7.71592 17.432 4.3518 15.4768 2.36992 12.4059C2.1453 12.0579 2.24542 11.5937 2.59342 11.369C2.94217 11.1444 3.40567 11.2449 3.6303 11.5925C5.3523 14.2618 8.27692 15.9613 11.4532 16.1387C14.8717 16.331 18.2182 14.6975 20.1787 11.8783C20.2439 11.7845 20.3077 11.6893 20.3699 11.5925C20.5942 11.2445 21.058 11.1444 21.4068 11.3687C21.7548 11.5933 21.8549 12.0572 21.6307 12.4055C21.5594 12.5162 21.4859 12.6257 21.4105 12.734C19.2745 15.806 15.7105 17.6537 11.9939 17.6537Z" fill="white"/>
<path d="M21.0011 12.7488C20.7548 12.7488 20.5136 12.6277 20.37 12.4053C18.648 9.73609 15.7234 8.03659 12.5471 7.85921C9.12377 7.66384 5.78177 9.30034 3.82164 12.1196C3.75639 12.2133 3.69264 12.3086 3.63039 12.4053C3.40614 12.7533 2.94189 12.8535 2.59352 12.6292C2.24552 12.4046 2.14539 11.9407 2.36964 11.5923C2.44089 11.4817 2.51439 11.3722 2.58977 11.2638C4.84539 8.02009 8.69102 6.14621 12.6308 6.36146C16.2844 6.56584 19.6485 8.52109 21.6304 11.592C21.855 11.94 21.7549 12.4042 21.4069 12.6288C21.2813 12.7102 21.1403 12.7488 21.0011 12.7488Z" fill="white"/>
<path d="M12 14.999C10.3459 14.999 9 13.6532 9 11.999C9 10.3449 10.3459 8.99902 12 8.99902C13.6541 8.99902 15 10.3449 15 11.999C15 13.6532 13.6541 14.999 12 14.999ZM12 10.499C11.187 10.499 10.5 11.186 10.5 11.999C10.5 12.812 11.187 13.499 12 13.499C12.813 13.499 13.5 12.812 13.5 11.999C13.5 11.186 12.813 10.499 12 10.499Z" fill="white"/>
</svg>
