<svg width="152" height="152" viewBox="0 0 152 152" fill="none" xmlns="http://www.w3.org/2000/svg">
<g clip-path="url(#clip0_11144_14154)">
<path d="M18.0996 119.69C16.9026 121.097 14.7149 120.992 13.6571 119.478C5.04925 107.159 0 92.169 0 76C0 34.0263 34.0263 0 76 0C117.974 0 152 34.0263 152 76C152 92.1444 146.966 107.113 138.382 119.422C137.306 120.965 135.077 121.07 133.856 119.639C119.916 103.289 99.169 92.9219 76 92.9219C52.8066 92.9219 32.0396 103.311 18.0996 119.69Z" fill="#1F2847"/>
<path d="M138.344 36.8125V119.477C134.102 125.549 128.995 130.972 123.203 135.568C110.238 145.856 39.2133 144.86 25.8281 133.087C21.2488 129.059 17.1582 124.489 13.6562 119.477V36.8125C13.6562 35.1729 14.9854 33.8438 16.625 33.8438H135.375C137.015 33.8438 138.344 35.1729 138.344 36.8125Z" fill="#E9F3FE"/>
<path d="M25.5312 33.8438C23.8916 33.8438 22.5625 34.7522 22.5625 35.8729V130.041C19.2862 126.801 16.3029 123.265 13.6562 119.477V35.8729C13.6562 34.7522 14.9854 33.8438 16.625 33.8438H25.5312Z" fill="#C8E2FD"/>
<path d="M138.344 21.9688V36.8125H13.6562V21.9688C13.6562 18.6895 16.3145 16.0312 19.5938 16.0312H132.406C135.686 16.0312 138.344 18.6895 138.344 21.9688Z" fill="#76B6FA"/>
<path d="M28.5 16.0312C25.2207 16.0312 22.5625 18.6895 22.5625 21.9688V36.8125H13.6562V21.9688C13.6562 18.6895 16.3145 16.0312 19.5938 16.0312H28.5Z" fill="#55A4F9"/>
<path d="M23.75 26.4219C23.75 28.0615 22.4209 29.3906 20.7812 29.3906C19.1416 29.3906 17.8125 28.0615 17.8125 26.4219C17.8125 24.7822 19.1416 23.4531 20.7812 23.4531C22.4209 23.4531 23.75 24.7822 23.75 26.4219ZM41.5625 23.4531C39.9229 23.4531 38.5938 24.7822 38.5938 26.4219C38.5938 28.0615 39.9229 29.3906 41.5625 29.3906C43.2021 29.3906 44.5312 28.0615 44.5312 26.4219C44.5312 24.7822 43.2021 23.4531 41.5625 23.4531ZM31.1719 23.4531C29.5322 23.4531 28.2031 24.7822 28.2031 26.4219C28.2031 28.0615 29.5322 29.3906 31.1719 29.3906C32.8115 29.3906 34.1406 28.0615 34.1406 26.4219C34.1406 24.7822 32.8115 23.4531 31.1719 23.4531Z" fill="#1380E2"/>
<path d="M133.594 26.4219C133.594 28.0615 132.265 29.3906 130.625 29.3906H53.4375C51.7979 29.3906 50.4688 28.0615 50.4688 26.4219C50.4688 24.7822 51.7979 23.4531 53.4375 23.4531H130.625C132.265 23.4531 133.594 24.7822 133.594 26.4219Z" fill="#FFF5F5"/>
<path d="M36.2188 75.7031H115.781C120.7 75.7031 124.688 79.6905 124.688 84.6094C124.688 89.5283 120.7 93.5156 115.781 93.5156H36.2188C31.2998 93.5156 27.3125 89.5283 27.3125 84.6094C27.3125 79.6905 31.2998 75.7031 36.2188 75.7031ZM27.3125 54.0312C27.3125 58.9502 31.2998 62.9375 36.2188 62.9375H115.781C120.7 62.9375 124.688 58.9502 124.688 54.0312C124.688 49.1123 120.7 45.125 115.781 45.125H36.2188C31.2998 45.125 27.3125 49.1123 27.3125 54.0312ZM115.781 103.906H36.2188C31.2998 103.906 27.3125 107.894 27.3125 112.812V132.574C27.3125 133.719 27.835 134.803 28.7313 135.516C41.7068 145.835 58.1335 152 76 152C94.5244 152 111.501 145.373 124.688 134.359V112.812C124.688 107.894 120.7 103.906 115.781 103.906Z" fill="#C8E2FD"/>
<path d="M36.2188 74.2188H115.781C121.511 74.2188 126.172 78.88 126.172 84.6094C126.172 90.3388 121.511 95 115.781 95H36.2188C30.4894 95 25.8281 90.3388 25.8281 84.6094C25.8281 78.88 30.4894 74.2188 36.2188 74.2188ZM115.781 92.0312C119.874 92.0312 123.203 88.7018 123.203 84.6094C123.203 80.517 119.874 77.1875 115.781 77.1875H36.2188C32.1263 77.1875 28.7969 80.517 28.7969 84.6094C28.7969 88.7018 32.1263 92.0312 36.2188 92.0312H115.781ZM115.781 64.4219H36.2188C30.4894 64.4219 25.8281 59.7606 25.8281 54.0312C25.8281 48.3019 30.4894 43.6406 36.2188 43.6406H115.781C121.511 43.6406 126.172 48.3019 126.172 54.0312C126.172 59.7606 121.511 64.4219 115.781 64.4219ZM36.2188 46.6094C32.1263 46.6094 28.7969 49.9388 28.7969 54.0312C28.7969 58.1237 32.1263 61.4531 36.2188 61.4531H115.781C119.874 61.4531 123.203 58.1237 123.203 54.0312C123.203 49.9388 119.874 46.6094 115.781 46.6094H36.2188ZM115.781 102.422H36.2188C30.4894 102.422 25.8281 107.083 25.8281 112.812V133.087C26.7962 133.938 27.786 134.766 28.7969 135.568V112.812C28.7969 108.72 32.1263 105.391 36.2188 105.391H115.781C119.874 105.391 123.203 108.72 123.203 112.812V135.568C124.214 134.766 125.204 133.938 126.172 133.087V112.812C126.172 107.083 121.511 102.422 115.781 102.422Z" fill="white"/>
<path d="M71.9922 116.412H37.8516C36.6219 116.412 35.625 115.415 35.625 114.186C35.625 112.956 36.6219 111.959 37.8516 111.959H71.9922C73.2218 111.959 74.2188 112.956 74.2188 114.186C74.2188 115.415 73.2218 116.412 71.9922 116.412ZM53.4375 122.35C53.4375 121.12 52.4406 120.123 51.2109 120.123H37.8516C36.6219 120.123 35.625 121.12 35.625 122.35C35.625 123.579 36.6219 124.576 37.8516 124.576H51.2109C52.4406 124.576 53.4375 123.579 53.4375 122.35ZM74.2188 84.6094C74.2188 83.3797 73.2218 82.3828 71.9922 82.3828H37.8516C36.6219 82.3828 35.625 83.3797 35.625 84.6094C35.625 85.839 36.6219 86.8359 37.8516 86.8359H71.9922C73.2218 86.8359 74.2188 85.839 74.2188 84.6094ZM62.3438 54.1797C62.3438 52.95 61.3468 51.9531 60.1172 51.9531H37.8516C36.6219 51.9531 35.625 52.95 35.625 54.1797C35.625 55.4093 36.6219 56.4062 37.8516 56.4062H60.1172C61.3468 56.4062 62.3438 55.4093 62.3438 54.1797Z" fill="#A7D0FC"/>
<path d="M40.2432 133.066C40.2432 134.341 39.2095 135.375 37.9341 135.375C36.6587 135.375 35.625 134.341 35.625 133.066C35.625 131.791 36.6587 130.757 37.9341 130.757C39.2092 130.757 40.2432 131.791 40.2432 133.066ZM46.0156 130.757C44.7405 130.757 43.7065 131.791 43.7065 133.066C43.7065 134.341 44.7402 135.375 46.0156 135.375C47.291 135.375 48.3247 134.341 48.3247 133.066C48.3247 131.791 47.2907 130.757 46.0156 130.757ZM54.0972 130.757C52.8221 130.757 51.7881 131.791 51.7881 133.066C51.7881 134.341 52.8218 135.375 54.0972 135.375C55.3725 135.375 56.4062 134.341 56.4062 133.066C56.4062 131.791 55.3725 130.757 54.0972 130.757Z" fill="#76B6FA"/>
<path d="M108.109 64.0743L95.9542 109.437C95.6864 110.437 94.6586 111.03 93.6591 110.762C92.6595 110.494 92.066 109.466 92.3338 108.467L104.489 63.1041C104.757 62.1042 105.784 61.511 106.784 61.7788C107.783 62.0469 108.377 63.0747 108.109 64.0743Z" fill="#958FCA"/>
<path d="M104.76 92.5003L102.451 101.119C102.027 102.703 100.398 103.643 98.815 103.218L92.9647 101.651C91.3809 101.227 90.4413 99.5986 90.8655 98.0151L93.1749 89.3962C93.5992 87.8124 95.2272 86.8728 96.811 87.297L102.661 88.8645C104.245 89.2887 105.184 90.9168 104.76 92.5003Z" fill="#8078BF"/>
<path d="M130.894 9.44688L123.133 38.4106L122.806 39.6337L104.07 34.2484L104.465 32.7771L112.068 4.40209C112.916 1.23473 116.172 -0.645086 119.339 0.20368L126.695 2.17463C129.863 3.0237 131.743 6.27923 130.894 9.44688Z" fill="#F15265"/>
<path d="M130.895 9.4469L123.134 38.4106L111.24 34.4156L118.799 6.20592C119.648 3.03856 122.903 1.15875 126.071 2.00751L126.696 2.17495C129.864 3.02372 131.743 6.27925 130.895 9.4469Z" fill="#FF576B"/>
<path d="M123.135 38.4106L108.78 91.9811C107.932 95.1484 104.676 97.0282 101.508 96.1795L94.1522 94.2085C90.9848 93.3598 89.105 90.1039 89.9538 86.9366L104.308 33.3661C105.157 30.1987 108.412 28.3189 111.58 29.1677L118.936 31.1386C122.104 31.9874 123.983 35.2432 123.135 38.4106Z" fill="#F15265"/>
<path d="M123.134 38.4106L108.78 91.9811C107.931 95.1484 104.675 97.0282 101.508 96.1795L100.883 96.012C97.7153 95.1633 95.8355 91.9075 96.6843 88.7401L112.575 29.4346L118.935 31.1386C122.103 31.9874 123.982 35.2432 123.134 38.4106Z" fill="#FF576B"/>
<path d="M101.906 124.709H118.012C124.57 124.709 129.887 130.026 129.887 136.584C129.887 143.142 124.57 148.459 118.012 148.459H101.906C95.348 148.459 90.0312 143.142 90.0312 136.584C90.0312 130.026 95.348 124.709 101.906 124.709Z" fill="#5DB33A"/>
<path d="M111.035 124.709H122.804C129.362 124.709 134.679 130.026 134.679 136.584C134.679 143.142 129.362 148.459 122.804 148.459H111.035C104.477 148.459 99.1602 143.142 99.1602 136.584C99.1602 130.026 104.477 124.709 111.035 124.709Z" fill="#6DC54A"/>
<path d="M126.724 136.584C126.724 136.978 126.568 137.355 126.289 137.634L121.263 142.659C120.973 142.949 120.593 143.094 120.214 143.094C119.834 143.094 119.454 142.949 119.164 142.659C118.585 142.079 118.585 141.139 119.164 140.56L121.656 138.069H99.4688C98.6488 138.069 97.9844 137.404 97.9844 136.584C97.9844 135.765 98.6488 135.1 99.4688 135.1H121.656L119.165 132.608C118.585 132.029 118.585 131.089 119.165 130.509C119.744 129.93 120.684 129.93 121.264 130.509L126.289 135.535C126.568 135.813 126.724 136.191 126.724 136.584Z" fill="white"/>
</g>
<defs>
<clipPath id="clip0_11144_14154">
<rect width="152" height="152" fill="white"/>
</clipPath>
</defs>
</svg>
