<svg width="120" height="120" viewBox="0 0 120 120" fill="none" xmlns="http://www.w3.org/2000/svg">
<g clip-path="url(#clip0_10988_14975)">
<mask id="mask0_10988_14975" style="mask-type:alpha" maskUnits="userSpaceOnUse" x="1" y="5" width="120" height="120">
<path d="M61 125C94.1371 125 121 98.1371 121 65C121 31.8629 94.1371 5 61 5C27.8629 5 1 31.8629 1 65C1 98.1371 27.8629 125 61 125Z" fill="#1F2847"/>
</mask>
<g mask="url(#mask0_10988_14975)">
<path d="M98.5455 78.468C105.655 69.4642 110.903 58.8022 110.888 46.9516C110.888 32.2874 99.6315 20.3997 85.7454 20.3997C69.2724 20.3997 60.6024 29.0205 60.6024 29.0205C60.6024 29.0205 51.9324 20.3997 35.4594 20.3997C21.5733 20.3997 10.3164 32.2874 10.3164 46.9516C10.3148 56.7048 13.8721 65.6529 19.0948 73.5342L98.5455 78.468Z" fill="#FF576B"/>
<path d="M92.2172 21.319C101.949 59.2263 71.0062 65.7622 17.8652 71.5651C18.2696 72.2247 18.6669 72.8897 19.0946 73.5351L98.5436 78.4685C105.653 69.4647 110.903 58.8029 110.888 46.9523C110.888 34.6553 102.961 24.3384 92.2172 21.319Z" fill="#FF2929"/>
<path d="M74.4739 47.9861C72.5526 47.9861 71.006 49.524 71.006 51.4344C71.0322 57.7736 71.0322 65.8407 71.0518 72.1511C71.0502 72.1503 71.006 72.1242 71.006 72.1242V64.3655C71.006 61.9776 69.0725 60.0551 66.6709 60.0551C64.2693 60.0551 62.3358 61.9776 62.3359 64.3655V72.1242C62.3367 82.8998 71.1041 91.0898 71.1041 96.2622V97.9864L71.1172 97.9596H71.1206H91.8169C91.8169 91.1493 98.7529 89.425 98.7529 74.0573V61.7793C98.7529 59.8689 97.2061 58.331 95.2849 58.331C93.3637 58.331 91.8169 59.8689 91.8169 61.7793V56.6068C91.8169 54.6965 90.2702 53.1585 88.3489 53.1585C86.4276 53.1585 84.8809 54.6965 84.8809 56.6068V51.4344C84.8809 49.524 83.3342 47.9861 81.4129 47.9861H81.4126C79.4913 47.9861 77.4799 49.7102 77.9446 51.4344C77.9446 49.7102 76.3978 47.9861 74.4765 47.9861H74.4739Z" fill="#FFD1B5"/>
<path d="M80.9592 48.0332C79.4169 48.2409 77.9502 49.4625 77.8806 50.8248C77.9134 51.0232 77.9396 51.2256 77.9396 51.4344V63.7122C77.9396 79.0798 71.0036 80.8041 71.0036 87.6145C70.9774 91.9124 71.1019 94.2617 71.1019 97.9863L71.115 97.9596H71.1185H77.9426V94.3225C77.9426 93.4645 77.1941 92.7592 76.212 92.8139H76.2086V87.692C76.2086 86.8497 76.0599 85.9173 74.7151 85.9173H74.6403C75.6546 80.1328 81.4104 76.0052 81.4104 61.988V49.7102C81.4104 49.097 81.24 48.5311 80.9602 48.0332H80.9592Z" fill="#FFB98D"/>
<path d="M77.9422 66.9517V51.4344C77.9422 49.524 76.3955 47.9861 74.4742 47.9861C73.8378 47.9861 73.2518 48.1659 72.7402 48.4609C73.7734 49.0567 74.4742 50.1567 74.4742 51.4344V63.5304C74.4742 66.9517 76.2083 66.9517 77.9422 66.9517Z" fill="#FFB98D"/>
<path d="M91.8133 72.1241V56.6068C91.8133 54.6964 90.2666 53.1585 88.3453 53.1585C87.7089 53.1585 87.1228 53.3383 86.6113 53.6333C87.6445 54.2291 88.3453 55.3291 88.3453 56.6068V68.7028C88.3453 72.1241 90.0793 72.1241 91.8133 72.1241Z" fill="#FFB98D"/>
<path d="M95.2817 58.331C94.6453 58.331 94.0592 58.5108 93.5477 58.8058C94.5808 59.4016 95.2817 60.5016 95.2817 61.7793V74.0571C95.2817 89.4248 88.3457 91.1491 88.3457 97.9594H91.8137C91.8137 91.1491 98.7497 89.4248 98.7497 74.0571V61.7793C98.7497 59.869 97.2029 58.331 95.2817 58.331Z" fill="#FFB98D"/>
<path d="M35.4594 20.3997C21.5733 20.3997 10.3164 32.2881 10.3164 46.9523C10.3148 56.7055 13.872 65.6539 19.0948 73.5351L22.0311 73.717C17.1096 66.0425 13.7829 57.3936 13.7844 47.9861C13.7844 33.3219 25.0413 21.4335 38.9274 21.4335C42.8842 21.4335 46.3785 21.9372 49.4229 22.693C45.6728 21.3905 41.023 20.3997 35.4594 20.3997Z" fill="#F5F9FB"/>
<path d="M84.0104 21.0901C70.6691 21.0901 62.5448 26.6819 59.9004 28.8319C61.4512 29.9257 62.3354 30.7446 62.3354 30.7446C62.3354 30.7446 71.0054 22.1239 87.4784 22.1239C89.1695 22.1239 90.8188 22.3064 92.4162 22.6425C89.7845 21.6553 86.9628 21.0901 84.0104 21.0901Z" fill="#F5F9FB"/>
<path d="M38.0603 47.9861C36.139 47.9861 34.5923 49.524 34.5923 51.4344V54.8827C34.5923 52.9723 33.0456 51.4344 31.1243 51.4344C29.203 51.4344 27.6563 52.9723 27.6563 54.8827C27.6825 61.2219 27.6825 65.8407 27.7022 72.1511C27.7006 72.1503 27.6563 72.1241 27.6563 72.1241V64.3655C27.6563 61.9775 25.7229 60.0551 23.3213 60.0551C20.9197 60.0551 18.9862 61.9775 18.9863 64.3655V72.1241C18.9871 82.8998 27.7545 91.0898 27.7545 96.2622V97.9863L27.7676 97.9596H27.771H48.4672C48.4672 91.1493 55.4033 89.4249 55.4033 74.0573V61.7792C55.4033 59.8689 53.8565 58.3309 51.9352 58.3309C50.0141 58.3309 48.4672 59.8689 48.4672 61.7792V53.244C48.4672 51.3337 46.9206 49.7957 44.9993 49.7957C43.078 49.7957 41.5313 51.3337 41.5313 53.244V51.4344C41.5313 49.524 39.9845 47.9861 38.0632 47.9861H38.0603Z" fill="#FFD1B5"/>
<path d="M47.1 75.5455C46.2718 90.915 32.6476 94.9933 27.7246 95.9659C27.7305 96.0635 27.7574 96.1667 27.7574 96.2623V97.9864L27.7705 97.9597H27.774H48.47C48.47 91.3816 54.9206 89.5114 55.362 75.5458L47.1 75.5455Z" fill="#FFB98D"/>
<path d="M23.3213 60.0551C20.9197 60.0551 18.9862 61.9775 18.9863 64.3654V72.1241C18.9871 82.8997 27.7545 91.0897 27.7545 96.2622V99.7104H30.9104C30.9104 94.8774 30.8291 94.237 30.1692 92.5074C27.848 87.4436 22.4549 80.5858 22.4543 72.1241V64.3654C22.4542 62.5922 23.5231 61.0787 25.0553 60.4154C24.5238 60.1854 23.9396 60.0551 23.3213 60.0551Z" fill="#F5F9FB"/>
<path d="M34.5926 66.9517V54.8827C34.5926 52.9723 33.0459 51.4344 31.1246 51.4344C30.4882 51.4344 29.9021 51.6142 29.3906 51.9092C30.4238 52.505 31.1246 53.605 31.1246 54.8827V63.5303C31.1246 66.9517 32.8586 66.9517 34.5926 66.9517Z" fill="#FFB98D"/>
<path d="M41.5282 68.6758V51.4344C41.5282 49.524 39.9814 47.9861 38.0602 47.9861C37.4238 47.9861 36.8377 48.1659 36.3262 48.4609C37.3593 49.0567 38.0602 50.1567 38.0602 51.4344V65.2545C38.0602 68.6758 39.7942 68.6758 41.5282 68.6758Z" fill="#FFB98D"/>
<path d="M48.4637 72.1241V53.244C48.4637 51.3337 46.917 49.7957 44.9958 49.7957C44.3594 49.7957 43.7732 49.9755 43.2617 50.2705C44.2948 50.8663 44.9958 51.9663 44.9958 53.244V68.7028C44.9958 72.1241 46.7297 72.1241 48.4637 72.1241Z" fill="#FFB98D"/>
<path d="M34.591 84.1931C34.591 77.2965 27.6549 72.1241 27.6549 72.1241V64.3654C27.6549 61.9775 25.7216 60.0551 23.32 60.0551C22.702 60.0551 22.1172 60.1854 21.5859 60.4154C23.1181 61.0787 24.187 62.5922 24.187 64.3654V73.8482C24.187 73.8482 29.8954 76.6862 30.9548 82.3622C31.4549 84.2168 33.3967 84.1931 34.591 84.1931Z" fill="#FFB98D"/>
<path d="M51.9321 58.3309C51.2957 58.3309 50.7096 58.5107 50.1981 58.8057C51.2312 59.4015 51.9321 60.5015 51.9321 61.7792V74.057C51.9321 89.4247 44.9961 91.149 44.9961 97.9594H48.464C48.464 91.149 55.4001 89.4247 55.4001 74.057V61.7792C55.4001 59.8689 53.8533 58.3309 51.9321 58.3309Z" fill="#FFB98D"/>
<path d="M74.4727 104.883V97.9864H95.2807V104.883H74.4727Z" fill="#E4EFF8"/>
<path d="M93.307 97.9864C90.3036 103.159 77.7972 102.501 74.4727 102.501V104.883H95.2807V97.9864H93.307Z" fill="#C4DCF0"/>
<path d="M25.9219 104.883V97.9864H46.7299V104.883H25.9219Z" fill="#E4EFF8"/>
<path d="M44.7562 97.9864C41.7529 103.159 29.2464 102.501 25.9219 102.501V104.883H46.7299V97.9864H44.7562Z" fill="#C4DCF0"/>
<path d="M48.4648 94.5381V87.6415H72.7409V94.5381H48.4648Z" fill="#E4EFF8"/>
<path d="M69.2715 104.021H97.0155V120.582H69.2715V104.021Z" fill="#427096"/>
<path d="M69.2715 104.021V120.4H77.9415V104.021H69.2715Z" fill="#365B7A"/>
<path d="M94.2011 104.021C90.925 118.59 76.2075 116.952 69.2715 116.952V120.582H97.0155V104.021H94.2011Z" fill="#365B7A"/>
<path d="M24.1895 104.021H46.7314V120.582H24.1895V104.021Z" fill="#427096"/>
<path d="M43.9171 104.021C40.641 118.59 25.9234 116.952 24.1895 116.952V120.582H46.7314V104.021H43.9171Z" fill="#365B7A"/>
<path d="M46.7305 94.5381H74.4744V120.4H46.7305V94.5381Z" fill="#427096"/>
<path d="M71.6601 94.5381C67.6436 112.4 53.3706 116.049 46.7305 116.77V120.4H74.4744V94.5381H71.6601Z" fill="#365B7A"/>
<path d="M70.7672 87.6415C67.7639 92.8139 51.7893 92.1565 48.4648 92.1565V94.5381H72.7409V87.6415H70.7672Z" fill="#C4DCF0"/>
<path d="M95.2614 66.9517C95.88 90.3613 74.4262 97.8603 74.0605 97.9864H91.3328C91.3328 91.176 98.2688 89.4517 98.2688 74.084V66.9517H95.2614Z" fill="#FFB98D"/>
<path d="M74.4727 97.9864V104.883H77.9407V97.9864H74.4727Z" fill="#C4DCF0"/>
<path d="M60.6033 35.9171C58.682 35.9171 57.1353 37.455 57.1353 39.3653V42.8136C57.1353 40.9033 55.5886 39.3653 53.6673 39.3653C51.746 39.3653 50.1993 40.9033 50.1993 42.8136C50.2255 49.1529 50.2255 55.4958 50.2452 61.8062C50.2436 61.8054 50.1993 61.7793 50.1993 61.7793V54.0206C50.1993 51.6327 48.2659 49.7103 45.8643 49.7103C43.4627 49.7103 41.5292 51.6327 41.5293 54.0206V61.7793C41.5301 72.5549 50.2975 80.7449 50.2975 85.9174V87.6415L50.3106 87.6148H50.3141H71.0102C71.0102 80.8044 77.9462 79.0801 77.9462 63.7124V51.4344C77.9462 49.524 76.3994 47.9861 74.4782 47.9861C72.557 47.9861 71.0102 49.524 71.0102 51.4344V44.5378C71.0102 42.6274 69.4635 41.0895 67.5422 41.0895C65.6209 41.0895 64.0742 42.6274 64.0742 44.5378V39.3653C64.0742 37.455 62.5275 35.9171 60.6062 35.9171H60.6033Z" fill="#FFD1B5"/>
<path d="M45.8643 49.7102C43.4627 49.7102 41.5292 51.6326 41.5293 54.0206V61.7792C41.5301 72.5548 50.2975 80.7449 50.2975 85.9173V89.3656H53.4534C53.4534 84.5325 53.3722 83.8922 52.7123 82.1626C50.391 77.0988 44.9979 70.241 44.9973 61.7792V54.0206C44.9972 52.2474 46.066 50.7338 47.5983 50.0705C47.0668 49.8406 46.4826 49.7102 45.8643 49.7102Z" fill="#F5F9FB"/>
<path d="M57.1336 56.6068V42.8136C57.1336 40.9032 55.5869 39.3653 53.6656 39.3653C53.0293 39.3653 52.4432 39.5451 51.9316 39.8401C52.9648 40.4359 53.6656 41.5359 53.6656 42.8136V53.1854C53.6656 56.6068 55.3997 56.6068 57.1336 56.6068Z" fill="#FFB98D"/>
<path d="M64.0692 58.331V39.3653C64.0692 37.455 62.5225 35.9171 60.6012 35.9171C59.9649 35.9171 59.3787 36.0969 58.8672 36.3919C59.9003 36.9877 60.6012 38.0876 60.6012 39.3654V54.9096C60.6012 58.331 62.3352 58.331 64.0692 58.331Z" fill="#FFB98D"/>
<path d="M71.0067 61.7792V44.5378C71.0067 42.6274 69.4599 41.0895 67.5387 41.0895C66.9023 41.0895 66.3162 41.2693 65.8047 41.5643C66.8378 42.1601 67.5387 43.2601 67.5387 44.5378V58.3579C67.5387 61.7792 69.2726 61.7792 71.0067 61.7792Z" fill="#FFB98D"/>
<path d="M57.1339 73.8483C57.1339 66.9517 50.198 61.7792 50.198 61.7792V54.0206C50.198 51.6326 48.2646 49.7102 45.8629 49.7102C45.2449 49.7102 44.6601 49.8405 44.1289 50.0705C45.6612 50.7338 46.7299 52.2474 46.7299 54.0206V63.5034C46.7299 63.5034 52.4383 66.3414 53.4978 72.0174C53.9979 73.872 55.9397 73.8483 57.1339 73.8483Z" fill="#FFB98D"/>
<path d="M74.475 47.986C73.8387 47.986 73.2526 48.1658 72.7411 48.4608C73.7742 49.0566 74.475 50.1566 74.475 51.4343V63.7121C74.475 79.0798 67.5391 80.8041 67.5391 87.6145H71.0071C71.0071 80.8041 77.9431 79.0798 77.9431 63.7121V51.4343C77.9431 49.524 76.3963 47.986 74.475 47.986Z" fill="#FFB98D"/>
<path d="M74.4746 47.986C74.4222 47.986 74.3691 48.0004 74.3153 48.0029C74.2223 48.9457 74.2695 50.0784 74.4746 51.4343C78.6677 78.9084 54.1256 87.4796 53.7344 87.6145H71.0066C71.0066 80.8041 77.9426 79.0798 77.9426 63.7121V51.4343C77.9426 49.524 76.3958 47.986 74.4746 47.986Z" fill="#FFB98D"/>
<path d="M29.4215 37.7299C26.9977 40.14 23.7824 40.8504 22.24 39.3167C20.6975 37.7831 21.4121 34.586 23.8359 32.176C26.2597 29.7659 29.475 29.0555 31.0174 30.5892C32.5599 32.1228 31.8454 35.3198 29.4215 37.7299Z" fill="#FF8D8D"/>
<path d="M35.0352 29.6831C34.0774 30.3025 32.9795 30.3133 32.5831 29.7072C32.1867 29.1012 32.6418 28.1077 33.5996 27.4883C34.5575 26.8689 35.6553 26.8581 36.0518 27.4642C36.4482 28.0702 35.9931 29.0637 35.0352 29.6831Z" fill="#FF8D8D"/>
<path d="M25.9221 96.2622C24.9644 96.2586 24.1851 97.0274 24.1813 97.9796V103.162C23.2289 103.166 22.4579 103.933 22.4541 104.88V120.394C22.4504 121.346 23.2237 122.121 24.1813 122.124H97.0195C97.9771 122.121 98.7503 121.346 98.7467 120.394V104.88C98.7429 103.933 97.9718 103.166 97.0195 103.162V97.9796C97.0156 97.0274 96.2363 96.2585 95.2787 96.2622H93.7411C94.1822 94.2845 95.3785 92.6247 96.8128 89.9751C98.2379 87.3427 99.6168 84.0569 100.196 79.1453C107.314 70.0212 112.637 59.137 112.622 46.9455C112.616 31.4099 100.619 18.6755 85.7417 18.6755C71.2033 18.6755 62.5 25.175 60.6021 26.744C58.7041 25.175 50.0009 18.6755 35.4625 18.6755C20.5852 18.6755 8.58862 31.4099 8.58207 46.9455C8.56896 56.9262 12.1456 66.0185 17.3469 73.9964C17.7782 79.0518 19.862 83.4378 21.8512 87.106C24.0823 91.2203 26.0236 94.2436 26.0236 96.2605L25.9221 96.2622ZM59.3727 30.2462C59.7115 30.5846 60.1571 30.7547 60.6021 30.7547C61.0471 30.7547 61.4925 30.5846 61.8314 30.2462C61.8314 30.2462 70.0532 22.1272 85.7417 22.1272C98.6325 22.1272 109.154 33.1688 109.154 46.9556C109.167 56.3948 105.66 65.0902 100.484 72.8246V61.7826C100.484 58.9469 98.1915 56.6034 95.2787 56.6034C94.6712 56.6034 94.0951 56.7285 93.5515 56.9233V56.6034C93.5515 53.7677 91.2454 51.4343 88.3393 51.4343C87.7272 51.4343 87.1541 51.561 86.6121 51.7509V51.4276C86.6121 48.5919 84.3094 46.2619 81.4033 46.2619C80.0546 46.2619 78.8514 46.7771 77.9353 47.5988C77.0186 46.7784 75.8185 46.2619 74.4707 46.2619C73.8618 46.2619 73.2847 46.3861 72.74 46.5818V44.5343C72.74 41.6986 70.4374 39.3653 67.5313 39.3653C66.9198 39.3653 66.3452 39.4892 65.8041 39.6784V39.3585C65.8041 36.5228 63.5014 34.1928 60.5953 34.1928C58.1677 34.1928 56.1887 35.8261 55.5965 38.0149C54.9994 37.7788 54.3525 37.6378 53.6661 37.6378C50.7599 37.6378 48.4674 39.9711 48.4674 42.8068V48.6022C47.6718 48.2205 46.792 47.986 45.8563 47.986C44.6601 47.986 43.5485 48.3465 42.605 48.9491C41.7236 47.3583 40.0432 46.2618 38.0601 46.2618C35.6324 46.2618 33.6534 47.8951 33.0613 50.0839C32.4642 49.8478 31.8172 49.7068 31.1309 49.7068C28.2248 49.7068 25.9356 52.0401 25.9356 54.8758V58.9437C25.1393 58.5612 24.2577 58.3309 23.3211 58.3309C19.9888 58.3309 17.2553 61.0486 17.2554 64.362V66.9954C14.0476 60.801 12.0414 54.0898 12.0501 46.9555C12.0501 33.1687 22.5716 22.1271 35.4625 22.1272C51.1509 22.1272 59.3727 30.2462 59.3727 30.2462ZM76.2081 63.6517C76.2081 71.0775 74.5366 75.0568 72.9467 77.9937C71.5292 80.6123 69.8611 82.8344 69.4042 85.914H52.0269C52.0269 82.6833 49.5963 79.1025 47.4447 75.1347C45.293 71.167 43.259 66.7057 43.2587 61.7827C43.2608 59.1526 43.2719 56.5433 43.2719 53.9126C43.3243 52.5045 44.4256 51.4342 45.8593 51.4342C47.3303 51.4342 48.4704 52.5578 48.4704 54.0204V61.7824C48.4716 62.435 48.8453 63.03 49.4323 63.3213C49.4323 63.3213 55.4098 66.37 55.4098 72.1172C55.4557 74.4478 58.8507 74.4213 58.8643 72.1172C58.8643 65.3606 53.2993 61.6421 51.9385 60.789C51.9413 54.7947 51.9419 48.8027 51.9419 42.8066C51.9419 41.8217 52.7259 41.0892 53.6692 41.0892C54.5949 41.0892 55.371 41.7986 55.3997 42.7561V54.8824C55.3997 57.1818 58.8678 57.1818 58.8678 54.8824C58.8872 49.6124 58.8689 43.9606 58.8678 39.358C58.8678 38.373 59.6551 37.6406 60.5968 37.6409C61.5385 37.6412 62.336 38.3736 62.336 39.3586V54.8759V56.6068C62.336 58.9062 65.8041 58.9062 65.8041 56.6068V44.5344C65.8041 43.5494 66.5881 42.817 67.5313 42.817C68.4745 42.817 69.2721 43.5494 69.2721 44.5344V60.0483C69.2721 62.3478 72.74 62.3478 72.74 60.0483V51.4411C72.74 50.4561 73.5276 49.7102 74.4707 49.7102C75.408 49.7102 76.195 50.4482 76.2047 51.426C76.2082 55.4973 76.2081 59.4302 76.2081 63.6517ZM24.9062 85.4761C22.7546 81.5084 20.7206 77.0505 20.7202 72.1275V64.3621C20.7202 62.8996 21.8469 61.7792 23.3179 61.7792C24.7888 61.7792 25.929 62.8995 25.929 64.3621V72.1275C25.9302 72.7801 26.3032 73.3751 26.8908 73.6664C26.8908 73.6664 32.8684 76.7151 32.8684 82.4622C32.9143 84.7928 36.3093 84.7664 36.3228 82.4622C36.3228 75.7056 30.7612 71.9871 29.4004 71.1341C29.4004 65.7147 29.4004 60.2953 29.4004 54.8759C29.4004 53.8909 30.1844 53.1585 31.1277 53.1585C32.0534 53.1585 32.8295 53.8679 32.8582 54.8254V66.9517C32.8582 69.2511 36.3296 69.2511 36.3296 66.9517C36.3339 62.925 36.3363 58.905 36.3363 54.8757C36.3363 54.8529 36.3299 54.8314 36.3296 54.8084V51.4274C36.3296 50.4424 37.1136 49.71 38.0585 49.7101C39.0033 49.7102 39.8008 50.4426 39.8008 51.4276V53.9195C39.8002 53.9541 39.7876 53.986 39.7876 54.0205V61.7826C39.7881 67.6352 42.1489 72.6502 44.38 76.7645C46.6112 80.8787 48.5559 83.8987 48.5559 85.9139H48.4642C47.4999 85.9103 46.7179 86.6894 46.7234 87.6482V92.8139C45.771 92.8177 45 93.5844 44.9962 94.5313V96.2622L29.4884 96.2604C29.4884 93.028 27.0578 89.4438 24.9062 85.4761ZM81.4033 49.7101C82.3465 49.7102 83.1441 50.4426 83.1441 51.4276V68.6691C83.1441 70.9685 86.6121 70.9685 86.6121 68.6691V56.6034C86.6121 55.6184 87.3961 54.886 88.3393 54.886C89.2825 54.886 90.0801 55.6184 90.0801 56.6034V70.4C90.0801 71.8371 91.4379 72.3756 92.4542 72.0164C93.0637 71.8008 93.5515 71.2622 93.5515 70.4V61.7826C93.5515 60.7976 94.3356 60.0517 95.2787 60.0517C96.2218 60.0517 97.0161 60.7976 97.0161 61.7826V73.9998C97.0161 81.4257 95.3445 85.4083 93.7546 88.3452C92.3375 90.963 90.6697 93.184 90.2122 96.2622H76.2047V94.5313C76.2008 93.5844 75.4298 92.8177 74.4774 92.8139V87.6482C74.4826 86.7562 73.7972 86.0462 72.9263 85.951C73.3608 83.9571 74.5617 82.2894 76.0048 79.6235C77.8783 76.1627 79.6761 71.5933 79.6761 63.6515C79.6761 59.4861 79.6761 55.5112 79.6761 51.4343C79.6761 50.4425 80.46 49.71 81.4033 49.7101ZM50.1947 89.3656H50.2727C50.2858 89.3657 50.2989 89.3657 50.312 89.3656H71.0082V92.8139H50.1934L50.1947 89.3656ZM48.4674 96.2622H72.7367V118.676H48.4674V96.2622ZM27.6493 99.7138H44.9961V103.162H27.6493V99.7138ZM76.2047 99.7138H93.5515V103.162H76.2047V99.7138ZM25.922 106.61H44.9995V118.676H25.922V106.61ZM76.2047 106.61H95.2787V118.676H76.2047V106.61Z" fill="#333333"/>
</g>
</g>
<defs>
<clipPath id="clip0_10988_14975">
<rect width="120" height="120" fill="white"/>
</clipPath>
</defs>
</svg>
