<svg width="152" height="152" viewBox="0 0 152 152" fill="none" xmlns="http://www.w3.org/2000/svg">
<g clip-path="url(#clip0_10954_13626)">
<path d="M75.735 152.47C111.487 152.47 140.47 123.487 140.47 87.735C140.47 51.9828 111.487 23 75.735 23C39.9828 23 11 51.9828 11 87.735C11 123.487 39.9828 152.47 75.735 152.47Z" fill="#1F2847"/>
<path d="M123.5 68.875C135.305 68.875 144.875 59.3051 144.875 47.5C144.875 35.6949 135.305 26.125 123.5 26.125C111.695 26.125 102.125 35.6949 102.125 47.5C102.125 59.3051 111.695 68.875 123.5 68.875Z" fill="#FF8088"/>
<path d="M135.375 42.75H128.25V35.625H118.75V42.75H111.625V52.25H118.75V59.375H128.25V52.25H135.375V42.75Z" fill="#EAEAEA"/>
<path d="M28.5 68.875C40.3051 68.875 49.875 59.3051 49.875 47.5C49.875 35.6949 40.3051 26.125 28.5 26.125C16.6949 26.125 7.125 35.6949 7.125 47.5C7.125 59.3051 16.6949 68.875 28.5 68.875Z" fill="#90D2FC"/>
<path d="M21.375 45.125H35.625V57H21.375V45.125Z" fill="#EAEAEA"/>
<path d="M28.5 35.625L16.625 45.125H40.375L28.5 35.625Z" fill="#FF8088"/>
<path d="M76 47.5C87.8051 47.5 97.375 37.9301 97.375 26.125C97.375 14.3199 87.8051 4.75 76 4.75C64.1949 4.75 54.625 14.3199 54.625 26.125C54.625 37.9301 64.1949 47.5 76 47.5Z" fill="#FFE990"/>
<path d="M76 23.75C74.689 23.75 73.625 22.6836 73.625 21.375C73.625 20.0664 74.689 19 76 19C77.311 19 78.375 20.0664 78.375 21.375H83.125C83.125 18.2828 81.1324 15.6702 78.375 14.687V11.875H73.625V14.687C70.8676 15.6702 68.875 18.2828 68.875 21.375C68.875 25.3033 72.0717 28.5 76 28.5C77.311 28.5 78.375 29.5664 78.375 30.875C78.375 32.1836 77.311 33.25 76 33.25C74.689 33.25 73.625 32.1836 73.625 30.875H68.875C68.875 33.9673 70.8676 36.5798 73.625 37.563V40.375H78.375V37.563C81.1324 36.5798 83.125 33.9673 83.125 30.875C83.125 26.9467 79.9283 23.75 76 23.75Z" fill="#A8A8A8"/>
<mask id="mask0_10954_13626" style="mask-type:alpha" maskUnits="userSpaceOnUse" x="-9" y="3" width="164" height="149">
<path d="M73 3C27.7127 3 -9 36.3548 -9 77.5C-9 104.65 10.6108 125.992 34.5 139C34.5 139 41.5 149 73 152C87.5248 152 100 149.5 112 142.5C134.5 128.45 155 105.449 155 77.5C155 36.3548 118.287 3 73 3Z" fill="#1F2847"/>
</mask>
<g mask="url(#mask0_10954_13626)">
<path d="M51.8658 115.089C51.8634 115.084 43.2588 102.929 43.2588 102.929C42.4251 101.751 41.0714 101.05 39.6274 101.05C36.319 101.05 34.1696 104.53 35.6493 107.489L38.5183 113.935L28.9518 110.902L22.3754 97.7515L20.6891 91.0041C20.2213 89.1279 18.3403 87.9024 16.3548 88.3418C14.4405 88.7645 13.2958 90.7643 13.6188 92.6999L15.1459 101.863L8.89251 94.569C7.41526 92.8471 4.88588 92.498 2.99776 93.7568C0.903005 95.1533 0.368631 97.9985 1.81026 100.06L15.4736 119.58C15.6921 119.894 15.9486 120.179 16.236 120.43C19.371 123.174 22.5084 125.919 25.6434 128.662C29.0064 131.605 35.1078 135.082 34.7468 140.103C34.6256 141.822 34.4356 143.537 34.2504 145.252H55.6254C55.1124 135.198 58.1785 123.974 51.8658 115.089Z" fill="#E6C197"/>
<path d="M51.8658 115.089C51.8634 115.084 43.2588 102.929 43.2588 102.929C42.4251 101.751 41.0714 101.05 39.6274 101.05C36.319 101.05 34.1696 104.53 35.6493 107.489L38.5183 113.935L21.6985 108.603C20.948 108.323 20.2806 107.855 19.7605 107.247L8.89251 94.5691C7.41526 92.8472 4.88588 92.4981 2.99776 93.7569C0.903005 95.1534 0.368631 97.9986 1.81026 100.06L15.4736 119.58C15.6921 119.894 15.9486 120.179 16.236 120.43C19.371 123.174 22.5084 125.919 25.6434 128.662C29.0064 131.605 35.1078 135.082 34.7468 140.103C34.6256 141.822 34.4356 143.537 34.2504 145.252L55.6254 149.252C55.1124 139.198 58.1785 123.974 51.8658 115.089Z" fill="#FFDBAC"/>
<path d="M148.86 93.7545C146.971 92.4957 144.442 92.8448 142.965 94.5667L136.714 101.86L138.241 92.6976C138.564 90.7643 137.419 88.7622 135.505 88.3394C133.517 87.9001 131.638 89.1256 131.171 91.0018L129.482 97.7516L122.906 110.902L113.339 113.935L116.208 107.489C117.688 104.532 115.536 101.05 112.23 101.05C110.786 101.05 109.432 101.751 108.599 102.929C108.599 102.929 99.9963 115.087 99.9916 115.089C93.6788 123.974 96.745 135.198 96.232 145.252H117.607C117.422 143.537 117.232 141.822 117.108 140.103C116.747 135.082 122.849 131.605 126.212 128.662C129.347 125.919 132.484 123.174 135.619 120.43C135.906 120.179 136.163 119.894 136.381 119.58L150.045 100.06C151.489 97.9962 150.954 95.151 148.86 93.7545Z" fill="#E6C197"/>
<path d="M99.9916 115.089C99.994 115.084 108.599 102.929 108.599 102.929C109.432 101.751 110.786 101.05 112.23 101.05C115.538 101.05 117.688 104.53 116.208 107.489L113.339 113.935L130.159 108.603C130.909 108.323 131.577 107.855 132.097 107.247L142.965 94.5667C144.442 92.8448 146.971 92.4957 148.86 93.7544C150.954 95.1509 151.489 97.9962 150.047 100.058L136.384 119.578C136.165 119.891 135.909 120.176 135.621 120.428C132.486 123.171 129.349 125.917 126.214 128.66C122.851 131.602 116.75 135.079 117.111 140.1C117.232 141.822 117.422 143.537 117.607 145.252L96.232 149.252C96.745 139.198 93.6788 123.974 99.9916 115.089Z" fill="#FFDBAC"/>
</g>
<path d="M76 78.375C82.5584 78.375 87.875 73.0584 87.875 66.5C87.875 59.9416 82.5584 54.625 76 54.625C69.4416 54.625 64.125 59.9416 64.125 66.5C64.125 73.0584 69.4416 78.375 76 78.375Z" fill="#FFD6A8"/>
<path d="M87.813 65.8778C87.4829 59.6149 82.3458 54.625 75.9998 54.625C69.6538 54.625 64.5166 59.6149 64.1865 65.8778C67.4355 63.3056 71.5277 61.75 75.9998 61.75C80.4719 61.75 84.564 63.3056 87.813 65.8778Z" fill="#999999"/>
<path d="M92.625 111.625H59.375V92.625C59.375 84.7543 65.7543 78.375 73.625 78.375H78.375C86.2458 78.375 92.625 84.7543 92.625 92.625V111.625Z" fill="#DBDBDB"/>
<path d="M76 78.375L71.25 95L76 102.125L80.75 95L76 78.375Z" fill="#A8A8A8"/>
</g>
<defs>
<clipPath id="clip0_10954_13626">
<rect width="152" height="152" fill="white"/>
</clipPath>
</defs>
</svg>
